<svg width="26" height="27" viewBox="0 0 26 27" fill="none" xmlns="http://www.w3.org/2000/svg">
<g clip-path="url(#clip0_1_99)">
<path d="M25.7739 4.43752C25.7739 3.4241 25.3717 2.45212 24.6556 1.73504C23.9395 1.01796 22.968 0.614407 21.9546 0.613037H3.81931C2.80631 0.61577 1.83566 1.01975 1.11984 1.73654C0.404022 2.45332 0.00136339 3.42451 0 4.43752V22.5676C0.00136736 23.5802 0.40419 24.5508 1.12015 25.2668C1.83612 25.9828 2.80678 26.3856 3.81931 26.3869H15.3755V23.4359H21.0605C21.5197 23.4359 21.9601 23.2535 22.2847 22.9288C22.6094 22.6041 22.7919 22.1637 22.7919 21.7045V15.8696H25.7842L25.7739 4.43752ZM15.7321 15.7818V10.6652C15.7321 10.254 15.5687 9.85965 15.2779 9.56888C14.9872 9.27811 14.5928 9.11476 14.1816 9.11476H10.0315C9.62031 9.11476 9.22593 9.27811 8.93516 9.56888C8.64439 9.85965 8.48105 10.254 8.48105 10.6652V14.836C8.48105 15.2472 8.64439 15.6416 8.93516 15.9323C9.22593 16.2231 9.62031 16.3864 10.0315 16.3864H15.1377V23.3067H3.81931C3.62878 23.3067 3.44606 23.231 3.31133 23.0963C3.17661 22.9616 3.10093 22.7788 3.10093 22.5883V4.43752C3.10093 4.24651 3.17644 4.06326 3.31102 3.92771C3.44559 3.79217 3.62831 3.71533 3.81931 3.71397H21.9546C22.1456 3.71533 22.3283 3.79217 22.4629 3.92771C22.5975 4.06326 22.673 4.24651 22.673 4.43752V15.7818H15.7321Z" fill="#1B84FF"/>
</g>
<defs>
<clipPath id="clip0_1_99">
<rect width="25.7739" height="25.7739" fill="white" transform="translate(0 0.613037)"/>
</clipPath>
</defs>
</svg>
