<svg width="24" height="24" viewBox="0 0 24 24" fill="none" xmlns="http://www.w3.org/2000/svg">
<g clip-path="url(#clip0_696_369)">
<path d="M24 3.99998H0V20.0002H24V3.99998Z" fill="#F0F0F0"/>
<path d="M13.5 3.99985H10.5V10.4998H0V13.4998H10.5V19.9998H13.5V13.4998H24V10.4998H13.5V3.99985Z" fill="#D80027"/>
<path d="M18.4609 14.7824L24.0023 17.861V14.7824H18.4609Z" fill="#0052B4"/>
<path d="M14.6094 14.7824L24.0007 19.9998V18.5244L17.2651 14.7824H14.6094Z" fill="#0052B4"/>
<path d="M21.4992 19.9998L14.6094 16.1718V19.9998H21.4992Z" fill="#0052B4"/>
<path d="M14.6094 14.7824L24.0007 19.9998V18.5244L17.2651 14.7824H14.6094Z" fill="#F0F0F0"/>
<path d="M14.6094 14.7824L24.0007 19.9998V18.5244L17.2651 14.7824H14.6094Z" fill="#D80027"/>
<path d="M4.23473 14.7823L0 17.135V14.7823H4.23473Z" fill="#0052B4"/>
<path d="M9.39173 15.4458V19.9997H1.19531L9.39173 15.4458Z" fill="#0052B4"/>
<path d="M6.73561 14.7824L0 18.5244V19.9998L9.39131 14.7824H6.73561Z" fill="#D80027"/>
<path d="M5.54133 9.21722L0 6.13866V9.21722H5.54133Z" fill="#0052B4"/>
<path d="M9.39131 9.21722L0 3.99985V5.47519L6.73561 9.21722H9.39131Z" fill="#0052B4"/>
<path d="M2.5 3.99985L9.38978 7.82785V3.99985H2.5Z" fill="#0052B4"/>
<path d="M9.39131 9.21722L0 3.99985V5.47519L6.73561 9.21722H9.39131Z" fill="#F0F0F0"/>
<path d="M9.39131 9.21722L0 3.99985V5.47519L6.73561 9.21722H9.39131Z" fill="#D80027"/>
<path d="M19.7656 9.21732L24.0004 6.86466V9.21732H19.7656Z" fill="#0052B4"/>
<path d="M14.6094 8.55385V3.99989H22.8058L14.6094 8.55385Z" fill="#0052B4"/>
<path d="M17.2651 9.21722L24.0007 5.47519V3.99985L14.6094 9.21722H17.2651Z" fill="#D80027"/>
</g>
<defs>
<clipPath id="clip0_696_369">
<rect width="24" height="24" fill="white"/>
</clipPath>
</defs>
</svg>
