<svg width="18" height="18" viewBox="0 0 18 18" fill="none" xmlns="http://www.w3.org/2000/svg">
<g clip-path="url(#clip0_91_614)">
<path d="M9 18C13.9704 18 18 13.97 18 9C18 4.02996 13.9707 0 9 0C4.02926 0 0 4.02996 0 9C0 13.97 4.02961 18 9 18Z" fill="#F0F0F0"/>
<path fill-rule="evenodd" clip-rule="evenodd" d="M9.26244e-07 9.00002C-0.000767165 10.6928 0.476186 12.3515 1.37603 13.7853C2.27587 15.2191 3.56207 16.3699 5.08676 17.1053V0.895447C2.07668 2.35056 9.26244e-07 5.43025 9.26244e-07 9.00002ZM18 9.00002C18.0006 7.30731 17.5235 5.64879 16.6236 4.2151C15.7237 2.78142 14.4375 1.63078 12.9129 0.895447V17.1053C14.4376 16.3699 15.7239 15.2192 16.6238 13.7853C17.5237 12.3515 18.0007 10.6928 18 9.00002ZM12.1289 9.39025L10.5638 10.1753L10.9547 10.9554H9.39094V12.1289H8.60836V10.9554H7.04356L7.4352 10.1753L5.8711 9.39025L6.65262 9.00002V8.21533L8.21778 9.00002L7.4352 7.43556H8.21778L9 6.26064L9.78258 7.43556H10.5652L9.78293 9.00002L11.3484 8.21498V9.00002L12.1289 9.39025Z" fill="#D80027"/>
</g>
<defs>
<clipPath id="clip0_91_614">
<rect width="18" height="18" fill="white"/>
</clipPath>
</defs>
</svg>
