<svg width="38" height="39" viewBox="0 0 38 39" fill="none" xmlns="http://www.w3.org/2000/svg">
<g clip-path="url(#clip0_7_453)">
<path d="M38 6.25169C38 4.75755 37.407 3.3245 36.3512 2.26727C35.2954 1.21003 33.8631 0.615056 32.3689 0.613037H5.63103C4.1375 0.617067 2.70642 1.21268 1.65104 2.26948C0.595673 3.32628 0.00201013 4.75816 0 6.25169V32.982C0.00201597 34.4748 0.595921 35.9059 1.65151 36.9615C2.7071 38.0171 4.1382 38.611 5.63103 38.613H22.6689V34.2621H31.0507C31.7277 34.2621 32.377 33.9932 32.8557 33.5145C33.3344 33.0358 33.6034 32.3865 33.6034 31.7095V23.1067H38.0152L38 6.25169ZM23.1947 22.9772V15.4336C23.1947 14.8273 22.9539 14.2459 22.5252 13.8172C22.0965 13.3885 21.515 13.1476 20.9088 13.1476H14.7901C14.1838 13.1476 13.6023 13.3885 13.1736 13.8172C12.7449 14.2459 12.5041 14.8273 12.5041 15.4336V21.5827C12.5041 22.189 12.7449 22.7705 13.1736 23.1992C13.6023 23.6279 14.1838 23.8687 14.7901 23.8687H22.3184V34.0716H5.63103C5.35012 34.0716 5.08072 33.96 4.88209 33.7614C4.68346 33.5628 4.57189 33.2934 4.57189 33.0125V6.25169C4.57188 5.97008 4.68321 5.6999 4.88163 5.50006C5.08004 5.30022 5.34943 5.18694 5.63103 5.18492H32.3689C32.6506 5.18694 32.9199 5.30022 33.1183 5.50006C33.3168 5.6999 33.4281 5.97008 33.4281 6.25169V22.9772H23.1947Z" fill="#1B84FF"/>
</g>
<defs>
<clipPath id="clip0_7_453">
<rect width="38" height="38" fill="white" transform="translate(0 0.613037)"/>
</clipPath>
</defs>
</svg>
