<svg width="78" height="27" viewBox="0 0 78 27" fill="none" xmlns="http://www.w3.org/2000/svg">
<g clip-path="url(#clip0_1_98)">
<path d="M25.7739 4.43752C25.7739 3.4241 25.3717 2.45212 24.6556 1.73504C23.9395 1.01796 22.968 0.614407 21.9546 0.613037H3.81931C2.80631 0.61577 1.83566 1.01975 1.11984 1.73654C0.404022 2.45332 0.00136339 3.42451 0 4.43752V22.5676C0.00136736 23.5802 0.40419 24.5508 1.12015 25.2668C1.83612 25.9828 2.80678 26.3856 3.81931 26.3869H15.3755V23.4359H21.0605C21.5197 23.4359 21.9601 23.2535 22.2847 22.9288C22.6094 22.6041 22.7919 22.1637 22.7919 21.7045V15.8696H25.7842L25.7739 4.43752ZM15.7321 15.7818V10.6652C15.7321 10.254 15.5687 9.85965 15.2779 9.56888C14.9872 9.27811 14.5928 9.11476 14.1816 9.11476H10.0315C9.62031 9.11476 9.22593 9.27811 8.93516 9.56888C8.64439 9.85965 8.48105 10.254 8.48105 10.6652V14.836C8.48105 15.2472 8.64439 15.6416 8.93516 15.9323C9.22593 16.2231 9.62031 16.3864 10.0315 16.3864H15.1377V23.3067H3.81931C3.62878 23.3067 3.44606 23.231 3.31133 23.0963C3.17661 22.9616 3.10093 22.7788 3.10093 22.5883V4.43752C3.10093 4.24651 3.17644 4.06326 3.31102 3.92771C3.44559 3.79217 3.62831 3.71533 3.81931 3.71397H21.9546C22.1456 3.71533 22.3283 3.79217 22.4629 3.92771C22.5975 4.06326 22.673 4.24651 22.673 4.43752V15.7818H15.7321Z" fill="#1B84FF"/>
</g>
<path d="M39.2984 21.2035C38.281 21.2035 37.3315 21.0136 36.4497 20.6337C35.568 20.2539 34.7948 19.7317 34.1301 19.067C33.4654 18.3887 32.9431 17.6087 32.5633 16.727C32.197 15.8317 32.0139 14.8753 32.0139 13.8579C32.0139 12.8405 32.197 11.891 32.5633 11.0092C32.9431 10.1275 33.4586 9.35426 34.1097 8.68956C34.7744 8.0113 35.5409 7.48904 36.409 7.12278C37.2908 6.74296 38.2403 6.55304 39.2577 6.55304C40.2751 6.55304 41.2179 6.74296 42.0861 7.12278C42.9678 7.48904 43.741 8.0113 44.4057 8.68956C45.0704 9.35426 45.5859 10.1343 45.9522 11.0296C46.332 11.9113 46.5219 12.8609 46.5219 13.8783C46.5219 14.8957 46.332 15.852 45.9522 16.7473C45.5859 17.629 45.0704 18.4023 44.4057 19.067C43.7546 19.7317 42.9882 20.2539 42.1064 20.6337C41.2383 21.0136 40.3023 21.2035 39.2984 21.2035ZM39.2577 18.9652C40.2209 18.9652 41.0619 18.7482 41.7809 18.3141C42.5134 17.88 43.0831 17.2831 43.4901 16.5235C43.9106 15.7503 44.1209 14.8617 44.1209 13.8579C44.1209 13.1118 43.9988 12.4336 43.7546 11.8231C43.524 11.1991 43.1916 10.6633 42.7576 10.2157C42.3235 9.75443 41.808 9.40174 41.2111 9.15756C40.6278 8.91339 39.9767 8.7913 39.2577 8.7913C38.3082 8.7913 37.4671 9.00835 36.7346 9.44243C36.0156 9.86296 35.4459 10.453 35.0254 11.2127C34.6184 11.9723 34.415 12.8541 34.415 13.8579C34.415 14.604 34.5303 15.2958 34.7609 15.9334C35.005 16.5574 35.3374 17.0932 35.7579 17.5409C36.192 17.9885 36.7075 18.3412 37.3043 18.599C37.9012 18.8431 38.5523 18.9652 39.2577 18.9652ZM48.5963 21V6.34956H50.8345V21H48.5963ZM53.3459 21V11.233H55.5842V21H53.3459ZM54.465 9.44243C54.0852 9.44243 53.7664 9.31356 53.5087 9.05583C53.2645 8.79809 53.1424 8.4793 53.1424 8.09948C53.1424 7.71965 53.2645 7.40087 53.5087 7.14313C53.7664 6.88539 54.0852 6.75652 54.465 6.75652C54.8584 6.75652 55.1772 6.88539 55.4214 7.14313C55.6656 7.40087 55.7876 7.71965 55.7876 8.09948C55.7876 8.4793 55.6656 8.79809 55.4214 9.05583C55.1772 9.31356 54.8584 9.44243 54.465 9.44243ZM61.3909 21L56.9348 11.233H59.4172L62.8153 19.189H61.3502L64.7687 11.233H67.1494L62.6932 21H61.3909ZM72.667 21.2035C71.6903 21.2035 70.8085 20.9864 70.0217 20.5523C69.2485 20.1047 68.6313 19.4943 68.1701 18.721C67.7224 17.9478 67.4986 17.0797 67.4986 16.1165C67.4986 15.1534 67.7224 14.292 68.1701 13.5323C68.6177 12.7591 69.2214 12.1487 69.981 11.701C70.7543 11.2534 71.6089 11.0296 72.5449 11.0296C73.4537 11.0296 74.2541 11.2398 74.9459 11.6603C75.6513 12.0809 76.2007 12.6574 76.5941 13.3899C77.001 14.1224 77.2045 14.9567 77.2045 15.8927C77.2045 16.0555 77.191 16.225 77.1638 16.4014C77.1503 16.5642 77.1231 16.7473 77.0824 16.9508H69.0654V15.1195H75.9226L75.0884 15.852C75.0612 15.2551 74.9459 14.7532 74.7424 14.3463C74.539 13.9393 74.2473 13.6273 73.8675 13.4103C73.5012 13.1932 73.0468 13.0847 72.5042 13.0847C71.9344 13.0847 71.4393 13.2068 71.0188 13.451C70.5983 13.6951 70.2727 14.041 70.0421 14.4887C69.8115 14.9228 69.6962 15.445 69.6962 16.0555C69.6962 16.6659 69.8183 17.2017 70.0624 17.663C70.3066 18.1242 70.6525 18.4837 71.1002 18.7414C71.5478 18.9856 72.0633 19.1077 72.6466 19.1077C73.1485 19.1077 73.6097 19.0195 74.0303 18.8431C74.4644 18.6668 74.8306 18.409 75.129 18.0699L76.5534 19.5146C76.0786 20.0708 75.5021 20.4913 74.8238 20.7762C74.1456 21.061 73.4266 21.2035 72.667 21.2035Z" fill="#0A1017"/>
<defs>
<clipPath id="clip0_1_98">
<rect width="25.7739" height="25.7739" fill="white" transform="translate(0 0.613037)"/>
</clipPath>
</defs>
</svg>
