<svg width="16" height="16" viewBox="0 0 16 16" fill="none" xmlns="http://www.w3.org/2000/svg">
<path d="M12.4726 5.47332C12.4106 5.41084 12.3368 5.36124 12.2556 5.32739C12.1744 5.29355 12.0872 5.27612 11.9992 5.27612C11.9112 5.27612 11.8241 5.29355 11.7428 5.32739C11.6616 5.36124 11.5879 5.41084 11.5259 5.47332L8.47256 8.52666C8.41058 8.58914 8.33685 8.63874 8.25561 8.67258C8.17437 8.70643 8.08723 8.72385 7.99923 8.72385C7.91122 8.72385 7.82408 8.70643 7.74284 8.67258C7.6616 8.63874 7.58787 8.58914 7.52589 8.52666L4.47256 5.47332C4.41058 5.41084 4.33685 5.36124 4.25561 5.32739C4.17437 5.29355 4.08723 5.27612 3.99923 5.27612C3.91122 5.27612 3.82408 5.29355 3.74284 5.32739C3.6616 5.36124 3.58787 5.41084 3.52589 5.47332C3.40173 5.59823 3.33203 5.7672 3.33203 5.94332C3.33203 6.11945 3.40173 6.28841 3.52589 6.41332L6.58589 9.47332C6.96089 9.84786 7.46922 10.0582 7.99923 10.0582C8.52923 10.0582 9.03756 9.84786 9.41256 9.47332L12.4726 6.41332C12.5967 6.28841 12.6664 6.11945 12.6664 5.94332C12.6664 5.7672 12.5967 5.59823 12.4726 5.47332Z" fill="#6F7A98"/>
</svg>
