<svg width="20" height="20" viewBox="0 0 20 20" fill="none" xmlns="http://www.w3.org/2000/svg">
<path d="M15.5897 6.84165C15.5122 6.76355 15.4201 6.70155 15.3185 6.65924C15.217 6.61694 15.1081 6.59515 14.9981 6.59515C14.888 6.59515 14.7791 6.61694 14.6776 6.65924C14.576 6.70155 14.4839 6.76355 14.4064 6.84165L10.5897 10.6583C10.5123 10.7364 10.4201 10.7984 10.3185 10.8407C10.217 10.883 10.1081 10.9048 9.99805 10.9048C9.88804 10.9048 9.77912 10.883 9.67757 10.8407C9.57602 10.7984 9.48386 10.7364 9.40639 10.6583L5.58972 6.84165C5.51225 6.76355 5.42009 6.70155 5.31854 6.65924C5.21699 6.61694 5.10807 6.59515 4.99806 6.59515C4.88805 6.59515 4.77912 6.61694 4.67758 6.65924C4.57603 6.70155 4.48386 6.76355 4.40639 6.84165C4.25118 6.99779 4.16406 7.209 4.16406 7.42915C4.16406 7.64931 4.25118 7.86052 4.40639 8.01665L8.23139 11.8417C8.70014 12.3098 9.33555 12.5728 9.99805 12.5728C10.6606 12.5728 11.296 12.3098 11.7647 11.8417L15.5897 8.01665C15.7449 7.86052 15.832 7.64931 15.832 7.42915C15.832 7.209 15.7449 6.99779 15.5897 6.84165Z" fill="#4B5675"/>
</svg>
