<svg width="16" height="16" viewBox="0 0 16 16" fill="none" xmlns="http://www.w3.org/2000/svg">
<path d="M5.47454 3.52744C5.41206 3.58942 5.36246 3.66315 5.32861 3.74439C5.29477 3.82563 5.27734 3.91277 5.27734 4.00078C5.27734 4.08878 5.29477 4.17592 5.32861 4.25716C5.36246 4.3384 5.41206 4.41213 5.47454 4.47411L8.52788 7.52744C8.59036 7.58942 8.63996 7.66315 8.6738 7.74439C8.70765 7.82563 8.72507 7.91277 8.72507 8.00077C8.72507 8.08878 8.70765 8.17592 8.6738 8.25716C8.63996 8.3384 8.59036 8.41213 8.52788 8.47411L5.47454 11.5274C5.41206 11.5894 5.36246 11.6631 5.32861 11.7444C5.29477 11.8256 5.27734 11.9128 5.27734 12.0008C5.27734 12.0888 5.29477 12.1759 5.32861 12.2572C5.36246 12.3384 5.41206 12.4121 5.47454 12.4741C5.59945 12.5983 5.76842 12.668 5.94454 12.668C6.12067 12.668 6.28963 12.5983 6.41454 12.4741L9.47454 9.41411C9.84908 9.03911 10.0594 8.53078 10.0594 8.00077C10.0594 7.47077 9.84908 6.96244 9.47454 6.58744L6.41454 3.52744C6.28963 3.40328 6.12067 3.33358 5.94454 3.33358C5.76842 3.33358 5.59945 3.40328 5.47454 3.52744Z" fill="#99A1B7"/>
</svg>
