<svg width="16" height="16" viewBox="0 0 16 16" fill="none" xmlns="http://www.w3.org/2000/svg">
<path d="M7.99974 2.94998C8.08863 2.94998 8.17196 2.96376 8.24974 2.99131C8.32752 3.01887 8.39974 3.0662 8.46641 3.13331L12.8664 7.53331C12.9997 7.66665 13.0664 7.82487 13.0664 8.00798C13.0664 8.19109 12.9997 8.34954 12.8664 8.48331C12.7331 8.61665 12.5775 8.68331 12.3997 8.68331C12.222 8.68331 12.0664 8.61665 11.9331 8.48331L8.66641 5.21665L8.66641 12.6833C8.66641 12.8722 8.60241 13.0278 8.47441 13.15C8.34641 13.2722 8.18818 13.3333 7.99974 13.3333C7.81085 13.3333 7.65241 13.2693 7.52441 13.1413C7.39641 13.0133 7.33263 12.8551 7.33307 12.6666L7.33307 5.21665L4.06641 8.48331C3.93307 8.61665 3.77752 8.68331 3.59974 8.68331C3.42196 8.68331 3.26641 8.61665 3.13307 8.48331C2.99974 8.34998 2.93307 8.19153 2.93307 8.00798C2.93307 7.82442 2.99974 7.6662 3.13307 7.53331L7.53307 3.13331C7.59974 3.06665 7.67196 3.01931 7.74974 2.99131C7.82752 2.96331 7.91085 2.94953 7.99974 2.94998Z" fill="#1B84FF"/>
</svg>
