<svg width="16" height="16" viewBox="0 0 16 16" fill="none" xmlns="http://www.w3.org/2000/svg">
<g clip-path="url(#clip0_9_11136)">
<path d="M15.5423 2.18734C15.307 1.95156 14.9251 1.95115 14.6897 2.18634L7.45552 9.4014L4.84546 6.56662C4.61993 6.32181 4.23862 6.30593 3.9934 6.53143C3.74837 6.75696 3.73268 7.13846 3.95821 7.38349L6.9934 10.6798C7.10455 10.8006 7.26012 10.8707 7.42415 10.8741C7.42855 10.8743 7.4328 10.8743 7.43702 10.8743C7.59643 10.8743 7.74977 10.811 7.86274 10.6985L15.5411 3.04018C15.7771 2.80502 15.7775 2.42312 15.5423 2.18734Z" fill="#17C653"/>
<path d="M15.397 7.39697C15.0639 7.39697 14.794 7.66691 14.794 8C14.794 11.7463 11.7463 14.794 8 14.794C4.25387 14.794 1.20603 11.7463 1.20603 8C1.20603 4.25387 4.25387 1.20603 8 1.20603C8.33306 1.20603 8.60303 0.936094 8.60303 0.603031C8.60303 0.269938 8.33306 0 8 0C3.58875 0 0 3.58875 0 8C0 12.4111 3.58875 16 8 16C12.4111 16 16 12.4111 16 8C16 7.66694 15.7301 7.39697 15.397 7.39697Z" fill="#17C653"/>
</g>
<defs>
<clipPath id="clip0_9_11136">
<rect width="16" height="16" fill="white"/>
</clipPath>
</defs>
</svg>
