<svg width="26" height="26" viewBox="0 0 26 26" fill="none" xmlns="http://www.w3.org/2000/svg">
<path d="M16.0862 4.27904V8.3957H14.4612V4.27904C14.4612 3.98654 14.2012 3.8457 14.0279 3.8457C13.9737 3.8457 13.9195 3.85654 13.8654 3.8782L5.27453 7.11737C4.70036 7.33404 4.33203 7.8757 4.33203 8.4932V9.21904C3.3462 9.9557 2.70703 11.1365 2.70703 12.469V8.4932C2.70703 7.20404 3.49786 6.0557 4.70036 5.6007L13.302 2.3507C13.5404 2.26404 13.7895 2.2207 14.0279 2.2207C15.1112 2.2207 16.0862 3.0982 16.0862 4.27904Z" fill="#1B84FF"/>
<path d="M23.2901 15.7082V16.7915C23.2901 17.084 23.0626 17.3223 22.7593 17.3332H21.1776C20.6034 17.3332 20.0834 16.9107 20.0401 16.3473C20.0076 16.0115 20.1376 15.6973 20.3543 15.4807C20.5493 15.2748 20.8201 15.1665 21.1126 15.1665H22.7484C23.0626 15.1773 23.2901 15.4157 23.2901 15.7082Z" fill="#1B84FF"/>
<path d="M21.102 14.0293H22.207C22.8029 14.0293 23.2904 13.5418 23.2904 12.946V12.4693C23.2904 10.2268 21.4595 8.396 19.217 8.396H6.78036C5.85953 8.396 5.01453 8.69933 4.33203 9.21933C3.3462 9.956 2.70703 11.1368 2.70703 12.4693V19.7602C2.70703 22.0027 4.53786 23.8335 6.78036 23.8335H19.217C21.4595 23.8335 23.2904 22.0027 23.2904 19.7602V19.5543C23.2904 18.9585 22.8029 18.471 22.207 18.471H21.2645C20.2245 18.471 19.2279 17.8318 18.957 16.8243C18.7295 16.001 19.0004 15.2102 19.542 14.6793C19.9429 14.2677 20.4954 14.0293 21.102 14.0293ZM15.1654 13.8127H7.58203C7.13786 13.8127 6.76953 13.4443 6.76953 13.0002C6.76953 12.556 7.13786 12.1877 7.58203 12.1877H15.1654C15.6095 12.1877 15.9779 12.556 15.9779 13.0002C15.9779 13.4443 15.6095 13.8127 15.1654 13.8127Z" fill="#1B84FF"/>
</svg>
