<svg width="16" height="16" viewBox="0 0 16 16" fill="none" xmlns="http://www.w3.org/2000/svg">
<path d="M7.29229 15.1C6.97229 15.1 6.65896 15.02 6.36563 14.86C5.77896 14.5334 5.42563 13.94 5.42563 13.2734V9.74002C5.42563 9.40669 5.20563 8.90669 4.99896 8.65336L2.50562 6.01336C2.08562 5.59336 1.76562 4.87336 1.76562 4.33336V2.80002C1.76562 1.73336 2.57229 0.900024 3.59896 0.900024H12.399C13.4123 0.900024 14.2323 1.72002 14.2323 2.73336V4.20002C14.2323 4.90002 13.8123 5.69336 13.419 6.08669L10.5323 8.64002C10.2523 8.87336 10.0323 9.38669 10.0323 9.80002V12.6667C10.0323 13.26 9.65896 13.9467 9.19229 14.2267L8.27229 14.82C7.97229 15.0067 7.63229 15.1 7.29229 15.1ZM3.59896 1.90002C3.13229 1.90002 2.76562 2.29336 2.76562 2.80002V4.33336C2.76562 4.58002 2.96562 5.06002 3.21896 5.31336L5.75896 7.98669C6.09896 8.40669 6.43229 9.10669 6.43229 9.73336V13.2667C6.43229 13.7 6.73229 13.9134 6.85896 13.98C7.13896 14.1334 7.47896 14.1334 7.73896 13.9734L8.66563 13.38C8.85229 13.2667 9.03896 12.9067 9.03896 12.6667V9.80002C9.03896 9.08669 9.38563 8.30002 9.88563 7.88002L12.739 5.35336C12.9656 5.12669 13.239 4.58669 13.239 4.19336V2.73336C13.239 2.27336 12.8656 1.90002 12.4056 1.90002H3.59896Z" fill="white"/>
<path d="M3.99848 7.16664C3.90515 7.16664 3.81848 7.13997 3.73182 7.09331C3.49848 6.94664 3.42515 6.63331 3.57182 6.39997L6.85848 1.13331C7.00515 0.899972 7.31182 0.826639 7.54515 0.973306C7.77848 1.11997 7.85182 1.42664 7.70515 1.65997L4.41848 6.92664C4.32515 7.07997 4.16515 7.16664 3.99848 7.16664Z" fill="white"/>
</svg>
