<svg width="18" height="18" viewBox="0 0 18 18" fill="none" xmlns="http://www.w3.org/2000/svg">
<path d="M6.75 16.5H11.25C15 16.5 16.5 15 16.5 11.25V6.75C16.5 3 15 1.5 11.25 1.5H6.75C3 1.5 1.5 3 1.5 6.75V11.25C1.5 15 3 16.5 6.75 16.5Z" stroke="#0A1017" stroke-width="1.2" stroke-linecap="round" stroke-linejoin="round"/>
<path d="M6.8252 8.99999V7.88999C6.8252 6.45749 7.8377 5.87999 9.07519 6.59249L10.0352 7.14749L10.9952 7.70249C12.2327 8.41499 12.2327 9.58499 10.9952 10.2975L10.0352 10.8525L9.07519 11.4075C7.8377 12.12 6.8252 11.535 6.8252 10.11V8.99999Z" stroke="#0A1017" stroke-width="1.2" stroke-miterlimit="10" stroke-linecap="round" stroke-linejoin="round"/>
</svg>
