<svg width="26" height="26" viewBox="0 0 26 26" fill="none" xmlns="http://www.w3.org/2000/svg">
<path d="M12.9345 2.39431L10.3236 8.47181H7.71281C7.27948 8.47181 6.85698 8.50431 6.44531 8.59097L7.52865 5.99098L7.57198 5.89348L7.63698 5.72014C7.66948 5.64431 7.69115 5.57931 7.72365 5.52514C8.98031 2.61098 10.3886 1.70098 12.9345 2.39431Z" fill="#1B84FF"/>
<path d="M20.2897 8.76415L20.2681 8.75331C19.6181 8.56915 18.9572 8.47165 18.2856 8.47165H11.5039L13.9414 2.80581L13.9739 2.72998C14.1256 2.78415 14.2881 2.85998 14.4506 2.91415L16.8447 3.92165C18.1772 4.47415 19.1089 5.04831 19.6831 5.74165C19.7806 5.87165 19.8672 5.99081 19.9539 6.13165C20.0514 6.28331 20.1272 6.43498 20.1706 6.59748C20.2139 6.69498 20.2464 6.78165 20.2681 6.87915C20.4306 7.43165 20.4414 8.05998 20.2897 8.76415Z" fill="#1B84FF"/>
<path d="M13.5625 19.1318H13.8333C14.1583 19.1318 14.4292 18.8393 14.4292 18.4818C14.4292 18.0268 14.2992 17.9618 14.0175 17.8534L13.5625 17.6909V19.1318Z" fill="#1B84FF"/>
<path d="M19.8133 10.3133C19.3258 10.1725 18.8166 10.0967 18.2858 10.0967H7.71245C6.97578 10.0967 6.28245 10.2375 5.63245 10.5192C3.74745 11.3317 2.42578 13.2058 2.42578 15.3833V17.4958C2.42578 17.7558 2.44745 18.005 2.47995 18.265C2.71828 21.71 4.55995 23.5517 8.00495 23.7792C8.25411 23.8117 8.50328 23.8333 8.77412 23.8333H17.2241C21.2324 23.8333 23.3449 21.9267 23.5508 18.135C23.5616 17.9292 23.5724 17.7125 23.5724 17.4958V15.3833C23.5724 12.9892 21.9799 10.9742 19.8133 10.3133ZM14.3858 16.7917C14.8841 16.965 15.5558 17.3333 15.5558 18.4817C15.5558 19.4675 14.7866 20.2583 13.8333 20.2583H13.5624V20.4967C13.5624 20.8108 13.3133 21.06 12.9991 21.06C12.6849 21.06 12.4358 20.8108 12.4358 20.4967V20.2583H12.3383C11.2983 20.2583 10.4424 19.3808 10.4424 18.2975C10.4424 17.9833 10.6916 17.7342 11.0058 17.7342C11.3199 17.7342 11.5691 17.9833 11.5691 18.2975C11.5691 18.7525 11.9158 19.1317 12.3383 19.1317H12.4358V17.3008L11.6124 17.0083C11.1141 16.835 10.4424 16.4667 10.4424 15.3183C10.4424 14.3325 11.2116 13.5417 12.1649 13.5417H12.4358V13.3033C12.4358 12.9892 12.6849 12.74 12.9991 12.74C13.3133 12.74 13.5624 12.9892 13.5624 13.3033V13.5417H13.6599C14.6999 13.5417 15.5558 14.4192 15.5558 15.5025C15.5558 15.8167 15.3066 16.0658 14.9924 16.0658C14.6783 16.0658 14.4291 15.8167 14.4291 15.5025C14.4291 15.0475 14.0824 14.6683 13.6599 14.6683H13.5624V16.4992L14.3858 16.7917Z" fill="#1B84FF"/>
<path d="M11.5703 15.3185C11.5703 15.7735 11.7003 15.8385 11.982 15.9468L12.437 16.1093V14.6685H12.1661C11.8303 14.6685 11.5703 14.961 11.5703 15.3185Z" fill="#1B84FF"/>
</svg>
