<svg width="26" height="26" viewBox="0 0 26 26" fill="none" xmlns="http://www.w3.org/2000/svg">
<path d="M12.9345 2.39437L10.3236 8.47187H7.71281C7.27948 8.47187 6.85698 8.50437 6.44531 8.59104L7.52865 5.99104L7.57198 5.89354L7.63698 5.7202C7.66948 5.64437 7.69115 5.57937 7.72365 5.5252C8.98031 2.61104 10.3886 1.70104 12.9345 2.39437Z" fill="#FB9927"/>
<path d="M20.2897 8.76421L20.2681 8.75338C19.6181 8.56921 18.9572 8.47171 18.2856 8.47171H11.5039L13.9414 2.80587L13.9739 2.73004C14.1256 2.78421 14.2881 2.86004 14.4506 2.91421L16.8447 3.92171C18.1772 4.47421 19.1089 5.04838 19.6831 5.74171C19.7806 5.87171 19.8672 5.99087 19.9539 6.13171C20.0514 6.28337 20.1272 6.43504 20.1706 6.59754C20.2139 6.69504 20.2464 6.78171 20.2681 6.87921C20.4306 7.43171 20.4414 8.06004 20.2897 8.76421Z" fill="#FB9927"/>
<path d="M13.5625 19.1318H13.8333C14.1583 19.1318 14.4292 18.8393 14.4292 18.4818C14.4292 18.0268 14.2992 17.9618 14.0175 17.8535L13.5625 17.691V19.1318Z" fill="#FB9927"/>
<path d="M19.8133 10.3134C19.3258 10.1726 18.8166 10.0967 18.2858 10.0967H7.71245C6.97578 10.0967 6.28245 10.2376 5.63245 10.5192C3.74745 11.3317 2.42578 13.2059 2.42578 15.3834V17.4959C2.42578 17.7559 2.44745 18.0051 2.47995 18.2651C2.71828 21.7101 4.55995 23.5517 8.00495 23.7792C8.25411 23.8117 8.50328 23.8334 8.77412 23.8334H17.2241C21.2324 23.8334 23.3449 21.9267 23.5508 18.1351C23.5616 17.9292 23.5724 17.7126 23.5724 17.4959V15.3834C23.5724 12.9892 21.9799 10.9742 19.8133 10.3134ZM14.3858 16.7917C14.8841 16.9651 15.5558 17.3334 15.5558 18.4817C15.5558 19.4676 14.7866 20.2584 13.8333 20.2584H13.5624V20.4967C13.5624 20.8109 13.3133 21.0601 12.9991 21.0601C12.6849 21.0601 12.4358 20.8109 12.4358 20.4967V20.2584H12.3383C11.2983 20.2584 10.4424 19.3809 10.4424 18.2976C10.4424 17.9834 10.6916 17.7342 11.0058 17.7342C11.3199 17.7342 11.5691 17.9834 11.5691 18.2976C11.5691 18.7526 11.9158 19.1317 12.3383 19.1317H12.4358V17.3009L11.6124 17.0084C11.1141 16.8351 10.4424 16.4667 10.4424 15.3184C10.4424 14.3326 11.2116 13.5417 12.1649 13.5417H12.4358V13.3034C12.4358 12.9892 12.6849 12.7401 12.9991 12.7401C13.3133 12.7401 13.5624 12.9892 13.5624 13.3034V13.5417H13.6599C14.6999 13.5417 15.5558 14.4192 15.5558 15.5026C15.5558 15.8167 15.3066 16.0659 14.9924 16.0659C14.6783 16.0659 14.4291 15.8167 14.4291 15.5026C14.4291 15.0476 14.0824 14.6684 13.6599 14.6684H13.5624V16.4992L14.3858 16.7917Z" fill="#FB9927"/>
<path d="M11.5703 15.3185C11.5703 15.7735 11.7003 15.8385 11.982 15.9469L12.437 16.1094V14.6685H12.1661C11.8303 14.6685 11.5703 14.961 11.5703 15.3185Z" fill="#FB9927"/>
</svg>
