<svg width="26" height="26" viewBox="0 0 26 26" fill="none" xmlns="http://www.w3.org/2000/svg">
<path d="M12.9345 2.39446L10.3236 8.47196H7.71281C7.27948 8.47196 6.85698 8.50446 6.44531 8.59113L7.52865 5.99113L7.57198 5.89363L7.63698 5.72029C7.66948 5.64446 7.69115 5.57946 7.72365 5.52529C8.98031 2.61113 10.3886 1.70113 12.9345 2.39446Z" fill="#17C653"/>
<path d="M20.2897 8.7643L20.2681 8.75347C19.6181 8.5693 18.9572 8.4718 18.2856 8.4718H11.5039L13.9414 2.80597L13.9739 2.73013C14.1256 2.7843 14.2881 2.86013 14.4506 2.9143L16.8447 3.9218C18.1772 4.4743 19.1089 5.04847 19.6831 5.7418C19.7806 5.8718 19.8672 5.99097 19.9539 6.1318C20.0514 6.28347 20.1272 6.43513 20.1706 6.59763C20.2139 6.69513 20.2464 6.7818 20.2681 6.8793C20.4306 7.4318 20.4414 8.06013 20.2897 8.7643Z" fill="#17C653"/>
<path d="M13.5625 19.1319H13.8333C14.1583 19.1319 14.4292 18.8394 14.4292 18.4819C14.4292 18.0269 14.2992 17.9619 14.0175 17.8535L13.5625 17.691V19.1319Z" fill="#17C653"/>
<path d="M19.8133 10.3135C19.3258 10.1727 18.8166 10.0968 18.2858 10.0968H7.71245C6.97578 10.0968 6.28245 10.2377 5.63245 10.5193C3.74745 11.3318 2.42578 13.206 2.42578 15.3835V17.496C2.42578 17.756 2.44745 18.0052 2.47995 18.2652C2.71828 21.7102 4.55995 23.5518 8.00495 23.7793C8.25411 23.8118 8.50328 23.8335 8.77412 23.8335H17.2241C21.2324 23.8335 23.3449 21.9268 23.5508 18.1352C23.5616 17.9293 23.5724 17.7127 23.5724 17.496V15.3835C23.5724 12.9893 21.9799 10.9743 19.8133 10.3135ZM14.3858 16.7918C14.8841 16.9652 15.5558 17.3335 15.5558 18.4818C15.5558 19.4677 14.7866 20.2585 13.8333 20.2585H13.5624V20.4968C13.5624 20.811 13.3133 21.0602 12.9991 21.0602C12.6849 21.0602 12.4358 20.811 12.4358 20.4968V20.2585H12.3383C11.2983 20.2585 10.4424 19.381 10.4424 18.2977C10.4424 17.9835 10.6916 17.7343 11.0058 17.7343C11.3199 17.7343 11.5691 17.9835 11.5691 18.2977C11.5691 18.7527 11.9158 19.1318 12.3383 19.1318H12.4358V17.301L11.6124 17.0085C11.1141 16.8352 10.4424 16.4668 10.4424 15.3185C10.4424 14.3327 11.2116 13.5418 12.1649 13.5418H12.4358V13.3035C12.4358 12.9893 12.6849 12.7402 12.9991 12.7402C13.3133 12.7402 13.5624 12.9893 13.5624 13.3035V13.5418H13.6599C14.6999 13.5418 15.5558 14.4193 15.5558 15.5027C15.5558 15.8168 15.3066 16.066 14.9924 16.066C14.6783 16.066 14.4291 15.8168 14.4291 15.5027C14.4291 15.0477 14.0824 14.6685 13.6599 14.6685H13.5624V16.4993L14.3858 16.7918Z" fill="#17C653"/>
<path d="M11.5703 15.3186C11.5703 15.7736 11.7003 15.8386 11.982 15.9469L12.437 16.1094V14.6686H12.1661C11.8303 14.6686 11.5703 14.9611 11.5703 15.3186Z" fill="#17C653"/>
</svg>
