<svg width="135" height="135" viewBox="0 0 135 135" fill="none" xmlns="http://www.w3.org/2000/svg">
<path d="M67.5 131.498C102.846 131.498 131.5 102.844 131.5 67.498C131.5 32.1518 102.846 3.498 67.5 3.498C32.1538 3.498 3.5 32.1518 3.5 67.498C3.5 102.844 32.1538 131.498 67.5 131.498Z" fill="url(#paint0_linear_9_14024)" fill-opacity="0.28"/>
<path d="M123.407 14.6427C122.709 16.182 123.413 18.0046 124.952 18.7017C126.491 19.3988 128.305 18.7161 129.002 17.1768C129.699 15.6376 129.025 13.8036 127.486 13.1065C125.947 12.4094 124.104 13.1035 123.407 14.6427ZM9.28386 14.6427C8.5867 16.182 9.29027 18.0046 10.8294 18.7017C12.3686 19.3988 14.1819 18.7161 14.8791 17.1768C15.5762 15.6376 14.9027 13.8036 13.3635 13.1065C11.8244 12.4094 9.98097 13.1035 9.28386 14.6427ZM118.884 8.62131C118.44 9.60104 118.888 10.7611 119.867 11.2048C120.847 11.6484 122.001 11.2139 122.445 10.2342C122.888 9.25456 122.46 8.08724 121.48 7.64355C120.501 7.19987 119.327 7.64167 118.884 8.62131ZM11.7337 121.441C11.0366 122.98 11.7401 124.803 13.2793 125.5C14.8185 126.197 16.6318 125.515 17.3289 123.975C18.026 122.436 17.3526 120.602 15.8134 119.905C14.2742 119.208 12.4308 119.902 11.7337 121.441ZM7.21071 115.42C6.76698 116.4 7.21478 117.56 8.19443 118.003C9.17408 118.447 10.3282 118.012 10.7719 117.033C11.2156 116.053 10.787 114.886 9.80732 114.442C8.82768 113.998 7.6544 114.44 7.21071 115.42Z" fill="#C3DFFF"/>
<path d="M113.733 38.3724V117.106C113.733 121.909 109.847 125.794 105.045 125.794H34.6644C29.8621 125.794 25.9767 121.909 25.9767 117.106V18.2826C25.9767 13.4804 29.8621 9.59492 34.6644 9.59492H83.1579C83.6118 9.59492 84.0566 9.63127 84.4924 9.69483C86.1718 9.95807 87.7514 10.7116 89.0223 11.8826L110.919 31.9724C112.226 33.1707 113.125 34.7321 113.506 36.4297C113.66 37.0651 113.733 37.7097 113.733 38.3724Z" fill="#F1F3F9"/>
<path d="M73.5572 21.247H38.1172V24.109H73.5572V21.247Z" fill="#D6DCE8"/>
<path d="M56.5192 28.257H38.1172V31.119H56.5192V28.257Z" fill="#D6DCE8"/>
<path d="M113.506 36.4297H88.6983C86.3755 36.4297 84.4924 34.5466 84.4924 32.2238V9.69482C86.1718 9.95807 87.7515 10.7116 89.0224 11.8826L110.919 31.9724C112.226 33.1707 113.125 34.7321 113.506 36.4297Z" fill="url(#paint1_linear_9_14024)"/>
<path d="M128.131 127.778C125.75 130.503 121.608 130.745 118.906 128.359L102.648 113.966C102.184 113.558 101.917 113.01 101.88 112.403C101.831 111.787 102.033 111.207 102.442 110.753L102.461 110.729L91.9922 101.458L92.8659 100.662C95.2366 98.4798 96.6041 96.4422 97.5907 95.1073L108.049 104.38L108.068 104.356C108.903 103.414 110.34 103.325 111.281 104.15L127.55 118.552C130.238 120.927 130.551 125.038 128.131 127.778Z" fill="#1B84FF"/>
<path d="M93.6095 52.7034C79.7794 40.5418 58.6277 41.8942 46.4439 55.7163C34.2324 69.594 35.6141 90.6728 49.4439 102.862C62.4128 114.291 81.6879 114.028 94.3307 102.231C109.495 87.7247 107.811 65.1977 93.6095 52.7034ZM56.1897 95.2012C46.5871 86.7477 45.6502 72.0542 54.1048 62.4622C62.5572 52.8466 77.2356 51.882 86.8532 60.3654C96.4838 68.8484 97.3941 83.5382 88.9405 93.1256C80.4005 102.832 65.7224 103.61 56.1897 95.2012Z" fill="#1B84FF"/>
<path d="M71.2534 92.259C79.0196 92.259 85.3154 85.9632 85.3154 78.197C85.3154 70.4307 79.0196 64.135 71.2534 64.135C63.4872 64.135 57.1914 70.4307 57.1914 78.197C57.1914 85.9632 63.4872 92.259 71.2534 92.259Z" fill="#5CA7FF"/>
<path d="M77.2419 84.1838C76.517 84.9087 75.3729 84.8536 74.715 84.1838L71.2555 80.7243L67.7898 84.1838C67.0903 84.8832 65.9623 84.8832 65.2629 84.1838C64.561 83.4819 64.5707 82.3491 65.2629 81.6569L68.7224 78.1974L65.2629 74.7379C64.5634 74.0385 64.5634 72.9042 65.2629 72.2111C65.9188 71.5432 67.063 71.4843 67.7898 72.2111L71.2555 75.6705L74.715 72.2111C75.4145 71.5116 76.5424 71.5116 77.2419 72.2111C77.9436 72.9002 77.9353 74.0569 77.2419 74.7379L73.7824 78.1974L77.2419 81.6569C77.9414 82.3564 77.9414 83.4906 77.2419 84.1838Z" fill="white"/>
<path d="M42.3117 46.9399L37.2111 40.9795C36.8517 40.5595 36.9015 39.9282 37.3205 39.5693C37.7404 39.2114 38.3712 39.2583 38.7306 39.6792L43.8312 45.6396C44.1906 46.0595 44.1408 46.6909 43.7218 47.0498C43.3014 47.4092 42.6711 47.3596 42.3117 46.9399ZM48.3693 45.5356C47.8185 45.4927 47.4064 45.0117 47.4494 44.4609L48.0578 36.6391C48.1007 36.0884 48.5822 35.6806 49.132 35.7197C49.6828 35.7627 50.0949 36.2436 50.0519 36.7944L49.4435 44.6162C49.4013 45.1551 48.9332 45.5774 48.3693 45.5356ZM40.4318 52.3266L32.6105 51.7182C32.0597 51.6753 31.6476 51.1943 31.6906 50.6435C31.7326 50.0932 32.2042 49.6821 32.7648 49.7241L40.5861 50.3325C41.1369 50.3755 41.549 50.8564 41.506 51.4072C41.4638 51.9462 40.9957 52.3684 40.4318 52.3266Z" fill="#1B84FF"/>
<defs>
<linearGradient id="paint0_linear_9_14024" x1="33" y1="2.99996" x2="163" y2="110.5" gradientUnits="userSpaceOnUse">
<stop stop-color="#1B84FF"/>
<stop offset="1" stop-color="#BDDBFF"/>
</linearGradient>
<linearGradient id="paint1_linear_9_14024" x1="84.4921" y1="23.062" x2="113.506" y2="23.062" gradientUnits="userSpaceOnUse">
<stop stop-color="#D6DCE8"/>
<stop offset="1" stop-color="white"/>
</linearGradient>
</defs>
</svg>
