<?xml version="1.0" encoding="UTF-8"?>
<svg xmlns="http://www.w3.org/2000/svg" id="Layer_1" data-name="Layer 1" viewBox="0 0 24 24" width="512" height="512"><path d="M14.667,9.333l2.333,1.167-2.333,1.167-1.167,2.333-1.167-2.333-2.333-1.167,2.333-1.167,1.167-2.333,1.167,2.333Zm4-4l1.333,2.667,1.333-2.667,2.667-1.333-2.667-1.333-1.333-2.667-1.333,2.667-2.667,1.333,2.667,1.333Zm3.77,2.19l-2.653,5.329c-.144,.604-.356,1.182-.629,1.725l.003,.002c-1.348,2.707-4.087,4.421-7.157,4.421-4.411,0-8-3.589-8-8S7.589,3,12,3c.426,0,.844,.034,1.251,.098l3.769-1.884c-1.506-.776-3.213-1.214-5.02-1.214C5.935,0,1,4.935,1,11c0,3.036,1.236,5.788,3.231,7.78l-2.231,2.677v2.543H22v-2.543l-2.221-2.665c1.04-1.041,1.88-2.304,2.449-3.74h-.002c.499-1.255,.774-2.622,.774-4.053,0-1.214-.198-2.383-.563-3.477Z"/></svg>
