<?xml version="1.0" encoding="UTF-8"?>
<svg xmlns="http://www.w3.org/2000/svg" id="Layer_1" data-name="Layer 1" viewBox="0 0 24 24" width="512" height="512"><path d="M19,10V5h-5v-.5c0-2.481-2.019-4.5-4.5-4.5S5,2.019,5,4.5v.5H0v11.5c0,1.93,1.57,3.5,3.5,3.5h1.5v.5c0,1.93,1.57,3.5,3.5,3.5h12c1.93,0,3.5-1.57,3.5-3.5V10h-5Zm-6,3h3v1.5c0,.827-.673,1.5-1.5,1.5s-1.5-.673-1.5-1.5v-1.5ZM8,4.5c0-.827,.673-1.5,1.5-1.5s1.5,.673,1.5,1.5v.5h-3v-.5ZM3.5,17c-.276,0-.5-.225-.5-.5V8h13v2H5v7h-1.5Zm17.5,3.5c0,.275-.224,.5-.5,.5H8.5c-.276,0-.5-.225-.5-.5v-7.5h2v1.5c0,2.481,2.019,4.5,4.5,4.5s4.5-2.019,4.5-4.5v-1.5h2v7.5Z"/></svg>
