<?xml version="1.0" encoding="UTF-8"?>
<svg xmlns="http://www.w3.org/2000/svg" id="Layer_1" data-name="Layer 1" viewBox="0 0 24 24" width="512" height="512"><path d="m6.065,9.463l.787,3.437h-1.757l.811-3.437c.009-.037.041-.063.079-.063s.071.026.079.063Zm17.935-2.963v14.5H0V6.5c0-1.93,1.57-3.5,3.5-3.5h17c1.93,0,3.5,1.57,3.5,3.5Zm-15,9.5l-1.559-6.804c-.107-.464-.403-.886-.842-1.07-.919-.385-1.855.155-2.056,1.021l-1.616,6.853h1.437l.401-1.7h2.409l.389,1.7h1.437Zm12-9.5c0-.276-.225-.5-.5-.5h-8.5v12h9V6.5Zm-3.873,1.5h-1.253v1h-2.873v1.253h4.808c-.111.963-.484,2.151-1.303,3.071-.36-.405-.644-.857-.847-1.325h-1.336c.265.751.668,1.487,1.223,2.123-.664.403-1.495.661-2.545.661v1.253c1.462,0,2.615-.413,3.512-1.053.894.636,2.033,1.053,3.488,1.053v-1.253c-1.049,0-1.876-.262-2.539-.665.99-1.135,1.485-2.591,1.607-3.866h.932v-1.253h-2.873v-1Z"/></svg>
