<?xml version="1.0" encoding="UTF-8"?>
<svg xmlns="http://www.w3.org/2000/svg" id="Layer_1" data-name="Layer 1" viewBox="0 0 24 24" width="512" height="512"><path d="m19,0H3.5C2.122,0,1,1.122,1,2.5v21.5h18c2.206,0,4-1.794,4-4V4c0-2.206-1.794-4-4-4Zm1,4v12.142c-.322-.084-.653-.142-1-.142h-6.722l1.829-3h4.268l-2.133-3.502,2.133-3.498h-4.264l-1.827-3h6.716c.551,0,1,.449,1,1Zm-11.071,5.498l1.521-2.498h3.099l1.521,2.498-1.526,2.502h-3.091l-1.526-2.502Zm.354,2.502h-1.878l.938-1.541.94,1.541Zm-.94-3.463l-.937-1.537h1.874l-.936,1.537Zm2.716-2.537l.94-1.544.94,1.544h-1.881Zm3.661,1h1.874l-.937,1.537-.936-1.537Zm.936,3.459l.938,1.541h-1.878l.94-1.541Zm-2.721,2.541l-.936,1.534-.936-1.534h1.871Zm-1.22-10l-1.827,3h-4.264l2.133,3.498-2.133,3.502h4.268l1.829,3h-7.722V3h7.716Zm7.284,18H4v-2h15c.551,0,1,.449,1,1s-.449,1-1,1Z"/></svg>
