<?xml version="1.0" encoding="UTF-8"?>
<svg xmlns="http://www.w3.org/2000/svg" id="Layer_1" data-name="Layer 1" viewBox="0 0 24 24" width="512" height="512"><path d="M11,19v3H0V3.5C0,1.57,1.57,0,3.5,0H12.38l5.62,5.66v7.42l-3,3V8h-5V3H3.5c-.28,0-.5,.22-.5,.5v15.5H11Zm12.36-5.36c-.85-.85-2.23-.85-3.09,0l-7.28,7.28v3.09h3.09l7.28-7.28c.85-.85,.85-2.23,0-3.09Zm-9.36-.13c0,1.54-1.02,2.93-2.51,3.31-.44,.11-.94,.19-1.49,.19-1.05,0-2.09-.41-3-1.05-.91,.64-1.95,1.05-3,1.05v-2c.51,0,1.02-.17,1.5-.45-.92-1.1-1.5-2.42-1.5-3.55,0-1.65,1.35-3,3-3s3,1.35,3,3c0,1.14-.58,2.45-1.5,3.55,.48,.28,.99,.45,1.5,.45,.12,0,.64-.03,1.17-.27-.1-.36-.16-.76-.16-1.23h0c0-.83,.67-1.5,1.5-1.5s1.5,.67,1.5,1.5h0Zm-6-2.5c0-.55-.45-1-1-1s-1,.45-1,1c0,.63,.39,1.48,1,2.24,.61-.76,1-1.61,1-2.24Z"/></svg>
