<?xml version="1.0" encoding="UTF-8"?>
<svg xmlns="http://www.w3.org/2000/svg" id="Layer_1" data-name="Layer 1" viewBox="0 0 24 24" width="512" height="512"><path d="m23.814,11.757c-2.239-4.071-5.008-7.046-6.76-8.19-1.375-.898-3.218-.704-4.383.46l-.671.671-.671-.671c-1.165-1.165-3.008-1.359-4.383-.46C4.944,4.874,2.168,8.223.194,11.713l-.194.382v.777l.183.336c.173.318,4.331,7.792,11.817,7.792s11.644-7.464,11.817-7.782l.183-.356v-.768l-.186-.337Zm-15.229-5.678c.197-.129.453-.099.622.07l2.792,2.792,2.792-2.792c.169-.169.426-.198.622-.07,1.269.829,3.324,3.069,5.089,5.95-2.056-.44-5.39-1.029-8.503-1.029s-6.437.58-8.494,1.015c1.808-2.887,3.886-5.156,5.08-5.936Zm3.414,11.921c-4.079,0-7.012-3.17-8.358-4.986,2.065.431,5.317.986,8.358.986s6.305-.556,8.369-.986c-1.335,1.813-4.259,4.986-8.369,4.986Z"/></svg>
