<?xml version="1.0" encoding="UTF-8"?>
<svg xmlns="http://www.w3.org/2000/svg" id="Layer_1" data-name="Layer 1" viewBox="0 0 24 24" width="512" height="512"><path d="M23.963,12.527c-.128-.914-.664-1.695-1.471-2.145l-3.565-1.981-.329-3.001-3.001-.329-1.98-3.565c-.448-.807-1.23-1.344-2.145-1.472-.916-.13-1.813,.174-2.465,.826L4.845,5.023c-.652,.653-.953,1.552-.825,2.466s.664,1.695,1.467,2.142l4.334,2.428-6.967,6.967c-.116-.016-.234-.025-.354-.025-1.381,0-2.5,1.119-2.5,2.5s1.119,2.5,2.5,2.5,2.5-1.119,2.5-2.5c0-.12-.009-.238-.025-.354l6.967-6.967,2.425,4.329c.448,.807,1.23,1.344,2.145,1.472,.138,.02,.276,.028,.413,.028,.768,0,1.499-.301,2.052-.854l4.162-4.161c.652-.653,.953-1.552,.825-2.466ZM11.048,3.063l2.332,4.196-2.15,2.15-4.184-2.344L11.048,3.063Zm5.886,13.891l-2.344-4.184,2.15-2.15,4.197,2.331-4.003,4.003Z"/></svg>
