<?xml version="1.0" encoding="UTF-8"?>
<svg xmlns="http://www.w3.org/2000/svg" id="Layer_1" data-name="Layer 1" viewBox="0 0 24 24" width="512" height="512"><path d="M11.48,7.93c-.63-.63-2.04-1.52-4.43-.38-1.43,.68-2.81,1.9-3.71,2.8-.9,.9-2.12,2.28-2.8,3.71-1.13,2.39-.25,3.8,.38,4.43,3.35,3.35,8.41,4.83,12.06,5.47,.2,.03,.4,.05,.59,.05,.9,0,1.77-.35,2.41-1,.79-.79,1.14-1.91,.95-3.01-.64-3.65-2.12-8.71-5.47-12.06ZM3.25,15.34c.39-.82,1.17-1.84,2.21-2.87s2.06-1.82,2.88-2.21c.34-.16,.65-.25,.85-.25,.08,0,.14,.02,.17,.05,.55,.55,1.03,1.16,1.47,1.81-1.1,.62-2.26,1.58-3.32,2.64-1.06,1.06-2.02,2.22-2.64,3.32-.65-.43-1.26-.92-1.81-1.47-.11-.11-.03-.53,.21-1.02Zm10.62,5.54c-.07,.07-.18,.14-.37,.11-1.11-.2-2.62-.52-4.21-1.06,.48-.66,1.06-1.32,1.68-1.94s1.28-1.21,1.94-1.68c.54,1.59,.86,3.1,1.06,4.21,.03,.18-.04,.3-.11,.37ZM23.96,4.06c0,4.77-2.55,9.42-4.69,12.47-.23,.33-.51,.61-.83,.83-.27-1.1-.61-2.26-1.04-3.43,.51-.78,1.07-1.72,1.59-2.76-.79-.12-1.64-.17-2.5-.17-.13,0-.26,0-.38,0-.84-1.62-1.9-3.16-3.22-4.49-.05-.05-.1-.1-.16-.15,1.13-.26,2.45-.36,3.76-.36,1.49,0,2.99,.14,4.2,.47,.16-.8,.26-1.61,.26-2.41,0-.31-1.29-1.06-4.5-1.06s-4.5,.75-4.5,1.06c0,.6,.05,1.21,.15,1.81-.71-.48-1.75-.93-3.12-.88-.02-.31-.03-.62-.03-.93,0-1.22,.73-4.06,7.5-4.06s7.5,2.84,7.5,4.06Z"/></svg>
