<?xml version="1.0" encoding="UTF-8"?>
<svg xmlns="http://www.w3.org/2000/svg" id="Layer_1" data-name="Layer 1" viewBox="0 0 24 24" width="512" height="512"><path d="m14.295,14.864c-2.328-1.097-4.042-2.818-5.206-5.227l2.963-2.963L5.41.033,1.766,3.677c-1.139,1.137-1.766,2.672-1.766,4.323,0,7.152,8.791,15.942,15.942,15.942,1.65,0,3.186-.627,4.322-1.765l3.646-3.646-6.642-6.641-2.974,2.973Zm3.848,5.193c-.57.571-1.352.885-2.2.885-4.993,0-12.942-7.067-12.942-12.942,0-.849.314-1.63.886-2.201l1.524-1.524,2.399,2.399-2.268,2.268.369.919c1.589,3.96,4.347,6.712,8.194,8.181l.908.347,2.255-2.255,2.399,2.399-1.525,1.525ZM24,3v3h-3v3h-3v-3h-3v-3h3V0h3v3h3Z"/></svg>
