<?xml version="1.0" encoding="UTF-8"?>
<svg xmlns="http://www.w3.org/2000/svg" id="Layer_1" data-name="Layer 1" viewBox="0 0 24 24" width="512" height="512"><path d="M14.57,5.56l-2.12-2.12L15.23,.66l2.12,2.12-2.78,2.78ZM6.57,3.44L3.8,.66,1.68,2.78l2.78,2.78,2.12-2.12ZM11.01,0h-3V4h3V0ZM4.27,16.69l2.12-2.12-3.79-3.79c-.59-.59-1.54-.59-2.12,0-.59,.59-.59,1.54,0,2.12l3.79,3.79Zm-.82-9.25c-.59,.59-.59,1.54,0,2.12l3.97,3.97,2.12-2.12-3.97-3.97c-.59-.59-1.54-.59-2.12,0Zm14.56,7.31v-5.74c0-1.21-1.08-2.18-2.34-1.97-.98,.16-1.66,1.08-1.66,2.08v.46l-3.13-3.13c-.59-.59-1.54-.59-2.12,0-.59,.59-.59,1.54,0,2.12l4.76,4.76c1.25,1.25,1.25,3.3,0,4.55l-1.8,1.8c-.86,.87-2.01,1.34-3.24,1.34s-2.37-.48-3.24-1.34l-2.68-2.66c-.59-.58-1.54-.58-2.12,0-.58,.59-.58,1.54,0,2.12l2.68,2.65c1.43,1.43,3.33,2.22,5.36,2.22s3.93-.79,5.36-2.22l1.8-1.8c.27-.27,2.37-1.99,2.37-5.25Zm3.66-7.72c-.98,.16-1.66,1.08-1.66,2.08v5.64c0,1.56-.39,3.75-2.12,5.78,0,0-2.66,2.69-2.66,2.7-.28,.28-.59,.54-.9,.78,.05,0,.09,0,.14,0,1.94,0,3.88-.74,5.36-2.22l2.23-2.35c1.22-1.22,1.91-2.86,1.94-4.57v-.04s0-5.83,0-5.83c0-1.21-1.08-2.18-2.34-1.97Z"/></svg>
