<?xml version="1.0" encoding="UTF-8"?>
<svg xmlns="http://www.w3.org/2000/svg" id="Layer_1" data-name="Layer 1" viewBox="0 0 24 24" width="512" height="512"><path d="m19,2.338V0h-3v2h-8V0h-3v2.338c-1.181.563-2,1.769-2,3.162v13c0,1.393.819,2.599,2,3.162v2.338h3v-2h8v2h3v-2.338c1.181-.563,2-1.769,2-3.162V5.5c0-1.393-.819-2.599-2-3.162Zm-1,16.162c0,.275-.225.5-.5.5H6.5c-.275,0-.5-.225-.5-.5V5.5c0-.275.225-.5.5-.5h11c.275,0,.5.225.5.5v13Zm-2-7.34c0,2.262-4,5.04-4,5.04,0,0-4-2.778-4-5.04,0-1.193.895-2.16,2-2.16s2,.807,2,2c0-1.193.895-2,2-2s2,.967,2,2.16Z"/></svg>
