<?xml version="1.0" encoding="UTF-8"?>
<svg xmlns="http://www.w3.org/2000/svg" id="Layer_1" data-name="Layer 1" viewBox="0 0 24 24" width="512" height="512"><path d="M19.131,17.01c3.838-3.904,3.819-10.202-.06-14.08-1.889-1.889-4.4-2.929-7.071-2.929-2.643,0-5.128,1.018-7.01,2.869L2.161,.04,.04,2.161,21.839,23.96l2.121-2.121-4.83-4.83ZM12,3c1.87,0,3.627,.728,4.95,2.05,2.713,2.713,2.728,7.116,.06,9.838L7.111,4.99c1.315-1.284,3.047-1.99,4.889-1.99Zm1.436,15.386l2.121,2.121-3.558,3.48-7.059-6.904c-2.646-2.646-3.542-6.383-2.583-9.776l2.656,2.656c-.01,1.811,.662,3.612,2.037,4.987l4.95,4.841,1.436-1.405Z"/></svg>
