<?xml version="1.0" encoding="UTF-8"?>
<svg xmlns="http://www.w3.org/2000/svg" id="Layer_1" data-name="Layer 1" viewBox="0 0 24 24" width="512" height="512"><path d="M14.653,14.21l-2.971,5.818-2.672-1.364,2.638-5.164h-2.216c-.779,0-1.513-.363-1.964-.972-.446-.601-.575-1.362-.354-2.089l3.875-6.45,2.562,1.561-3.016,4.951h2.059c.877,0,1.685,.49,2.109,1.28,.415,.774,.395,1.695-.049,2.43ZM3,7h3.766l1.762-3H0V20H6.046l1.546-3H3V7Zm21,1h-2v-.5c0-1.93-1.57-3.5-3.5-3.5h-1.929l-1.714,3h3.643c.275,0,.5,.224,.5,.5v9c0,.276-.225,.5-.5,.5h-3.033l-1.545,3h4.578c1.93,0,3.5-1.57,3.5-3.5v-.5h2V8Z"/></svg>
