<?xml version="1.0" encoding="UTF-8"?>
<svg xmlns="http://www.w3.org/2000/svg" id="Layer_1" data-name="Layer 1" viewBox="0 0 24 24" width="512" height="512"><path d="M13.5,13h-3v-1c0-1.271,.74-2.438,1.98-3.123,.291-.16,.596-.537,.502-1.071-.067-.383-.406-.722-.789-.789-.419-.077-.704,.104-.836,.216-.227,.191-.357,.47-.357,.767h-3c0-1.185,.521-2.302,1.428-3.064,.907-.762,2.101-1.082,3.284-.874,1.615,.283,2.942,1.61,3.225,3.225,.298,1.696-.509,3.391-2.008,4.217-.213,.118-.429,.317-.429,.496v1Zm0,1h-3v3h3v-3Zm5.571,3.071c3.899-3.899,3.899-10.243,0-14.142-1.889-1.889-4.4-2.929-7.071-2.929S6.817,1.04,4.929,2.929c-3.899,3.899-3.899,10.243,.012,14.153l7.059,6.904,7.071-6.916Zm-2.121-12.021c1.322,1.322,2.05,3.08,2.05,4.95s-.729,3.627-2.039,4.938l-4.962,4.853-4.95-4.841c-2.729-2.729-2.729-7.17,0-9.899,1.322-1.322,3.08-2.05,4.95-2.05s3.627,.728,4.95,2.05Z"/></svg>
