<?xml version="1.0" encoding="UTF-8"?>
<svg xmlns="http://www.w3.org/2000/svg" id="Layer_1" data-name="Layer 1" viewBox="0 0 24 24" width="512" height="512"><path d="m3,21h9v3H0V3.5C0,1.57,1.57,0,3.5,0h11c1.93,0,3.5,1.57,3.5,3.5v3h0v4.621c-1.317.301-2.403,1.184-3,2.361v-6.482h0v-3.5c0-.276-.225-.5-.5-.5H3.5c-.275,0-.5.224-.5.5v17.5Zm2-2h3v-3h-3v3Zm5,0h3v-3h-3v3Zm-2-8h-3v3h3v-3Zm2,3h3v-3h-3v3Zm0-4v-2h2v-2h-2v-2h-2v2h-2v2h2v2h2Zm11,9h-4c-1.654,0-3,1.346-3,3v2h10v-2c0-1.654-1.346-3-3-3Zm-4.5-3.5c0,1.379,1.121,2.5,2.5,2.5s2.5-1.121,2.5-2.5-1.121-2.5-2.5-2.5-2.5,1.121-2.5,2.5Z"/></svg>
