<?xml version="1.0" encoding="UTF-8"?>
<svg xmlns="http://www.w3.org/2000/svg" id="Layer_1" data-name="Layer 1" viewBox="0 0 24 24" width="512" height="512"><path d="M23.269,9.557l-7.07-7.071C12.884-.829,7.491-.829,4.178,2.486l-1.061,1.061,7.254,7.254L0,21.172l2.828,2.828L13.2,13.629l2.999,2.999c.487,.487,1.127,.731,1.768,.731s1.28-.244,1.768-.731l3.535-3.535c.975-.975,.975-2.561,0-3.535ZM7.507,3.694c2.094-1.168,4.793-.863,6.57,.913l2.474,2.475-2.828,2.828L7.507,3.694Zm10.459,10.459l-2.122-2.122,2.828-2.828,2.121,2.122-2.828,2.828Z"/></svg>
