<?xml version="1.0" encoding="UTF-8"?>
<svg xmlns="http://www.w3.org/2000/svg" id="Layer_1" data-name="Layer 1" viewBox="0 0 24 24" width="512" height="512"><path d="M17.5,11c-3.59,0-6.5,2.91-6.5,6.5s2.91,6.5,6.5,6.5,6.5-2.91,6.5-6.5-2.91-6.5-6.5-6.5Zm4.06,8.44l-2.12,2.12-1.94-1.94-1.94,1.94-2.12-2.12,1.94-1.94-1.94-1.94,2.12-2.12,1.94,1.94,1.94-1.94,2.12,2.12-1.94,1.94,1.94,1.94Zm-12.42-.44c.19,1.09,.59,2.1,1.16,3H0V3.5C0,1.57,1.57,0,3.5,0h12.74l5.76,5.76v4.54c-.9-.56-1.91-.96-3-1.16v-2.14L15,3V7H5V3h-1.5c-.28,0-.5,.22-.5,.5v15.5h6.14Zm1.36-10c1.06,0,1.99,.48,2.63,1.22-1.99,1.2-3.45,3.18-3.95,5.52-1.28-.52-2.18-1.77-2.18-3.24,0-1.93,1.57-3.5,3.5-3.5Z"/><path d="M17.5,11c-3.59,0-6.5,2.91-6.5,6.5s2.91,6.5,6.5,6.5,6.5-2.91,6.5-6.5-2.91-6.5-6.5-6.5Zm4.06,8.44l-2.12,2.12-1.94-1.94-1.94,1.94-2.12-2.12,1.94-1.94-1.94-1.94,2.12-2.12,1.94,1.94,1.94-1.94,2.12,2.12-1.94,1.94,1.94,1.94Zm-12.42-.44c.19,1.09,.59,2.1,1.16,3H0V3.5C0,1.57,1.57,0,3.5,0h12.74l5.76,5.76v4.54c-.9-.56-1.91-.96-3-1.16v-2.14L15,3V7H5V3h-1.5c-.28,0-.5,.22-.5,.5v15.5h6.14Zm1.36-10c1.06,0,1.99,.48,2.63,1.22-1.99,1.2-3.45,3.18-3.95,5.52-1.28-.52-2.18-1.77-2.18-3.24,0-1.93,1.57-3.5,3.5-3.5Z"/></svg>
