<?xml version="1.0" encoding="UTF-8"?>
<svg xmlns="http://www.w3.org/2000/svg" id="Layer_1" data-name="Layer 1" viewBox="0 0 24 24" width="512" height="512"><path d="M22,19.88v-7.55c.63-.77,1-1.76,1-2.83v-.21L20.63,1H3.37l-.05,.19L2.16,.04,.04,2.16,21.84,23.96l2.12-2.12-1.96-1.96Zm-3-3l-3.22-3.22c.53,.22,1.11,.34,1.72,.34h1c.17,0,.34,0,.5-.03v2.91Zm.99-7.2c-.09,.75-.72,1.33-1.49,1.33h-1c-.83,0-1.5-.67-1.5-1.5v-.5h-3v.5c0,.38-.14,.73-.38,1l-4.5-4.5h2.88v-2h2v2h3v-2h2.37l1.62,5.67ZM8,4v1.88l-1.88-1.88h1.88Zm4.05,13l1.95,1.95v1.05c0,1.66-1.34,3-3,3H5c-1.66,0-3-1.34-3-3v-7.71c-.62-.77-1-1.73-1-2.79v-.21l.74-2.6,2.43,2.43-.16,.56c.09,.75,.72,1.33,1.49,1.33h.55l2.49,2.49c-.61,.32-1.3,.51-2.04,.51h-1c-.17,0-.33-.03-.5-.05v3.05h7.05Z"/></svg>
