<?xml version="1.0" encoding="UTF-8"?>
<svg xmlns="http://www.w3.org/2000/svg" id="Layer_1" data-name="Layer 1" viewBox="0 0 24 24" width="512" height="512"><path d="M7.41,19.74l-1.54,2.58c-1.72-1.03-3.17-2.48-4.19-4.19l2.58-1.53c.77,1.29,1.86,2.38,3.15,3.15ZM19.74,7.41l2.58-1.53c-1.02-1.72-2.47-3.17-4.19-4.19l-1.54,2.58c1.29,.77,2.38,1.86,3.15,3.15ZM1.68,5.87l2.58,1.54c.77-1.29,1.86-2.38,3.15-3.15l-1.53-2.58c-1.72,1.02-3.17,2.47-4.19,4.19Zm1.32,6.13c0-.86,.12-1.72,.36-2.54l-2.88-.84c-.32,1.1-.48,2.24-.48,3.39s.16,2.29,.48,3.39l2.88-.84c-.24-.82-.36-1.68-.36-2.54Zm9,9c-.86,0-1.72-.12-2.54-.36l-.84,2.88c1.1,.32,2.24,.48,3.39,.48s2.29-.16,3.39-.48l-.84-2.88c-.82,.24-1.68,.36-2.54,.36Zm11.52-12.39l-2.88,.84c.24,.82,.36,1.68,.36,2.54s-.12,1.72-.36,2.54l2.88,.84c.32-1.1,.48-2.24,.48-3.39s-.16-2.29-.48-3.39Zm-6.92,11.13l1.53,2.58c1.72-1.02,3.17-2.47,4.19-4.19l-2.58-1.54c-.77,1.29-1.86,2.38-3.15,3.15ZM8.61,.48l.84,2.88c.82-.24,1.68-.36,2.54-.36s1.72,.12,2.54,.36l.84-2.88c-1.1-.32-2.24-.48-3.39-.48s-2.29,.16-3.39,.48Z"/></svg>
