<?xml version="1.0" encoding="UTF-8"?>
<svg xmlns="http://www.w3.org/2000/svg" id="Layer_1" data-name="Layer 1" viewBox="0 0 24 24" width="512" height="512"><path d="M3,24H0V3.5C0,1.57,1.57,0,3.5,0H24V3H3.5c-.28,0-.5,.22-.5,.5V24Zm16-1.5c0-.83-.67-1.5-1.5-1.5s-1.5,.67-1.5,1.5,.67,1.5,1.5,1.5,1.5-.67,1.5-1.5Zm-11,0c0-.83-.67-1.5-1.5-1.5s-1.5,.67-1.5,1.5,.67,1.5,1.5,1.5,1.5-.67,1.5-1.5Zm16,0c0-.83-.67-1.5-1.5-1.5s-1.5,.67-1.5,1.5,.67,1.5,1.5,1.5,1.5-.67,1.5-1.5Zm0-5c0-.83-.67-1.5-1.5-1.5s-1.5,.67-1.5,1.5,.67,1.5,1.5,1.5,1.5-.67,1.5-1.5Zm0-5.5c0-.83-.67-1.5-1.5-1.5s-1.5,.67-1.5,1.5,.67,1.5,1.5,1.5,1.5-.67,1.5-1.5Zm0-5.5c0-.83-.67-1.5-1.5-1.5s-1.5,.67-1.5,1.5,.67,1.5,1.5,1.5,1.5-.67,1.5-1.5ZM13.5,22.5c0-.83-.67-1.5-1.5-1.5s-1.5,.67-1.5,1.5,.67,1.5,1.5,1.5,1.5-.67,1.5-1.5Z"/></svg>
