<?xml version="1.0" encoding="UTF-8"?>
<svg xmlns="http://www.w3.org/2000/svg" id="Layer_1" data-name="Layer 1" viewBox="0 0 24 24" width="512" height="512"><path d="M20.5,5h-2.5v-1.5c0-1.93-1.57-3.5-3.5-3.5H3.5C1.57,0,0,1.57,0,3.5v15.15c0,1.05,1.14,1.71,2.05,1.19l3.95-2.26v4.43h11l4.44,1.86,.14,.05c.18,.05,.36,.08,.54,.08,1.03,0,1.87-.84,1.87-1.87V8.5c0-1.93-1.56-3.5-3.49-3.5ZM5,10h2c0,.55,.45,1,1,1h2.38c.34,0,.62-.28,.62-.62,0-.31-.22-.57-.52-.62l-3.28-.55c-1.27-.21-2.19-1.3-2.19-2.59,0-1.45,1.18-2.62,2.62-2.62h.38v-1h2v1c1.65,0,3,1.35,3,3h-2c0-.55-.45-1-1-1h-2.38c-.34,0-.62,.28-.62,.62,0,.31,.22,.57,.52,.62l3.28,.55c1.27,.21,2.19,1.3,2.19,2.59,0,1.45-1.18,2.62-2.62,2.62h-.38v1h-2v-1c-1.65,0-3-1.35-3-3Zm16,10.42l-3.4-1.42H9v-2h9V8h2.5c.28,0,.5,.22,.5,.5v11.92Z"/></svg>
