<?xml version="1.0" encoding="UTF-8"?>
<svg xmlns="http://www.w3.org/2000/svg" id="Layer_1" data-name="Layer 1" viewBox="0 0 24 24" width="512" height="512"><path d="M12,0C5.383,0,0,5.383,0,12v12H10v-6c0-1.103,.897-2,2-2s2,.897,2,2v6h10V12C24,5.383,18.617,0,12,0Zm8.776,10c.147,.643,.224,1.313,.224,2v2h-4v-4h3.776Zm-1.296-3h-5.98V3.126c2.486,.419,4.628,1.86,5.98,3.874ZM10.5,3.126v3.874H4.52c1.351-2.015,3.494-3.456,5.98-3.874Zm-3.5,10.874H3v-2c0-.687,.078-1.357,.224-2h3.776v4Zm0,7H3v-4H7.101c-.066,.323-.101,.658-.101,1v3Zm5-8c-.711,0-1.387,.149-2,.418v-3.418h4v3.418c-.613-.269-1.289-.418-2-.418Zm5,8v-3c0-.342-.035-.677-.101-1h4.101v4h-4Z"/></svg>
