<?xml version="1.0" encoding="UTF-8"?>
<svg xmlns="http://www.w3.org/2000/svg" id="Layer_1" data-name="Layer 1" viewBox="0 0 24 24" width="512" height="512"><path d="M20.94,11.06c.67-.76,1.06-1.75,1.06-2.81,0-2.34-1.91-4.25-4.25-4.25-.62,0-1.22,.14-1.75,.38v-1.38h1V0H7V3h1V7.7l-4.44,2.96c-.98,.65-1.56,1.74-1.56,2.91v10.43H22V13.57c0-.96-.39-1.86-1.06-2.51Zm-3.19-4.06c.69,0,1.25,.56,1.25,1.25,0,.44-.23,.83-.58,1.06l-1.9-1.27c.1-.59,.61-1.04,1.23-1.04Zm1.25,14H5v-4h12v-3H5v-.43c0-.17,.08-.32,.22-.42l5.78-3.85V3h2v6.3l5.78,3.85c.14,.09,.22,.25,.22,.42v7.43Z"/></svg>
