<?xml version="1.0" encoding="UTF-8"?>
<svg xmlns="http://www.w3.org/2000/svg" id="Layer_1" data-name="Layer 1" viewBox="0 0 24 24" width="512" height="512"><path d="M8.09,24c-2.17,0-4.04-1.43-4.68-3.41-1.99-.64-3.42-2.5-3.42-4.68,0-2.71,2.2-4.91,4.91-4.91,.76,0,1.51,.18,2.17,.51l4.42-4.42c-.33-.67-.51-1.41-.51-2.17,0-2.71,2.2-4.91,4.91-4.91,2.17,0,4.04,1.43,4.68,3.41,1.99,.64,3.42,2.5,3.42,4.68,0,2.71-2.2,4.91-4.91,4.91-.77,0-1.51-.18-2.18-.51l-4.42,4.42c.33,.67,.51,1.41,.51,2.18,0,2.71-2.2,4.91-4.91,4.91Zm-3.18-10c-1.05,0-1.91,.86-1.91,1.91s.78,1.84,1.79,1.9l1.32,.08,.08,1.32c.06,1,.9,1.78,1.9,1.78s1.91-.86,1.91-1.91c0-.49-.19-.96-.53-1.32l-1.02-1.06,8.26-8.26,1.06,1.02c.36,.34,.83,.53,1.32,.53,1.05,0,1.91-.86,1.91-1.91s-.78-1.84-1.79-1.9l-1.32-.08-.08-1.32c-.06-1-.9-1.78-1.9-1.78s-1.91,.86-1.91,1.91c0,.49,.19,.96,.53,1.32l1.02,1.06L7.29,15.54l-1.06-1.01c-.36-.34-.83-.53-1.32-.53Z"/></svg>
