<?xml version="1.0" encoding="UTF-8"?>
<svg xmlns="http://www.w3.org/2000/svg" id="Layer_1" data-name="Layer 1" viewBox="0 0 24 24" width="512" height="512"><path d="m18.173,11.017c.504.504.828,1.192.827,1.96v2.023h-4v-2.593c-1.068-.456-2.047-.68-3-.686-1.003-.006-1.978.228-3,.686v2.593h-4v-2.023c0-.768.323-1.456.827-1.96,1.308-1.308,3.733-2.006,6.173-2.017,2.39-.011,4.793.637,6.173,2.017Zm5.827-7.517v20.5H0V3.5C0,1.57,1.57,0,3.5,0h17c1.93,0,3.5,1.57,3.5,3.5Zm-3,0c0-.275-.225-.5-.5-.5H3.5c-.275,0-.5.225-.5.5v17.5h18V3.5Z"/></svg>
