<?xml version="1.0" encoding="UTF-8"?>
<svg xmlns="http://www.w3.org/2000/svg" id="Layer_1" data-name="Layer 1" viewBox="0 0 24 24" width="512" height="512"><path d="M22,13.29c.62-.77,1-1.73,1-2.79L20.67,1H3.37l-.06,.19L2.16,.04,.04,2.16,21.84,23.96l2.12-2.12-1.96-1.96v-6.58Zm-2.01-2.64c-.08,.76-.72,1.35-1.49,1.35h-1c-.83,0-1.5-.67-1.5-1.5v-1.5h-3v1.67c0,.06-.02,.12-.03,.18l-4.85-4.85h2.88v-2h2v2h3v-2h2.33l1.66,6.65ZM8,4v1.88l-1.88-1.88h1.88Z"/><path d="M5,20v-5.05c.17,.02,.34,.05,.51,.05h1c.99,0,1.91-.33,2.65-.88l-2.2-2.2c-.15,.05-.3,.08-.46,.08h-1c-.78,0-1.42-.59-1.49-1.35l.34-1.35L1.89,6.83l-.83,3.3-.04,.36c0,1.05,.38,2.01,.99,2.78v6.72c0,1.66,1.34,3,3,3h13.05l-3-3H5Z"/></svg>
