<?xml version="1.0" encoding="UTF-8"?>
<svg xmlns="http://www.w3.org/2000/svg" id="Layer_1" data-name="Layer 1" viewBox="0 0 24 24" width="512" height="512"><path d="M23.91,17.05l-1.65-7.82c-1.03-3.67-4.42-6.24-8.26-6.24-4.05,0-7.49,2.74-8.37,6.69l-1.55,7.43c-.21,.95,.02,1.93,.63,2.69,.61,.76,1.52,1.19,2.49,1.19h3.35c.24,1.69,1.69,3,3.45,3s3.21-1.31,3.45-3h3.35c.93,0,1.79-.39,2.39-1.07l.16-.19c.61-.8,.81-1.82,.56-2.69Zm-2.93,.86h0c-.04,.06-.09,.09-.16,.09H7.2c-.07,0-.12-.02-.16-.07-.04-.05-.05-.1-.03-.17l1.55-7.43c.57-2.55,2.81-4.33,5.44-4.33,2.5,0,4.7,1.66,5.35,3.95l1.65,7.82c.01,.05,0,.1-.02,.15ZM5.26,5.61c-.73,1.08-1.29,2.32-1.59,3.67l-1.54,7.41c-.08,.35-.12,.71-.12,1.06-.5-.2-.95-.51-1.3-.94-.61-.76-.84-1.74-.63-2.69L1.62,6.69C2.51,2.74,5.95,0,10,0c1.43,0,2.81,.36,4.02,1,0,0-.01,0-.02,0-3.26,0-6.2,1.46-8.15,3.83-.02,.02-.03,.04-.05,.06-.16,.19-.31,.39-.45,.6-.03,.05-.06,.09-.09,.13Z"/></svg>
