<?xml version="1.0" encoding="UTF-8"?>
<svg xmlns="http://www.w3.org/2000/svg" id="Layer_1" data-name="Layer 1" viewBox="0 0 24 24" width="512" height="512"><path d="M20.834,12.206c-.41-.798-.834-1.625-.834-2.206,0-.898,.435-1.735,1.327-2.558l.671-.619-1.633-5.964-1.567,.642c-.74,.303-2.034,.499-3.298,.499-.939,0-1.294-.224-2.536-1.265l-.964-.809-.964,.809c-1.103,.925-1.926,1.269-3.036,1.269-1.087,0-1.949-.155-2.798-.502l-1.567-.642-1.633,5.964,.671,.619c.893,.823,1.327,1.66,1.327,2.558,0,.582-.424,1.408-.834,2.206-.547,1.064-1.166,2.271-1.166,3.578,0,4.81,4.851,6.342,7.456,7.165,.613,.193,1.193,.376,1.495,.528l1.049,.524,1.049-.524c.302-.151,.882-.334,1.495-.528,2.605-.823,7.456-2.355,7.456-7.165,0-1.307-.619-2.513-1.166-3.578ZM5.673,4.774c.726,.155,1.49,.229,2.327,.229,1.457,0,2.693-.372,3.966-1.218,.936,.702,1.944,1.214,3.534,1.214,.432,0,1.599-.025,2.817-.26l.319,1.167c-.58,.66-1.008,1.359-1.28,2.094H6.643c-.272-.734-.699-1.434-1.28-2.094l.31-1.132Zm7.968,15.313c-.624,.197-1.178,.372-1.641,.57-.463-.198-1.017-.374-1.641-.57-2.933-.926-5.359-1.889-5.359-4.304,0-.582,.424-1.408,.834-2.207,.404-.787,.848-1.651,1.052-2.577h10.228c.204,.926,.648,1.79,1.052,2.577,.41,.799,.834,1.625,.834,2.207,0,2.415-2.427,3.378-5.359,4.304Z"/></svg>
