<?xml version="1.0" encoding="UTF-8"?>
<svg xmlns="http://www.w3.org/2000/svg" id="Layer_1" data-name="Layer 1" viewBox="0 0 24 24" width="512" height="512"><path d="M12,14c-3.034,0-4.862-1.741-5.061-1.939l2.121-2.121c.034,.032,1.132,1.061,2.939,1.061s2.905-1.029,2.951-1.072l2.109,2.133c-.198,.199-2.027,1.939-5.061,1.939Zm-2.5-8c-.828,0-1.5,.672-1.5,1.5s.672,1.5,1.5,1.5,1.5-.672,1.5-1.5-.672-1.5-1.5-1.5Zm5,0c-.828,0-1.5,.672-1.5,1.5s.672,1.5,1.5,1.5,1.5-.672,1.5-1.5-.672-1.5-1.5-1.5Zm4.571,11.071c3.899-3.899,3.899-10.243,0-14.142-1.889-1.889-4.4-2.929-7.071-2.929S6.817,1.04,4.929,2.929c-3.899,3.899-3.899,10.243,.012,14.153l7.059,6.904,7.071-6.916Zm-2.121-12.021c1.322,1.322,2.05,3.08,2.05,4.95s-.729,3.627-2.039,4.938l-4.962,4.853-4.95-4.841c-2.729-2.729-2.729-7.17,0-9.899,1.322-1.322,3.08-2.05,4.95-2.05s3.627,.728,4.95,2.05Z"/></svg>
