<?xml version="1.0" encoding="UTF-8"?>
<svg xmlns="http://www.w3.org/2000/svg" id="Layer_1" data-name="Layer 1" viewBox="0 0 24 24" width="512" height="512"><path d="M24,17.032c0-2.852-.494-5.656-1.484-8.375l-2.127-5.353c-.501-1.378-1.823-2.304-3.289-2.304h-.814l3.427,8.724c.153,.421,.285,.848,.406,1.276H3.878c.118-.416,.246-.829,.393-1.235L7.794,1h-.894c-1.466,0-2.788,.926-3.272,2.263L1.469,8.698c-.975,2.678-1.469,5.481-1.469,8.333v2.968H3v3H7v-3h10v3h4v-3h3v-2.968Zm-7-3.032h3v3h-3v-3Zm-10,3h-3v-3h3v3Zm5.681-6.575l-2.362-1.85,1.233-1.575h-.937c-.667,0-1.301-.32-1.699-.855-.397-.535-.519-1.235-.325-1.873L11.252,.167l2.495,1.665-1.446,2.167h1.094c.776,0,1.487,.425,1.854,1.109,.367,.684,.329,1.511-.101,2.157l-2.467,3.158Z"/></svg>
