<?xml version="1.0" encoding="UTF-8"?>
<svg xmlns="http://www.w3.org/2000/svg" id="Layer_1" data-name="Layer 1" viewBox="0 0 24 24" width="512" height="512"><path d="m9.5,16c-.828,0-1.5-.672-1.5-1.5s.672-1.5,1.5-1.5,1.5.672,1.5,1.5-.672,1.5-1.5,1.5Zm3.457,1.906c-1.838.295-3.786-.249-5.2-1.663-1.413-1.414-1.957-3.362-1.663-5.199l-2.828-2.828-1.528-.383-.729,2.91,2.034.51c-.04.488-.041.979-.002,1.468l-2.031.51.73,2.91,2.029-.509c.241.55.539,1.081.896,1.583l-.811.811c-.116-.016-.234-.025-.354-.025-1.381,0-2.5,1.118-2.5,2.497s1.119,2.497,2.5,2.497,2.5-1.118,2.5-2.497c0-.119-.009-.236-.025-.351l.81-.81c.542.386,1.118.705,1.715.956l-.524,2.086,2.91.73.535-2.131c.192.012.385.019.578.019.279,0,.557-.014.835-.04l.54,2.152,2.91-.73-.383-1.527-2.945-2.945Zm1.543-9.906c-.828,0-1.5.672-1.5,1.5s.672,1.5,1.5,1.5,1.5-.672,1.5-1.5-.672-1.5-1.5-1.5Zm9.46,13.84l-2.121,2.121L.04,2.16,2.161.039l.986.986c.752-.107,1.543.129,2.121.707s.814,1.369.707,2.121l.81.811c.47-.335.966-.619,1.479-.853l-.549-2.189,2.91-.73.539,2.151c.47-.043.943-.05,1.413-.02l.535-2.131,2.91.73-.523,2.086c.598.251,1.173.57,1.715.956l.811-.811c-.017-.115-.025-.233-.025-.354,0-1.381,1.119-2.5,2.5-2.5s2.5,1.119,2.5,2.5-1.119,2.5-2.5,2.5c-.12,0-.238-.009-.354-.025l-.811.811c.357.502.657,1.032.899,1.582l2.027-.508.73,2.91-2.025.508c.039.489.038.982-.002,1.471l2.027.508-.729,2.91-2.038-.511c-.24.542-.536,1.064-.888,1.559l.81.81c.752-.107,1.543.129,2.122.707s.814,1.37.707,2.122l.986.986Zm-7.718-14.083c-1.974-1.974-4.991-2.283-7.291-.926l8.217,8.217c1.355-2.3,1.047-5.318-.926-7.291Z"/></svg>
