<?xml version="1.0" encoding="UTF-8"?>
<svg xmlns="http://www.w3.org/2000/svg" id="Layer_1" data-name="Layer 1" viewBox="0 0 24 24" width="512" height="512"><path d="m22.5,8.5h1.5v-4c0-1.93-1.57-3.5-3.5-3.5h-12c-1.93,0-3.5,1.57-3.5,3.5v11c0,1.93,1.57,3.5,3.5,3.5h12c1.93,0,3.5-1.57,3.5-3.5v-4h-1.5c-.827,0-1.5-.673-1.5-1.5s.673-1.5,1.5-1.5Zm-1.5-2.743c-1.746.619-3,2.287-3,4.243s1.254,3.624,3,4.243v1.257c0,.275-.224.5-.5.5h-12c-.276,0-.5-.225-.5-.5V4.5c0-.275.224-.5.5-.5h12c.276,0,.5.225.5.5v1.257Zm-4,4.243v1h-2l-1.911,2.421c-.195.357-.569.579-.975.579h-1.113l1.359-3h-1.709l-1.546-1.833c-.297-.52.078-1.167.677-1.167.207,0,.405.082.551.228l.924.772h1.12l-1.376-3h1.096c.407,0,.781.222.975.579l1.929,2.421h1c.802,0,1,.448,1,1Zm-8.5,11h10.5v3h-10.5C3.813,24,0,20.187,0,15.5v-7.5h3v7.5c0,3.032,2.467,5.5,5.5,5.5Z"/></svg>
