<?xml version="1.0" encoding="UTF-8"?>
<svg xmlns="http://www.w3.org/2000/svg" id="Layer_1" data-name="Layer 1" viewBox="0 0 24 24" width="512" height="512"><path d="M4.5,11c2.48,0,4.5-2.02,4.5-4.5v-2C9,2.02,6.98,0,4.5,0S0,2.02,0,4.5v2c0,2.48,2.02,4.5,4.5,4.5Zm-1.5-6.5c0-.83,.67-1.5,1.5-1.5s1.5,.67,1.5,1.5v2c0,.83-.67,1.5-1.5,1.5s-1.5-.67-1.5-1.5v-2Zm2,8.5v11H2v-6.44L.12,15.72l2.66-2.72h2.22Zm18,2v-1.5c0-2.48-2.02-4.5-4.5-4.5s-4.5,2.02-4.5,4.5v1.5h-1v6c0,1.65,1.35,3,3,3h5c1.65,0,3-1.35,3-3v-6h-1Zm-6-1.5c0-.83,.67-1.5,1.5-1.5s1.5,.67,1.5,1.5v1.5h-3v-1.5Zm3,7.5h-3v-3h3v3Zm-9,0c0,1.11,.37,2.12,.99,2.95-.16,.02-.32,.05-.49,.05-2.48,0-4.5-2.02-4.5-4.5v-2c0-2.31,1.76-4.2,4-4.45v3.04c-.58,.21-1,.76-1,1.41v2c0,.65,.42,1.2,1,1.41v.09Zm1.5-10h-.5V4.56l-1.88-1.83L12.78,0h2.22V8.03c-1.11,.71-1.99,1.74-2.5,2.97Z"/></svg>
