<?xml version="1.0" encoding="UTF-8"?>
<svg xmlns="http://www.w3.org/2000/svg" id="Layer_1" data-name="Layer 1" viewBox="0 0 24 24" width="512" height="512"><path d="M11,11H3c-1.654,0-3,1.346-3,3v3H2v2H0v3H2v2h3v-2h4v2h3v-2h2v-3h-2v-2h2v-3c0-1.654-1.346-3-3-3Zm-2,8H5v-2h4v2Zm14.523-8.5c.312,.619,.477,1.302,.477,2,0,2.481-2.019,4.5-4.5,4.5-.176,0-.342-.008-.5-.022v7.022h-3V13.462h1.5c.417,0,.727,.156,.953,.271,.249,.125,.53,.268,1.047,.268,.827,0,1.5-.673,1.5-1.5,0-.463-.214-.797-.393-.996l-.904-1.004,.904-1.004c.179-.199,.393-.533,.393-.996,0-.669-.458-1.26-1.112-1.437l-1.629-.442,.63-1.565c.074-.184,.111-.371,.111-.556,0-.827-.673-1.5-1.5-1.5s-1.5,.673-1.5,1.5c0,.185,.038,.372,.111,.556l.63,1.565-1.629,.442c-.654,.177-1.112,.768-1.112,1.437,0,.463,.214,.797,.393,.995,.188,.209,.281,.459,.332,.716-.873-.745-1.99-1.211-3.225-1.211h-.453c-.019-.166-.047-.331-.047-.5,0-1.526,.781-2.916,2.008-3.733-.005-.089-.008-.178-.008-.267,0-2.481,2.019-4.5,4.5-4.5s4.5,2.019,4.5,4.5c0,.089-.002,.178-.008,.267,1.227,.817,2.008,2.207,2.008,3.733,0,.698-.165,1.381-.477,2Z"/></svg>
