<?xml version="1.0" encoding="UTF-8"?>
<svg xmlns="http://www.w3.org/2000/svg" id="Layer_1" data-name="Layer 1" viewBox="0 0 24 24" width="512" height="512"><path d="M20,0H7.5C4.416,0,2,3.514,2,8v11c0,1.103-.897,2-2,2v3H14.5c2.481,0,4.5-2.019,4.5-4.5v-3.5h1c2.209,0,4-3.582,4-8S22.209,0,20,0Zm-4,19.5c0,.827-.673,1.5-1.5,1.5H4.582c.269-.612,.418-1.289,.418-2V8c0-2.861,1.32-5,2.5-5h9.378c-.549,1.37-.878,3.108-.878,5v11.5Zm4-8c-.552,0-1-1.567-1-3.5s.448-3.5,1-3.5,1,1.567,1,3.5-.448,3.5-1,3.5Z"/></svg>
