<?xml version="1.0" encoding="UTF-8"?>
<svg xmlns="http://www.w3.org/2000/svg" id="Layer_1" data-name="Layer 1" viewBox="0 0 24 24" width="512" height="512"><path d="m19.679,2.601L12,.055l-7.679,2.546c-1.388.461-2.321,1.752-2.321,3.212v6.162c0,6.516,6.851,10.449,8.953,11.501l.983.489,1.021-.409c2.122-.854,9.043-4.211,9.043-11.581v-6.162c0-1.46-.933-2.751-2.321-3.212Zm-.679,9.374c0,5.261-5.034,7.896-6.932,8.702-1.926-.999-7.068-4.1-7.068-8.702v-6.162c0-.168.104-.311.266-.364l6.734-2.233,6.734,2.233c.161.054.266.196.266.364v6.162Zm-1,1.525c0,.828-.672,1.5-1.5,1.5-.682,0-1.257-.455-1.439-1.078l-1.113-.643c-.277.237-.597.425-.948.549v3.172h-2v-3.172c-.35-.124-.671-.312-.948-.549l-1.113.643c-.182.623-.758,1.078-1.439,1.078-.828,0-1.5-.672-1.5-1.5s.672-1.5,1.5-1.5c.202,0,.395.04.572.113l.979-.565c-.033-.178-.051-.36-.051-.548s.018-.37.051-.548l-2.747-1.586,1-1.732,2.749,1.587c.277-.237.597-.424.947-.549v-1.554c-.307-.275-.5-.674-.5-1.118,0-.828.672-1.5,1.5-1.5s1.5.672,1.5,1.5c0,.444-.193.843-.5,1.118v1.554c.35.124.671.312.948.549l2.749-1.587,1,1.732-2.747,1.586c.033.178.051.361.051.548s-.018.37-.051.548l.979.565c.176-.073.369-.113.572-.113.828,0,1.5.672,1.5,1.5Z"/></svg>
