<?xml version="1.0" encoding="UTF-8"?>
<svg xmlns="http://www.w3.org/2000/svg" id="Layer_1" data-name="Layer 1" viewBox="0 0 24 24" width="512" height="512"><g><polygon points="18 16.5 15 16.5 15 4 9 4 9 7.5 6 7.5 6 1 18 1 18 16.5"/><rect x="20" y="1" width="3" height="20.5"/><rect x="7.5" y="1" width="9" height="3"/><rect x="16.5" y="4" width="4.5" height="3"/><rect x="11.5" y="10" width="9.5" height="3"/><rect x="17" y="16" width="4.5" height="3"/></g><rect x="2.5" y="16" width="5" height="3"/><rect x="10.495" y="-3.468" width="3" height="30.926" transform="translate(-4.968 11.995) rotate(-45)"/><polygon points="18.05 23 15.05 20 9 20 9 13.949 1 5.949 1 23 4 23 4 13 6 13 6 23 18.05 23"/></svg>
