<?xml version="1.0" encoding="UTF-8"?>
<svg xmlns="http://www.w3.org/2000/svg" id="Layer_1" data-name="Layer 1" viewBox="0 0 24 24" width="512" height="512"><path d="m18.993,13.572c.097-.385,1.027-1.409,1.644-2.086,1.576-1.733,3.363-3.698,3.363-5.986,0-3.248-2.679-3.5-3.5-3.5-1.353,0-2.466.591-3.449,1.113-.896.476-1.67.887-2.551.887-.616,0-1.55-.95-2.301-1.712C11.092,1.162,9.947-.001,8.389-.001c-.343-.012-.78,0-1.278.183-1.476.542-1.812,2.043-1.957,2.685-.157.7-.163,1.843-.155,3.051l.002.355c0,.308-1.232,1.008-1.759,1.307C1.798,8.4,0,9.422,0,11.442,0,13.36,1.661,14.138,2.76,14.653c.636.298,1.169.564,1.233.778-.06.204-1.05,2.108-1.05,2.108-.382.691-.628,1.3-.771,1.914-.287,1.221.094,2.424.97,3.065,1.024.749,2.227.433,2.74.297.901-.238,1.738-.839,2.624-1.477.829-.596,1.86-1.338,2.444-1.341.346.053,1.644.743,3.654,2.367.757.611,2.281,1.635,3.985,1.635,2.071,0,3.409-1.338,3.409-3.409,0-1.935-1.01-3.404-1.822-4.585-.632-.919-1.178-1.713-1.185-2.434Zm-.025,7.371s-.097.057-.377.057c-.562,0-1.349-.363-2.101-.97-3.754-3.03-5.016-3.03-5.49-3.03-1.6,0-3.005,1.011-4.245,1.903-.574.413-1.223.88-1.597,1,.088-.273.221-.568.41-.911,0,0,1.42-2.785,1.432-3.468.033-2.181-1.845-3.061-2.967-3.587-.318-.149-.829-.389-1.018-.552.141-.306,1.268-.947,1.709-1.198,1.459-.83,3.275-1.862,3.275-3.915l-.002-.375c-.004-.583-.013-1.95.083-2.373.063-.284.115-.441.151-.527.007,0,.013,0,.019,0,.048,0,.102,0,.153.002.332.047,1.161.89,1.656,1.394,1.144,1.162,2.566,2.608,4.439,2.608,1.628,0,2.92-.686,3.958-1.237.771-.409,1.437-.763,2.042-.763.299,0,.449.055.449.035.015.029.051.131.051.465,0,1.127-1.432,2.702-2.583,3.967-1.297,1.426-2.417,2.658-2.417,4.033,0,1.724.906,3.042,1.706,4.206.694,1.01,1.294,1.882,1.294,2.885,0,.253-.032.341-.032.353Zm-9.468-9.943c-.828,0-1.5-.672-1.5-1.5s.672-1.5,1.5-1.5,1.5.672,1.5,1.5-.672,1.5-1.5,1.5Zm6.5-.5c0,.828-.672,1.5-1.5,1.5s-1.5-.672-1.5-1.5.672-1.5,1.5-1.5,1.5.672,1.5,1.5Zm-4,4c0,.828-.672,1.5-1.5,1.5s-1.5-.672-1.5-1.5.672-1.5,1.5-1.5,1.5.672,1.5,1.5Z"/></svg>
