<?xml version="1.0" encoding="UTF-8"?>
<svg xmlns="http://www.w3.org/2000/svg" id="Layer_1" data-name="Layer 1" viewBox="0 0 24 24" width="512" height="512"><path d="m12,0C5.383,0,0,5.383,0,12s5.383,12,12,12,12-5.383,12-12S18.617,0,12,0Zm0,21c-4.963,0-9-4.038-9-9,0-1.203.238-2.351.668-3.401l1.332,1.401h3l1,1v2l2,2v4h2l3-6.5-4-2.5h-2.5l-1.5-1.5,1.5-1.5,2,1,1-1-1.5-2.5s.406-.631.973-1.5c.009,0,.018,0,.027,0,3.159,0,5.943,1.637,7.549,4.106l-1.549.894,1,4,1.948.967c-.484,4.509-4.312,8.033-8.948,8.033Z"/></svg>
