<?xml version="1.0" encoding="UTF-8"?>
<svg xmlns="http://www.w3.org/2000/svg" id="Layer_1" data-name="Layer 1" viewBox="0 0 24 24" width="512" height="512"><path d="M14.086,18.414c.392,.392,.905,.586,1.418,.586,.509,0,1.017-.191,1.399-.575l2.793-2.707-1.393-1.436-2.814,2.707-.944-.915c2.099-1.649,3.455-4.204,3.455-7.074C18,4.037,13.963,0,9,0S0,4.037,0,9v9H9c1.353,0,2.633-.309,3.786-.846l1.3,1.26ZM3,15v-6c0-3.309,2.691-6,6-6s6,2.691,6,6-2.691,6-6,6H3ZM11.953,6.465c.223,1.273-.383,2.545-1.507,3.164-.187,.103-.446,.563-.446,.876v.495h-2v-.495c0-1.033,.637-2.163,1.481-2.628,.29-.159,.595-.534,.501-1.066-.068-.392-.401-.725-.792-.793-.305-.056-.602,.021-.833,.216-.227,.19-.357,.47-.357,.767h-2c0-.89,.391-1.728,1.072-2.299,.681-.571,1.579-.813,2.464-.653,1.209,.211,2.203,1.205,2.417,2.417Zm-3.953,5.535h2v2h-2v-2Zm16,4v8h-8c-2.955,0-5.535-1.615-6.92-4.004,1.159-.008,2.274-.199,3.322-.54,.91,.948,2.184,1.544,3.598,1.544h5v-5c0-1.415-.597-2.688-1.544-3.598,.342-1.048,.532-2.163,.54-3.322,2.389,1.385,4.004,3.965,4.004,6.92Z"/></svg>
