<?xml version="1.0" encoding="UTF-8"?>
<svg xmlns="http://www.w3.org/2000/svg" id="Layer_1" data-name="Layer 1" viewBox="0 0 24 24" width="512" height="512"><path d="m16.5,2.5c0-1.381,1.119-2.5,2.5-2.5s2.5,1.119,2.5,2.5-1.119,2.5-2.5,2.5-2.5-1.119-2.5-2.5Zm4.5,18.5v3h-4v-3h-2.94l1.432-11.948c.209-1.74,1.669-3.052,3.396-3.052h.225c1.728,0,3.188,1.312,3.396,3.052l1.432,11.948h-2.94Zm-3.56-3h3.119l-1.029-8.591c-.029-.241-.201-.409-.418-.409h-.225c-.217,0-.389.168-.418.409l-1.029,8.591ZM4,5c1.381,0,2.5-1.119,2.5-2.5S5.381,0,4,0,1.5,1.119,1.5,2.5s1.119,2.5,2.5,2.5Zm4,4.5v8.5h-2v6H2v-6H0v-8.5c0-1.93,1.57-3.5,3.5-3.5h1c1.93,0,3.5,1.57,3.5,3.5Zm-5,5.5h2v-5.5c0-.275-.225-.5-.5-.5h-1c-.275,0-.5.225-.5.5v5.5Zm7,9h3V0h-3v24Z"/></svg>
