<?xml version="1.0" encoding="UTF-8"?>
<svg xmlns="http://www.w3.org/2000/svg" id="Layer_1" data-name="Layer 1" viewBox="0 0 24 24" width="512" height="512"><path d="M21.011,14.037c.037-.025,.073-.051,.109-.078,.972-.729,1.169-2.108,.44-3.08s-2.108-1.169-3.08-.44c-1.339,1.004-1.842,2.771-1.98,3.56-.138-.789-.641-2.556-1.98-3.56-.972-.729-2.351-.532-3.08,.44s-.532,2.351,.44,3.08c.036,.027,.072,.052,.109,.078-1.688,.248-2.989,1.706-2.989,3.463v3.5H3V8.5c0-.275,.224-.5,.5-.5H13.5c.075,0,1.623,.393,2.221,.841,.518,.388,.936,.844,1.279,1.322v-1.662c0-1.93-1.57-3.5-3.5-3.5h-1.879l2.439-2.439L11.939,.439l-1.939,1.939V0h-3V2.379L5.061,.439,2.939,2.561l2.439,2.439h-1.879c-1.93,0-3.5,1.57-3.5,3.5v15.5H24v-6.5c0-1.756-1.3-3.214-2.989-3.463Zm-6.011,6.963h-3v-3.5c0-.275,.224-.5,.5-.5h2.5v4Zm6,0h-3v-4h2.5c.276,0,.5,.225,.5,.5v3.5Z"/></svg>
