<?xml version="1.0" encoding="UTF-8"?>
<svg xmlns="http://www.w3.org/2000/svg" id="Layer_1" data-name="Layer 1" viewBox="0 0 24 24" width="512" height="512"><path d="M21,19h3v4H0v-4H3v1H21v-1Zm-.5-18H3.5C1.57,1,0,2.57,0,4.5v1.5H3v-1.5c0-.28,.22-.5,.5-.5H20.5c.28,0,.5,.22,.5,.5v1.5h3v-1.5c0-1.93-1.57-3.5-3.5-3.5ZM2,17H0v-7c0-1.1,.9-2,2-2h1.88c1.45,0,2.78,.98,3.06,2.4,.37,1.92-1.09,3.6-2.94,3.6H2v3Zm0-5h2c.55,0,1-.45,1-1s-.45-1-1-1H2v2Zm11.9,1.32l2.1,3.68h-2.19l-1.72-3s-.06,0-.09,0h-2v3h-2v-7c0-1.1,.9-2,2-2h1.86c1.49,0,2.86,1.03,3.1,2.5,.19,1.13-.27,2.18-1.06,2.83Zm-3.9-1.32h2c.55,0,1-.45,1-1s-.45-1-1-1h-2v2Zm14-.5v2c0,1.93-1.57,3.5-3.5,3.5s-3.5-1.57-3.5-3.5v-2c0-1.93,1.57-3.5,3.5-3.5s3.5,1.57,3.5,3.5Zm-2,0c0-.83-.67-1.5-1.5-1.5s-1.5,.67-1.5,1.5v2c0,.83,.67,1.5,1.5,1.5s1.5-.67,1.5-1.5v-2Z"/></svg>
