<?xml version="1.0" encoding="UTF-8"?>
<svg xmlns="http://www.w3.org/2000/svg" id="Layer_1" data-name="Layer 1" viewBox="0 0 24 24" width="512" height="512"><path d="m12,0C5.383,0,0,5.383,0,12s5.383,12,12,12,12-5.383,12-12S18.617,0,12,0Zm0,21c-4.963,0-9-4.037-9-9S7.037,3,12,3s9,4.037,9,9-4.037,9-9,9Zm-1.5-9c0-.828.672-1.5,1.5-1.5s1.5.672,1.5,1.5-.672,1.5-1.5,1.5-1.5-.672-1.5-1.5Zm8.5,0h-3.5c0-1.221-.628-2.294-1.576-2.92l1.926-2.927c.773.508,1.459,1.177,2,2,.781,1.188,1.151,2.525,1.15,3.848Zm-10.5,0h-3.5c-.001-1.323.368-2.66,1.15-3.848.541-.822,1.227-1.491,2-2l1.926,2.927c-.948.626-1.576,1.699-1.576,2.92Zm5.338,2.969l1.841,2.973c-1.07.665-2.326,1.06-3.678,1.06s-2.608-.395-3.678-1.06l1.84-2.973c.535.332,1.162.531,1.838.531s1.303-.199,1.838-.531Z"/></svg>
