<?xml version="1.0" encoding="UTF-8"?>
<svg xmlns="http://www.w3.org/2000/svg" id="Layer_1" data-name="Layer 1" viewBox="0 0 24 24" width="512" height="512"><path d="M11,6c-1.65,0-3,1.35-3,3,0,1,.47,2.01,.96,2.85-.29,.1-.6,.15-.96,.15-.62,0-1.26-.33-1.87-.87,1.27-2.17,1.87-4.87,1.87-7.13S6.21,0,4,0,0,1.79,0,4s.84,4.97,2.26,7.17c-.63,.52-1.36,.83-2.2,.83v3c1.66,0,3.04-.59,4.16-1.54,1.11,.95,2.38,1.54,3.78,1.54,3.71,0,6-3.11,6-6,0-1.65-1.35-3-3-3Zm-6.85,2.36c-.7-1.42-1.15-3.02-1.15-4.36,0-.55,.45-1,1-1s1,.45,1,1c0,1.37-.29,2.96-.85,4.36ZM0,17H11v3H0v-3Zm23-2v-1.5c0-2.48-2.02-4.5-4.5-4.5s-4.5,2.02-4.5,4.5v1.5h-1v6c0,1.65,1.35,3,3,3h5c1.65,0,3-1.35,3-3v-6h-1Zm-6-1.5c0-.83,.67-1.5,1.5-1.5s1.5,.67,1.5,1.5v1.5h-3v-1.5Zm3,7.5h-3v-3h3v3ZM14.8,5.63l-.33-.38,2.27-1.96,.33,.38c.82,.95,1.45,2.08,1.86,3.35-.14,0-.29-.02-.44-.02-.92,0-1.79,.19-2.58,.54-.29-.73-.66-1.38-1.12-1.9Z"/></svg>
