<?xml version="1.0" encoding="UTF-8"?>
<svg xmlns="http://www.w3.org/2000/svg" id="Layer_1" data-name="Layer 1" viewBox="0 0 24 24" width="512" height="512"><path d="M24,24H0v-3H24v3Z"/><path d="M7.891,18.731L1.258,14.305C.369,13.673-.083,12.688,.013,11.646c.096-1.043,.721-1.929,1.671-2.369,.704-.326,1.492-.357,2.219-.091l2.815,1.033L15.311,5.749c1.324-.69,2.834-.814,4.253-.348,1.419,.466,2.563,1.461,3.221,2.802l1.215,2.473L7.891,18.731ZM3.633,12.283l4.474,2.985,11.878-5.939c-.309-.511-.784-.889-1.357-1.077-.644-.21-1.332-.155-1.932,.157h0L6.929,13.493l-3.295-1.21Z"/><path d="M8.816,11.081L2.171,4.341l3.744-2c.873-.334,1.858-.165,2.57,.442l6.222,5.18"/></svg>
