<?xml version="1.0" encoding="UTF-8"?>
<svg xmlns="http://www.w3.org/2000/svg" id="Layer_1" data-name="Layer 1" viewBox="0 0 24 24" width="512" height="512"><path d="M24,11.05c0-1.12-.37-2.63-2-3.86v-.19c0-1.87-1.3-3.36-3.18-3.84-.51-1.85-2.07-3.16-3.96-3.16-1.1,0-2.1,.42-2.86,1.1-.77-.67-1.76-1.1-2.86-1.1-1.89,0-3.44,1.31-3.96,3.16-1.88,.48-3.18,1.97-3.18,3.84v.19c-1.63,1.22-2,2.74-2,3.86,0,.84,.2,1.65,.58,2.39-.38,.74-.58,1.55-.58,2.39,0,1.7,.8,3.18,2.22,4.16,.83,2.37,3.04,4.02,5.48,4.02,1.82,0,3.29-.81,4.3-1.99,1,1.18,2.47,1.99,4.3,1.99,2.44,0,4.66-1.66,5.48-4.02,1.42-.98,2.22-2.46,2.22-4.16,0-.84-.2-1.65-.58-2.39,.38-.74,.58-1.55,.58-2.39ZM7.7,21c-1.24,0-2.44-1.03-2.74-2.34l-.15-.66-.6-.32c-.8-.43-1.21-1.05-1.21-1.86,0-.65,.29-1.15,.53-1.44l.76-.94-.76-.94c-.24-.3-.53-.79-.53-1.44,0-.49,.14-1.12,1.23-1.74l.77-.43v-1.88c0-.79,.98-1,1.5-1h1.5v-1.5c0-.73,.4-1.5,1.14-1.5s1.36,.61,1.36,1.36v13.64c0,1.21-.89,3-2.8,3Zm12.77-6.63c.24,.3,.53,.79,.53,1.44,0,.8-.41,1.43-1.21,1.86l-.6,.32-.15,.66c-.3,1.31-1.51,2.34-2.74,2.34-1.91,0-2.8-1.79-2.8-3V4.36c0-.75,.61-1.36,1.36-1.36s1.14,.77,1.14,1.5v1.5h1.5c.52,0,1.5,.21,1.5,1v1.88l.77,.43c1.09,.62,1.23,1.25,1.23,1.74,0,.65-.29,1.15-.53,1.44l-.76,.94,.76,.94Z"/></svg>
