<?xml version="1.0" encoding="UTF-8"?>
<svg xmlns="http://www.w3.org/2000/svg" id="Layer_1" data-name="Layer 1" viewBox="0 0 24 24" width="512" height="512"><path d="M13.5,14h-3v-.619c0-1.375,.852-2.881,1.98-3.503,.291-.16,.596-.537,.502-1.071-.067-.383-.406-.722-.789-.789-.418-.076-.703,.104-.836,.216-.227,.191-.357,.47-.357,.767h-3c0-1.185,.521-2.302,1.428-3.064,.907-.762,2.103-1.081,3.284-.874,1.615,.283,2.942,1.61,3.225,3.225,.298,1.696-.509,3.391-2.008,4.217-.168,.102-.429,.59-.429,.876v.619Zm0,2h-3v3h3v-3ZM24,3.5c0-1.93-1.57-3.5-3.5-3.5H3.5C1.57,0,0,1.57,0,3.5V24H24V3.5ZM3,3.5c0-.276,.224-.5,.5-.5H20.5c.276,0,.5,.224,.5,.5V21H3V3.5Z"/></svg>
