<?xml version="1.0" encoding="UTF-8"?>
<svg xmlns="http://www.w3.org/2000/svg" id="Layer_1" data-name="Layer 1" viewBox="0 0 24 24" width="512" height="512"><g><path d="M22.365,23.911c-.045-.028-4.804-2.911-10.365-2.911-5.593,0-10.318,2.881-10.365,2.911L.057,21.359c.222-.137,5.507-3.359,11.943-3.359s11.721,3.222,11.943,3.359l-1.578,2.552Z"/><path d="M15.806,9.558c-.267-1.137-.563-2.145-.859-3.038-.066,.73-.206,1.48-.472,2.226-.372,1.044-1.849,2.983-2.475,3.754-.457,4.482-1.869,7.591-1.869,7.591l6.369-.091s.451-5.575-.694-10.442Z"/></g><path d="M22.254,10.471c-.205,0-3.87-.034-7.038-2.337-1.409-1.025-2.469-2.317-3.216-3.448-.747,1.13-1.807,2.423-3.217,3.448-3.167,2.303-6.832,2.337-7.037,2.337h-.004l-1.096-.003-.33-1.045c-.058-.181-1.361-4.473,2.302-7.136C5.072,.502,9.04,.114,10.962,.034h2.08c1.898,.079,5.879,.463,8.34,2.252,3.663,2.664,2.359,6.955,2.302,7.136l-.33,1.045-1.096,.003h-.004ZM9.402,3.173c-1.743,.207-3.797,.651-5.02,1.54-1.058,.769-1.327,1.812-1.348,2.617,1.059-.186,2.604-.619,3.984-1.623,1.014-.737,1.805-1.683,2.383-2.534Zm5.195,0c.578,.852,1.369,1.797,2.383,2.535,1.377,1.002,2.926,1.436,3.985,1.623-.021-.803-.29-1.847-1.348-2.616-1.224-.891-3.284-1.335-5.021-1.541Z"/><path d="M7.613,14.857l-.511-1.313c-.151-.389-1.458-3.878-.812-6.694l2.924,.671c-.233,1.017-.031,2.371,.231,3.444,1.045-.549,2.25-1.407,2.649-2.485,.615-1.661-.825-4.66-1.378-5.58l2.568-1.551c.295,.488,2.849,4.862,1.624,8.172-1.228,3.317-5.471,4.755-5.951,4.909l-1.343,.428Z"/></svg>
