<?xml version="1.0" encoding="UTF-8"?>
<svg xmlns="http://www.w3.org/2000/svg" id="Layer_1" data-name="Layer 1" viewBox="0 0 24 24" width="512" height="512"><path d="M0,12.02C0,11.45,.14,10.89,.42,10.37L4.49,2.8c.59-1.1,1.75-1.79,3-1.79h9.03c1.26,0,2.41,.69,3.01,1.8l4.06,7.56c.55,1.03,.55,2.25,0,3.28l-4.06,7.57c-.59,1.11-1.75,1.8-3.01,1.8H7.5c-1.26,0-2.41-.69-3-1.79L.42,13.66C.14,13.15,0,12.58,0,12.02Zm21,0c0-.08-.02-.15-.06-.22l-4.06-7.56c-.07-.13-.21-.21-.36-.21H7.5c-.15,0-.29,.08-.36,.21L3.06,11.79c-.07,.14-.07,.31,0,.44l4.08,7.56c.07,.13,.21,.21,.36,.21h9.03c.15,0,.29-.08,.36-.21l4.06-7.56c.04-.07,.06-.15,.06-.22Z"/></svg>
