<?xml version="1.0" encoding="UTF-8"?>
<svg xmlns="http://www.w3.org/2000/svg" id="Layer_1" data-name="Layer 1" viewBox="0 0 24 24" width="512" height="512"><path d="M24.009,21.888l-5.939-5.939c1.226-1.66,1.952-3.71,1.952-5.927C20.021,4.508,15.535,.021,10.021,.021S.021,4.508,.021,10.021s4.486,10,10,10c2.217,0,4.267-.726,5.927-1.952l5.939,5.939,2.121-2.121Zm-13.987-4.866c-3.859,0-7-3.141-7-7S6.162,3.021,10.021,3.021s7,3.141,7,7-3.141,7-7,7Zm-.021-12.021c-1.024,0-2.047,.391-2.829,1.172-1.562,1.562-1.562,4.095,0,5.657l2.828,2.766,2.828-2.766c1.562-1.562,1.562-4.095,0-5.657-.781-.781-1.805-1.172-2.828-1.172Zm0,5.5c-.828,0-1.5-.672-1.5-1.5s.672-1.5,1.5-1.5,1.5,.672,1.5,1.5-.672,1.5-1.5,1.5Z"/></svg>
