<?xml version="1.0" encoding="UTF-8"?>
<svg xmlns="http://www.w3.org/2000/svg" id="Layer_1" data-name="Layer 1" viewBox="0 0 24 24" width="512" height="512"><path d="m17.5,11c-3.59,0-6.5,2.91-6.5,6.5s2.91,6.5,6.5,6.5,6.5-2.91,6.5-6.5-2.91-6.5-6.5-6.5Zm1.5,6v4h-3v-4h-3l3.793-3.707c.391-.39,1.024-.39,1.414,0l3.793,3.707h-3Zm-9.24,4h-5.76c-.551,0-1-.448-1-1s.449-1,1-1h5V3h10v6.14c1.086.194,2.099.594,3,1.158V2.5c0-1.378-1.122-2.5-2.5-2.5H4C1.794,0,0,1.794,0,4v16c0,2.206,1.794,4,4,4h8.028c-.964-.813-1.741-1.837-2.268-3ZM4,3h2v13h-2c-.347,0-.678.058-1,.142V4c0-.551.449-1,1-1Z"/></svg>
