<?xml version="1.0" encoding="UTF-8"?>
<svg xmlns="http://www.w3.org/2000/svg" id="Layer_1" data-name="Layer 1" viewBox="0 0 24 24" width="512" height="512"><path d="M17,3.5c0-1.93,1.57-3.5,3.5-3.5s3.5,1.57,3.5,3.5-1.57,3.5-3.5,3.5-3.5-1.57-3.5-3.5Zm3.5,5.5c1.33,0,2.55-.47,3.5-1.26V24H0V6.5c0-1.93,1.57-3.5,3.5-3.5H15.02c-.01,.16-.02,.33-.02,.5,0,.9,.22,1.75,.6,2.5H3.5c-.28,0-.5,.22-.5,.5v.46l7.36,7.36c.44,.44,1.04,.66,1.64,.66,.6,0,1.2-.22,1.64-.66l5.49-5.49c.44,.11,.9,.17,1.37,.17Zm.5,2.2l-5.24,5.24c-1,1-2.34,1.56-3.76,1.56s-2.76-.55-3.76-1.56L3,11.2v9.8H21V11.2Z"/></svg>
