<?xml version="1.0" encoding="UTF-8"?>
<svg xmlns="http://www.w3.org/2000/svg" id="Layer_1" data-name="Layer 1" viewBox="0 0 24 24" width="512" height="512"><path d="M24,24H12C5.383,24,0,18.617,0,12S5.383,0,12,0s12,5.383,12,12v12ZM12,3C7.038,3,3,7.037,3,12s4.038,9,9,9h9V12c0-4.963-4.038-9-9-9Zm1.5,10.381c0-.286,.26-.773,.43-.876,1.498-.828,2.305-2.522,2.007-4.217-.283-1.616-1.61-2.943-3.225-3.226-1.182-.207-2.377,.11-3.284,.874-.908,.762-1.428,1.879-1.428,3.063h3c0-.296,.13-.575,.357-.767,.133-.112,.417-.29,.837-.216,.382,.066,.721,.405,.788,.789,.094,.534-.212,.911-.5,1.07-1.13,.622-1.982,2.128-1.982,3.504v.619h3v-.619Zm0,2.619h-3v3h3v-3Z"/></svg>
