<?xml version="1.0" encoding="UTF-8"?>
<svg xmlns="http://www.w3.org/2000/svg" id="Layer_1" data-name="Layer 1" viewBox="0 0 24 24" width="512" height="512"><path d="m18.142,18.655l3.443-5.655h-3.474l-1.758,2.887-2.032-3.146c2.703-.788,4.683-3.288,4.683-6.241,0-3.584-2.916-6.5-6.5-6.5h-6.004c-1.93,0-3.5,1.57-3.5,3.5v16.5h3v-7h4.927l3.715,5.698-3.228,5.302h3.474l1.551-2.547,1.661,2.547h3.496l-3.453-5.345ZM6,3.5c0-.275.224-.5.5-.5h6.004c1.93,0,3.5,1.57,3.5,3.5s-1.57,3.5-3.5,3.5h-6.504V3.5Z"/></svg>
