<?xml version="1.0" encoding="UTF-8"?>
<svg xmlns="http://www.w3.org/2000/svg" id="Layer_1" data-name="Layer 1" viewBox="0 0 24 24" width="512" height="512"><path d="M7,8.5c0,.828-.672,1.5-1.5,1.5s-1.5-.672-1.5-1.5,.672-1.5,1.5-1.5,1.5,.672,1.5,1.5Zm10,1c0,.828,.672,1.5,1.5,1.5s1.5-.672,1.5-1.5-.672-1.5-1.5-1.5-1.5,.672-1.5,1.5Zm-11.5,3.5c-.828,0-1.5,.672-1.5,1.5s.672,1.5,1.5,1.5,1.5-.672,1.5-1.5-.672-1.5-1.5-1.5Zm11.5,2.5c0,.828,.672,1.5,1.5,1.5s1.5-.672,1.5-1.5-.672-1.5-1.5-1.5-1.5,.672-1.5,1.5ZM2.123,21.301c.028-.013,2.887-1.301,5.377-1.301,1.203,0,2.722,.474,4.19,.932,1.683,.525,3.423,1.068,5.083,1.068,3.151,0,6.217-1.373,6.346-1.431l.881-.399V6.5c0-1.099-.526-2.159-1.407-2.837-.833-.641-1.873-.857-2.854-.598-.313,.083-.649,.205-1.018,.341-.791,.292-1.608,.595-2.721,.595-1.185,0-2.506-.447-3.904-.921-1.567-.53-3.188-1.079-4.867-1.079-2.07,0-4.074,.809-5.392,1.488-1.133,.585-1.837,1.745-1.837,3.026l.002,15.753,2.121-.966Zm.877-3.521V6.515c0-.154,.082-.292,.213-.36,.836-.431,2.47-1.154,4.016-1.154,1.185,0,2.506,.447,3.904,.921,1.567,.53,3.188,1.079,4.867,1.079,1.649,0,2.87-.452,3.762-.781,.27-.1,.515-.193,.745-.254,.101-.027,.193,.027,.256,.076,.145,.111,.237,.291,.237,.459v11.678c-.976,.344-2.622,.822-4.227,.822-1.203,0-2.722-.474-4.19-.932-1.683-.525-3.423-1.068-5.083-1.068-1.602,0-3.248,.389-4.5,.78ZM14,8.386l-.413-.075c-.549-.101-1.131-.243-1.78-.435l-.289-.085-3.429,3.52,2.15,2.093,.773-.795v3.39l1.188,.333c.395,.112,.791,.225,1.182,.331l.618,.171V8.386Z"/></svg>
