<?xml version="1.0" encoding="UTF-8"?>
<svg xmlns="http://www.w3.org/2000/svg" id="Layer_1" data-name="Layer 1" viewBox="0 0 24 24" width="512" height="512"><path d="m22.042.986c-1.246-.937-2.818-1.226-4.312-.79l-8.472,2.452c-.373.107-.758.182-1.147.219-1.27.126-2.973.465-3.876,1.369-.952.953-1.265,2.837-1.367,3.876-.038.388-.112.772-.219,1.144L.197,17.729c-.433,1.496-.145,3.067.791,4.312.936,1.245,2.366,1.959,3.923,1.959h6.121c.182,0,4.493-.049,8.707-4.263,4.214-4.214,4.263-8.525,4.263-8.707v-6.121c0-1.557-.714-2.987-1.959-3.923Zm-3.478,2.091c.581-.167,1.191-.057,1.675.308.484.364.762.919.762,1.524v3.456l-4.648-4.648,2.211-.64ZM3.386,20.239c-.364-.484-.476-1.095-.308-1.676l.64-2.21,4.647,4.647h-3.455c-.605,0-1.161-.277-1.524-.761Zm14.231-2.623c-2.014,2.014-3.982,2.827-5.236,3.157l-7.711-7.71.861-2.973c.159-.548.267-1.115.323-1.686.105-1.07.358-1.838.505-2.047.208-.146.975-.398,2.044-.504.57-.056,1.137-.164,1.687-.323l2.973-.861,7.71,7.71c-.331,1.257-1.144,3.224-3.156,5.236Zm-3.056-8.056l-5,5-2.121-2.121,5-5,2.121,2.121Zm3.442,3.558l-5,5-2.121-2.121,5-5,2.121,2.121Z"/></svg>
