<?xml version="1.0" encoding="UTF-8"?>
<svg xmlns="http://www.w3.org/2000/svg" id="Layer_1" data-name="Layer 1" viewBox="0 0 24 24" width="512" height="512"><path d="m20.5,0H3.5C1.57,0,0,1.57,0,3.5v16.5h6.74l3.6,3.031c.479.425,1.079.635,1.674.635.582,0,1.158-.202,1.606-.6l3.708-3.066h6.672V3.5c0-1.93-1.57-3.5-3.5-3.5Zm.5,17h-4.752l-4.244,3.511-4.168-3.511H3V3.5c0-.276.225-.5.5-.5h17c.275,0,.5.224.5.5v13.5Zm-4.639-11.361c.852.852.852,2.234,0,3.086l-6.275,6.275h-3.086v-3.086l6.275-6.275c.852-.852,2.234-.852,3.086,0Z"/></svg>
