<?xml version="1.0" encoding="UTF-8"?>
<svg xmlns="http://www.w3.org/2000/svg" id="Layer_1" data-name="Layer 1" viewBox="0 0 24 24" width="512" height="512"><path d="M11.83,8.443c-.656-.902-1.713-1.44-2.829-1.441h-2.992c-.837-.011-1.561,.305-2.131,.872-.57,.568-.883,1.323-.882,2.129l.004,1.998H0v8.5c0,1.93,1.57,3.5,3.5,3.5H20.5c1.93,0,3.5-1.57,3.5-3.5V12H14.416l-2.587-3.557Zm2.17,6.557v6h-4v-6h4ZM6,10h3c.159,.001,.311,.079,.404,.208l1.304,1.792H6v-2Zm-3,10.5v-5.5H7v6H3.5c-.276,0-.5-.224-.5-.5Zm18,0c0,.276-.224,.5-.5,.5h-3.5v-6h4v5.5ZM5,2.5C5,1.119,6.119,0,7.5,0s2.5,1.119,2.5,2.5-1.119,2.5-2.5,2.5-2.5-1.119-2.5-2.5Zm10.439,2.56c-.928-.928-1.439-2.162-1.439-3.475V0h3V1.586c0,.504,.205,.997,.561,1.354,.928,.928,1.439,2.162,1.439,3.475v1.585h-3v-1.585c0-.512-.199-.992-.561-1.354Zm8.561,.354v1.585h-3v-1.585c0-.512-.199-.992-.561-1.354-.928-.928-1.439-2.162-1.439-3.475V0h3V.586c0,.504,.205,.997,.561,1.354,.928,.928,1.439,2.162,1.439,3.475Z"/></svg>
