<?xml version="1.0" encoding="UTF-8"?>
<svg xmlns="http://www.w3.org/2000/svg" id="Layer_1" data-name="Layer 1" viewBox="0 0 24 24" width="512" height="512"><path d="M17.831,4.582c-.639-2.626-3.011-4.582-5.831-4.582S6.809,1.955,6.169,4.58C2.683,5.104,0,8.119,0,11.75c0,3.998,3.252,7.25,7.25,7.25h3.25v5h3v-5h3.237c3.998,0,7.25-3.252,7.25-7.25,0-3.626-2.676-6.639-6.156-7.168Zm-1.094,11.418h-3.237v-.379l3.561-3.561-2.121-2.121-1.439,1.439v-2.379h-3v2.379l-1.439-1.439-2.121,2.121,3.561,3.561v.379h-3.25c-2.343,0-4.25-1.906-4.25-4.25s1.903-4.246,4.303-4.246h.007l1.691,.08v-1.66c.04-1.619,1.37-2.924,2.999-2.924s2.958,1.304,2.999,2.923v1.646l1.744-.068c2.341,.003,4.244,1.908,4.244,4.25s-1.907,4.25-4.25,4.25Z"/></svg>
