<?xml version="1.0" encoding="UTF-8"?>
<svg xmlns="http://www.w3.org/2000/svg" id="Layer_1" data-name="Layer 1" viewBox="0 0 24 24" width="512" height="512"><path d="M23.715,6.861l-1.72-2.855L12.009,0l-.009,.004-.009-.004L2.005,4.006,.285,6.861c-.657,1.095-.131,2.517,1.08,2.92l6.971,3.124c.889,.296,1.865-.065,2.347-.868l1.306-2.448,1.326,2.448c.482,.804,1.458,1.165,2.347,.868l6.971-3.124c1.211-.404,1.737-1.825,1.08-2.92Zm-11.715,.842l-5.753-2.132,5.753-2.336,5.753,2.336-5.753,2.132Zm6.994,5.895l3.001-1.34-.007,8.39-9.988,3.329-9.988-3.329-.007-8.39,3.001,1.34,.004,4.887,5.496,1.832-.003-5.618c.541-.225,1.036-.562,1.439-1.013l.058-.064,.058,.064c.403,.451,.898,.788,1.439,1.013l-.003,5.618,5.496-1.832,.004-4.887Z"/></svg>
