<?xml version="1.0" encoding="UTF-8"?>
<svg xmlns="http://www.w3.org/2000/svg" id="Layer_1" data-name="Layer 1" viewBox="0 0 24 24" width="512" height="512"><path d="M9,17.5c0-2.609,1.178-4.941,3.028-6.5H3.878c.118-.416,.246-.829,.393-1.235l2.16-5.436c.071-.196,.26-.329,.469-.329h10.199c.209,0,.397,.132,.485,.37l1.941,4.883c1.435,.351,2.724,1.064,3.769,2.041-.215-.886-.463-1.767-.779-2.637l-2.127-5.353c-.501-1.378-1.823-2.304-3.289-2.304H6.9c-1.466,0-2.788,.926-3.272,2.263L1.469,8.698c-.975,2.678-1.469,5.481-1.469,8.333v2.968H3v3H7v-3h2.375c-.243-.791-.375-1.63-.375-2.5Zm-2-.5h-3v-3h3v3Zm10.5-6c-3.59,0-6.5,2.91-6.5,6.5s2.91,6.5,6.5,6.5,6.5-2.91,6.5-6.5-2.91-6.5-6.5-6.5Zm3.148,8.266l-2.7,3.375-2.361-1.85,1.465-1.791h-.938c-.666,0-1.301-.319-1.698-.854-.396-.535-.52-1.235-.326-1.873l2.303-3.846,2.555,1.572-1.226,2h1.173c.775,0,1.486,.425,1.853,1.108,.367,.684,.329,1.51-.1,2.157Z"/></svg>
