<?xml version="1.0" encoding="UTF-8"?>
<svg xmlns="http://www.w3.org/2000/svg" id="Layer_1" data-name="Layer 1" viewBox="0 0 24 24" width="512" height="512"><path d="M20.5,15H12.5c-1.93,0-3.5,1.57-3.5,3.5v1c0,1.93,1.57,3.5,3.5,3.5h8c1.93,0,3.5-1.57,3.5-3.5v-1c0-1.93-1.57-3.5-3.5-3.5Zm-8.5,4.5v-1c0-.275,.224-.5,.5-.5h1.5v2h-1.5c-.276,0-.5-.225-.5-.5Zm9,0c0,.275-.225,.5-.5,.5h-3.5v-2h3.5c.275,0,.5,.225,.5,.5v1Zm-.5-17.5H12.5c-1.93,0-3.5,1.57-3.5,3.5v1c0,1.93,1.57,3.5,3.5,3.5h8c1.93,0,3.5-1.57,3.5-3.5v-1c0-1.93-1.57-3.5-3.5-3.5ZM12,6.5v-1c0-.275,.224-.5,.5-.5h3.5v2h-3.5c-.276,0-.5-.225-.5-.5Zm9,0c0,.275-.225,.5-.5,.5h-1.5v-2h1.5c.275,0,.5,.225,.5,.5v1ZM1,3C1,1.343,2.343,0,4,0s3,1.343,3,3-1.343,3-3,3S1,4.657,1,3Zm7,7v1H0v-1c0-1.657,1.343-3,3-3h2c1.657,0,3,1.343,3,3Zm-4,9c-1.657,0-3-1.343-3-3s1.343-3,3-3,3,1.343,3,3-1.343,3-3,3Zm4,4v1H0v-1c0-1.657,1.343-3,3-3h2c1.657,0,3,1.343,3,3Z"/></svg>
