<?xml version="1.0" encoding="UTF-8"?>
<svg xmlns="http://www.w3.org/2000/svg" id="Layer_1" data-name="Layer 1" viewBox="0 0 24 24" width="512" height="512"><path d="m18.5,11h-5.5v-5.5c0-3.032,2.468-5.5,5.5-5.5s5.5,2.468,5.5,5.5-2.468,5.5-5.5,5.5Zm-2.5-3h2.5c1.379,0,2.5-1.121,2.5-2.5s-1.121-2.5-2.5-2.5-2.5,1.121-2.5,2.5v2.5Zm-5,.22c-.532.48-1.229.78-2,.78-1.654,0-3-1.346-3-3s1.346-3,3-3c.853,0,1.62.362,2.167.936.223-1.045.668-2.006,1.277-2.841-.976-.687-2.162-1.094-3.444-1.094C5.691,0,3,2.691,3,6s2.691,6,6,6c.702,0,1.373-.128,2-.35v-3.43Zm-2,12.78v3H0v-5c0-2.749,2.232-4.986,4.979-4.998v4.275c-.595.346-1,.984-1,1.723,0,1.105.895,2,2,2s2-.895,2-2c0-.738-.405-1.376-1-1.723v-4.277h4.021v4.184c-1.161.414-2,1.514-2,2.816Zm5-7h-1v4.184c1.161.414,2,1.514,2,2.816v3h4v-5c0-2.757-2.243-5-5-5Zm-2,6c-.552,0-1,.448-1,1v3h2v-3c0-.552-.448-1-1-1Z"/></svg>
