<?xml version="1.0" encoding="UTF-8"?>
<svg xmlns="http://www.w3.org/2000/svg" id="Layer_1" data-name="Layer 1" viewBox="0 0 24 24" width="512" height="512"><path d="M20,24H0v-3H20c.55,0,1-.45,1-1s-.45-1-1-1h-1c-2.21,0-4-1.79-4-4s1.79-4,4-4h5v3h-5c-.55,0-1,.45-1,1s.45,1,1,1h1c2.21,0,4,1.79,4,4s-1.79,4-4,4ZM8.73,7.09l-5.73,.91L.62,17.23l5.28-5.28,2.12,2.12-5.28,5.28,9.26-2.36,.91-5.73-4.18-4.18ZM19.22,.78c-1.04-1.04-2.72-1.04-3.76,0l-4.39,4.39,3.76,3.76,4.39-4.39c1.04-1.04,1.04-2.72,0-3.76Z"/></svg>
