<?xml version="1.0" encoding="UTF-8"?>
<svg xmlns="http://www.w3.org/2000/svg" id="Layer_1" data-name="Layer 1" viewBox="0 0 24 24" width="512" height="512"><path d="m3,12.5c0,.828-.672,1.5-1.5,1.5s-1.5-.672-1.5-1.5.672-1.5,1.5-1.5,1.5.672,1.5,1.5Zm-1.5,3.5c-.828,0-1.5.672-1.5,1.5s.672,1.5,1.5,1.5,1.5-.672,1.5-1.5-.672-1.5-1.5-1.5Zm0,5c-.828,0-1.5.672-1.5,1.5s.672,1.5,1.5,1.5,1.5-.672,1.5-1.5-.672-1.5-1.5-1.5Zm4-7.5c-.828,0-1.5.672-1.5,1.5s.672,1.5,1.5,1.5,1.5-.672,1.5-1.5-.672-1.5-1.5-1.5Zm0,5c-.828,0-1.5.672-1.5,1.5s.672,1.5,1.5,1.5,1.5-.672,1.5-1.5-.672-1.5-1.5-1.5ZM23.929,4.197l-3.147,14.984c-.307,1.621-1.753,2.818-3.433,2.818h-8.349v-9h3.062l2.119-10.228c.349-1.612,1.788-2.772,3.423-2.772h2.895c1.055,0,2.042.468,2.71,1.285s.93,1.878.719,2.912Zm-6.813-.803l-.747,3.606h3.906l.716-3.41c.039-.192-.049-.338-.105-.406-.056-.069-.181-.184-.387-.184h-2.895c-.234,0-.439.166-.489.394Zm.724,15.199l1.805-8.593h-3.897l-1.243,6h-2.504v3h5.349c.24,0,.446-.171.491-.407Z"/></svg>
