<?xml version="1.0" encoding="UTF-8"?>
<svg xmlns="http://www.w3.org/2000/svg" id="Layer_1" data-name="Layer 1" viewBox="0 0 24 24" width="512" height="512"><path d="M20,2H4C1.79,2,0,3.79,0,6c0,1.45,.79,2.76,2,3.46v12.54H22V9.46c1.21-.7,2-2.01,2-3.46,0-2.21-1.79-4-4-4ZM3.8,6.98c-.46-.09-.8-.51-.8-.98,0-.55,.45-1,1-1H13c.55,0,1,.45,1,1,0,.47-.34,.89-.8,.98l-1.2,.24v11.78H5V7.22l-1.2-.24Zm16.4,0l-1.2,.24v11.78h-4V9.46c1.21-.7,2-2.01,2-3.46,0-.35-.04-.68-.13-1h3.13c.55,0,1,.45,1,1,0,.47-.34,.89-.8,.98Z"/></svg>
