<?xml version="1.0" encoding="UTF-8"?>
<svg xmlns="http://www.w3.org/2000/svg" id="Layer_1" data-name="Layer 1" viewBox="0 0 24 24" width="512" height="512"><path d="M9.757,11c.619,1.746,2.287,3,4.243,3h10V5h-3.703c-.146-.216-.285-.404-.415-.563C17.396,1.117,13.299-.521,9.182,.153,4.952,.852,1.5,3.97,.389,8.099c-.938,3.486-.114,7.118,2.262,9.962,.226,.271,.35,.609,.35,.954v4.985h14v-3h.873c1.76,0,3.253-1.316,3.473-3.062l.245-1.938h-3.024l-.197,1.563c-.031,.249-.244,.437-.496,.437h-3.873v3H6v-1.985c0-1.046-.372-2.067-1.047-2.877-1.257-1.505-1.923-3.302-1.94-5.138h6.744Zm11.243,0h-7c-.827,0-1.5-.673-1.5-1.5s.673-1.5,1.5-1.5h7v3ZM9.67,3.114c2.424-.399,4.843,.303,6.658,1.886h-2.328c-1.956,0-3.624,1.254-4.243,3H3.581c1.025-2.523,3.372-4.438,6.089-4.886Z"/></svg>
