<?xml version="1.0" encoding="UTF-8"?>
<svg xmlns="http://www.w3.org/2000/svg" id="Layer_1" data-name="Layer 1" viewBox="0 0 24 24" width="512" height="512"><path d="M23.17,7.66c.53,1.35,.83,2.81,.83,4.34,0,6.62-5.38,12-12,12S0,18.62,0,12,5.38,0,12,0c1.53,0,3,.3,4.34,.83l-1.34,1.34v1.35c-.94-.33-1.95-.53-3-.53C7.04,3,3,7.04,3,12s4.04,9,9,9,9-4.04,9-9c0-1.05-.19-2.06-.53-3h1.35l1.34-1.34Zm-12.31,.53l2.94-2.94c-.58-.15-1.18-.24-1.81-.24-3.86,0-7,3.14-7,7s3.14,7,7,7,7-3.14,7-7c0-.63-.09-1.23-.24-1.81l-2.94,2.94c-.49,1.65-2.01,2.87-3.82,2.87-2.21,0-4-1.79-4-4,0-1.81,1.22-3.32,2.87-3.82Zm1.01,1.82c-1.05,.06-1.87,.93-1.87,2s.9,2,2,2,1.93-.83,2-1.87l5.13-5.13h1.88l3-3h-4V0l-3,3v1.88l-5.13,5.13Z"/></svg>
