<?xml version="1.0" encoding="UTF-8"?>
<svg xmlns="http://www.w3.org/2000/svg" id="Layer_1" data-name="Layer 1" viewBox="0 0 24 24" width="512" height="512"><path d="M22,24H2v-3H22v3Zm2-9.5c0-1.93-1.57-3.5-3.5-3.5h-5.37c.453-2.886,.87-6.081,.87-7.091C16,1.704,14.206-.091,12-.091s-4,1.794-4,4c0,1.01,.417,4.205,.87,7.091H3.499c-1.929,0-3.499,1.57-3.499,3.5v4.5H24v-4.5Zm-21,0c0-.276,.224-.5,.499-.5H20.5c.275,0,.5,.224,.5,.5v1.5H3v-1.5ZM13,3.909c0,.766-.45,4.326-1,7.657-.55-3.331-1-6.891-1-7.657,0-.551,.449-1,1-1s1,.449,1,1Z"/></svg>
