<?xml version="1.0" encoding="UTF-8"?>
<svg xmlns="http://www.w3.org/2000/svg" id="Layer_1" data-name="Layer 1" viewBox="0 0 24 24" width="512" height="512"><path d="m19.893,13.593c1.883-2.179,2.909-4.325,2.964-4.439l1.1-2.328-2.567.19c-.135.01-2.826.223-5.796,1.384-.83-3.336-2.214-5.885-2.282-6.011L11.996-.008l-1.316,2.398c-.067.123-1.425,2.622-2.258,5.91-2.998-1.12-5.707-1.277-5.842-1.285l-2.478-.132,1.034,2.255c.052.113,1.037,2.233,2.895,4.387-1.357.651-2.275,1.372-2.332,1.417l-1.543,1.225,1.591,1.162c.099.072,1.999,1.442,4.591,2.124-.104.283-.147.453-.164.529l-.493,2.213,2.229-.412c.076-.014,1.243-.238,2.59-.961v3.178h3v-3.161c1.334.709,2.483.93,2.559.944l2.236.413-.501-2.219c-.013-.057-.055-.228-.159-.524,2.574-.676,4.469-2.021,4.566-2.091l1.657-1.191-1.631-1.226c-.058-.043-.976-.727-2.335-1.352Zm-3.058,2.103c.471.104.925.254,1.343.422-.813.326-1.782.613-2.798.694l-1.88.15v-2.963h-3v2.953l-1.888-.141c-1.072-.081-2.092-.394-2.932-.744.432-.187.905-.354,1.398-.465l2.9-.652-2.248-1.946c-.9-.78-1.657-1.667-2.255-2.481,1.036.26,2.22.647,3.358,1.222l1.823.919.332-2.014c.228-1.377.612-2.684,1.004-3.778.403,1.127.8,2.479,1.024,3.902l.326,2.066,1.852-.971c1.093-.573,2.23-.975,3.239-1.254-.608.818-1.369,1.705-2.265,2.485l-2.242,1.955,2.906.64Z"/></svg>
