<?xml version="1.0" encoding="UTF-8"?>
<svg xmlns="http://www.w3.org/2000/svg" id="Layer_1" data-name="Layer 1" viewBox="0 0 24 24" width="512" height="512"><path d="M24,9H5v-2.5c0-1.379,1.121-2.5,2.5-2.5h.761c.456,.604,1.173,1,1.989,1h4.25c1.381,0,2.5-1.119,2.5-2.5s-1.119-2.5-2.5-2.5h-4.25c-.815,0-1.532,.396-1.989,1h-.761C4.468,1,2,3.468,2,6.5v2.5H0v3H2.066l2.182,12H20.31l1.636-12h2.054v-3Zm-6.31,12H6.752l-1.637-9h13.802l-1.227,9Z"/><polygon points="9.512 19.167 10.293 19.734 11.994 18.497 13.707 19.733 14.488 19.166 13.836 17.159 15.543 15.918 15.243 15 13.133 15 12.48 12.994 11.52 13 10.867 15.001 8.757 15.001 8.457 15.919 10.164 17.16 9.512 19.167"/></svg>
