<?xml version="1.0" encoding="UTF-8"?>
<svg xmlns="http://www.w3.org/2000/svg" id="Layer_1" data-name="Layer 1" viewBox="0 0 24 24" width="512" height="512"><path d="m21.211,9.111l.877.718,1.9-2.321-4.076-3.336-1.9,2.321.878.718-1.031,1.26c-.584-.392-1.205-.733-1.858-1.013V3h1V0H7v3h1v4.458c-4.114,1.767-7,5.931-7,10.292,0,1.128.173,2.243.514,3.313.56,1.756,2.212,2.937,4.114,2.937h12.744c1.902,0,3.555-1.18,4.114-2.936.341-1.071.514-2.186.514-3.314,0-2.679-1.089-5.283-2.883-7.303l1.094-1.336Zm-1.584,11.043c-.158.498-.674.846-1.255.846H5.628c-.581,0-1.097-.348-1.255-.846-.248-.776-.373-1.585-.373-2.404,0-.588.077-1.175.222-1.75h13.46c-.4-1.146-1.165-2.202-2.144-3H5.679c1.065-1.412,2.562-2.532,4.27-3.069l1.051-.33V3h2v6.601l1.051.33c3.392,1.066,5.949,4.427,5.949,7.819,0,.819-.125,1.627-.373,2.404Z"/></svg>
