<?xml version="1.0" encoding="UTF-8"?>
<svg xmlns="http://www.w3.org/2000/svg" id="Layer_1" data-name="Layer 1" viewBox="0 0 24 24" width="512" height="512"><path d="M19,0c-2.41,0-4.43,1.72-4.9,4H2v6h3v-3h2v3h3v-3h4.1c.46,2.28,2.48,4,4.9,4,2.76,0,5-2.24,5-5v-1c0-2.76-2.24-5-5-5Zm2,6c0,1.1-.9,2-2,2s-2-.9-2-2v-1c0-1.1,.9-2,2-2s2,.9,2,2v1Zm-2,11h-2v-3h-3v3h-4.1c-.46-2.28-2.48-4-4.9-4-2.76,0-5,2.24-5,5v1c0,2.76,2.24,5,5,5,2.41,0,4.43-1.72,4.9-4h12.1v-6h-3v3Zm-12,2c0,1.1-.9,2-2,2s-2-.9-2-2v-1c0-1.1,.9-2,2-2s2,.9,2,2v1Z"/></svg>
