<?xml version="1.0" encoding="UTF-8"?>
<svg xmlns="http://www.w3.org/2000/svg" id="Layer_1" data-name="Layer 1" viewBox="0 0 24 24" width="512" height="512"><path d="M23.983,21.862l-5.935-5.935c1.226-1.66,1.951-3.71,1.951-5.927C20,4.486,15.514,0,10,0S0,4.486,0,10s4.486,10,10,10c2.217,0,4.268-.726,5.927-1.951l5.935,5.935,2.121-2.121ZM14,8h-3v-.5c0-.275-.224-.5-.5-.5h-1c-.276,0-.5,.225-.5,.5,0,.294,.176,.555,.449,.664l2.216,.887c1.418,.566,2.335,1.921,2.335,3.449,0,1.58-1.059,2.903-2.5,3.337v1.163h-3v-1.163c-1.441-.434-2.5-1.757-2.5-3.337v-.5h3v.5c0,.275,.224,.5,.5,.5h1c.276,0,.5-.225,.5-.5,0-.294-.176-.555-.449-.664l-2.216-.887c-1.418-.566-2.335-1.921-2.335-3.449,0-1.58,1.059-2.903,2.5-3.337v-1.163h3v1.163c1.441,.434,2.5,1.757,2.5,3.337v.5Z"/></svg>
