<?xml version="1.0" encoding="UTF-8"?>
<svg xmlns="http://www.w3.org/2000/svg" id="Layer_1" data-name="Layer 1" viewBox="0 0 24 24" width="512" height="512"><path d="M23.82,21l-2.38-12.35c-.41-2.12-2.26-3.65-4.42-3.65h-.15c.08-.32,.13-.65,.13-1,0-2.21-1.79-4-4-4h-2c-2.21,0-4,1.79-4,4,0,.35,.04,.68,.13,1h-.15c-2.15,0-4.01,1.54-4.42,3.65L.18,21h7.94c.45,1.72,2.01,3,3.87,3s3.43-1.28,3.87-3h7.94ZM10,4c0-.55,.45-1,1-1h2c.55,0,1,.45,1,1s-.45,1-1,1h-2c-.55,0-1-.45-1-1Zm-4.49,5.22c.14-.71,.75-1.22,1.47-1.22h10.04c.72,0,1.34,.51,1.47,1.22l1.69,8.78H3.82l1.69-8.78Z"/></svg>
