<?xml version="1.0" encoding="UTF-8"?>
<svg xmlns="http://www.w3.org/2000/svg" id="Layer_1" data-name="Layer 1" viewBox="0 0 24 24" width="512" height="512"><path d="M24,11.045c0-1.12-.369-2.635-2-3.857v-.188c0-1.868-1.299-3.36-3.179-3.838-.512-1.85-2.068-3.162-3.957-3.162-1.095,0-2.097,.405-2.864,1.074-.767-.668-1.769-1.074-2.864-1.074-1.889,0-3.445,1.312-3.957,3.162-1.88,.478-3.179,1.97-3.179,3.838v.188c-1.631,1.222-2,2.737-2,3.857,0,.838,.197,1.647,.577,2.386-.38,.739-.577,1.548-.577,2.387,0,1.698,.802,3.182,2.223,4.158,.826,2.366,3.037,4.023,5.481,4.023,1.823,0,3.292-.808,4.295-1.982,1.003,1.174,2.472,1.982,4.295,1.982,2.445,0,4.656-1.657,5.481-4.023,1.421-.976,2.223-2.46,2.223-4.158,0-.838-.197-1.647-.577-2.387,.38-.739,.577-1.548,.577-2.386ZM7.705,21c-1.235,0-2.44-1.027-2.743-2.337l-.153-.664-.6-.321c-.802-.429-1.208-1.055-1.208-1.859,0-.655,.287-1.146,.527-1.444l.762-.943-.762-.942c-.24-.297-.526-.789-.526-1.443,0-.486,.14-1.123,1.235-1.738l.765-.43v-1.877c0-.791,.981-1,1.5-1h1.5v-1.5c0-.727,.398-1.5,1.136-1.5,.752,0,1.364,.612,1.364,1.364v3.636h-3c-.828,0-1.5,.672-1.5,1.5s.672,1.5,1.5,1.5h3v3h-3c-.828,0-1.5,.672-1.5,1.5s.672,1.5,1.5,1.5h3v1c0,1.21-.889,3-2.795,3Zm12.769-6.625c.24,.297,.527,.789,.527,1.444,0,.805-.406,1.43-1.208,1.859l-.6,.321-.153,.664c-.303,1.311-1.508,2.337-2.743,2.337-1.907,0-2.795-1.79-2.795-3v-3h4.5v-5.5c0-.828-.672-1.5-1.5-1.5s-1.5,.672-1.5,1.5v2.5h-1.5V4.364c0-.752,.612-1.364,1.364-1.364,.738,0,1.136,.773,1.136,1.5v1.5h1.5c.519,0,1.5,.209,1.5,1v1.877l.765,.43c1.095,.615,1.235,1.252,1.235,1.738,0,.655-.286,1.146-.526,1.443l-.762,.942,.762,.943Z"/></svg>
