<?xml version="1.0" encoding="UTF-8"?>
<svg xmlns="http://www.w3.org/2000/svg" id="Layer_1" data-name="Layer 1" viewBox="0 0 24 24" width="512" height="512"><path d="M24,13.5v-3h-2.112c-.652-4.315-4.072-7.736-8.388-8.388V0h-3V2.111c-1.609,.241-3.124,.868-4.432,1.836L2.161,.039,.04,2.16,21.839,23.961l2.121-2.121-3.908-3.908c.968-1.308,1.596-2.822,1.836-4.432h2.111Zm-7.565,.814c.369-.705,.565-1.494,.565-2.314,0-2.757-2.243-5-5-5-.818,0-1.607,.196-2.313,.565l-1.462-1.462c1.117-.718,2.417-1.103,3.775-1.103,3.86,0,7,3.141,7,7,0,1.36-.385,2.659-1.103,3.776l-1.462-1.462Zm-.291,6.78c-.838,.382-1.725,.65-2.645,.791v2.115h-3v-2.112c-4.316-.652-7.736-4.072-8.388-8.388H0v-3H2.115c.141-.92,.408-1.808,.791-2.645l2.337,2.337c-.155,.583-.242,1.188-.242,1.808,0,3.859,3.14,7,7,7,.62,0,1.225-.087,1.808-.242l2.337,2.337Z"/></svg>
