<?xml version="1.0" encoding="UTF-8"?>
<svg xmlns="http://www.w3.org/2000/svg" id="Layer_1" data-name="Layer 1" viewBox="0 0 24 24" width="512" height="512"><path d="M12,10.5c.83,0,1.5,.67,1.5,1.5s-.67,1.5-1.5,1.5-1.5-.67-1.5-1.5,.67-1.5,1.5-1.5Zm2.04,4.92c-.6,.36-1.29,.58-2.04,.58-2.21,0-4-1.79-4-4s1.79-4,4-4c1.9,0,3.49,1.33,3.89,3.11,.78-.63,1.75-1.02,2.82-1.08-.85-2.9-3.54-5.03-6.71-5.03-3.86,0-7,3.14-7,7s3.14,7,7,7c.38,0,.74-.04,1.1-.1,.44-.55,.99-1.01,1.63-1.34-.39-.64-.62-1.37-.69-2.15ZM20.5,0H3.5C1.57,0,0,1.57,0,3.5V24H12v-2c0-.34,.04-.68,.1-1H3V3.5c0-.28,.22-.5,.5-.5H20.5c.28,0,.5,.22,.5,.5v6.92c1.76,.77,3,2.53,3,4.58V3.5c0-1.93-1.57-3.5-3.5-3.5Zm.5,19h-4c-1.65,0-3,1.35-3,3v2h10v-2c0-1.65-1.35-3-3-3Zm-2-1c1.65,0,3-1.35,3-3s-1.35-3-3-3-3,1.35-3,3,1.35,3,3,3Z"/></svg>
