<?xml version="1.0" encoding="UTF-8"?>
<svg xmlns="http://www.w3.org/2000/svg" id="Layer_1" data-name="Layer 1" viewBox="0 0 24 24" width="512" height="512"><path d="m20.5,0H3.5C1.57,0,0,1.57,0,3.5v16.5h6.74l3.599,3.03c.479.426,1.08.636,1.675.636.582,0,1.158-.202,1.606-.601l3.708-3.065h6.672V3.5c0-1.93-1.57-3.5-3.5-3.5Zm.5,17h-4.752l-4.244,3.511-4.168-3.511H3V3.5c0-.275.225-.5.5-.5h17c.275,0,.5.225.5.5v13.5Zm-10.5-3h3v3h-3v-3Zm5.367-7.039c.487,1.894-.433,3.857-2.188,4.67-.088.041-.179.2-.179.397h-3c0-1.355.753-2.58,1.918-3.12.38-.175.694-.614.544-1.198-.081-.314-.356-.591-.671-.672-.442-.112-.756.058-.902.17-.247.191-.389.48-.389.792h-3c0-1.246.565-2.399,1.552-3.163.985-.764,2.255-1.023,3.49-.703,1.365.353,2.474,1.463,2.825,2.827Z"/></svg>
