<?xml version="1.0" encoding="UTF-8"?>
<svg xmlns="http://www.w3.org/2000/svg" id="Layer_1" data-name="Layer 1" viewBox="0 0 24 24" width="512" height="512"><path d="M20.5,0H3.5C1.57,0,0,1.57,0,3.5V24H24V3.5c0-1.93-1.57-3.5-3.5-3.5Zm.5,21H3V3.5c0-.276,.225-.5,.5-.5H20.5c.275,0,.5,.224,.5,.5V21Zm-5-12c0-2.206-1.794-4-4-4s-4,1.794-4,4c0,.885,.298,1.696,.787,2.359-.793,.812-1.287,1.919-1.287,3.141,0,2.481,2.019,4.5,4.5,4.5s4.5-2.019,4.5-4.5c0-1.222-.493-2.329-1.287-3.141,.488-.663,.787-1.474,.787-2.359Zm-4-1.5c.828,0,1.5,.673,1.5,1.5s-.672,1.5-1.5,1.5-1.5-.673-1.5-1.5,.672-1.5,1.5-1.5Zm0,8.5c-.827,0-1.5-.673-1.5-1.5s.673-1.5,1.5-1.5,1.5,.673,1.5,1.5-.673,1.5-1.5,1.5Z"/></svg>
