<?xml version="1.0" encoding="UTF-8"?>
<svg xmlns="http://www.w3.org/2000/svg" id="Layer_1" data-name="Layer 1" viewBox="0 0 24 24" width="512" height="512"><path d="M14.17,19.92l3.72-13.81c.36,.41,.67,.87,.92,1.37l2.69-1.34c-.66-1.33-1.6-2.45-2.73-3.3l.77-2.85h-3.17l-.38,1.42c-.71-.22-1.45-.36-2.22-.41l.27-1.02h-3.17l-.28,1.03C5.79,1.38,2,5.39,2,10.27v3.46c0,2.83,1.27,5.36,3.27,7.06l-.86,3.21h3.17l.43-1.59c.69,.26,1.43,.44,2.19,.53l-.29,1.06h3.17l.27-1c3.42-.06,6.51-1.97,8.09-5.02l-2.67-1.38c-.93,1.8-2.64,3.01-4.59,3.32ZM5,13.73v-3.46c0-2.93,2.02-5.4,4.74-6.08l-3.55,13.2c-.74-1.03-1.18-2.3-1.18-3.66Zm3.79,5.76L12.96,4h.23c.7,0,1.37,.11,2.01,.33l-4.22,15.67c-.78-.04-1.51-.21-2.19-.51Z"/></svg>
