<?xml version="1.0" encoding="UTF-8"?>
<svg xmlns="http://www.w3.org/2000/svg" id="Layer_1" data-name="Layer 1" viewBox="0 0 24 24" width="512" height="512"><path d="M7,16h10v3H7v-3ZM23,3.5V24H1V3.5C1,1.57,2.57,0,4.5,0h15c1.93,0,3.5,1.57,3.5,3.5Zm-3,0c0-.276-.225-.5-.5-.5H4.5c-.275,0-.5,.224-.5,.5V21H20V3.5Zm-5.215,1.263c.336,.958,.551,2.082,.65,3.237h-2.007c-.246-2.505-1.063-3.944-1.43-4h0c-.364,.056-1.18,1.495-1.426,4h-2.007c.099-1.155,.314-2.279,.65-3.237-1.623,.956-2.715,2.717-2.715,4.737s1.092,3.78,2.715,4.737c-.336-.958-.551-2.082-.65-3.237h2.007c.246,2.505,1.063,3.944,1.43,4h0c.364-.056,1.18-1.495,1.426-4h2.007c-.099,1.155-.314,2.279-.65,3.237,1.623-.956,2.715-2.717,2.715-4.737s-1.092-3.78-2.715-4.737Z"/></svg>
