<?xml version="1.0" encoding="UTF-8"?>
<svg xmlns="http://www.w3.org/2000/svg" id="Layer_1" data-name="Layer 1" viewBox="0 0 24 24" width="512" height="512"><path d="M21.02,18.92l2.96,2.96-2.12,2.12L.06,2.21,2.18,.08,11.24,9.15c.23-.1,.49-.15,.76-.15,1.1,0,2,.9,2,2,0,.27-.05,.52-.15,.76l1.47,1.47c1.04-1.55,.88-3.68-.49-5.06l2.12-2.12c2.54,2.54,2.72,6.58,.52,9.32l1.42,1.42c2.97-3.53,2.8-8.83-.52-12.16l2.12-2.12c4.49,4.49,4.67,11.7,.53,16.4Zm-13.96-2.97l1.96-1.96-3.94-3.94c-.29,2.1,.37,4.3,1.98,5.91Zm-3.66-7.58L1.07,6.05C-.93,10.47-.11,15.86,3.51,19.49l2.12-2.12c-2.43-2.43-3.18-5.91-2.24-8.99Z"/></svg>
