<?xml version="1.0" encoding="UTF-8"?>
<svg xmlns="http://www.w3.org/2000/svg" id="Layer_1" data-name="Layer 1" viewBox="0 0 24 24" width="512" height="512"><path d="M23,20.879V12c0-6.065-4.935-11-11-11-2.405,0-4.744,.8-6.643,2.236L2.161,.039,.04,2.16,21.839,23.961l2.121-2.121-.96-.961ZM12,4c4.411,0,8,3.589,8,8v5.879L7.502,5.38c1.313-.898,2.862-1.38,4.498-1.38Zm3.05,16l3,3h-6.05c-6.065,0-11-4.935-11-11,0-1.722,.399-3.394,1.15-4.901l2.287,2.287c-.287,.832-.437,1.713-.437,2.614,0,4.411,3.589,8,8,8h3.05Z"/></svg>
