<?xml version="1.0" encoding="UTF-8"?>
<svg xmlns="http://www.w3.org/2000/svg" id="Layer_1" data-name="Layer 1" viewBox="0 0 24 24" width="512" height="512"><path d="m21.5,19c-.12,0-.238.009-.354.025l-1.098-1.098c.415-.562.772-1.168,1.064-1.81l1.982.556.811-2.889-1.981-.556c.05-.403.076-.813.076-1.229s-.026-.826-.076-1.229l1.981-.556-.811-2.889-1.982.556c-.291-.642-.649-1.249-1.064-1.81l1.098-1.098c.116.016.234.025.354.025,1.381,0,2.5-1.119,2.5-2.5s-1.119-2.5-2.5-2.5-2.5,1.119-2.5,2.5c0,.12.009.238.025.354l-1.098,1.098c-.562-.415-1.168-.772-1.81-1.064l.557-1.982L13.786.095l-.556,1.981c-.403-.05-.813-.076-1.229-.076s-.826.026-1.229.076l-.556-1.981-2.889.811.557,1.982c-.642.291-1.248.649-1.81,1.064l-1.098-1.098c.016-.116.025-.234.025-.354,0-1.381-1.119-2.5-2.5-2.5S0,1.119,0,2.5s1.119,2.5,2.5,2.5c.12,0,.238-.009.354-.025l1.098,1.098c-.415.562-.772,1.168-1.064,1.81l-1.982-.556L.095,10.215l1.981.556c-.05.403-.076.813-.076,1.229s.026.826.076,1.229l-1.981.556.811,2.889,1.982-.556c.291.642.649,1.249,1.064,1.81l-1.098,1.098c-.116-.016-.234-.025-.354-.025-1.381,0-2.5,1.119-2.5,2.5s1.119,2.5,2.5,2.5,2.5-1.119,2.5-2.5c0-.12-.009-.238-.025-.354l1.098-1.098c.562.415,1.168.772,1.81,1.064l-.557,1.982,2.889.811.556-1.981c.403.05.813.076,1.229.076s.826-.026,1.229-.076l.556,1.981,2.889-.811-.557-1.982c.642-.291,1.248-.649,1.81-1.064l1.098,1.098c-.016.116-.025.234-.025.354,0,1.381,1.119,2.5,2.5,2.5s2.5-1.119,2.5-2.5-1.119-2.5-2.5-2.5ZM5,12c0-3.859,3.14-7,7-7s7,3.141,7,7-3.14,7-7,7-7-3.141-7-7Zm8.5,3.5c0,.828-.672,1.5-1.5,1.5s-1.5-.672-1.5-1.5.672-1.5,1.5-1.5,1.5.672,1.5,1.5Zm3.5-3.5c0,.828-.672,1.5-1.5,1.5s-1.5-.672-1.5-1.5.672-1.5,1.5-1.5,1.5.672,1.5,1.5Zm-3.5-3.5c0,.828-.672,1.5-1.5,1.5s-1.5-.672-1.5-1.5.672-1.5,1.5-1.5,1.5.672,1.5,1.5Zm-3.5,3.5c0,.828-.672,1.5-1.5,1.5s-1.5-.672-1.5-1.5.672-1.5,1.5-1.5,1.5.672,1.5,1.5Z"/></svg>
