<?xml version="1.0" encoding="UTF-8"?>
<svg xmlns="http://www.w3.org/2000/svg" id="Layer_1" data-name="Layer 1" viewBox="0 0 24 24" width="512" height="512"><path d="M23,15v-1.5c0-2.481-2.019-4.5-4.5-4.5s-4.5,2.019-4.5,4.5v1.5h-1v6c0,1.654,1.346,3,3,3h5c1.654,0,3-1.346,3-3v-6h-1Zm-6-1.5c0-.827,.673-1.5,1.5-1.5s1.5,.673,1.5,1.5v1.5h-3v-1.5Zm3,7.5h-3v-3h3v3Zm-7.538-11c.1,0,.197-.011,.292-.029-.479,.906-.754,1.936-.754,3.029h-.538c-1.152,0-2.203-.435-3-1.149-.797,.714-1.848,1.149-3,1.149h-1c-.169,0-.336-.01-.5-.028v7.528c0,.275,.225,.5,.5,.5h6.538c0,1.105,.372,2.119,.982,2.947-.171,.026-.342,.053-.52,.053H4.462c-1.93,0-3.5-1.57-3.5-3.5V11.325C.337,10.552-.038,9.569-.038,8.5L2.33,0H21.594l2.368,8.5c0,.292-.033,.575-.086,.852-.822-1.207-2.038-2.124-3.463-2.563l-1.083-3.788h-2.368v2h-3V3h-4v2h-3V3h-2.368l-1.622,5.675c.087,.745,.723,1.325,1.49,1.325h1c.827,0,1.5-.673,1.5-1.5v-.5h3v.5c0,.827,.673,1.5,1.5,1.5h1Z"/></svg>
