<?xml version="1.0" encoding="UTF-8"?>
<svg xmlns="http://www.w3.org/2000/svg" id="Layer_1" data-name="Layer 1" viewBox="0 0 24 24" width="512" height="512"><path d="M19,11.994l-3.524-3.447c-1.961-1.961-1.961-5.133-.012-7.083,.945-.944,2.201-1.464,3.536-1.464s2.591,.52,3.535,1.464c.945,.944,1.465,2.2,1.465,3.536s-.52,2.591-1.465,3.536l-3.535,3.458Zm0-8.994c-.534,0-1.037,.208-1.415,.586-.779,.779-.779,2.048,0,2.828l1.415,1.383,1.426-1.395c.366-.366,.574-.868,.574-1.402s-.208-1.037-.586-1.415c-.378-.377-.88-.585-1.414-.585ZM5,23.994l-3.524-3.447c-1.961-1.961-1.961-5.133-.012-7.083,.945-.944,2.201-1.464,3.536-1.464s2.591,.52,3.535,1.464c.945,.944,1.465,2.2,1.465,3.536s-.52,2.591-1.465,3.536l-3.535,3.458Zm0-8.994c-.534,0-1.037,.208-1.415,.586-.779,.779-.779,2.048,0,2.828l1.415,1.383,1.426-1.395c.366-.366,.574-.868,.574-1.402s-.208-1.037-.586-1.415c-.378-.377-.88-.585-1.414-.585Zm14.5,0h-4c-.827,0-1.5-.673-1.5-1.5s.673-1.5,1.5-1.5h.646l-2.069-2.023c-.171-.171-.331-.348-.481-.531-1.547,.727-2.597,2.291-2.597,4.055,0,2.481,2.019,4.5,4.5,4.5h4c.827,0,1.5,.673,1.5,1.5s-.673,1.5-1.5,1.5H10.744c-.235,.336-.499,.654-.794,.95l-2.096,2.05h11.646c2.481,0,4.5-2.019,4.5-4.5s-2.019-4.5-4.5-4.5Z"/></svg>
