<?xml version="1.0" encoding="UTF-8"?>
<svg xmlns="http://www.w3.org/2000/svg" id="Layer_1" data-name="Layer 1" viewBox="0 0 24 24" width="512" height="512"><path d="M21,8.654V3.894c0-1.584-1.058-2.974-2.573-3.378-1.909-.509-3.846-.515-3.927-.515h-5c-.081,0-2.018,.006-3.927,.515-1.516,.405-2.573,1.794-2.573,3.378v4.76c0,.713-1.312,2.638-2,3.449v11.897H23V12.101c-.688-.806-2-2.727-2-3.447Zm-10.5,12.346H4v-3h4.5v-3H4v-1.816c.696-.901,2-2.817,2-4.53V3.894c0-.225,.146-.426,.347-.48,.229-.061,.461-.113,.689-.158l3.464,9.659v8.085Zm-.368-18h3.737l-1.868,5.21-1.868-5.21Zm9.868,12h-4v3h4v3h-6.5V12.915l3.464-9.659c.228,.044,.459,.096,.688,.158,.201,.054,.348,.255,.348,.48v4.76c0,1.713,1.304,3.628,2,4.53v1.816Z"/></svg>
