<?xml version="1.0" encoding="UTF-8"?>
<svg xmlns="http://www.w3.org/2000/svg" id="Layer_1" data-name="Layer 1" viewBox="0 0 24 24" width="512" height="512"><path d="m6,2.5c0-1.381,1.119-2.5,2.5-2.5s2.5,1.119,2.5,2.5-1.119,2.5-2.5,2.5-2.5-1.119-2.5-2.5Zm18,2.5v9.001h-3.957s-10.471,8.724-10.471,8.724c-.986.822-2.236,1.275-3.521,1.275H0v-9h3.957l1.043-.869v-6.131c0-1.105.895-2,2-2h3c1.105,0,2,.895,2,2v.298l2.428-2.023c.986-.822,2.236-1.275,3.521-1.275h6.052Zm-3,3h-3.052c-.584,0-1.151.206-1.601.58l-11.305,9.42h-2.043v3h3.052c.584,0,1.151-.206,1.601-.58l11.305-9.42h2.043s0-3,0-3Z"/></svg>
