<?xml version="1.0" encoding="UTF-8"?>
<svg xmlns="http://www.w3.org/2000/svg" id="Layer_1" data-name="Layer 1" viewBox="0 0 24 24" width="512" height="512"><path d="M15.08,8h-3.63l3-3h2.55v2.18c-.69,.16-1.34,.45-1.92,.82Zm8.92,7v6c0,1.65-1.35,3-3,3h-5c-1.65,0-3-1.35-3-3v-6h1v-1.5c0-2.48,2.02-4.5,4.5-4.5s4.5,2.02,4.5,4.5v1.5h1Zm-7,0h3v-1.5c0-.83-.67-1.5-1.5-1.5s-1.5,.67-1.5,1.5v1.5Zm3,3h-3v3h3v-3ZM3,3.5c0-.28,.22-.5,.5-.5h15c.28,0,.5,.22,.5,.5v3.53c1.1,.08,2.12,.44,3,1.01V3.5c0-1.93-1.57-3.5-3.5-3.5H3.5C1.57,0,0,1.57,0,3.5V22H11v-3H3V3.5Zm5,5.12l3.62-3.62H5v12h6v-3h-3v-5.38Z"/></svg>
