<?xml version="1.0" encoding="UTF-8"?>
<svg xmlns="http://www.w3.org/2000/svg" id="Layer_1" data-name="Layer 1" viewBox="0 0 24 24" width="512" height="512"><path d="M13.682,5.188c1.452-1.073,3.318-2.897,3.318-5.188H7c0,2.291,1.866,4.115,3.318,5.188C5.147,6.34,1,12.576,1,17.772c0,3.434,2.804,6.228,6.25,6.228h9.5c3.446,0,6.25-2.794,6.25-6.228,0-5.196-4.147-11.432-9.318-12.584Zm3.068,15.812H7.25c-1.792,0-3.25-1.448-3.25-3.228,0-4.566,4.262-9.772,8-9.772s8,5.206,8,9.772c0,1.78-1.458,3.228-3.25,3.228Z"/></svg>
