<?xml version="1.0" encoding="UTF-8"?>
<svg xmlns="http://www.w3.org/2000/svg" id="Layer_1" data-name="Layer 1" viewBox="0 0 24 24" width="512" height="512"><path d="M6.892,17.153l-.864-.864,2.121-2.122,.864,.864c1.369,1.368,3.597,1.369,4.966,0l6.005-6.004c1.369-1.369,1.369-3.597,0-4.966-1.195-1.195-3.042-1.378-4.403-.489-.974-.38-2.022-.58-3.1-.58h-.002c-.233,0-.465,.01-.694,.028l1.112-1.112C14.167,.638,15.834,.003,17.502,.003c1.667,0,3.237,.577,4.684,2.025,2.454,2.545,2.43,6.61-.08,9.12l-6.005,6.004c-1.27,1.27-2.937,1.904-4.604,1.904s-3.335-.635-4.604-1.904ZM1.826,21.975c1.529,1.529,3.019,2.026,4.686,2.025,1.667,0,3.334-.635,4.602-1.904l1.112-1.112c-.23,.018-.461,.028-.694,.028h-.002c-1.078,0-2.126-.199-3.1-.58-1.36,.889-3.208,.705-4.403-.49-1.369-1.369-1.369-3.597,0-4.966l6.005-6.004c1.369-1.369,3.597-1.369,4.966,0l.864,.864,2.121-2.122-.864-.864c-2.538-2.538-6.669-2.539-9.208,0L1.906,12.855c-2.51,2.51-2.534,6.575-.08,9.12Z"/></svg>
