<?xml version="1.0" encoding="UTF-8"?>
<svg xmlns="http://www.w3.org/2000/svg" id="Layer_1" data-name="Layer 1" viewBox="0 0 24 24" width="512" height="512"><path d="M24,24c-1.8,0-2.67-1.3-3.25-2.17-.39-.59-.58-.83-.75-.83-.28,0-.63,.38-1.12,.97-.72,.86-1.72,2.03-3.41,2.03s-2.68-1.18-3.39-2.05c-.47-.57-.8-.95-1.07-.95s-.58,.31-1.08,.83c-.85,.87-2.14,2.17-4.42,2.17-3.03,0-5.5-2.47-5.5-5.5s2.47-5.5,5.5-5.5h.5v3h-.5c-1.38,0-2.5,1.12-2.5,2.5s1.12,2.5,2.5,2.5c.98,0,1.48-.46,2.28-1.28,.75-.77,1.69-1.72,3.22-1.72,1.71,0,2.68,1.18,3.39,2.05,.47,.57,.8,.95,1.07,.95s.63-.38,1.12-.97c.72-.86,1.72-2.03,3.41-2.03,1.8,0,2.67,1.3,3.25,2.17,.39,.59,.58,.83,.75,.83v3Zm-2.33-17.91l1.55-1.55c1.04-1.04,1.04-2.72,0-3.76s-2.72-1.04-3.76,0l-1.55,1.55,3.76,3.76Zm-5.88-1.64l-7.79,7.79v3.76h3.76l7.79-7.79-3.76-3.76Z"/></svg>
