<?xml version="1.0" encoding="UTF-8"?>
<svg xmlns="http://www.w3.org/2000/svg" id="Layer_1" data-name="Layer 1" viewBox="0 0 24 24" width="512" height="512"><path d="m12.028,24H0V3.5C0,1.57,1.57,0,3.5,0h11c1.93,0,3.5,1.57,3.5,3.5v5.525c-.166-.01-.331-.025-.5-.025-.87,0-1.709.132-2.5.375V3.5c0-.275-.225-.5-.5-.5H3.5c-.275,0-.5.225-.5.5v17.5h6.76c.527,1.163,1.304,2.187,2.268,3Zm.972-13.702v-.298H5v3h5.298c.685-1.093,1.609-2.017,2.702-2.702Zm0-5.298H5v3h8v-3Zm-8,13h4v-3h-4v3Zm19-.5c0,3.59-2.91,6.5-6.5,6.5s-6.5-2.91-6.5-6.5,2.91-6.5,6.5-6.5,6.5,2.91,6.5,6.5Zm-1.451-.928l-2.098-2.145-3.454,3.375-1.957-1.884-2.08,2.162,2.272,2.187c.489.489,1.132.732,1.772.732.636,0,1.271-.24,1.751-.721l3.793-3.707Z"/></svg>
