<?xml version="1.0" encoding="UTF-8"?>
<svg xmlns="http://www.w3.org/2000/svg" id="Layer_1" data-name="Layer 1" viewBox="0 0 24 24" width="512" height="512"><path d="M19.35,17.16l2.67,1.38c-1.74,3.37-5.18,5.46-8.97,5.46h-.95c-5.56,0-10.09-4.53-10.09-10.09v-3.82C2,4.53,6.53,0,12.09,0h.95c3.86,0,7.32,2.15,9.04,5.6l-2.69,1.34c-1.21-2.43-3.64-3.94-6.35-3.94h-.95c-3.91,0-7.09,3.18-7.09,7.09v3.82c0,2.8,1.63,5.23,4,6.38V10h3v1.02c1.01-.65,2.21-1.02,3.5-1.02h2.5v3h-2.5c-1.93,0-3.5,1.57-3.5,3.5v4.5s.06,0,.09,0h.95c2.66,0,5.08-1.47,6.3-3.84Z"/></svg>
