<?xml version="1.0" encoding="UTF-8"?>
<svg xmlns="http://www.w3.org/2000/svg" id="Layer_1" data-name="Layer 1" viewBox="0 0 24 24" width="512" height="512"><path d="M2.13,11.579l2.229-2.223,2.117,2.125-2.228,2.221c-.806,.806-1.25,1.877-1.25,3.016s.444,2.211,1.25,3.017c.81,.81,1.884,1.259,3.024,1.266h.024c1.129,0,2.187-.437,2.981-1.231l2.239-2.246,2.125,2.118-2.241,2.248c-1.362,1.363-3.174,2.112-5.104,2.112h-.041c-1.936-.011-3.758-.772-5.129-2.145C.756,20.483,0,18.659,0,16.718s.757-3.765,2.131-5.139Zm8.423,3.988l-2.121-2.121-1.493,1.494,2.121,2.121,1.493-1.494ZM2.123,.002L7.92,5.798l3.676-3.67c2.834-2.834,7.443-2.833,10.275,0,1.372,1.372,2.128,3.197,2.128,5.138,0,1.94-.756,3.765-2.127,5.136l-3.671,3.678,5.797,5.797-2.121,2.121L.002,2.123,2.123,.002ZM19.75,10.282c.806-.806,1.249-1.877,1.249-3.016,0-1.14-.443-2.211-1.249-3.017-1.664-1.663-4.37-1.663-6.034,0l-3.675,3.669,1.959,1.959,2.939-2.939,2.121,2.121-2.939,2.939,1.96,1.96,3.67-3.677Z"/></svg>
