<?xml version="1.0" encoding="UTF-8"?>
<svg xmlns="http://www.w3.org/2000/svg" id="Layer_1" data-name="Layer 1" viewBox="0 0 24 24" width="512" height="512"><path d="M23,5h-2.94C18.59,2.04,15.53,0,12,0H6.5c-1.93,0-3.5,1.57-3.5,3.5v1.5H1v3H3v2H1v3H3v11h3v-6h6c3.53,0,6.59-2.04,8.06-5h2.94v-3h-2.06c.04-.33,.06-.66,.06-1s-.02-.67-.06-1h2.06v-3ZM6,3.5c0-.28,.22-.5,.5-.5h5.5c1.77,0,3.37,.77,4.47,2H6v-1.5Zm6,11.5H6v-2h10.47c-1.1,1.23-2.7,2-4.47,2Zm6-6c0,.34-.03,.67-.08,1H6v-2h11.92c.05,.33,.08,.66,.08,1Z"/></svg>
