<?xml version="1.0" encoding="UTF-8"?>
<svg xmlns="http://www.w3.org/2000/svg" id="Layer_1" data-name="Layer 1" viewBox="0 0 24 24" width="512" height="512"><path d="M12,24c-5.514,0-10-4.486-10-10,0-3.372,1.503-5.475,3.759-7.594l3.674-3.451-1.19,4.899c-.295,1.214-.408,4.039,.647,5.381,.258,.328,.723,.765,1.776,.765,.738,0,1.324-.594,1.333-1.352,.014-1.064-.224-1.853-.475-2.687-.252-.837-.538-1.785-.538-2.962,0-2.588,.732-4.263,.816-4.444L12.955,.041l1.479,2.336c.808,1.275,1.947,2.403,3.049,3.495,2.22,2.198,4.517,4.473,4.517,8.128,0,5.514-4.486,10-10,10ZM5.261,12.161c-.171,.555-.261,1.158-.261,1.839,0,3.859,3.14,7,7,7s7-3.141,7-7c0-2.404-1.681-4.069-3.628-5.997-.458-.454-.923-.914-1.377-1.395-.005,.127-.007,.258-.007,.392,0,.735,.181,1.336,.41,2.097,.291,.967,.622,2.063,.603,3.589-.03,2.379-1.974,4.314-4.333,4.314-1.722,0-3.151-.66-4.134-1.91-.667-.85-1.059-1.883-1.271-2.929Z"/></svg>
