<?xml version="1.0" encoding="UTF-8"?>
<svg xmlns="http://www.w3.org/2000/svg" id="Layer_1" data-name="Layer 1" viewBox="0 0 24 24" width="512" height="512"><path d="M11,22c0,1.1-.9,2-2,2s-2-.9-2-2,.9-2,2-2,2,.9,2,2Zm7-2c-1.1,0-2,.9-2,2s.9,2,2,2,2-.9,2-2-.9-2-2-2Zm5.97-15l-3.6,13H9.41c-1.75,0-3.24-1.31-3.47-3.04L4.4,3.43c-.03-.25-.25-.43-.5-.43h-1.9V0h1.9c1.75,0,3.24,1.31,3.47,3.04l.26,1.96H23.97Zm-3.94,3H8.03l.88,6.57c.03,.25,.25,.43,.5,.43h8.68l1.94-7ZM2.59,5H0v3H2.99l-.4-3Zm1.33,10H0v3H5.18c-.64-.77-1.08-1.72-1.23-2.77l-.03-.23Zm-.67-5H0v3H3.66l-.4-3Z"/></svg>
