<?xml version="1.0" encoding="UTF-8"?>
<svg xmlns="http://www.w3.org/2000/svg" id="Layer_1" data-name="Layer 1" viewBox="0 0 24 24" width="512" height="512"><path d="M23,20.88v-3.38c0-1.38-1.12-2.5-2.5-2.5h-.57c.04-.33,.07-.66,.07-1,0-.29-.03-.63-.09-1h3.09v-3h-3.82c-.21-.7-.43-1.39-.65-2h1.97c1.38,0,2.5-1.12,2.5-2.5V2h-3v3h-2.68c-1.11-1.82-3.16-3-5.34-3s-3.98,1.06-5.11,2.75L2.16,.04,.04,2.16,21.84,23.96l2.12-2.12-.96-.96ZM9.1,6.9c.5-1.15,1.64-1.9,2.89-1.9s2.46,.76,2.96,1.9c.35,.81,2.06,5.68,2.06,7.1,0,.27-.03,.54-.07,.81l-7.86-7.86s.02-.04,.02-.05Zm4.64,11.79l2.25,2.25c-1.19,.68-2.56,1.07-3.98,1.07-2.95,0-5.53-1.61-6.92-4h-1.08v3H1v-3.5c0-1.38,1.12-2.5,2.5-2.5h.57c-.04-.33-.07-.66-.07-1,0-.29,.04-.63,.1-1H1v-3H5.05l2.26,2.26c-.19,.73-.31,1.36-.31,1.74,0,2.76,2.24,5,5,5,.6,0,1.19-.11,1.74-.31Z"/></svg>
