<?xml version="1.0" encoding="UTF-8"?>
<svg xmlns="http://www.w3.org/2000/svg" id="Layer_1" data-name="Layer 1" viewBox="0 0 24 24" width="512" height="512"><path d="m19,0H3.5C2.122,0,1,1.122,1,2.5v21.5h18c2.206,0,4-1.794,4-4V4c0-2.206-1.794-4-4-4Zm0,3c.551,0,1,.449,1,1v12.142c-.322-.084-.653-.142-1-.142H4V3h15Zm0,18H4v-2h15c.551,0,1,.449,1,1s-.449,1-1,1ZM7,9.5c0-2.485,2.015-4.5,4.5-4.5.532,0,1.037.101,1.51.273-1.749.617-3.01,2.267-3.01,4.227s1.26,3.609,3.007,4.227c-.472.171-.976.273-1.507.273-2.485,0-4.5-2.015-4.5-4.5Zm4.969-.5h1.812l.491-1.875h.404l.49,1.875h1.802v.382l-1.375.796.552,1.679-.312.218-1.359-1.051-1.364,1.055-.301-.226.543-1.698-1.384-.77v-.384Z"/></svg>
