<?xml version="1.0" encoding="UTF-8"?>
<svg xmlns="http://www.w3.org/2000/svg" id="Layer_1" data-name="Layer 1" viewBox="0 0 24 24" width="512" height="512"><path d="M12,16c-2.206,0-4-1.794-4-4s1.794-4,4-4,4,1.794,4,4-1.794,4-4,4ZM5.5,7c-.828,0-1.5,.672-1.5,1.5s.672,1.5,1.5,1.5,1.5-.672,1.5-1.5-.672-1.5-1.5-1.5Zm11.5,2.5c0,.828,.672,1.5,1.5,1.5s1.5-.672,1.5-1.5-.672-1.5-1.5-1.5-1.5,.672-1.5,1.5Zm-11.5,3.5c-.828,0-1.5,.672-1.5,1.5s.672,1.5,1.5,1.5,1.5-.672,1.5-1.5-.672-1.5-1.5-1.5Zm11.5,2.5c0,.828,.672,1.5,1.5,1.5s1.5-.672,1.5-1.5-.672-1.5-1.5-1.5-1.5,.672-1.5,1.5ZM.001,22.268V6.515c-.001-1.282,.703-2.442,1.836-3.026,1.316-.679,3.32-1.488,5.391-1.488,1.679,0,3.299,.549,4.867,1.079,1.398,.474,2.72,.921,3.904,.921,1.112,0,1.93-.302,2.721-.595,.368-.136,.704-.258,1.018-.341,.981-.259,2.021-.042,2.854,.598,.881,.678,1.407,1.739,1.407,2.837v13.67l-.881,.399c-.129,.059-3.194,1.431-6.346,1.431-1.66,0-3.4-.543-5.083-1.068-1.468-.458-2.987-.932-4.19-.932-2.49,0-5.348,1.289-5.377,1.301L.001,22.268Zm7.499-5.268c1.66,0,3.4,.543,5.083,1.068,1.468,.458,2.987,.932,4.19,.932,1.604,0,3.251-.478,4.227-.822V6.5c0-.168-.093-.349-.237-.459-.062-.049-.155-.104-.256-.076-.23,.061-.476,.155-.745,.254-.892,.33-2.112,.781-3.762,.781-1.679,0-3.299-.549-4.867-1.079-1.398-.474-2.72-.921-3.904-.921-1.546,0-3.18,.723-4.016,1.154-.131,.068-.213,.206-.213,.36v11.266c1.251-.391,2.898-.78,4.5-.78Z"/></svg>
