<?xml version="1.0" encoding="UTF-8"?>
<svg xmlns="http://www.w3.org/2000/svg" id="Layer_1" data-name="Layer 1" viewBox="0 0 24 24" width="512" height="512"><path d="M23,17.772c0,3.434-2.804,6.228-6.25,6.228h-1.098c1.076-.756,1.866-1.886,2.186-3.2,1.256-.447,2.162-1.629,2.162-3.028,0-4.566-4.262-9.772-8-9.772S4,13.206,4,17.772c0,1.399,.906,2.581,2.162,3.028,.32,1.314,1.11,2.444,2.186,3.2h-1.098c-3.446,0-6.25-2.794-6.25-6.228C1,12.576,5.146,6.34,10.318,5.188c-1.452-1.073-3.318-2.897-3.318-5.188h10c0,2.291-1.866,4.115-3.318,5.188,5.172,1.152,9.318,7.388,9.318,12.584Zm-7,1.728c0-1.528-.917-2.882-2.335-3.45l-2.215-.886c-.273-.109-.45-.37-.45-.665,0-.276,.224-.5,.5-.5h1c.276,0,.5,.224,.5,.5v.5h3v-.5c0-1.582-1.056-2.923-2.5-3.354v-1.146h-3v1.146c-1.444,.431-2.5,1.772-2.5,3.354,0,1.528,.917,2.882,2.335,3.45l2.215,.886c.273,.109,.45,.37,.45,.665,0,.276-.224,.5-.5,.5h-1c-.276,0-.5-.224-.5-.5v-.5h-3v.5c0,1.582,1.056,2.923,2.5,3.354v1.146h3v-1.146c1.444-.431,2.5-1.772,2.5-3.354Z"/></svg>
