<?xml version="1.0" encoding="UTF-8"?>
<svg xmlns="http://www.w3.org/2000/svg" id="Layer_1" data-name="Layer 1" viewBox="0 0 24 24" width="512" height="512"><path d="M12,0C5.38,0,0,5.38,0,12s5.38,12,12,12,12-5.38,12-12S18.62,0,12,0Zm8.6,9.34c-4.77-2.89-9.73-4.39-13.07-5.14,1.32-.76,2.84-1.2,4.47-1.2,4.04,0,7.46,2.67,8.6,6.34Zm-17.25,.23c.29-1.04,.77-2,1.39-2.86,.73,.13,1.7,.32,2.85,.59-1.76,.79-3.17,1.58-4.24,2.26Zm8.66,11.43c-4.49,0-8.21-3.3-8.88-7.6,.59-.48,1.91-1.47,4.04-2.56-.1,.2-.16,.43-.16,.67,0,.83,.67,1.5,1.5,1.5s1.5-.67,1.5-1.5c0-.72-.51-1.32-1.18-1.46,1-.45,2.14-.9,3.41-1.34,1.04,.37,2.12,.81,3.21,1.31-.8,.03-1.44,.69-1.44,1.49s.67,1.5,1.5,1.5,1.5-.67,1.5-1.5c0-.33-.11-.63-.29-.88,1.42,.71,2.84,1.55,4.21,2.51-.56,4.43-4.34,7.87-8.92,7.87Zm0-7c3.02,0,5.4,2.09,5.5,2.18l-1.99,2.24s-1.64-1.42-3.51-1.42-3.49,1.41-3.51,1.42l-1.99-2.24c.1-.09,2.48-2.18,5.5-2.18Z"/></svg>
