<?xml version="1.0" encoding="UTF-8"?>
<svg xmlns="http://www.w3.org/2000/svg" id="Layer_1" data-name="Layer 1" viewBox="0 0 24 24" width="512" height="512"><path d="M22.947,14.344c-.309-1.906-2.052-3.344-4.054-3.344h-7.449l-.646-2h8.202v-3H9.83l-.937-2.901C8.369,1.102,6.407-.248,4.416,.039,3.291,.206,2.287,.845,1.662,1.79c-.626,.947-.819,2.122-.511,3.291l3.211,10.226c.269,.995,.83,1.852,1.576,2.49l-.569,1.138c-.546,1.094-.489,2.366,.154,3.406,.643,1.039,1.755,1.659,2.977,1.659h11.5v-3H8.5c-.243,0-.371-.148-.425-.237-.055-.088-.13-.27-.022-.486l.65-1.3c.16,.016,.322,.024,.485,.024h9.812c1.176,0,2.287-.515,3.048-1.41,.761-.895,1.089-2.078,.899-3.246Zm-3.185,1.304c-.191,.224-.468,.353-.762,.353H9.188c-.901,0-1.695-.607-1.947-1.534L4.033,4.251c-.072-.276-.024-.57,.132-.808,.156-.235,.464-.444,.796-.444,.452,0,.9,.37,1.052,.941l3.246,10.06h9.633c.538,0,1.018,.362,1.093,.824,.048,.299-.033,.599-.224,.823Z"/></svg>
