<?xml version="1.0" encoding="UTF-8"?>
<svg xmlns="http://www.w3.org/2000/svg" id="Layer_1" data-name="Layer 1" viewBox="0 0 24 24" width="512" height="512"><path d="m20.5,0H3.5C1.57,0,0,1.57,0,3.5v16.5h6.741l3.598,3.03c.479.426,1.08.636,1.675.636.583,0,1.158-.201,1.606-.601l3.708-3.065h6.672V3.5c0-1.93-1.57-3.5-3.5-3.5ZM3.5,3h17c.276,0,.5.225.5.5v1.5H3v-1.5c0-.275.224-.5.5-.5Zm14.409,5.928c.016,0,.614.263,1.272.506,1.223.451,1.529,1.336,1.408,2.014-.16.899-1.019,1.552-2.04,1.552-.826,0-1.603-.333-2.13-.914l-.42-.462.926-.84.42.463c.286.315.736.504,1.204.504.448,0,.764-.265.81-.521.062-.345-.451-.562-.61-.621-.752-.277-1.43-.58-1.43-.58-.6-.382-.864-.969-.777-1.579.094-.649.568-1.178,1.239-1.38,1.317-.397,2.407.499,2.452.537l.479.402-.805.957-.476-.399c-.025-.021-.633-.495-1.29-.299-.293.088-.351.282-.362.361-.008.059-.013.206.13.302Zm-5.909,2.072l-1.748-1.894-.002,3.894h-1.25v-6h1.253l1.747,2,1.747-2h1.253v6h-1.253v-3.892l-1.747,1.892Zm-6.803-2.038c.016,0,.614.263,1.272.506,1.223.451,1.529,1.336,1.408,2.014-.16.899-1.019,1.552-2.04,1.552-.826,0-1.603-.333-2.13-.914l-.42-.462.926-.84.42.463c.286.315.736.504,1.204.504.448,0,.764-.265.81-.521.062-.345-.451-.562-.61-.621-.752-.277-1.43-.58-1.43-.58-.6-.382-.864-.969-.777-1.579.094-.649.568-1.178,1.239-1.38,1.317-.397,2.407.499,2.452.537l.479.402-.805.957-.476-.399c-.025-.021-.633-.495-1.29-.299-.293.088-.351.282-.362.361-.008.059-.013.206.13.302Zm11.052,8.038l-4.246,3.511-4.167-3.511H3v-2h18v2h-4.751Z"/></svg>
