<?xml version="1.0" encoding="UTF-8"?>
<svg xmlns="http://www.w3.org/2000/svg" id="Layer_1" data-name="Layer 1" viewBox="0 0 24 24" width="512" height="512"><path d="M22.834,22.683l.166,1.317-3.5-1.167-3.5,1.167,.166-1.317c.188-1.492,1.09-2.723,1.795-3.479-.939-1.069-1.96-2.631-1.96-4.371,0-3.222,3.5-5.833,3.5-5.833,0,0,3.5,2.612,3.5,5.833,0,1.74-1.021,3.302-1.96,4.371,.705,.756,1.607,1.987,1.795,3.479Zm-12.834-7.683c0,2.206-1.794,4-4,4-.345,0-.68-.044-1-.127v2.627c0,1.379-1.122,2.5-2.5,2.5s-2.5-1.121-2.5-2.5v-6c0-.88,.457-1.654,1.146-2.1C1.915,6.787,5.996,0,19.5,0h1.5V7h-3V3.031c-7.413,.314-11.831,3.017-13.375,8.212,.429-.157,.892-.243,1.375-.243,2.206,0,4,1.794,4,4Zm-2.5,0c0-.828-.673-1.5-1.5-1.5s-1.5,.672-1.5,1.5,.673,1.5,1.5,1.5,1.5-.672,1.5-1.5Z"/></svg>
