<?xml version="1.0" encoding="UTF-8"?>
<svg xmlns="http://www.w3.org/2000/svg" id="Layer_1" data-name="Layer 1" viewBox="0 0 24 24" width="512" height="512"><path d="m16.662,2c-.563-1.182-1.769-2-3.162-2h-3c-1.394,0-2.599.818-3.162,2H2v18.5c0,1.93,1.57,3.5,3.5,3.5h13c1.93,0,3.5-1.57,3.5-3.5V2h-5.338Zm2.338,18.5c0,.276-.224.5-.5.5H5.5c-.276,0-.5-.224-.5-.5V5h5v-1.5c0-.276.224-.5.5-.5h3c.276,0,.5.224.5.5v1.5h5v15.5Zm-6.772-7.764c1.044-.47,1.772-1.519,1.772-2.736,0-1.654-1.346-3-3-3h-2c-1.103,0-2,.897-2,2v7h2v-3h1.131l2.29,3.429-2.421,3.571h2.194l1.324-1.928,1.288,1.928h2.194l-2.35-3.577,2.35-3.423h-2.255l-1.19,1.756-1.327-2.02Zm-3.228-3.736h2c.551,0,1,.449,1,1s-.449,1-1,1h-2v-2Z"/></svg>
