<?xml version="1.0" encoding="UTF-8"?>
<svg xmlns="http://www.w3.org/2000/svg" id="Layer_1" data-name="Layer 1" viewBox="0 0 24 24" width="512" height="512"><path d="M3,8H0V3.5C0,1.57,1.57,0,3.5,0h4.5V3H3.5c-.28,0-.5,.22-.5,.5v4.5Zm0,12.5v-4.5H0v4.5c0,1.93,1.57,3.5,3.5,3.5h4.5v-3H3.5c-.28,0-.5-.22-.5-.5Zm18,0c0,.28-.22,.5-.5,.5h-4.5v3h4.5c1.93,0,3.5-1.57,3.5-3.5v-4.5h-3v4.5ZM20.5,0h-4.5V3h4.5c.28,0,.5,.22,.5,.5v4.5h3V3.5c0-1.93-1.57-3.5-3.5-3.5Zm-5.8,12.83l3.3-1.91v-.92h-4.33l-1.18-4.5h-.97l-1.18,4.5H6v.92l3.32,1.85-1.3,4.08,.72,.54,3.27-2.53,3.26,2.52,.75-.52-1.33-4.03Z"/></svg>
