<?xml version="1.0" encoding="UTF-8"?>
<svg xmlns="http://www.w3.org/2000/svg" id="Layer_1" data-name="Layer 1" viewBox="0 0 24 24" width="512" height="512"><path d="M24,24H12v-6h-4c-1.17,0-2.29-.51-3.05-1.41-.76-.9-1.09-2.08-.9-3.25,.31-1.9,2.06-3.34,4.08-3.34h1.87c.29,0,.55-.12,.74-.33,.11-.12,.29-.39,.25-.78-.05-.49-.56-.89-1.14-.89H4c-1.17,0-2.29-.51-3.05-1.41C.19,5.7-.14,4.51,.05,3.34,.36,1.44,2.12,0,4.13,0h7.55c3.52,0,6.79,1.75,8.74,4.68l1.82,2.73c1.15,1.73,1.76,3.74,1.76,5.82v10.77Zm-9-3h6v-7.77c0-1.49-.44-2.92-1.26-4.16l-1.82-2.73c-1.39-2.09-3.73-3.34-6.24-3.34H4.13c-.55,0-1.04,.36-1.12,.82-.07,.41,.11,.69,.22,.83,.19,.22,.47,.35,.76,.35h5.86c2.11,0,3.92,1.58,4.12,3.59,.11,1.13-.26,2.25-1.01,3.09s-1.84,1.32-2.97,1.32h-1.87c-.55,0-1.04,.36-1.12,.82-.07,.41,.11,.69,.22,.83,.19,.22,.47,.35,.76,.35h7v6Z"/></svg>
