<?xml version="1.0" encoding="UTF-8"?>
<svg xmlns="http://www.w3.org/2000/svg" id="Layer_1" data-name="Layer 1" viewBox="0 0 24 24" width="512" height="512"><path d="M14,7.38c0-.31-.22-.57-.52-.62l-3.28-.55c-1.27-.21-2.19-1.3-2.19-2.59,0-1.45,1.18-2.62,2.62-2.62h.38V0h2V1c1.65,0,3,1.35,3,3h-2c0-.55-.45-1-1-1h-2.38c-.34,0-.62,.28-.62,.62,0,.31,.22,.57,.52,.62l3.28,.55c1.27,.21,2.19,1.3,2.19,2.59,0,1.45-1.18,2.62-2.62,2.62h-.38v1h-2v-1c-1.65,0-3-1.35-3-3h2c0,.55,.45,1,1,1h2.38c.34,0,.62-.28,.62-.62Zm7.24-3.36c-1.3,.13-2.24,1.33-2.24,2.63v3.45c-1.24-.27-2.58,.06-3.54,1.02l-3.46,3.46-3.38-3.38c-.99-.99-2.36-1.37-3.62-1.1v-3.46c0-1.31-.94-2.5-2.24-2.63-1.5-.15-2.76,1.02-2.76,2.49v14.12l3.38,3.38H7.62l-4.62-4.62v-3.02l3.33,3.32,2.11-2.13-3.32-3.29c-.1-.17-.14-.36-.11-.56,.02-.16,.11-.38,.35-.56,.32-.22,.82-.14,1.14,.18l3.77,3.77c.47,.47,.73,1.1,.73,1.77v5.14h3v-5.14c0-.6-.12-1.18-.3-1.73l3.89-3.89c.32-.32,.85-.32,1.17,0,.27,.27,.32,.69,.12,1.02l-3.32,3.29,2.11,2.13,3.33-3.3v3l-4.62,4.62h4.24l3.38-3.38V6.5c0-1.46-1.27-2.64-2.76-2.49Z"/></svg>
