<?xml version="1.0" encoding="UTF-8"?>
<svg xmlns="http://www.w3.org/2000/svg" id="Layer_1" data-name="Layer 1" viewBox="0 0 24 24" width="512" height="512"><path d="M24,21h-3v3h-3v-3h-3v-3h3v-3h3v3h3v3ZM5.5,9.22l-1.69,8.78H13v5.86c-.32,.08-.65,.14-1,.14-1.86,0-3.41-1.28-3.86-3H.18L2.56,8.65c.41-2.12,2.26-3.65,4.42-3.65h.15c-.08-.32-.13-.65-.13-1C7,1.79,8.79,0,11,0h2c2.21,0,4,1.79,4,4,0,.35-.04,.68-.13,1h.15c2.15,0,4.01,1.54,4.42,3.65l.84,4.35h-3.05l-.73-3.78c-.14-.71-.76-1.22-1.47-1.22H6.98c-.72,0-1.34,.51-1.47,1.22Zm5.5-4.22h2c.55,0,1-.45,1-1s-.45-1-1-1h-2c-.55,0-1,.45-1,1s.45,1,1,1Z"/></svg>
