<?xml version="1.0" encoding="UTF-8"?>
<svg xmlns="http://www.w3.org/2000/svg" id="Layer_1" data-name="Layer 1" viewBox="0 0 24 24" width="512" height="512"><path d="M9,18H0V9C0,4.037,4.038,0,9,0s9,4.037,9,9-4.038,9-9,9Zm-6-3h6c3.309,0,6-2.691,6-6s-2.692-6-6-6S3,5.691,3,9v6Zm7-4.495c0-.312,.26-.773,.447-.876,1.125-.62,1.73-1.892,1.506-3.164-.212-1.212-1.207-2.206-2.417-2.417-.885-.16-1.783,.083-2.464,.653-.682,.572-1.072,1.41-1.072,2.299h2c0-.297,.13-.576,.358-.767,.23-.194,.523-.272,.833-.216,.391,.068,.724,.401,.793,.793,.093,.532-.212,.907-.501,1.066-.845,.465-1.482,1.595-1.482,2.628v.495h2v-.495Zm0,1.495h-2v2h2v-2Zm9.996-2.92c-.008,1.159-.199,2.274-.54,3.322,.948,.91,1.544,2.184,1.544,3.598v5h-5c-1.415,0-2.688-.597-3.598-1.544-1.048,.342-2.163,.532-3.322,.54,1.385,2.389,3.965,4.004,6.92,4.004h8v-8c0-2.955-1.615-5.535-4.004-6.92Z"/></svg>
