<?xml version="1.0" encoding="UTF-8"?>
<svg xmlns="http://www.w3.org/2000/svg" id="Layer_1" data-name="Layer 1" viewBox="0 0 24 24" width="512" height="512"><path d="M9,0C4.038,0,0,4.038,0,9v9H9c4.962,0,9-4.037,9-9S13.962,0,9,0Zm4,7h-3v-.5c0-.276-.224-.5-.5-.5h-1c-.276,0-.5,.224-.5,.5,0,.294,.177,.555,.45,.665l2.215,.886c1.419,.567,2.335,1.922,2.335,3.45,0,1.58-1.059,2.903-2.5,3.337v1.163h-3v-1.163c-1.441-.434-2.5-1.757-2.5-3.337v-.5h3v.5c0,.276,.224,.5,.5,.5h1c.276,0,.5-.224,.5-.5,0-.294-.177-.555-.45-.665l-2.215-.886c-1.419-.567-2.335-1.922-2.335-3.45,0-1.58,1.059-2.903,2.5-3.337v-1.163h3v1.163c1.441,.434,2.5,1.757,2.5,3.337v.5Zm11,9v8h-8c-2.955,0-5.535-1.615-6.92-4.004,1.159-.008,2.274-.199,3.322-.54,.91,.948,2.184,1.544,3.598,1.544h5v-5c0-1.415-.597-2.688-1.544-3.598,.342-1.048,.532-2.163,.54-3.322,2.389,1.385,4.004,3.965,4.004,6.92Z"/></svg>
