<?xml version="1.0" encoding="UTF-8"?>
<svg xmlns="http://www.w3.org/2000/svg" id="Layer_1" data-name="Layer 1" viewBox="0 0 24 24" width="512" height="512"><path d="m3,3c0-1.654,1.346-3,3-3s3,1.346,3,3-1.346,3-3,3-3-1.346-3-3Zm13,3c1.654,0,3-1.346,3-3s-1.346-3-3-3-3,1.346-3,3,1.346,3,3,3Zm-5,2c-1.654,0-3,1.346-3,3s1.346,3,3,3,3-1.346,3-3-1.346-3-3-3Zm-2.969-1h-3.531c-1.93,0-3.5,1.57-3.5,3.5v3.5h3v-3.5c0-.276.224-.5.5-.5h1.601c.25-1.226.96-2.278,1.93-3Zm9.5,3c.276,0,.5.224.5.5v2.5h3v-2.5c0-1.93-1.57-3.5-3.5-3.5h-3.531c.97.722,1.68,1.774,1.93,3h1.601Zm-12.531,8.5v3.5h3v-3.5c0-.275.224-.5.5-.5h4.5v-3h-4.5c-1.93,0-3.5,1.57-3.5,3.5Zm19-.5h-3v-3h-3v3h-3v3h3v3h3v-3h3v-3Z"/></svg>
