<?xml version="1.0" encoding="UTF-8"?>
<svg xmlns="http://www.w3.org/2000/svg" id="Layer_1" data-name="Layer 1" viewBox="0 0 24 24" width="512" height="512"><path d="m13.825,17.593l.41-2.182,8.594-8.595c1.56-1.56,1.56-4.097,0-5.656-1.511-1.512-4.147-1.511-5.656,0L0,18.315v3.685s3.56-.013,3.56-.013c3.999-.159,7.435-1.564,9.937-4.066l.328-.328Zm-2.774-1.482c-2.375,2.171-5.328,2.769-7.475,2.873l6.179-6.173,1.629,1.521-.333,1.778Zm.828-5.421l7.415-7.408c.377-.379,1.036-.379,1.414,0,.39.39.39,1.024,0,1.414l-7.362,7.362-1.466-1.368Zm.122,10.311h5v3h-5v-3Zm12,0v3h-5v-3h5Z"/></svg>
