<?xml version="1.0" encoding="UTF-8"?>
<svg xmlns="http://www.w3.org/2000/svg" id="Layer_1" data-name="Layer 1" viewBox="0 0 24 24" width="512" height="512"><path d="M24,0V4c0,1.304-.836,2.415-2,2.828V24h-5v-3h2V7h-3v5.478c-.308-.438-.676-.839-1.111-1.18l-1.889-1.478v-2.992c-1.164-.413-2-1.524-2-2.828V0h3V2h2V0h3V2h2V0h3ZM15,15.63v8.37H0V15.63c0-1.082,.489-2.087,1.342-2.756l4.001-3.131c1.27-.992,3.043-.992,4.313,0l4,3.13c.854,.67,1.343,1.675,1.343,2.757Zm-3,0c0-.154-.07-.299-.193-.395l-3.999-3.129c-.182-.143-.435-.143-.616,0l-4,3.13c-.122,.095-.192,.239-.192,.394v5.37H12v-5.37Zm-6,3.37h3v-3h-3v3Z"/></svg>
