<?xml version="1.0" encoding="UTF-8"?>
<svg xmlns="http://www.w3.org/2000/svg" id="Layer_1" data-name="Layer 1" viewBox="0 0 24 24" width="512" height="512"><path d="M17,13.5c0,.83-.67,1.5-1.5,1.5-.68,0-1.25-.45-1.43-1.07l-1.13-.65c-.28,.23-.59,.42-.94,.54v3.18h-2v-3.18c-.35-.12-.66-.31-.94-.54l-1.13,.65c-.18,.62-.75,1.07-1.43,1.07-.83,0-1.5-.67-1.5-1.5s.67-1.5,1.5-1.5c.2,0,.39,.04,.57,.11l.98-.57c-.03-.18-.06-.36-.06-.55s.02-.37,.06-.55l-2.75-1.59,1-1.73,2.76,1.59c.27-.23,.59-.42,.94-.54v-1.57c-.3-.27-.5-.67-.5-1.11,0-.83,.67-1.5,1.5-1.5s1.5,.67,1.5,1.5c0,.44-.2,.84-.5,1.11v1.57c.35,.12,.66,.31,.94,.54l2.76-1.59,1,1.73-2.75,1.59c.03,.18,.06,.36,.06,.55s-.02,.37-.06,.55l.98,.57c.18-.07,.37-.11,.57-.11,.83,0,1.5,.67,1.5,1.5Zm7-.82v2.32h-2.28l-.37,2.94c-.22,1.75-1.71,3.06-3.47,3.06h-.87v3H3v-4.99c0-.34-.12-.68-.35-.95C.27,15.22-.55,11.58,.39,8.1,1.5,3.97,4.95,.85,9.18,.15c4.12-.68,8.21,.96,10.7,4.28,1.14,1.41,2.2,3.85,3.32,6.43,.22,.51,.79,1.81,.79,1.81Zm-3.57-.68c-.98-2.26-2-4.59-2.91-5.72-1.85-2.46-4.84-3.66-7.85-3.17-3.02,.5-5.59,2.81-6.38,5.76-.68,2.53-.07,5.18,1.67,7.26,.67,.81,1.05,1.83,1.05,2.88v1.99H14v-3h3.87c.25,0,.46-.19,.5-.44l.7-5.56h1.35Z"/></svg>
