<?xml version="1.0" encoding="UTF-8"?>
<svg xmlns="http://www.w3.org/2000/svg" id="Layer_1" data-name="Layer 1" viewBox="0 0 24 24" width="512" height="512"><path d="M22,17.51c0-.82-.67-1.49-1.49-1.49-.64,0-1.18,.41-1.39,.98l-1.96-1.96,.15-1.03,1.7-.06v-1.79s-2.16-4.81-3.12-6.09c-1.71-2.58-4.4-4.07-7.38-4.07-1.25,0-2.46,.28-3.58,.8L2.16,.04,.04,2.16,21.84,23.96l2.12-2.12-2.94-2.94c.57-.21,.98-.75,.98-1.39ZM8.5,5c1.99,0,3.72,.97,4.93,2.79,.58,.77,1.19,1.86,1.82,3.21h-.55l-.2,1.38L7.27,5.15c.4-.09,.81-.15,1.23-.15Zm12.5,8.5c0-.83,.67-1.5,1.5-1.5s1.5,.67,1.5,1.5-.67,1.5-1.5,1.5-1.5-.67-1.5-1.5Zm-8.79,3.5l2.95,2.95c-.19,.03-.38,.05-.57,.05h-1.59v2H3v-4.09c0-.35-.14-.7-.39-1C.78,14.77-.09,12.61,0,10.5c0-1.55,.44-3.04,1.21-4.34l2.22,2.22c-.28,.66-.43,1.38-.43,2.12-.07,1.73,.89,3.28,1.9,4.47,.71,.83,1.1,1.88,1.1,2.94v1.09h4v-2h2.21Z"/></svg>
