<?xml version="1.0" encoding="UTF-8"?>
<svg xmlns="http://www.w3.org/2000/svg" id="Layer_1" data-name="Layer 1" viewBox="0 0 24 24" width="512" height="512"><path d="m16.549,13.221c-.904.614-2.701,1.75-2.711,1.756.492.334.97.674,1.428,1.022h-6.536c1.249-.95,2.647-1.833,4.07-2.732,4.781-3.019,10.199-6.441,10.199-13.268H1c0,5.053,2.97,8.239,6.451,10.779.904-.614,1.811-1.189,2.681-1.738.01-.006.02-.013.03-.019-.492-.334-.97-.674-1.428-1.022h6.536c-1.249.95-2.647,1.833-4.07,2.732C6.418,13.751,1,17.173,1,24h22c0-5.053-2.97-8.239-6.451-10.779ZM4.546,3h14.909c-.278.717-.654,1.38-1.108,2H5.654c-.454-.62-.831-1.283-1.109-2Zm0,18c.278-.717.654-1.38,1.108-2h12.692c.454.62.831,1.283,1.109,2H4.546Z"/></svg>
