<?xml version="1.0" encoding="UTF-8"?>
<svg xmlns="http://www.w3.org/2000/svg" id="Layer_1" data-name="Layer 1" viewBox="0 0 24 24" width="512" height="512"><path d="M20,20c-.939,0-1.782,.316-2.527,.596-.555,.208-1.079,.404-1.473,.404s-.918-.196-1.473-.404c-.745-.279-1.588-.596-2.527-.596-.757,0-1.452,.206-2.083,.432l2.867-6.473,9.58,4.243,.607-1.372c1.296-2.925,1.375-6.18,.222-9.165-1.152-2.985-3.397-5.342-6.323-6.638C13.944-.267,10.689-.347,7.706,.807,4.721,1.958,2.364,4.204,1.068,7.129l-.607,1.372,9.58,4.243-3.483,7.863-.031-.012c-.745-.279-1.588-.596-2.527-.596s-1.782,.316-2.527,.596c-.555,.208-1.079,.404-1.473,.404v3c.939,0,1.782-.316,2.527-.596,.555-.208,1.079-.404,1.473-.404s.918,.196,1.473,.404c.745,.279,1.588,.596,2.527,.596s1.782-.316,2.527-.596c.555-.208,1.079-.404,1.473-.404s.918,.196,1.473,.404c.745,.279,1.588,.596,2.527,.596s1.782-.316,2.527-.596c.555-.208,1.079-.404,1.473-.404s.918,.196,1.473,.404c.745,.279,1.588,.596,2.527,.596v-3c-.395,0-.918-.196-1.473-.404-.745-.279-1.588-.596-2.527-.596ZM8.787,3.605c2.235-.864,4.676-.805,6.869,.167,2.192,.971,3.875,2.738,4.739,4.975,.681,1.763,.788,3.652,.327,5.447L4.532,7.023c1.02-1.547,2.491-2.737,4.254-3.418Z"/></svg>
