<?xml version="1.0" encoding="UTF-8"?>
<svg xmlns="http://www.w3.org/2000/svg" id="Layer_1" data-name="Layer 1" viewBox="0 0 24 24" width="512" height="512"><path d="M12,9h3v3h-3v3h-3v-3h-3v-3h3v-3h3v3Zm12,3.68v2.32h-2.28l-.37,2.94c-.22,1.75-1.71,3.06-3.47,3.06h-.87v3H3v-4.99c0-.34-.12-.68-.35-.95C.27,15.22-.55,11.58,.39,8.1,1.5,3.97,4.95,.85,9.18,.15c4.11-.67,8.21,.96,10.7,4.28,1.14,1.41,2.2,3.85,3.32,6.42,.22,.51,.8,1.82,.8,1.82Zm-3.57-.68c-.98-2.26-2-4.59-2.91-5.72-1.85-2.46-4.84-3.66-7.85-3.17-3.03,.5-5.59,2.81-6.39,5.76-.68,2.53-.07,5.18,1.67,7.26,.68,.81,1.05,1.83,1.05,2.88v1.99H14v-3h3.87c.25,0,.46-.19,.5-.44l.7-5.56h1.35Z"/></svg>
