<?xml version="1.0" encoding="UTF-8"?>
<svg xmlns="http://www.w3.org/2000/svg" id="Layer_1" data-name="Layer 1" viewBox="0 0 24 24" width="512" height="512"><path d="M9.14,19c.19,1.09,.59,2.1,1.16,3H0V3.5C0,1.57,1.57,0,3.5,0h12.74l5.76,5.76v4.54c-.9-.56-1.91-.96-3-1.16v-2.14L15,3V7H5V3h-1.5c-.28,0-.5,.22-.5,.5v15.5h6.14Zm14.86-1.5c0,3.59-2.91,6.5-6.5,6.5s-6.5-2.91-6.5-6.5,2.91-6.5,6.5-6.5,6.5,2.91,6.5,6.5Zm-2.29-.71l-3.71-3.79v3h-4v3h4v3l3.71-3.79c.39-.39,.39-1.02,0-1.41ZM7,12.5c0,1.47,.9,2.72,2.18,3.24,.49-2.34,1.96-4.33,3.95-5.52-.64-.74-1.58-1.22-2.63-1.22-1.93,0-3.5,1.57-3.5,3.5Z"/></svg>
