<?xml version="1.0" encoding="UTF-8"?>
<svg xmlns="http://www.w3.org/2000/svg" id="Layer_1" data-name="Layer 1" viewBox="0 0 24 24" width="512" height="512"><path d="M19.5,10h-2.14l.58-5.98c.19-.98-.06-1.98-.69-2.76-.64-.8-1.59-1.25-2.62-1.25H3.37C2.35,0,1.39,.46,.75,1.25,.12,2.03-.13,3.04,.06,4.02l1.95,19.98H19.5c2.48,0,4.5-2.02,4.5-4.5v-5c0-2.48-2.02-4.5-4.5-4.5Zm1.5,4.5v.5H11v-.5c0-.83,.67-1.5,1.5-1.5h7c.83,0,1.5,.67,1.5,1.5ZM3.09,3.14c.05-.06,.14-.14,.28-.14H14.63c.14,0,.23,.07,.28,.14,.04,.06,.12,.17,.08,.34l-.15,1.52H3.17l-.13-1.35-.03-.17c-.04-.17,.03-.28,.08-.34Zm.37,4.86H14.54l-.2,2h-1.85c-2.48,0-4.5,2.02-4.5,4.5v5c0,.53,.11,1.03,.28,1.5h-3.55l-1.27-13Zm16.04,13h-7c-.83,0-1.5-.67-1.5-1.5v-1.5h2.93l2.57,2,2.47-2h2.03v1.5c0,.83-.67,1.5-1.5,1.5Z"/></svg>
