<?xml version="1.0" encoding="UTF-8"?>
<svg xmlns="http://www.w3.org/2000/svg" id="Layer_1" data-name="Layer 1" viewBox="0 0 24 24" width="512" height="512"><path d="M3,5.121v4.879H0V2.5C0,1.122,1.122,0,2.5,0h7.5V3H5.121l11.439,11.439-2.121,2.121L3,5.121Zm11-1.121c-1.478,0-2.878,.331-4.142,.909l2.336,2.336c.577-.155,1.18-.245,1.806-.245,3.859,0,7,3.14,7,7s-3.141,7-7,7-7-3.14-7-7c0-.625,.09-1.228,.245-1.806l-2.336-2.336c-.578,1.264-.909,2.663-.909,4.141,0,5.514,4.486,10,10,10s10-4.486,10-10S19.514,4,14,4Z"/></svg>
