<?xml version="1.0" encoding="UTF-8"?>
<svg xmlns="http://www.w3.org/2000/svg" id="Layer_1" data-name="Layer 1" viewBox="0 0 24 24" width="512" height="512"><path d="m15.98,10.635l.123,1.365h7.938l-.08-1.576c-.2-3.941-2.331-7.53-5.7-9.602l-1.277-.784-4.167,6.771,1.274.787c1.071.661,1.777,1.797,1.889,3.038Zm1.922-6.364c1.422,1.241,2.416,2.896,2.842,4.729h-2.04c-.345-1.147-.983-2.194-1.847-3.03l1.045-1.699Zm-3.848,10.155c-1.25.752-2.859.752-4.109,0l-1.286-.772-4.119,6.866,1.278.773c1.88,1.138,4.018,1.739,6.182,1.739s4.304-.602,6.183-1.739l1.278-.773-4.12-6.866-1.286.772Zm-5.342,4.969l1.058-1.763c1.434.486,3.024.486,4.46,0l1.058,1.764c-2.1.838-4.478.839-6.575,0Zm-.693-8.76c.11-1.233.81-2.364,1.868-3.025l1.265-.789L6.979.037l-1.277.785C2.333,2.894.202,6.482.002,10.424l-.08,1.576h7.975l.123-1.365Zm-2.724-1.635h-2.076c.426-1.832,1.42-3.488,2.842-4.729l1.059,1.721c-.852.832-1.482,1.871-1.824,3.009Zm6.704,0c1.105,0,2,.895,2,2s-.895,2-2,2-2-.895-2-2,.895-2,2-2Z"/></svg>
