<?xml version="1.0" encoding="UTF-8"?>
<svg xmlns="http://www.w3.org/2000/svg" id="Layer_1" data-name="Layer 1" viewBox="0 0 24 24" width="512" height="512"><path d="M24,3.5c0-1.933-1.567-3.5-3.5-3.5s-3.5,1.567-3.5,3.5c0,1.396,.818,2.601,2,3.163v2.837c0,.276-.225,.5-.5,.5h-3.5c-1.152,0-2.203,.435-3,1.149-.797-.714-1.848-1.149-3-1.149h-3.5c-.276,0-.5-.224-.5-.5v-2.837c1.182-.562,2-1.767,2-3.163,0-1.933-1.567-3.5-3.5-3.5S0,1.567,0,3.5c0,1.396,.818,2.601,2,3.163v2.837c0,1.93,1.57,3.5,3.5,3.5h3.5c.827,0,1.5,.673,1.5,1.5v2.837c-1.182,.562-2,1.767-2,3.163,0,1.933,1.567,3.5,3.5,3.5s3.5-1.567,3.5-3.5c0-1.396-.818-2.601-2-3.163v-2.837c0-.827,.673-1.5,1.5-1.5h3.5c1.93,0,3.5-1.57,3.5-3.5v-2.837c1.182-.562,2-1.767,2-3.163Z"/></svg>
