<?xml version="1.0" encoding="UTF-8"?>
<svg xmlns="http://www.w3.org/2000/svg" id="Layer_1" data-name="Layer 1" viewBox="0 0 24 24" width="512" height="512"><path d="m20.693,17.449c-.602-1.485-1.95-2.424-3.544-2.449h-3.649v-2h3.5v-3h-3.5v-2h5.5v-3h-5.5v-2h6.5V0H4v3h6.5v2h-5.5v3h5.5v2h-3.5v3h3.5v2h-3.673c-1.569.025-2.918.964-3.52,2.449-.626,1.547-.279,3.3.885,4.464l2.087,2.087h11.44l2.088-2.087c1.164-1.164,1.511-2.917.885-4.464Zm-3.006,2.343l-1.208,1.208H7.522l-1.208-1.208c-.377-.377-.364-.876-.226-1.217.085-.212.302-.567.763-.575h.149c.551,0,1,.448,1,1h3c0-.345-.044-.68-.127-1h2.253c-.083.32-.127.655-.127,1h3c0-.552.449-1,1-1h.125c.486.008.702.363.788.575.138.341.151.84-.226,1.217Z"/></svg>
