<?xml version="1.0" encoding="UTF-8"?>
<svg xmlns="http://www.w3.org/2000/svg" id="Layer_1" data-name="Layer 1" viewBox="0 0 24 24" width="512" height="512"><path d="M19.932,1.612c-.712,.292-1.599,.415-2.905,.388-1.873-.033-3.239-.4-4.062-1.09l-.964-.808-.964,.808c-.838,.703-2.298,1.107-4.112,1.14-1.181,.01-2.076-.118-2.855-.438L2,.765V12c0,6.518,6.852,10.45,8.951,11.5l.984,.492,1.021-.411c2.122-.853,9.044-4.21,9.044-11.581V.765l-2.068,.847ZM6.978,5.049c1.462-.026,3.405-.267,5.021-1.176,1.278,.72,2.919,1.091,4.975,1.127,.752,.015,1.422-.015,2.026-.09v3.09H5v-3.06c.608,.086,1.263,.12,1.978,.109Zm5.091,15.653c-1.927-.998-7.068-4.098-7.068-8.702v-1h14v1c0,5.259-5.031,7.896-6.932,8.702Z"/></svg>
