<?xml version="1.0" encoding="UTF-8"?>
<svg xmlns="http://www.w3.org/2000/svg" id="Layer_1" data-name="Layer 1" viewBox="0 0 24 24" width="512" height="512"><path d="M23.935,22.408l-3.933-6.708c.964-.599,1.88-1.304,2.716-2.14l-2.121-2.121c-.651,.651-1.363,1.204-2.111,1.676l-3.022-5.153c.331-.582,.536-1.246,.536-1.963,0-1.675-1.036-3.107-2.5-3.703V0h-3V2.297c-1.464,.595-2.5,2.028-2.5,3.703,0,.717,.205,1.38,.536,1.963l-3.022,5.153c-.748-.472-1.46-1.025-2.111-1.676l-2.121,2.121c.836,.836,1.753,1.54,2.716,2.14L.065,22.408l2.588,1.518,4.046-6.9c1.707,.635,3.502,.966,5.301,.966s3.594-.332,5.301-.966l4.046,6.9,2.588-1.518ZM10.5,6c0-.827,.672-1.5,1.5-1.5s1.5,.673,1.5,1.5-.672,1.5-1.5,1.5-1.5-.673-1.5-1.5Zm-2.256,8.391l2.673-4.559c.347,.098,.705,.168,1.083,.168s.736-.069,1.083-.168l2.673,4.559c-2.439,.788-5.073,.788-7.512,0Z"/></svg>
