<?xml version="1.0" encoding="UTF-8"?>
<svg xmlns="http://www.w3.org/2000/svg" id="Layer_1" data-name="Layer 1" viewBox="0 0 24 24" width="512" height="512"><path d="M24,24H12C5.383,24,0,18.617,0,12S5.383,0,12,0s12,5.383,12,12v12ZM12,3C7.038,3,3,7.038,3,12s4.038,9,9,9h9V12c0-4.962-4.038-9-9-9Zm6.271,10.76c.971-.97,.971-2.549,0-3.52l-3.299-3.298-2.121,2.121,2.937,2.937-2.937,2.937,2.121,2.121,3.299-3.298Zm-7.122,1.177l-2.937-2.937,2.937-2.937-2.121-2.121-3.299,3.298c-.971,.97-.971,2.549,0,3.52l3.299,3.298,2.121-2.121Z"/></svg>
