<?xml version="1.0" encoding="UTF-8"?>
<svg xmlns="http://www.w3.org/2000/svg" id="Layer_1" data-name="Layer 1" viewBox="0 0 24 24" width="512" height="512"><path d="M19.47,9.97h-2.9l1.39-4.45-2.86-.89-1.67,5.34h-1.12L13.98,.56,11.03,.03l-1.77,9.94h-.03L7.46,.03l-2.95,.53,1.67,9.41h-1.16l-1.73-5.53L.44,5.33l1.45,4.64H.03l2.27,11.2c.33,1.62,1.77,2.8,3.43,2.8h13.73c2.48,0,4.5-2.02,4.5-4.5v-5c0-2.48-2.02-4.5-4.5-4.5Zm0,3c.83,0,1.5,.67,1.5,1.5v.5H10.97v-.5c0-.83,.67-1.5,1.5-1.5h7Zm-14.22,7.6l-1.54-7.6h4.52c-.17,.47-.26,.97-.26,1.5v5c0,.53,.09,1.03,.26,1.5h-2.49c-.24,0-.44-.17-.49-.4Zm14.22,.4h-7c-.83,0-1.5-.67-1.5-1.5v-1.5h2.5l3,2,3-2h1.5v1.5c0,.83-.67,1.5-1.5,1.5Z"/></svg>
