<?xml version="1.0" encoding="UTF-8"?>
<svg xmlns="http://www.w3.org/2000/svg" id="Layer_1" data-name="Layer 1" viewBox="0 0 24 24" width="512" height="512"><path d="M10.828,14h-2.828v-2.828l4.586-4.586c.781-.781,2.047-.781,2.828,0h0c.781,.781,.781,2.047,0,2.828l-4.586,4.586Zm8.242,3.071c1.89-1.889,2.93-4.4,2.93-7.071s-1.04-5.182-2.93-7.071h0c-1.889-1.889-4.399-2.929-7.07-2.929S6.817,1.04,4.929,2.929c-3.899,3.899-3.899,10.243,.012,14.153l7.06,6.904,7.07-6.916Zm-2.121-12.021h0c1.322,1.322,2.051,3.08,2.051,4.95s-.729,3.627-2.039,4.938l-4.961,4.853-4.95-4.841c-2.729-2.729-2.729-7.17,0-9.899,1.322-1.322,3.08-2.05,4.95-2.05s3.627,.728,4.949,2.05Z"/></svg>
