<?xml version="1.0" encoding="UTF-8"?>
<svg xmlns="http://www.w3.org/2000/svg" id="Layer_1" data-name="Layer 1" viewBox="0 0 24 24" width="512" height="512"><path d="M14,8c0,1.105-.895,2-2,2s-2-.895-2-2,.895-2,2-2,2,.895,2,2Zm10,2.501v13.499h-8v-3.211l-1.631-1.335,1.631-1.335v-3.12h-.925l-3.075,2.516-3.075-2.516h-.925v3.12l1.631,1.335-1.631,1.335v3.211H0V10.501c0-.676,.198-1.33,.573-1.892L3.755,3.836c.368-.552,.884-.981,1.493-1.242L10.657,.275c.854-.365,1.833-.365,2.685,0l5.409,2.318c.609,.262,1.125,.691,1.493,1.242l3.183,4.774c.375,.562,.573,1.215,.573,1.891Zm-3,0c0-.081-.024-.159-.068-.227l-3.183-4.774c-.044-.066-.106-.118-.18-.149l-5.408-2.317c-.103-.044-.219-.044-.323,0l-5.408,2.318c-.073,.031-.135,.083-.18,.149l-3.182,4.773c-.045,.068-.069,.146-.069,.227v10.499h2v-5.5c0-1.933,1.567-3.5,3.5-3.5h7c1.933,0,3.5,1.567,3.5,3.5v5.5h2V10.501Zm-12.246,13.499h6.439l-3.193-2.607-3.246,2.607Z"/></svg>
