<?xml version="1.0" encoding="UTF-8"?>
<svg xmlns="http://www.w3.org/2000/svg" id="Layer_1" data-name="Layer 1" viewBox="0 0 24 24" width="512" height="512"><path d="m9.658,12.687l3.029-3.029c.205-.205.386-.426.543-.658h2.77v-3h-2.028c-.054-.496-.189-.984-.408-1.443l1.765-1.765-2.121-2.121-1.766,1.766c-.459-.218-.947-.353-1.443-.407V0h-3v2.772c-.232.157-.452.337-.657.542l-.454.454-1.829-1.829-2.121,2.121,1.829,1.829-.454.454c-.204.204-.385.424-.544.657H0v3h2.027c.054.506.192.993.408,1.445l-1.803,1.802,2.121,2.121,1.802-1.802c.595.284,1.251.434,1.931.434,1.198,0,2.325-.467,3.172-1.314Zm-4.657-3.172c0-.396.154-.77.435-1.05l3.029-3.029c.29-.29.67-.434,1.051-.434s.761.145,1.05.434c.579.579.579,1.522,0,2.101l-3.029,3.029c-.561.561-1.539.562-2.101,0-.28-.281-.435-.654-.435-1.051Zm16.229,7.485h2.771v-3h-2.027c-.054-.506-.192-.993-.408-1.445l1.79-1.79-2.121-2.121-1.79,1.789c-.595-.284-1.251-.434-1.931-.434-1.198,0-2.325.467-3.172,1.314l-3.029,3.029c-.205.205-.386.426-.543.658h-2.77v3h2.028c.054.496.189.984.408,1.443l-1.779,1.779,2.121,2.121,1.779-1.779c.459.218.947.354,1.443.407v2.029h3v-2.772c.232-.157.452-.338.657-.543l.454-.454,1.829,1.829,2.121-2.121-1.829-1.829.454-.454c.204-.204.385-.424.544-.657Zm-7.795-.537l3.029-3.029c.281-.28.654-.435,1.051-.435s.77.154,1.05.435c.28.281.435.654.435,1.051s-.154.77-.435,1.05l-3.029,3.029c-.579.578-1.522.579-2.101,0s-.579-1.522,0-2.101Z"/></svg>
