<?xml version="1.0" encoding="UTF-8"?>
<svg xmlns="http://www.w3.org/2000/svg" id="Layer_1" data-name="Layer 1" viewBox="0 0 24 24" width="512" height="512"><path d="M19.5,23.988H4.5c-2.481,0-4.5-2.019-4.5-4.5,0-2.069,1.404-3.817,3.31-4.34,.78-2.438,3.049-4.16,5.69-4.16,1.057,0,2.09,.286,3,.818,.91-.533,1.943-.818,3-.818,2.641,0,4.91,1.722,5.69,4.16,1.906,.523,3.31,2.271,3.31,4.34,0,2.481-2.019,4.5-4.5,4.5Zm-15.081-5.998c-.79,.042-1.419,.698-1.419,1.498,0,.827,.673,1.5,1.5,1.5h15c.827,0,1.5-.673,1.5-1.5,0-.799-.628-1.454-1.416-1.498l-1.477,.002-.148-1.334c-.169-1.522-1.441-2.67-2.959-2.67-.932,0-1.6,.425-1.996,.782l-1.004,.905-1.004-.905c-.396-.357-1.064-.782-1.996-.782-1.518,0-2.791,1.148-2.959,2.67l-.148,1.334-1.474-.003Zm14.581-9.002v-.008c-.01-4.167-3.895-6.937-4.675-7.45l-2.325-1.53s-1,1.284-1,2.284c0,1.5,1,1.954,1,2.954,0,.828-.462,1.75-1.741,1.75s-1.759-.922-1.759-1.75c0-1,1-2.75,1-2.75,0,0-4.498,1.5-4.498,6.48l-.002,.02v.012c0,.349,.035,.689,.085,1.024l.005,.005c1.166-.658,2.498-1.041,3.909-1.041,1.028,0,2.048,.203,3,.593,.952-.39,1.972-.593,3-.593,1.411,0,2.743,.383,3.909,1.041l.005-.005c.05-.337,.084-.679,.085-1.029h0v-.006Z"/></svg>
