<?xml version="1.0" encoding="UTF-8"?>
<svg xmlns="http://www.w3.org/2000/svg" id="Layer_1" data-name="Layer 1" viewBox="0 0 24 24" width="512" height="512"><path d="m24,3.5V0h-3c0,1.103-.897,2-2,2H7.5C3.364,2,0,5.364,0,9.5v1.5h2v8.05c-1.141.232-2,1.24-2,2.45,0,1.381,1.119,2.5,2.5,2.5h21.5v-5h-4v-8.868c2.377-1.259,4-3.759,4-6.632Zm-16.5,1.5h11.5c.654,0,1.279-.126,1.853-.355-.508,1.929-2.267,3.355-4.353,3.355H3.257c.619-1.746,2.287-3,4.243-3Zm4.5,6v8h-2v-8h2Zm-5,0v8h-2v-8h2Zm10,8h-2v-8h1.5c.168,0,.335-.006.5-.017v8.017Z"/></svg>
