<?xml version="1.0" encoding="UTF-8"?>
<svg xmlns="http://www.w3.org/2000/svg" id="Layer_1" data-name="Layer 1" viewBox="0 0 24 24" width="512" height="512"><path d="M13.657,12.873l-4-3.13c-1.271-.992-3.044-.992-4.313,0L1.342,12.874c-.853,.669-1.342,1.674-1.342,2.756v8.37H15V15.63c0-1.082-.489-2.087-1.343-2.757Zm-1.657,8.127H3v-5.37c0-.154,.07-.299,.192-.394l4-3.13c.182-.143,.435-.143,.616,0l3.999,3.129c.123,.096,.193,.24,.193,.395v5.37Zm-6-5h3v3h-3v-3Zm11,5h2.225l-3-7h1.32l-2.956-6h1.755l-2.782-5.001c-.01,.011-.041,.001-.062,0-.018,0-.045,.007-.07,.015l-2.773,5c-.872-.611-1.87-.943-2.885-.993L10.983,1.257c.531-.764,1.519-1.257,2.517-1.257s1.985,.493,2.517,1.257l5.429,9.743h-2.034l2.956,6h-1.592l3,7h-6.775v-3Z"/></svg>
