<?xml version="1.0" encoding="UTF-8"?>
<svg xmlns="http://www.w3.org/2000/svg" id="Layer_1" data-name="Layer 1" viewBox="0 0 24 24" width="512" height="512"><path d="M20.98,17v1.501c0,.275-.224,.499-.499,.499-.165,0-.275-.076-.338-.14-.054-.055-.144-.174-.144-.361V8.502c.002-1.736-.673-3.369-1.901-4.598-1.229-1.231-2.864-1.909-4.604-1.909H6.5C2.916,1.995,0,4.911,0,8.495v13.505H5.987l.01-4h3.003v4h6v-4h2v.498c0,.933,.357,1.81,1.009,2.47,.657,.665,1.536,1.032,2.473,1.032,1.929,0,3.499-1.569,3.499-3.499v-1.501h-3ZM6.5,4.995h6.995c.938,0,1.818,.365,2.481,1.029,.661,.661,1.024,1.54,1.023,2.476v4.5H3v-4.505c0-1.93,1.57-3.5,3.5-3.5Zm4.5,4.505c0-.828,.672-1.5,1.5-1.5s1.5,.672,1.5,1.5-.672,1.5-1.5,1.5-1.5-.672-1.5-1.5Zm-5,0c0-.828,.672-1.5,1.5-1.5s1.5,.672,1.5,1.5-.672,1.5-1.5,1.5-1.5-.672-1.5-1.5Z"/></svg>
