<?xml version="1.0" encoding="UTF-8"?>
<svg xmlns="http://www.w3.org/2000/svg" id="Layer_1" data-name="Layer 1" viewBox="0 0 24 24" width="512" height="512"><path d="m23.268,4.268c.976-.976.976-2.559,0-3.536s-2.559-.976-3.536,0l-6.004,7.268H0v1.5c0,3.829,1.824,7.22,5.138,9.548,0,0,.862.465.862.952,0,.551-.448,1-1,1v3h14v-3c-.552,0-1-.449-1-1,0-.487.862-.952.862-.952,3.313-2.328,5.138-5.719,5.138-9.548v-1.5h-5.25l4.518-3.732Zm-6.081,12.291c-1.266.752-1.816,1.673-2.041,2.441h-6.29c-.226-.768-.775-1.689-2.041-2.441-2.012-1.43-3.284-3.366-3.681-5.559h17.734c-.396,2.192-1.669,4.128-3.681,5.559Z"/></svg>
