<?xml version="1.0" encoding="UTF-8"?>
<svg xmlns="http://www.w3.org/2000/svg" id="Layer_1" data-name="Layer 1" viewBox="0 0 24 24" width="512" height="512"><path d="M10.504,14c-.641,0-1.283-.244-1.771-.732l-2.272-2.187,2.08-2.161,1.957,1.883,4.452-4.373,2.102,2.141-4.793,4.707c-.481,.481-1.117,.723-1.754,.723Zm1.496,9.987l-7.06-6.904c-3.911-3.911-3.911-10.254-.012-14.153C6.817,1.04,9.329,0,12,0s5.182,1.04,7.07,2.929h0c1.89,1.889,2.93,4.4,2.93,7.071s-1.04,5.182-2.93,7.071l-7.07,6.916Zm0-20.987c-1.87,0-3.628,.728-4.95,2.05-2.729,2.729-2.729,7.17,0,9.899l4.95,4.841,4.961-4.853c1.311-1.311,2.039-3.068,2.039-4.938s-.729-3.627-2.051-4.949h0c-1.322-1.323-3.079-2.051-4.949-2.051Z"/></svg>
