<?xml version="1.0" encoding="UTF-8"?>
<svg xmlns="http://www.w3.org/2000/svg" id="Layer_1" data-name="Layer 1" viewBox="0 0 24 24" width="512" height="512"><path d="m22.5,10.5h1.5v-4c0-1.93-1.57-3.5-3.5-3.5H3.5c-1.93,0-3.5,1.57-3.5,3.5v11c0,1.93,1.57,3.5,3.5,3.5h17c1.93,0,3.5-1.57,3.5-3.5v-4h-1.5c-.827,0-1.5-.673-1.5-1.5s.673-1.5,1.5-1.5Zm-1.5-2.743c-1.746.619-3,2.287-3,4.243s1.254,3.624,3,4.243v1.257c0,.275-.225.5-.5.5H3.5c-.275,0-.5-.225-.5-.5V6.5c0-.275.225-.5.5-.5h17c.275,0,.5.225.5.5v1.257Zm-6,4.243v1h-2.5l-1.911,2.421c-.195.357-.569.579-.975.579h-1.113l1.167-3h-3.017l-1.546-1.833c-.297-.52.078-1.167.677-1.167.207,0,.405.082.551.228l1.11.772h2.241l-1.184-3h1.096c.407,0,.781.222.975.579l1.929,2.421h1.5c.802,0,1,.448,1,1Z"/></svg>
