<?xml version="1.0" encoding="UTF-8"?>
<svg xmlns="http://www.w3.org/2000/svg" id="Layer_1" data-name="Layer 1" viewBox="0 0 24 24" width="512" height="512"><path d="M24,12.68v5.82c0,3.03-2.47,5.5-5.5,5.5h-4.6l-2.69-8.62L3.26,9.02c-.62,2.48,0,5.07,1.7,7.11,.67,.81,1.05,1.83,1.05,2.88v1.99h4.86l.94,3H3v-4.99c0-.34-.12-.68-.35-.95C.27,15.21-.55,11.58,.39,8.1,1.5,3.97,4.95,.85,9.18,.15c4.12-.68,8.22,.96,10.7,4.28,1.14,1.41,2.2,3.85,3.32,6.42,.22,.51,.8,1.82,.8,1.82Zm-9.83,.32c2.1,0,4.18-.59,5.97-1.67-.89-2.04-1.8-4.03-2.62-5.05-1.85-2.46-4.84-3.66-7.85-3.17-2.04,.34-3.86,1.51-5.08,3.14l8.43,6.75h1.14Zm6.83,1.29c-1.98,1.06-4.21,1.65-6.46,1.71l1.56,5h2.4c1.38,0,2.5-1.12,2.5-2.5v-4.21Z"/></svg>
