<?xml version="1.0" encoding="UTF-8"?>
<svg xmlns="http://www.w3.org/2000/svg" id="Layer_1" data-name="Layer 1" viewBox="0 0 24 24" width="512" height="512"><path d="M12,24C5.383,24,0,18.617,0,12S5.383,0,12,0s12,5.383,12,12-5.383,12-12,12Zm0-21C7.037,3,3,7.038,3,12s4.037,9,9,9,9-4.038,9-9S16.963,3,12,3Zm3.288,10.115l-1.775,1.775c-2.027-.773-3.521-2.208-4.403-4.403l1.775-1.775-2.712-2.712-1.378,1.378c-.54,.539-.795,1.249-.795,1.957,0,3.914,5.032,8.666,8.666,8.666,.708,0,1.418-.256,1.957-.795l1.378-1.378-2.712-2.712Z"/></svg>
