<?xml version="1.0" encoding="UTF-8"?>
<svg xmlns="http://www.w3.org/2000/svg" id="Layer_1" data-name="Layer 1" viewBox="0 0 24 24" width="512" height="512"><path d="m4.001,21h5.999v3H2.139c-.868,0-1.643-.518-1.975-1.319-.322-.776-.161-1.66.408-2.272l5.426-6.408H0v-3h7.861c.867,0,1.643.518,1.975,1.319.322.777.161,1.661-.408,2.273l-5.426,6.408Zm19.522-4.866c.479-.538.61-1.3.332-1.972-.292-.706-.975-1.162-1.739-1.162h-5.117v3h2.781l-2.305,2.866c-.479.538-.61,1.3-.332,1.972.292.706.975,1.162,1.739,1.162h5.117v-3h-2.781l2.305-2.866Zm-4.574-9.134h-3.696l3.226-3.729c.518-.558.665-1.362.372-2.069-.303-.729-1.008-1.201-1.798-1.201h-6.053v3h3.747l-3.226,3.729c-.518.558-.665,1.361-.371,2.069.302.73,1.008,1.202,1.798,1.202h6.002v-3Z"/></svg>
