<?xml version="1.0" encoding="UTF-8"?>
<svg xmlns="http://www.w3.org/2000/svg" id="Layer_1" data-name="Layer 1" viewBox="0 0 24 24" width="512" height="512"><path d="M20.5,10H3.5c-1.93,0-3.5,1.57-3.5,3.5v10.5H24V13.5c0-1.93-1.57-3.5-3.5-3.5Zm.5,11H3v-7.5c0-.28,.22-.5,.5-.5H20.5c.28,0,.5,.22,.5,.5v7.5Zm-9-7c-3.87,0-7,1.34-7,3s3.13,3,7,3,7-1.34,7-3-3.13-3-7-3Zm0,4c-1.38,0-2.5-.45-2.5-1s1.12-1,2.5-1,2.5,.45,2.5,1-1.12,1-2.5,1ZM24,3.5v.76c-.95-.79-2.17-1.26-3.5-1.26H3.5c-1.33,0-2.55,.47-3.5,1.26v-.76C0,1.57,1.57,0,3.5,0H20.5c1.93,0,3.5,1.57,3.5,3.5Zm0,5v.76c-.95-.79-2.17-1.26-3.5-1.26H3.5c-1.33,0-2.55,.47-3.5,1.26v-.76c0-1.93,1.57-3.5,3.5-3.5H20.5c1.93,0,3.5,1.57,3.5,3.5Z"/></svg>
