<?xml version="1.0" encoding="UTF-8"?>
<svg xmlns="http://www.w3.org/2000/svg" id="Layer_1" data-name="Layer 1" viewBox="0 0 24 24" width="512" height="512"><path d="m13.5,7h-3V0h3v7Zm1.561,11.922c.182.623.758,1.078,1.439,1.078.828,0,1.5-.672,1.5-1.5s-.672-1.5-1.5-1.5c-.202,0-.395.04-.572.113l-.979-.565c.033-.178.051-.36.051-.548s-.018-.37-.051-.548l2.747-1.586-1-1.732-2.749,1.587c-.277-.237-.597-.425-.948-.549v-1.554c.307-.275.5-.674.5-1.118,0-.828-.672-1.5-1.5-1.5s-1.5.672-1.5,1.5c0,.444.193.843.5,1.118v1.554c-.35.124-.67.312-.947.549l-2.749-1.587-1,1.732,2.747,1.586c-.033.178-.051.361-.051.548s.018.37.051.548l-1.027.593c-.163-.061-.34-.094-.524-.094-.828,0-1.5.672-1.5,1.5s.672,1.5,1.5,1.5c.702,0,1.291-.482,1.455-1.133l1.098-.634c.277.237.597.425.948.549v3.172h2v-3.172c.35-.124.671-.312.948-.549l1.113.643Zm8.514-3.031l-1.761-7.627c-.58-2.51-2.783-4.263-5.359-4.263h-1.454v3h1.454c1.171,0,2.173.797,2.436,1.938l1.761,7.627c.232,1.004.35,2.037.35,3.069,0,.468-.216.781-.396.961-.257.257-.607.404-.962.404h-.002c-.146,0-.587-.119-.587-.119-.669,1.06-2.341,2.001-3.376,2.1l2.582.794c.448.148.911.224,1.375.225h.007c1.144,0,2.268-.467,3.083-1.281.823-.822,1.276-1.917,1.276-3.084,0-1.259-.144-2.519-.426-3.744Zm-18.627,4.99s-.442.119-.587.119h-.002c-.354,0-.705-.147-.962-.404-.181-.18-.396-.494-.396-.961,0-1.032.117-2.064.35-3.069l1.761-7.627c.263-1.141,1.265-1.938,2.436-1.938h1.454v-3h-1.454c-2.576,0-4.779,1.753-5.359,4.263L.426,15.891c-.282,1.225-.426,2.485-.426,3.744,0,1.167.453,2.263,1.276,3.084.815.814,1.939,1.281,3.083,1.281h.007c.464,0,.927-.077,1.375-.225l2.582-.794c-1.035-.099-2.707-1.04-3.376-2.1Z"/></svg>
