<?xml version="1.0" encoding="UTF-8"?>
<svg xmlns="http://www.w3.org/2000/svg" id="Layer_1" data-name="Layer 1" viewBox="0 0 24 24" width="512" height="512"><path d="m23.968,21.718l-2.121,2.121-5.282-5.282,2.121-2.121,5.282,5.282Zm-3.035-11.178l-5.446,5.446c-1.914,1.915-4.565,3.014-7.274,3.014h-1.091l-4.843,4.843L.157,21.722l4.843-4.843v-1.09c0-1.032.151-2.041.442-3.001l-2.25-2.25-.917.917L.154,9.333,9.455.032l2.121,2.121-.911.911,1.399,1.399,1.395-1.395-.917-.917L14.663.029l9.302,9.301-2.121,2.121-.911-.911Zm-14.105-.61c.349-.502.745-.976,1.186-1.417l1.929-1.929-1.399-1.399-3.231,3.231,1.514,1.514Zm1.384,6.069c1.413,0,2.804-.422,3.98-1.187l-3.009-3.009c-.77,1.174-1.183,2.547-1.183,3.984v.211h.212Zm10.599-7.581l-3.231-3.231-4.385,4.385,3.231,3.231,4.386-4.385Z"/></svg>
