<?xml version="1.0" encoding="UTF-8"?>
<svg xmlns="http://www.w3.org/2000/svg" id="Layer_1" data-name="Layer 1" viewBox="0 0 24 24" width="512" height="512"><path d="M21.937,.84c-.028,.012-2.896,1.16-5.438,1.16-1.211,0-2.79-.476-4.317-.936-1.735-.523-3.53-1.064-5.183-1.064C3.683,0,.736,2.133,.613,2.224l-.613,.449V24H3v-7.746c.835-.486,2.406-1.254,3.999-1.254,1.211,0,2.79,.476,4.317,.936,1.735,.523,3.53,1.064,5.183,1.064,3.119,0,6.424-1.322,6.562-1.378l.938-.379V.006l-2.062,.834Zm-.938,6.331c-.951,.308-2.494,.732-4,.814v-3.01c1.441-.062,2.883-.36,4-.671v2.868Zm-7-2.496v2.907c-.598-.157-1.21-.335-1.818-.518-.722-.218-1.454-.43-2.182-.614V3.551c.438,.123,.878,.253,1.317,.385,.888,.268,1.791,.537,2.683,.739Zm-7-1.675v3h0c-1.48,0-2.884,.425-3.998,.903v-2.649c.835-.486,2.406-1.254,3.999-1.254ZM3,12.902v-2.645c.831-.486,2.394-1.257,3.998-1.257h0v3c-1.479,0-2.885,.424-3.999,.902Zm6.999-.452v-2.899c.437,.123,.878,.253,1.316,.385,.888,.268,1.791,.537,2.684,.74v2.906c-.598-.157-1.209-.335-1.817-.518-.722-.218-1.454-.43-2.183-.614Zm7,1.533v-2.996c1.442-.062,2.883-.373,4-.684v2.87c-.953,.308-2.496,.729-4,.81Z"/></svg>
