<?xml version="1.0" encoding="UTF-8"?>
<svg xmlns="http://www.w3.org/2000/svg" id="Layer_1" data-name="Layer 1" viewBox="0 0 24 24" width="512" height="512"><path d="M17,14.5c0,2.481-2.019,4.5-4.5,4.5H7v-3h5.5c.827,0,1.5-.673,1.5-1.5s-.673-1.5-1.5-1.5h-3.5v-3h3c.552,0,1-.449,1-1s-.448-1-1-1H7v-3h5c2.206,0,4,1.794,4,4,0,.766-.227,1.476-.603,2.086,.972,.826,1.603,2.042,1.603,3.414ZM24,3.5V24H0V3.5C0,1.57,1.57,0,3.5,0H20.5c1.93,0,3.5,1.57,3.5,3.5Zm-3,0c0-.276-.225-.5-.5-.5H3.5c-.275,0-.5,.224-.5,.5V21H21V3.5Z"/></svg>
