<?xml version="1.0" encoding="UTF-8"?>
<svg xmlns="http://www.w3.org/2000/svg" id="Layer_1" data-name="Layer 1" viewBox="0 0 24 24" width="512" height="512"><path d="m20.5,5.002h-2.5v-1.501c0-.936-.364-1.814-1.025-2.476S15.436,0,14.502,0h-.003L3.5.005C2.567.005,1.688.37,1.026,1.032S0,2.573,0,3.507l.005,13.622c0,1.031.838,1.871,1.868,1.871.184,0,.366-.027.542-.081l3.585-1.497v4.58h11l4.443,1.863.142.052c.176.054.358.081.542.081,1.03,0,1.868-.84,1.868-1.871l.005-13.625c0-1.93-1.57-3.5-3.5-3.5ZM3,3.505c0-.177.093-.297.148-.352.055-.056.175-.148.353-.148l11-.004h0c.179,0,.297.092.352.146.055.055.146.174.146.354v10.504H6.396l-3.392,1.422-.005-11.922Zm17.995,16.92l-3.392-1.423h-8.604v-1.997h9v-9.003h2.5c.276,0,.5.225.5.499l-.005,11.924Z"/></svg>
