<?xml version="1.0" encoding="UTF-8"?>
<svg xmlns="http://www.w3.org/2000/svg" id="Layer_1" data-name="Layer 1" viewBox="0 0 24 24" width="512" height="512"><path d="m12.947,10.674l-2.759,2.702c-.415.416-.965.624-1.517.624-.555,0-1.112-.211-1.536-.635l-1.443-1.386,2.079-2.163.891.856,2.187-2.142,2.099,2.144Zm-.947,8.326h5v-3h-5v3Zm-5,0h3v-3h-3v3Zm5-11h5v-3h-5v3Zm-2-3h-3v3h3v-3Zm12-1.5v20.5H2V3.5c0-1.93,1.57-3.5,3.5-3.5h13c1.93,0,3.5,1.57,3.5,3.5Zm-3,0c0-.276-.224-.5-.5-.5H5.5c-.276,0-.5.224-.5.5v17.5h14V3.5Zm-6.591,10.5h4.591v-3h-1.527l-3.063,3Z"/></svg>
