<?xml version="1.0" encoding="UTF-8"?>
<svg xmlns="http://www.w3.org/2000/svg" id="Layer_1" data-name="Layer 1" viewBox="0 0 24 24" width="512" height="512"><path d="M24,11v2c0,1.1-.9,2-2,2H13v-6h9c1.1,0,2,.9,2,2ZM22,0H13V6h9c1.1,0,2-.9,2-2V2c0-1.1-.9-2-2-2Zm0,18H13v6h9c1.1,0,2-.9,2-2v-2c0-1.1-.9-2-2-2Zm-11-1.5v7.5H0v-7.5c0-1.93,1.57-3.5,3.5-3.5H7.5c1.93,0,3.5,1.57,3.5,3.5Zm-3,0c0-.28-.22-.5-.5-.5H3.5c-.28,0-.5,.22-.5,.5v4.5h5v-4.5ZM11,3.5v7.5H0V3.5C0,1.57,1.57,0,3.5,0H7.5c1.93,0,3.5,1.57,3.5,3.5Zm-3,0c0-.28-.22-.5-.5-.5H3.5c-.28,0-.5,.22-.5,.5v4.5h5V3.5Z"/></svg>
