<?xml version="1.0" encoding="UTF-8"?>
<svg xmlns="http://www.w3.org/2000/svg" id="Layer_1" data-name="Layer 1" viewBox="0 0 24 24" width="512" height="512"><path d="m14.5,3h-7c-.275,0-.5-.225-.5-.5V0h-3v2.5c0,1.93,1.57,3.5,3.5,3.5h.499l-.004,7.501c0,1.542-2.194,2.335-2.745,2.509-1.816.126-3.255,1.644-3.255,3.493l.005,4.499,3-.004-.005-4.497c0-.172.087-.323.22-.414.178.111.352.221.524.33,1.982,1.257,4.033,2.557,8.753,2.583h.043c1.968,0,3.826-.771,5.238-2.175,1.434-1.426,2.223-3.316,2.223-5.322l.005-4.003c0-4.136-3.364-7.5-7.5-7.5Zm0,3c2.367,0,4.312,1.836,4.487,4.157-.44-.096-.936-.157-1.487-.157-1.277,0-2.146.332-2.843.599-.608.233-1.048.401-1.771.401-.777,0-1.44-.204-1.89-.396l.003-4.604h3.501Zm3.157,11.698c-.846.84-1.954,1.302-3.124,1.302h-.024c-2.935-.016-4.481-.555-5.866-1.327,1.217-.864,2.252-2.146,2.345-3.912.558.141,1.197.239,1.899.239,1.277,0,2.146-.332,2.843-.599.608-.233,1.048-.401,1.771-.401.676,0,1.174.153,1.497.299v1.202c-.001,1.203-.477,2.339-1.339,3.197Z"/></svg>
