<?xml version="1.0" encoding="UTF-8"?>
<svg xmlns="http://www.w3.org/2000/svg" id="Layer_1" data-name="Layer 1" viewBox="0 0 24 24" width="512" height="512"><path d="M13,2.97c0-1.64,1.23-2.97,2.75-2.97s2.75,1.29,2.75,2.44c0-1.18,1.23-2.44,2.75-2.44s2.75,1.33,2.75,2.97c0,3.11-5.5,8.03-5.5,8.03,0,0-5.5-4.92-5.5-8.03Zm-2,.53v7.5H0V3.5C0,1.57,1.57,0,3.5,0H7.5c1.93,0,3.5,1.57,3.5,3.5Zm-3,0c0-.28-.22-.5-.5-.5H3.5c-.28,0-.5,.22-.5,.5v4.5h5V3.5Zm16,13v7.5H13v-7.5c0-1.93,1.57-3.5,3.5-3.5h4c1.93,0,3.5,1.57,3.5,3.5Zm-3,0c0-.28-.22-.5-.5-.5h-4c-.28,0-.5,.22-.5,.5v4.5h5v-4.5Zm-10,0v7.5H0v-7.5c0-1.93,1.57-3.5,3.5-3.5H7.5c1.93,0,3.5,1.57,3.5,3.5Zm-3,0c0-.28-.22-.5-.5-.5H3.5c-.28,0-.5,.22-.5,.5v4.5h5v-4.5Z"/></svg>
