<?xml version="1.0" encoding="UTF-8"?>
<svg xmlns="http://www.w3.org/2000/svg" id="Layer_1" data-name="Layer 1" viewBox="0 0 24 24" width="512" height="512"><path d="M3,16h2v3H0V8.16c0-1.08,.49-2.09,1.34-2.76L7.34,.71c1.27-.99,3.04-.99,4.31,0l2.34,1.83V1h3v3.89l.66,.51c.89,.7,1.34,1.57,1.34,2.59h-3s0-.05,0-.05c0,0-.03-.06-.19-.18L9.81,3.07c-.18-.14-.43-.14-.62,0L3.19,7.77c-.12,.1-.19,.24-.19,.39v7.84Zm21,4v2c0,1.1-.9,2-2,2H8c-1.1,0-2-.9-2-2v-2h1v-6.5c0-1.93,1.57-3.5,3.5-3.5h9c1.93,0,3.5,1.57,3.5,3.5v6.5h1Zm-6,0h2v-6.5c0-.28-.22-.5-.5-.5H10.5c-.28,0-.5,.22-.5,.5v6.5h2l1,1h4l1-1Z"/></svg>
