<?xml version="1.0" encoding="UTF-8"?>
<svg xmlns="http://www.w3.org/2000/svg" id="Layer_1" data-name="Layer 1" viewBox="0 0 24 24" width="512" height="512"><path d="M24,13.5c0-1.93-1.57-3.5-3.5-3.5h-.708c-.655-2.306-2.78-4-5.292-4s-4.637,1.694-5.292,4H3.5c-1.93,0-3.5,1.57-3.5,3.5v8.5H3v2h3v-2h12v2h3v-2h3V13.5Zm-9.5-4.5c1.379,0,2.5,1.121,2.5,2.5s-1.121,2.5-2.5,2.5-2.5-1.121-2.5-2.5,1.121-2.5,2.5-2.5Zm6.5,10H3v-5.5c0-.275,.224-.5,.5-.5h5.708c.655,2.306,2.779,4,5.292,4s4.637-1.694,5.292-4h.708c.275,0,.5,.225,.5,.5v5.5Zm-14-3.5c0,.828-.672,1.5-1.5,1.5s-1.5-.672-1.5-1.5,.672-1.5,1.5-1.5,1.5,.672,1.5,1.5ZM16,4h-3V0h3V4Zm3.799,1.822l-2.598-1.5,2-3.465,2.598,1.5-2,3.465Zm-10.598,0l-2-3.465,2.599-1.5,2,3.465-2.599,1.5Z"/></svg>
