<?xml version="1.0" encoding="UTF-8"?>
<svg xmlns="http://www.w3.org/2000/svg" id="Layer_1" data-name="Layer 1" viewBox="0 0 24 24" width="512" height="512"><path d="m9.682,8.318l-.21-.21c1.577-1.431,2.013-3.838.921-5.768h0c-.614-1.086-1.611-1.861-2.806-2.184C6.403-.162,5.166.004,4.105.625,1.496,2.151,0,4.825,0,7.961c0,2.066.141,3.364.91,4.724.836,1.478,2.331,2.307,3.92,2.307.783,0,1.588-.201,2.349-.625.301-.176.575-.382.821-.612v10.245h3v-12.5c0-1.203-.468-2.333-1.318-3.182Zm-4.048,3.477c-.759.422-1.687.166-2.113-.586-.404-.715-.521-1.443-.521-3.247,0-1.2.34-3.413,2.62-4.747.243-.142.511-.214.783-.214.135,0,.27.018.404.054.413.111.759.382.975.764.449.794.184,1.81-.591,2.264-1.798,1.052-1.347,2.621-.917,3.462.407.798.134,1.8-.639,2.251ZM19.896.625c-1.061-.622-2.297-.787-3.483-.469-1.195.322-2.191,1.098-2.806,2.183h0c-1.091,1.931-.655,4.337.922,5.768l-.21.21c-.851.85-1.319,1.979-1.319,3.182v12.5h3v-10.243c.244.228.907.659.907.659.719.4,1.49.591,2.247.591,1.578,0,3.093-.831,3.937-2.321.77-1.36.91-2.658.91-4.724,0-3.136-1.496-5.81-4.104-7.336Zm.583,10.583c-.424.751-1.352,1.01-2.143.569-.743-.435-1.016-1.437-.608-2.235.43-.841.881-2.41-.917-3.461-.776-.454-1.041-1.47-.592-2.264.215-.381.562-.652.975-.764.403-.11.824-.052,1.188.161,2.279,1.333,2.62,3.546,2.62,4.747,0,1.804-.117,2.532-.521,3.247Z"/></svg>
