<?xml version="1.0" encoding="UTF-8"?>
<svg xmlns="http://www.w3.org/2000/svg" id="Layer_1" data-name="Layer 1" viewBox="0 0 24 24" width="512" height="512"><path d="M20.5,0H3.5C1.57,0,0,1.57,0,3.5V24H24V3.5c0-1.93-1.57-3.5-3.5-3.5Zm.5,21H3V3.5c0-.276,.224-.5,.5-.5H20.5c.276,0,.5,.224,.5,.5V21ZM12,10c-.52,0-1.012,.106-1.477,.269,.119-1.269,1.177-2.269,2.477-2.269h2v-3h-2c-3.033,0-5.5,2.467-5.5,5.5v4c0,2.481,2.019,4.5,4.5,4.5s4.5-2.019,4.5-4.5-2.019-4.5-4.5-4.5Zm0,6c-.827,0-1.5-.673-1.5-1.5s.673-1.5,1.5-1.5,1.5,.673,1.5,1.5-.673,1.5-1.5,1.5Z"/></svg>
