<?xml version="1.0" encoding="UTF-8"?>
<svg xmlns="http://www.w3.org/2000/svg" id="Layer_1" data-name="Layer 1" viewBox="0 0 24 24" width="512" height="512"><path d="M11,4.56l-1.88-1.83L11.78,0h2.22V9.76c-.72,.32-1.38,.74-1.97,1.24h-1.03V4.56Zm-2,12.94c0-1.56,.43-3.02,1.16-4.27-1.82,.57-3.16,2.26-3.16,4.27v2c0,2.48,2.02,4.5,4.5,4.5,.16,0,.32-.03,.48-.05-1.82-1.56-2.98-3.87-2.98-6.45Zm15,0c0,3.59-2.91,6.5-6.5,6.5s-6.5-2.91-6.5-6.5,2.91-6.5,6.5-6.5,6.5,2.91,6.5,6.5Zm-1.98-.98l-2.12-2.12-3.34,3.34-1.62-1.74-2.16,2.08,2.03,2.17c.45,.48,1.05,.74,1.7,.75h.04c.64,0,1.24-.25,1.69-.7l3.78-3.79ZM0,6.5v-2C0,2.02,2.02,0,4.5,0s4.5,2.02,4.5,4.5v2c0,2.48-2.02,4.5-4.5,4.5S0,8.98,0,6.5Zm3,0c0,.83,.67,1.5,1.5,1.5s1.5-.67,1.5-1.5v-2c0-.83-.67-1.5-1.5-1.5s-1.5,.67-1.5,1.5v2Zm-.22,6.5L.12,15.72l1.88,1.83v6.44h3V13H2.78Z"/></svg>
