<?xml version="1.0" encoding="UTF-8"?>
<svg xmlns="http://www.w3.org/2000/svg" id="Layer_1" data-name="Layer 1" viewBox="0 0 24 24" width="512" height="512"><path d="M24,15c0-2.791-1.647-5.2-4.016-6.323,.004,.108,.016,.214,.016,.323,0,1.019-.178,1.995-.492,2.909,.903,.734,1.492,1.839,1.492,3.091,0,1.046-.404,2.031-1.111,2.767l-3.889-3.889c1.235-1.259,2-2.978,2-4.879,0-3.859-3.141-7-7-7H7c-.833,0-1.663,.15-2.44,.439L2.16,.039,.039,2.16,21.84,23.961l2.121-2.121-1.95-1.95c1.265-1.293,1.989-3.036,1.989-4.89ZM11,5c2.206,0,4,1.794,4,4,0,1.073-.426,2.046-1.116,2.763l-1.346-1.346c.348-.432,.462-.879,.462-1.417,0-.36-.103-.694-.271-.986-.758,.029-1.485,.18-2.163,.432l-3.445-3.445h3.879Zm-6.508,7.091c-.314,.914-.492,1.89-.492,2.909,0,.109,.013,.215,.016,.323C1.647,14.2,0,11.791,0,9c0-1.161,.296-2.265,.812-3.248l2.307,2.307c-.073,.305-.119,.618-.119,.941,0,1.252,.589,2.357,1.492,3.091Zm9.569,6.909l2.996,2.996c-.019,0-.037,.004-.056,.004h-4c-3.859,0-7-3.141-7-7,0-1.175,.292-2.282,.806-3.255l2.317,2.317c-.073,.302-.122,.614-.122,.938,0,2.206,1.794,4,4,4h1.06Z"/></svg>
