<?xml version="1.0" encoding="UTF-8"?>
<svg xmlns="http://www.w3.org/2000/svg" id="Layer_1" data-name="Layer 1" viewBox="0 0 24 24" width="512" height="512"><path d="M12,23.32l-.85-.58c-1.14-.78-11.15-7.85-11.15-14.57C0,4.22,3.03,1,6.75,1c2.12,0,4.01,1.04,5.25,2.67,1.24-1.63,3.13-2.67,5.25-2.67,3.72,0,6.75,3.22,6.75,7.17,0,6.72-10.01,13.78-11.15,14.57l-.85,.58ZM6.75,4c-2.03,0-3.75,1.91-3.75,4.17,0,3.97,5.87,9.16,9,11.48,3.13-2.33,9-7.52,9-11.48,0-2.26-1.72-4.17-3.75-4.17s-3.75,1.91-3.75,4.17v.63l-1.29,1.27,3.4,3.43-3.56,3.56-2.12-2.12,1.44-1.44-3.41-3.44,2.49-2.47c-.27-2-1.86-3.58-3.71-3.58Z"/></svg>
