<?xml version="1.0" encoding="UTF-8"?>
<svg xmlns="http://www.w3.org/2000/svg" id="Layer_1" data-name="Layer 1" viewBox="0 0 24 24" width="512" height="512"><path d="M10,21h4v3h-4v-3Zm0-2h4v-3h-4v3Zm14-8.849v13.849h-8V14.5c0-.276-.225-.5-.5-.5h-7c-.275,0-.5,.224-.5,.5v9.5H0V10.151c0-1.084,.489-2.088,1.344-2.756L9.843,.744c1.27-.994,3.043-.994,4.314,0l8.5,6.652c.854,.667,1.343,1.672,1.343,2.756Zm-3,0c0-.152-.071-.299-.191-.393L12.308,3.106c-.182-.142-.434-.142-.615,0L3.192,9.758c-.121,.094-.192,.241-.192,.394v10.849h2v-6.5c0-1.93,1.57-3.5,3.5-3.5h7c1.93,0,3.5,1.57,3.5,3.5v6.5h2V10.151Z"/></svg>
