<?xml version="1.0" encoding="UTF-8"?>
<svg xmlns="http://www.w3.org/2000/svg" id="Layer_1" data-name="Layer 1" viewBox="0 0 24 24" width="512" height="512"><path d="M21.04,14.01c-.31-1.59-.95-2.94-1.89-4.03l2.27-1.96c1.29,1.49,2.15,3.31,2.56,5.41l-2.94,.58Zm-.06,2.47l2.95,.54c-.52,2.84-2.85,4.99-5.44,4.99-1.38,0-2.62-.51-3.69-1.29-1.21,.78-2.66,1.29-4.31,1.29-1.95,0-3.69-.98-5.17-2.46-1.55,1.48-3.36,2.46-5.33,2.46v-3c1.18,0,2.37-.7,3.45-1.77C1.27,13.95,0,9.8,0,7.5,0,4.47,2.47,2,5.5,2s5.5,2.47,5.5,5.5c0,2.37-1.4,6.51-3.71,9.76,1.01,1.06,2.11,1.74,3.21,1.74,.8,0,1.52-.2,2.17-.52-1.06-1.52-1.67-3.24-1.67-4.48,0-2.21,1.79-4,4-4s4,1.79,4,4c0,1.28-.67,3.06-1.9,4.61,.45,.24,.92,.39,1.4,.39,1.14,0,2.23-1.11,2.49-2.52Zm-15.57-1.75c1.54-2.45,2.58-5.39,2.58-7.23,0-1.38-1.12-2.5-2.5-2.5s-2.5,1.12-2.5,2.5c0,1.84,.97,4.78,2.42,7.23Zm10.58-.73c0-.55-.45-1-1-1s-1,.45-1,1c0,.64,.37,1.6,.96,2.5,.67-.92,1.04-1.89,1.04-2.5Z"/></svg>
