<?xml version="1.0" encoding="UTF-8"?>
<svg xmlns="http://www.w3.org/2000/svg" id="Layer_1" data-name="Layer 1" viewBox="0 0 24 24" width="512" height="512"><path d="M24,12v12h-3V12c0-4.963-4.038-9-9-9S3,7.037,3,12v12H0V12C0,5.383,5.383,0,12,0s12,5.383,12,12Zm-5-.5v9.5h-2.492l1.837,3h-3.008l-1.837-3h-3l-1.837,3h-3.008l1.837-3h-2.492V11.5c0-2.481,2.019-4.5,4.5-4.5h5c2.481,0,4.5,2.019,4.5,4.5Zm-8,6c0-.828-.672-1.5-1.5-1.5s-1.5,.672-1.5,1.5,.672,1.5,1.5,1.5,1.5-.672,1.5-1.5Zm5,0c0-.828-.672-1.5-1.5-1.5s-1.5,.672-1.5,1.5,.672,1.5,1.5,1.5,1.5-.672,1.5-1.5Zm0-6c0-.827-.673-1.5-1.5-1.5h-5c-.827,0-1.5,.673-1.5,1.5v2.5h8v-2.5Z"/></svg>
