<?xml version="1.0" encoding="UTF-8"?>
<svg xmlns="http://www.w3.org/2000/svg" id="Layer_1" data-name="Layer 1" viewBox="0 0 24 24" width="512" height="512"><path d="m.678,18.709l-.678.517v1.624l.682.444c.17.11,4.206,2.707,8.282,2.707h15.036v-8h-15.036c-4.103,0-8.117,2.599-8.286,2.709Zm4.019,1.289c1.224-.515,2.769-.998,4.267-.998h1.915l2,2h-3.915c-1.491,0-3.04-.485-4.267-1.002Zm16.303,1.002h-3.879l-2-2h5.879v2ZM11,4.856v-2.856h3v2.856c0,.873.465,1.695,1.214,2.144l1.602.961c1.347.809,2.185,2.287,2.185,3.858v2.18h-3v-2.18c0-.524-.279-1.017-.729-1.286l-1.602-.961c-1.647-.988-2.67-2.795-2.67-4.716Zm13,5.408v1.735h-3v-1.735c0-.873-.465-1.694-1.214-2.144l-2.086-1.252c-1.048-.629-1.699-1.779-1.699-3.001V0h3v3.868c0,.175.093.339.243.429l2.086,1.252c1.647.988,2.671,2.795,2.671,4.716Z"/></svg>
