<?xml version="1.0" encoding="UTF-8"?>
<svg xmlns="http://www.w3.org/2000/svg" id="Layer_1" data-name="Layer 1" viewBox="0 0 24 24" width="512" height="512"><path d="M0,16c0,2.34,.62,4.22,1.14,5.39,.71,1.59,2.31,2.61,4.09,2.61H24s0-15.23,0-15.23L14.03,.93C13.13,.33,12.09,.01,11.02,0c-1.23-.01-2.33,.35-3.27,1.06C2.89,4.69,1.03,10.52,.63,11.97,.21,13.26,0,14.63,0,16Zm18.17-8H5.59c.94-1.58,2.22-3.25,3.95-4.54,.41-.31,.95-.47,1.44-.46,.47,0,.94,.14,1.34,.4l5.85,4.6ZM3,16c0-2.09,.76-3.89,.88-4.16,.23-.51,.76-.84,1.35-.84h15.77v10H5.23c-.59,0-1.12-.33-1.35-.84-.4-.9-.88-2.34-.88-4.16Z"/></svg>
