<?xml version="1.0" encoding="UTF-8"?>
<svg xmlns="http://www.w3.org/2000/svg" id="Layer_1" data-name="Layer 1" viewBox="0 0 24 24" width="512" height="512"><path d="M21,9.5c0-2.481-2.019-4.5-4.5-4.5h-3v-1.948c2.868,.194,5.018,.869,5.043,.877l.916-2.856c-.136-.044-3.382-1.072-7.459-1.072S4.677,1.028,4.541,1.072l.918,2.855c.025-.008,2.159-.683,5.041-.877v1.949h-3c-2.481,0-4.5,2.019-4.5,4.5v12.5h3.763l-1.225,2h3.231l1.225-2h4.127l1.225,2h3.154l-1.225-2h3.725V9.5Zm-10.5,.5v3H6v-3h4.5Zm3,3v-3h4.5v3h-4.5Zm-7.5,6v-3h2v.5c0,.828,.672,1.5,1.5,1.5s1.5-.672,1.5-1.5v-.5h2v.5c0,.828,.672,1.5,1.5,1.5s1.5-.672,1.5-1.5v-.5h2v3H6Z"/></svg>
