<?xml version="1.0" encoding="UTF-8"?>
<svg xmlns="http://www.w3.org/2000/svg" id="Layer_1" data-name="Layer 1" viewBox="0 0 24 24" width="512" height="512"><path d="M22.24,3.74L18.59,.09l-6.64,6.64,2.96,2.96c-1.16,2.41-2.88,4.13-5.21,5.23l-2.97-2.97L.09,18.59l3.64,3.64c1.14,1.14,2.67,1.77,4.32,1.77,7.15,0,15.94-8.79,15.94-15.94,0-1.65-.63-3.19-1.76-4.32ZM8.06,21c-.85,0-1.63-.31-2.2-.89l-1.52-1.52,2.4-2.4,2.25,2.25,.91-.35c3.85-1.47,6.61-4.22,8.19-8.18l.37-.92-2.27-2.27,2.4-2.4,1.53,1.52c.57,.57,.88,1.35,.88,2.2,0,5.88-7.95,12.94-12.94,12.94Z"/></svg>
