<?xml version="1.0" encoding="UTF-8"?>
<svg xmlns="http://www.w3.org/2000/svg" id="Layer_1" data-name="Layer 1" viewBox="0 0 24 24" width="512" height="512"><path d="M22.73,9.01c-.77-.7-1.76-1.06-2.8-1.01-1.04,.05-1.99,.5-2.69,1.27l-2.44,2.68c-.65-.59-1.51-.95-2.45-.95h-3.36v-1h.38c1.45,0,2.62-1.18,2.62-2.62,0-1.29-.92-2.38-2.19-2.59l-3.29-.55c-.3-.05-.52-.31-.52-.62,0-.34,.28-.62,.62-.62h2.38c.55,0,1,.45,1,1h2c0-1.65-1.35-3-3-3V0h-2V1h-.38c-1.45,0-2.62,1.18-2.62,2.62,0,1.29,.92,2.38,2.19,2.59l3.29,.55c.3,.05,.52,.31,.52,.62,0,.34-.28,.62-.62,.62h-2.38c-.55,0-1-.45-1-1h-2c0,1.65,1.35,3,3,3v1H3.5c-1.93,0-3.5,1.57-3.5,3.5v6c0,1.93,1.57,3.5,3.5,3.5H14.68l8.33-9.53c1.41-1.58,1.28-4.03-.28-5.46Zm-1.97,3.47l-7.45,8.52H3.5c-.28,0-.5-.22-.5-.5v-6c0-.28,.22-.5,.5-.5H12.36c.35,0,.64,.29,.64,.64,0,.32-.24,.59-.55,.63l-5.16,.74,.42,2.97,5.16-.74c1.62-.23,2.88-1.53,3.09-3.12l3.5-3.84c.16-.17,.38-.28,.61-.29,.23-.02,.46,.07,.64,.23,.36,.33,.38,.88,.05,1.25Z"/></svg>
