<?xml version="1.0" encoding="UTF-8"?>
<svg xmlns="http://www.w3.org/2000/svg" id="Layer_1" data-name="Layer 1" viewBox="0 0 24 24" width="512" height="512"><path d="M14,12v12h-4V12c0-1.105,.895-2,2-2s2,.895,2,2Zm10,0v12h-8V12c0-2.206-1.794-4-4-4s-4,1.794-4,4v12H0V12C0,5.383,5.383,0,12,0s12,5.383,12,12Zm-5,0v2h2v-2c0-1.167-.23-2.279-.636-3.304l-1.742,1.053c.241,.707,.378,1.463,.378,2.25Zm-13.622-2.251l-1.742-1.053c-.406,1.024-.636,2.137-.636,3.304v2h2v-2c0-.788,.137-1.543,.378-2.251Zm-.378,11.251v-4H3v4h2ZM10.5,5.166V3.135c-2.108,.356-3.967,1.442-5.308,2.995l1.742,1.053c.946-.995,2.178-1.713,3.566-2.017Zm6.567,2.018l1.741-1.053c-1.341-1.553-3.2-2.639-5.308-2.995v2.03c1.388,.305,2.62,1.023,3.567,2.018Zm3.933,13.816v-4h-2v4h2Z"/></svg>
