<?xml version="1.0" encoding="UTF-8"?>
<svg xmlns="http://www.w3.org/2000/svg" id="Layer_1" data-name="Layer 1" viewBox="0 0 24 24" width="512" height="512"><path d="m0,24h19v-8H0v8Zm16-3h-6v-2h6v2Zm-13-2h4v2H3v-2Zm18-3h3v8h-3v-8Zm-2-4.18v2.18h-3v-2.18c0-.524-.279-1.018-.729-1.287l-1.601-.961c-1.647-.988-2.67-2.795-2.67-4.716v-2.856h3v2.856c0,.873.465,1.694,1.213,2.144l1.602.961c1.348.81,2.185,2.288,2.185,3.859Zm5-1.556v1.735h-3v-1.735c0-.873-.465-1.694-1.213-2.144l-2.087-1.252c-1.049-.631-1.7-1.78-1.7-3.002V0h3v3.867c0,.178.091.339.244.431l2.085,1.251c1.647.988,2.67,2.795,2.67,4.716Z"/></svg>
