<?xml version="1.0" encoding="UTF-8"?>
<svg xmlns="http://www.w3.org/2000/svg" id="Layer_1" data-name="Layer 1" viewBox="0 0 24 24" width="512" height="512"><path d="m20,13c0-1.654,1.346-3,3-3h1v-3h-1c-1.972,0-3.725.957-4.82,2.43-.557-.472-1.211-.943-1.958-1.342l1.175-2.115c1.469-.195,2.603-1.451,2.603-2.973,0-1.657-1.343-3-3-3s-3,1.343-3,3c0,.681.227,1.309.61,1.812l-1.273,2.292c-.428-.068-.874-.105-1.337-.105s-.908.037-1.337.105l-1.273-2.292c.383-.504.61-1.132.61-1.813,0-1.657-1.343-3-3-3s-3,1.343-3,3c0,1.522,1.133,2.778,2.602,2.973l1.176,2.116c-.746.399-1.401.87-1.958,1.342-1.094-1.474-2.847-2.431-4.82-2.431H0v3h1c1.654,0,3,1.346,3,3v3.5c0,.276-.225.5-.5.5s-.5-.224-.5-.5v-.5H0v.5c0,1.93,1.57,3.5,3.5,3.5s3.5-1.57,3.5-3.5v-.049c.458.298.959.575,1.5.81v1.239c0,1.378-1.121,2.5-2.5,2.5v3c3.032,0,5.5-2.467,5.5-5.5v-.515c.164.01.331.015.5.015s.336-.005.5-.015v.515c0,3.033,2.468,5.5,5.5,5.5v-3c-1.379,0-2.5-1.122-2.5-2.5v-1.239c.542-.235,1.042-.512,1.5-.81v.049c0,1.93,1.57,3.5,3.5,3.5s3.5-1.57,3.5-3.5v-.5h-3v.5c0,.276-.225.5-.5.5s-.5-.224-.5-.5v-3.5Zm-8,2c-2.291,0-4.086-1.486-5-2.439v-.122c.914-.953,2.708-2.439,5-2.439s4.087,1.487,5,2.439v.123c-.913.952-2.707,2.438-5,2.438Z"/></svg>
