<?xml version="1.0" encoding="UTF-8"?>
<svg xmlns="http://www.w3.org/2000/svg" id="Layer_1" data-name="Layer 1" viewBox="0 0 24 24" width="512" height="512"><path d="M21.934,8.551L14.475,1.092c-1.365-1.365-3.584-1.365-4.949,0L2.066,8.551c-.661,.661-1.025,1.54-1.025,2.475s.364,1.814,1.025,2.475l9.934,9.935,9.933-9.934c.662-.661,1.026-1.54,1.026-2.476s-.364-1.813-1.025-2.475Zm-2.121,2.828l-7.812,7.813-7.813-7.814c-.127-.127-.146-.275-.146-.353s.02-.226,.146-.354L11.646,3.213c.098-.098,.226-.146,.354-.146s.256,.049,.354,.146l7.459,7.459c.127,.128,.146,.276,.146,.354s-.019,.226-.146,.354Zm-11.812,1.121v-.002h0v.002Zm8.158-2.848c.456,.456,.456,1.194,0,1.65l-3.158,3.231v-2.533h-1.5c-.275,0-.5,.225-.5,.5v3l-3-3.002c.001-1.929,1.571-3.498,3.5-3.498h1.5v-2.579l3.158,3.231Z"/></svg>
