<?xml version="1.0" encoding="UTF-8"?>
<svg xmlns="http://www.w3.org/2000/svg" id="Layer_1" data-name="Layer 1" viewBox="0 0 24 24" width="512" height="512"><path d="M13.657,12.873l-4-3.13c-1.271-.994-3.043-.994-4.314,0L1.342,12.874c-.853,.669-1.342,1.674-1.342,2.756v8.37H15V15.63c0-1.082-.489-2.087-1.343-2.757Zm-1.657,8.127H3v-5.37c0-.154,.07-.299,.192-.394l4-3.13c.182-.143,.436-.143,.615,0l3.999,3.129c.123,.096,.193,.24,.193,.395v5.37Zm-6-5h3v3h-3v-3ZM14,8h-3v-3h3v3Zm5,0h-3v-3h3v3Zm-3,2h3v3h-3v-3ZM24,3.5V24h-7v-3h4V3.5c0-.275-.225-.5-.5-.5H9.5c-.275,0-.5,.225-.5,.5v3.723c-.982-.279-2.018-.28-3,0V3.5c0-1.93,1.57-3.5,3.5-3.5h11c1.93,0,3.5,1.57,3.5,3.5Z"/></svg>
