<?xml version="1.0" encoding="UTF-8"?>
<svg xmlns="http://www.w3.org/2000/svg" id="Layer_1" data-name="Layer 1" viewBox="0 0 24 24" width="512" height="512"><path d="m14.944,16.562c-1.18-.393-2.188-1.1-2.944-2.01-.756.91-1.764,1.617-2.944,2.01l-2.581.86-.949-2.846,2.581-.86c1.432-.478,2.394-1.812,2.394-3.321V0h3v10.396c0,1.509.962,2.843,2.394,3.321l2.581.86-.949,2.846-2.581-.86Zm-7.243,2.56c-.269.505-.706.915-1.263,1.14l-1.643.668c-.145.048-.291.073-.436.073h-.002c-.354,0-.705-.147-.962-.404-.181-.18-.396-.494-.396-.961,0-1.035.118-2.069.351-3.074l1.792-7.767c.243-1.058,1.173-1.796,2.259-1.796h1.599v-3h-1.599c-2.491,0-4.623,1.695-5.183,4.122L.428,15.888c-.284,1.226-.428,2.487-.428,3.75,0,1.167.453,2.263,1.276,3.084.815.814,1.938,1.281,3.083,1.281h.007c.465,0,.929-.077,1.466-.259l1.732-.701c2.087-.845,3.436-2.9,3.436-5.152-.417.222-.853.416-1.313.569l-1.986.662Zm15.832-3.408l-1.752-7.591c-.56-2.427-2.691-4.123-5.183-4.123h-1.599v3h1.599c1.086,0,2.016.739,2.259,1.797l1.752,7.592c.273,1.184.391,2.156.391,3.249,0,.468-.216.781-.396.961-.257.257-.607.404-.962.404h-.002c-.036,0-.348-.044-.436-.073l-1.643-.668c-.557-.225-.993-.635-1.263-1.14l-1.986-.662c-.459-.153-.896-.347-1.312-.569,0,2.252,1.349,4.307,3.436,5.152l1.821.734c.303.101.613.167.925.201.016.002.395.025.452.025h.007c1.144,0,2.268-.467,3.083-1.281.823-.822,1.276-1.917,1.276-3.084,0-1.333-.14-2.506-.467-3.923Z"/></svg>
