<?xml version="1.0" encoding="UTF-8"?>
<svg xmlns="http://www.w3.org/2000/svg" id="Layer_1" data-name="Layer 1" viewBox="0 0 24 24" width="512" height="512"><path d="M13.2,18.15l2.16,2.16-.56,.39c-1.21,.78-2.65,1.29-4.31,1.29-1.94,0-3.68-.98-5.16-2.45-1.56,1.47-3.37,2.45-5.34,2.45v-3c1.17,0,2.36-.71,3.44-1.79C1.26,13.93,0,9.79,0,7.5c0-.74,.15-1.46,.43-2.12l2.6,2.6c.14,1.84,1.06,4.48,2.38,6.72,.57-.91,1.08-1.89,1.48-2.86l2.27,2.27c-.52,1.09-1.14,2.16-1.85,3.16,1,1.05,2.1,1.73,3.19,1.73,.8,0,1.52-.21,2.17-.53l.54-.32Zm10.78-4.73c-.41-2.11-1.28-3.93-2.56-5.41l-2.27,1.96c.94,1.09,1.58,2.44,1.89,4.03l2.94-.58Zm-1.64,6.8l1.61,1.61-2.12,2.12L.04,2.16,2.16,.04l2.1,2.1c.4-.09,.82-.14,1.24-.14,3.03,0,5.5,2.47,5.5,5.5,0,.4-.03,.82-.1,1.28l1.89,1.89c.64-.43,1.41-.67,2.21-.67,2.21,0,4,1.79,4,4,0,.71-.19,1.52-.53,2.35l1.76,1.76c.38-.44,.65-1.01,.76-1.63l2.95,.54c-.22,1.22-.79,2.34-1.59,3.21Zm-6.36-6.36c-.06-.45-.41-.8-.86-.86l.86,.86Z"/></svg>
