<?xml version="1.0" encoding="UTF-8"?>
<svg xmlns="http://www.w3.org/2000/svg" id="Layer_1" data-name="Layer 1" viewBox="0 0 24 24" width="512" height="512"><path d="m20.5,5.003h-2.5v-1.502C18,1.571,16.43,0,14.498,0L3.499.005C1.569.007,0,1.578,0,3.508l.005,13.621c0,1.032.838,1.872,1.868,1.872.184,0,.366-.027.542-.081l3.585-1.497v4.58h11l4.443,1.863.179.062c.168.047.338.07.505.07,1.029,0,1.867-.84,1.867-1.871l.006-13.626c0-1.93-1.57-3.499-3.5-3.499ZM3,3.506c0-.271.229-.501.5-.501l10.999-.004c.276,0,.501.225.501.5v10.504H6.396l-3.392,1.423-.005-11.922Zm17.995,16.92l-3.392-1.423h-8.604v-1.998h9v-9.002h2.5c.275,0,.5.224.5.498l-.005,11.925ZM8,7h-2c0-.889.391-1.727,1.072-2.299.681-.572,1.577-.814,2.463-.653,1.209.211,2.204,1.205,2.417,2.417.223,1.272-.382,2.543-1.506,3.164-.447.246-.447.318-.447.371h-2c0-1.308,1.038-1.879,1.481-2.123.29-.159.595-.535.502-1.066-.069-.392-.402-.725-.793-.793-.306-.056-.602.022-.832.216-.228.19-.358.47-.358.767Zm0,4h2v2h-2v-2Z"/></svg>
