<?xml version="1.0" encoding="UTF-8"?>
<svg xmlns="http://www.w3.org/2000/svg" id="Layer_1" data-name="Layer 1" viewBox="0 0 24 24" width="512" height="512"><path d="M6.78,13h2.22v11h-3v-6.44l-1.88-1.84,2.66-2.72Zm9.22-2h3V0h-2.22l-2.66,2.72,1.88,1.84v6.44Zm-.5,10c-.83,0-1.5-.67-1.5-1.5v-.55l-2.79-2.79c-.13,.43-.21,.88-.21,1.34v2c0,2.48,2.02,4.5,4.5,4.5,1,0,1.91-.34,2.66-.89l-2.19-2.19c-.15,.05-.3,.08-.47,.08Zm8.46,.84l-2.12,2.12L.04,2.16,2.16,.04l2.38,2.38c.76-1.43,2.24-2.41,3.96-2.41,2.48,0,4.5,2.02,4.5,4.5v2c0,1.19-.47,2.3-1.26,3.12l3.41,3.41c.12,0,.23-.03,.35-.03,2.48,0,4.5,2.02,4.5,4.5v.38l3.96,3.96ZM10,4.5c0-.83-.67-1.5-1.5-1.5s-1.5,.67-1.5,1.5v.38l2.61,2.61c.24-.27,.39-.61,.39-.99v-2Z"/></svg>
