<?xml version="1.0" encoding="UTF-8"?>
<svg xmlns="http://www.w3.org/2000/svg" id="Layer_1" data-name="Layer 1" viewBox="0 0 24 24" width="512" height="512"><path d="M21.33,18.67l2.67,1.33-2.67,1.33-1.33,2.67-1.33-2.67-2.67-1.33,2.67-1.33,1.33-2.67,1.33,2.67ZM13.33,8.33l-2.33,1.17,2.33,1.17,1.17,2.33,1.17-2.33,2.33-1.17-2.33-1.17-1.17-2.33-1.17,2.33Zm3.84,8.84l-3.6,1.8c-.19,0-.38,.02-.57,.02-1.79,0-3.5-.34-5.02-.99-.13,0-.25,0-.38,0-1.44,0-2.92-.11-4.04-.46-.31,.5-.56,1.15-.56,1.94,0,1.21,.83,1.48,1.52,1.5l-.02,3c-1.81,0-4.5-1.2-4.5-4.5,0-1.7,.62-3.02,1.31-3.96-.2-.48-.31-1.01-.31-1.55,0-1.06,.41-2.06,1.16-2.81-.11-.55-.16-1.11-.16-1.67C2,4.08,6.73,0,13,0s11,4.08,11,9.5c0,2.2-.79,4.17-2.14,5.75l-1.53-3.06c.43-.81,.67-1.72,.67-2.69,0-3.71-3.44-6.5-8-6.5S5,5.79,5,9.5c0,.18,0,.36,.03,.54,1.02,0,2.04,.39,2.78,1.13,1.02,1.02,2.22,3.63,2.62,4.51,.81,.21,1.68,.32,2.58,.32,2.27,0,4.26-.69,5.68-1.84l-1.51,3.02Zm-11.49-3.89c-.37-.37-1.02-.37-1.39,0h0c-.19,.19-.29,.43-.29,.7,0,.24,.09,.47,.24,.65,.35,.17,1.34,.3,2.51,.35-.41-.78-.81-1.44-1.07-1.69Z"/></svg>
