<?xml version="1.0" encoding="UTF-8"?>
<svg xmlns="http://www.w3.org/2000/svg" id="Layer_1" data-name="Layer 1" viewBox="0 0 24 24" width="512" height="512"><path d="M5.85,18.12l-.864-.864,2.121-2.121,.864,.864c1.041,1.041,2.577,1.286,3.856,.743l2.211,2.211c-1.083,.714-2.333,1.071-3.584,1.071-1.667,0-3.334-.635-4.604-1.904ZM0,2.123L21.876,23.998l2.121-2.121-6.334-6.334,4.428-4.428c2.539-2.538,2.539-6.669,.001-9.207-2.54-2.54-6.671-2.539-9.209-.001l-1.112,1.112c.23-.018,.461-.028,.694-.028h.002c1.078,0,2.126,.199,3.1,.58,1.36-.889,3.207-.737,4.403,.457,1.369,1.369,1.369,3.597,0,4.966l-4.428,4.428-4.907-4.907c1.352-.829,3.144-.669,4.314,.502l.864,.864,2.121-2.121-.864-.864c-2.344-2.343-6.04-2.518-8.591-.536L2.121,.002,0,2.123ZM1.906,12.885c-2.539,2.539-2.539,6.669,0,9.208h0c1.27,1.27,2.937,1.904,4.604,1.904s3.334-.635,4.604-1.904l.1-.1c-.243,.021-.487,.031-.732,.031-1.444,0-2.832-.357-4.064-1.028-.868-.023-1.73-.364-2.391-1.025-1.369-1.369-1.369-3.597,0-4.966l3.032-3.032-2.121-2.121-3.032,3.032Z"/></svg>
