<?xml version="1.0" encoding="UTF-8"?>
<svg xmlns="http://www.w3.org/2000/svg" id="Layer_1" data-name="Layer 1" viewBox="0 0 24 24" width="512" height="512"><path d="M24,15.5v6c0,1.381-1.119,2.5-2.5,2.5s-2.5-1.119-2.5-2.5c0-1.209,.859-2.218,2-2.45v-3.55c0-.276-.225-.5-.5-.5h-3c-.275,0-.5,.224-.5,.5v6c0,1.381-1.119,2.5-2.5,2.5s-2.5-1.119-2.5-2.5c0-1.209,.859-2.218,2-2.45v-3.55c0-1.93,1.57-3.5,3.5-3.5h3c1.93,0,3.5,1.57,3.5,3.5ZM13.5,4c-.828,0-1.5,.672-1.5,1.5s.672,1.5,1.5,1.5,1.5-.672,1.5-1.5-.672-1.5-1.5-1.5Zm-3.5,17.5c0,.925,.279,1.785,.758,2.5H0V6H6v3H3v2h3v3H3v2h5v5h2.028c-.018,.164-.028,.331-.028,.5Zm-7-.5h2v-2H3v2ZM24,3.5v7.761c-.952-.787-2.172-1.261-3.5-1.261h-3c-2.513,0-4.637,1.694-5.292,4h-4.208V3.5c0-1.93,1.57-3.5,3.5-3.5h9c1.93,0,3.5,1.57,3.5,3.5Zm-3,0c0-.271-.229-.5-.5-.5H11.5c-.275,0-.5,.224-.5,.5v7.375l6-4.875,2,2,2-2V3.5Z"/></svg>
