<?xml version="1.0" encoding="UTF-8"?>
<svg xmlns="http://www.w3.org/2000/svg" id="Layer_1" data-name="Layer 1" viewBox="0 0 24 24" width="512" height="512"><path d="m21.426,14.655c.355-.643.574-1.37.574-2.155,0-1.69-.948-3.148-2.33-3.917.21-.486.33-1.02.33-1.583,0-2.191-1.771-3.977-3.958-4-1.003-1.601-2.714-3-4.542-3h-1.5v1.5c0,.566-.069,1.068-.205,1.5h-1.795c-2.206,0-4,1.794-4,4,0,.562.119,1.097.33,1.583-1.382.769-2.33,2.227-2.33,3.917,0,.785.22,1.512.574,2.155-1.528.857-2.574,2.473-2.574,4.345,0,2.757,2.243,5,5,5h14c2.757,0,5-2.243,5-5,0-1.872-1.047-3.488-2.574-4.345Zm-2.426,6.345H5c-1.103,0-2-.897-2-2s.897-2,2-2h8v-3h-6.5c-.827,0-1.5-.673-1.5-1.5s.673-1.5,1.5-1.5h6.5v-3h-5c-.551,0-1-.448-1-1s.449-1,1-1h3.576l.441-.703c.311-.495.549-1.045.713-1.646.404.372.791.879,1.046,1.456l.396.893h1.829c.551,0,1,.448,1,1s-.449,1-1,1v3h1.5c.827,0,1.5.673,1.5,1.5s-.673,1.5-1.5,1.5h-1.5v3h3c1.103,0,2,.897,2,2s-.897,2-2,2Z"/></svg>
