<?xml version="1.0" encoding="UTF-8"?>
<svg xmlns="http://www.w3.org/2000/svg" id="Layer_1" data-name="Layer 1" viewBox="0 0 24 24" width="512" height="512"><path d="m22,9.5c0,3.155-1.569,6.311-3.998,8.038-.861.613-1.592,1.57-2.3,3.014-.474.968-1.21,1.806-2.13,2.421-1.018.682-2.219,1.02-3.419,1.02-1.31,0-2.619-.403-3.693-1.203-1.62-1.208-2.471-2.867-2.46-4.798l3,.017c-.006.98.393,1.735,1.253,2.376,1.058.789,2.559.827,3.651.095.486-.326.858-.746,1.104-1.248.937-1.911,1.972-3.226,3.256-4.139,1.637-1.165,2.736-3.412,2.736-5.593,0-1.848-.791-3.615-2.17-4.848-1.397-1.249-3.207-1.823-5.09-1.609-2.889.325-5.275,2.647-5.676,5.521-.071.513-.089.827-.067,1.201l.003,2.234h-3v-2.148c-.036-.579.011-1.109.094-1.701C3.679,3.939,7.175.537,11.404.062c2.702-.303,5.411.554,7.425,2.354,2.016,1.801,3.171,4.383,3.171,7.084Zm-5,.5v-.499c0-2.481-2.019-4.5-4.5-4.5s-4.5,2.019-4.5,4.5v3.499h2v3c1.654,0,3-1.346,3-3,0-1.304-.836-2.415-2-2.828v-.671c0-.827.673-1.5,1.5-1.5s1.5.673,1.5,1.5v.499h3Z"/></svg>
