<?xml version="1.0" encoding="UTF-8"?>
<svg xmlns="http://www.w3.org/2000/svg" id="Layer_1" data-name="Layer 1" viewBox="0 0 24 24" width="512" height="512"><path d="m17,10c-3.86,0-7,3.141-7,7s3.14,7,7,7,7-3.141,7-7-3.14-7-7-7Zm0,3c.554,0,1.082.113,1.562.317l-5.244,5.244c-.204-.48-.317-1.008-.317-1.562,0-2.206,1.794-4,4-4Zm0,8c-.554,0-1.082-.113-1.562-.317l5.244-5.244c.204.48.317,1.008.317,1.562,0,2.206-1.794,4-4,4Zm-10.5,0c-1.93,0-3.5-1.57-3.5-3.5v-4h5.708c.84-1.982,2.375-3.594,4.292-4.55v-2.45c0-3.584-2.916-6.5-6.5-6.5S0,2.916,0,6.5v11c0,3.584,2.916,6.5,6.5,6.5,1.365,0,2.631-.425,3.678-1.146-.656-.763-1.183-1.637-1.556-2.59-.591.455-1.321.736-2.122.736Zm0-18c1.93,0,3.5,1.57,3.5,3.5v4H3v-4c0-1.93,1.57-3.5,3.5-3.5Z"/></svg>
