<?xml version="1.0" encoding="UTF-8"?>
<svg xmlns="http://www.w3.org/2000/svg" id="Layer_1" data-name="Layer 1" viewBox="0 0 24 24" width="512" height="512"><path d="M8,16h3v3h-3v-3Zm5,3h3v-3h-3v3Zm11-7h-2v8.5c0,1.93-1.57,3.5-3.5,3.5H5.5c-1.93,0-3.5-1.57-3.5-3.5V12H0v-3H2v-3h2V3.5c0-1.93,1.57-3.5,3.5-3.5h9c1.93,0,3.5,1.57,3.5,3.5v2.5h2v3h2v3ZM7,6h10V3.5c0-.275-.225-.5-.5-.5H7.5c-.275,0-.5,.225-.5,.5v2.5Zm12,3h-2.314c.194,.377,.313,.797,.313,1.25,0,1.519-1.231,2.75-2.75,2.75h-4.5c-1.519,0-2.75-1.231-2.75-2.75,0-.453,.12-.873,.313-1.25h-2.313v11.5c0,.275,.225,.5,.5,.5h13c.275,0,.5-.225,.5-.5V9Z"/></svg>
