<?xml version="1.0" encoding="UTF-8"?>
<svg xmlns="http://www.w3.org/2000/svg" id="Layer_1" data-name="Layer 1" viewBox="0 0 24 24" width="512" height="512"><path d="M14,10.68v-2.68h-2.55l3-3h2.55v5c-1.08,0-2.09,.25-3,.68ZM3,19V3.5c0-.28,.22-.5,.5-.5h15c.28,0,.5,.22,.5,.5v6.79c1.15,.34,2.18,.97,3,1.81V3.5c0-1.93-1.57-3.5-3.5-3.5H3.5C1.57,0,0,1.57,0,3.5V22H12.11c-.84-.82-1.47-1.85-1.81-3H3Zm18.79,4.91l-2.47-2.47c-.69,.36-1.48,.57-2.31,.57-2.76,0-5-2.24-5-5s2.24-5,5-5,5,2.24,5,5c0,.83-.21,1.62-.57,2.31l2.47,2.47-2.12,2.12Zm-2.79-6.91c0-1.1-.9-2-2-2s-2,.9-2,2,.9,2,2,2,2-.9,2-2ZM11.62,5H5v12h5c0-1.08,.25-2.09,.68-3h-2.68v-5.38l3.62-3.62Z"/></svg>
