<?xml version="1.0" encoding="UTF-8"?>
<svg xmlns="http://www.w3.org/2000/svg" id="Layer_1" data-name="Layer 1" viewBox="0 0 24 24" width="512" height="512"><path d="M22.36,12.49c-.66-.93-1.73-1.49-2.88-1.49h-5.99V4.14c2.44,.46,4.54,2.02,5.68,4.31l2.69-1.33c-1.65-3.32-4.77-5.53-8.37-6.01V0h-3V1.1C5.15,1.84,1.01,6.45,1.01,12s4.14,10.17,9.49,10.9v1.1h3v-1.1c4.22-.55,7.92-3.38,9.3-7.25,.38-1.05,.21-2.23-.44-3.16Zm-18.35-.49c0-3.89,2.8-7.15,6.49-7.86v15.72c-3.69-.7-6.49-3.96-6.49-7.86Zm15.96,2.64c-.95,2.66-3.54,4.69-6.47,5.22v-5.86h5.99c.24,0,.38,.16,.42,.22,.06,.09,.13,.24,.06,.42Z"/></svg>
