<?xml version="1.0" encoding="UTF-8"?>
<svg xmlns="http://www.w3.org/2000/svg" id="Layer_1" data-name="Layer 1" viewBox="0 0 24 24" width="512" height="512"><path d="m21.308,15.106l.633-.633c.1.018.203.028.308.028.966,0,1.75-.784,1.75-1.75s-.784-1.75-1.75-1.75-1.75.784-1.75,1.75c0,.105.01.208.028.308l-.633.633c-.279-.176-.579-.322-.894-.434v-2.257h-3v2.257c-.316.112-.615.258-.894.434l-.633-.633c.018-.1.028-.203.028-.308,0-.966-.784-1.75-1.75-1.75s-1.75.784-1.75,1.75.784,1.75,1.75,1.75c.105,0,.208-.01.308-.028l.633.633c-.176.279-.322.579-.434.894h-2.257v3h2.257c.112.316.258.615.434.894l-.633.633c-.1-.018-.203-.028-.308-.028-.966,0-1.75.784-1.75,1.75s.784,1.75,1.75,1.75,1.75-.784,1.75-1.75c0-.105-.01-.208-.028-.308l.633-.633c.279.176.579.322.894.434v2.257h3v-2.257c.316-.112.615-.258.894-.434l.633.633c-.018.1-.028.203-.028.308,0,.966.784,1.75,1.75,1.75s1.75-.784,1.75-1.75-.784-1.75-1.75-1.75c-.105,0-.208.01-.308.028l-.633-.633c.176-.279.322-.579.434-.894h2.257v-3h-2.257c-.112-.316-.258-.615-.434-.894Zm-3.808,3.894c-.827,0-1.5-.673-1.5-1.5s.673-1.5,1.5-1.5,1.5.673,1.5,1.5-.673,1.5-1.5,1.5Zm-5.23-10h2.73v-3h-2.73c-.142-.449-.345-.871-.6-1.256l.812-.812c.165.044.339.068.518.068,1.105,0,2-.895,2-2s-.895-2-2-2-2,.895-2,2c0,.179.024.353.068.518l-.812.812c-.385-.255-.807-.459-1.256-.6V0h-3v2.73c-.449.142-.871.345-1.256.6l-.812-.812c.044-.165.068-.339.068-.518,0-1.105-.895-2-2-2S0,.895,0,2s.895,2,2,2c.179,0,.353-.024.518-.068l.812.812c-.255.385-.459.807-.6,1.256H0v3h2.73c.142.449.345.871.6,1.256l-.812.812c-.165-.044-.339-.068-.518-.068-1.105,0-2,.895-2,2s.895,2,2,2,2-.895,2-2c0-.179-.024-.353-.068-.518l.812-.812c.385.255.807.459,1.256.6v2.73h3v-2.73c1.553-.489,2.781-1.717,3.27-3.27Zm-4.77-3.5c1.103,0,2,.897,2,2s-.897,2-2,2-2-.897-2-2,.897-2,2-2Z"/></svg>
