<?xml version="1.0" encoding="UTF-8"?>
<svg xmlns="http://www.w3.org/2000/svg" id="Layer_1" data-name="Layer 1" viewBox="0 0 24 24" width="512" height="512"><path d="m6,16h-2.023c-.768,0-1.456-.323-1.96-.827C.709,13.865.011,11.44,0,9c-.011-2.39.637-4.793,2.017-6.173.504-.504,1.192-.828,1.96-.827h2.023v4h-2.593c-.456,1.068-.68,2.047-.686,3-.006,1.003.228,1.978.686,3h2.593v4Zm18,4.5v3.5H5v-3.5c0-1.956,1.254-3.624,3-4.243V0h15.937l-2.724,16.339c1.634.675,2.786,2.286,2.786,4.161ZM11,3v2h3v3h-3v2h3v3h-3v3h7.229l2.167-13h-9.396Zm10,17.5c0-.827-.673-1.5-1.5-1.5h-10c-.827,0-1.5.673-1.5,1.5v.5h13v-.5Z"/></svg>
