<?xml version="1.0" encoding="UTF-8"?>
<svg xmlns="http://www.w3.org/2000/svg" id="Layer_1" data-name="Layer 1" viewBox="0 0 24 24" width="512" height="512"><path d="M6.5,9.5c0-2.02,1.092-3.78,2.715-4.737-.336,.958-.551,2.082-.65,3.237h2.007c.246-2.505,1.062-3.944,1.426-4h0c.367,.055,1.184,1.495,1.43,4h2.007c-.099-1.155-.314-2.279-.65-3.237,1.623,.956,2.715,2.717,2.715,4.737s-1.092,3.78-2.715,4.737c.336-.958,.551-2.082,.65-3.237h-2.007c-.246,2.505-1.062,3.944-1.426,4h0c-.367-.055-1.184-1.495-1.43-4h-2.007c.099,1.155,.314,2.279,.65,3.237-1.623-.956-2.715-2.717-2.715-4.737ZM23,2.5V24H5c-2.206,0-4-1.794-4-4V4C1,1.794,2.794,0,5,0h15.5c1.379,0,2.5,1.121,2.5,2.5Zm-3,16.5H5c-.552,0-1,.448-1,1s.448,1,1,1h15v-2Zm0-16H5c-.552,0-1,.448-1,1v12.126c.32-.083,.655-.126,1-.126h15V3Z"/></svg>
