<?xml version="1.0" encoding="UTF-8"?>
<svg xmlns="http://www.w3.org/2000/svg" id="Layer_1" data-name="Layer 1" viewBox="0 0 24 24" width="512" height="512"><path d="m24,9.5c0-1.209-.859-2.218-2-2.45V0h-3c0,2.117-3.635,4-6.5,4H3.5c-1.93,0-3.5,1.57-3.5,3.5v4c0,1.697,1.215,3.116,2.821,3.434l4.029,9.066h1.398c.935,0,1.797-.468,2.306-1.252.509-.783.587-1.762.208-2.616l-2.281-5.132h4.019c2.865,0,6.5,1.883,6.5,4h3v-7.05c1.141-.232,2-1.24,2-2.45ZM3,7.5c0-.276.224-.5.5-.5h3.5v5h-3.5c-.276,0-.5-.224-.5-.5v-4Zm9.5,4.5h-2.5v-5h2.5c2.077,0,4.583-.731,6.5-2.049v9.098c-1.917-1.318-4.423-2.049-6.5-2.049Z"/></svg>
