<?xml version="1.0" encoding="UTF-8"?>
<svg xmlns="http://www.w3.org/2000/svg" id="Layer_1" data-name="Layer 1" viewBox="0 0 24 24" width="512" height="512"><path d="M21,15.5c0-.83,.67-1.5,1.5-1.5s1.5,.67,1.5,1.5-.67,1.5-1.5,1.5-1.5-.67-1.5-1.5Zm-4-2.82s-.57-1.3-.79-1.81c-1.12-2.58-2.18-5.02-3.32-6.43C10.4,1.12,6.3-.52,2.18,.15,1.42,.28,.7,.51,0,.78v3.33c.82-.48,1.72-.84,2.67-.99,3.01-.49,6,.7,7.85,3.17,.91,1.13,1.93,3.46,2.91,5.72h-1.35l-.7,5.56c-.03,.25-.24,.44-.5,.44h-3.87v3H0v3H10v-3h.87c1.76,0,3.25-1.32,3.47-3.06l.37-2.94h2.28v-2.32Zm5.5,7.32c-.83,0-1.5,.67-1.5,1.5s.67,1.5,1.5,1.5,1.5-.67,1.5-1.5-.67-1.5-1.5-1.5Zm-4-3c-.83,0-1.5,.67-1.5,1.5s.67,1.5,1.5,1.5,1.5-.67,1.5-1.5-.67-1.5-1.5-1.5Z"/></svg>
