<?xml version="1.0" encoding="UTF-8"?>
<svg xmlns="http://www.w3.org/2000/svg" id="Layer_1" data-name="Layer 1" viewBox="0 0 24 24" width="512" height="512"><path d="M11.79,13.71c.39,.39,1.02,.39,1.41,0l3.79-3.71h-3V2h-3V10h-3l3.79,3.71Z"/><path d="M16,5v3h4.03l-1.94,7H7.41c-.25,0-.46-.19-.5-.43l-.88-6.57h2.97v-3h-3.37l-.26-1.96c-.23-1.73-1.72-3.04-3.47-3.04H0V3H1.9c.25,0,.46,.19,.5,.43l1.54,11.53c.23,1.73,1.72,3.04,3.47,3.04h12.97l3.6-13h-7.97Z"/><circle cx="17" cy="22" r="2"/><circle cx="7" cy="22" r="2"/></svg>
