<?xml version="1.0" encoding="UTF-8"?>
<svg xmlns="http://www.w3.org/2000/svg" id="Layer_1" data-name="Layer 1" viewBox="0 0 24 24" width="512" height="512"><path d="m16,8.5c0,.828-.672,1.5-1.5,1.5s-1.5-.672-1.5-1.5.672-1.5,1.5-1.5,1.5.672,1.5,1.5Zm-3.5,2.5c-.828,0-1.5.672-1.5,1.5s.672,1.5,1.5,1.5,1.5-.672,1.5-1.5-.672-1.5-1.5-1.5Zm-4,2c-.828,0-1.5.672-1.5,1.5s.672,1.5,1.5,1.5,1.5-.672,1.5-1.5-.672-1.5-1.5-1.5Zm13.449-3c-.076.64-.238,1.261-.479,1.849l2.091,2.091-2.121,2.121-1.702-1.702-1.629,1.629,1.702,1.702-2.121,2.121-1.701-1.701-1.629,1.629,1.701,1.701-2.121,2.121-2.094-2.094c-.595.243-1.216.402-1.846.478v2.055h-3v-2.329c-.605-.189-1.19-.46-1.736-.814l-1.703,1.703-2.121-2.121,1.704-1.704c-.353-.546-.624-1.131-.813-1.736H0v-3h2.056c.076-.629.235-1.25.478-1.845l-1.844-1.844,2.121-2.121,1.452,1.452,1.629-1.629-1.452-1.452,2.121-2.121,1.452,1.452,1.629-1.629-1.452-1.452,2.121-2.121,1.844,1.844c.595-.243,1.216-.402,1.846-.478V0h3v2.329c.605.189,1.189.46,1.736.814l1.704-1.704,2.121,2.121-1.703,1.703c.351.541.625,1.124.817,1.737h2.325v3h-2.051Zm-2.949-.86c0-1.105-.431-2.145-1.212-2.927s-1.821-1.212-2.927-1.212-2.145.43-2.927,1.212l-5.721,5.721c-1.613,1.614-1.613,4.24,0,5.854,1.614,1.613,4.24,1.613,5.854,0l5.721-5.721c.782-.782,1.212-1.821,1.212-2.927Z"/></svg>
