<?xml version="1.0" encoding="UTF-8"?>
<svg xmlns="http://www.w3.org/2000/svg" id="Layer_1" data-name="Layer 1" viewBox="0 0 24 24" width="512" height="512"><path d="M15,9.5c0-.83,.67-1.5,1.5-1.5s1.5,.67,1.5,1.5v4c0,.83-.67,1.5-1.5,1.5s-1.5-.67-1.5-1.5v-4Zm5.5-1.5c-.83,0-1.5,.67-1.5,1.5v4c0,.83,.67,1.5,1.5,1.5s1.5-.67,1.5-1.5v-4c0-.83-.67-1.5-1.5-1.5Zm-1.5,8.65v4.35H9.09l-3.51-3.29,3.81-3.95c.8-.8,.8-2.09,0-2.89-.8-.8-2.09-.8-2.89,0l-3.51,3.62c-.65,.66-1,1.53-1,2.45s.36,1.81,1.06,2.51l4.85,4.55h14.09v-7.35c-.46,.22-.96,.35-1.5,.35s-1.04-.13-1.5-.35Zm-7.2-3.13l.02,.04L14.95,1.88c.21-.8-.27-1.62-1.08-1.83-.81-.21-1.62,.27-1.83,1.08l-2.01,7.75c.28,.17,.54,.36,.78,.59,1.1,1.1,1.41,2.67,.98,4.06Zm-5.06-5.03c.39-.13,.8-.21,1.22-.21,.71,0,1.39,.2,1.99,.54L7.95,1.12C7.74,.32,6.93-.16,6.12,.05c-.8,.21-1.28,1.03-1.08,1.83l1.69,6.61Z"/><path d="M15,9.5c0-.83,.67-1.5,1.5-1.5s1.5,.67,1.5,1.5v4c0,.83-.67,1.5-1.5,1.5s-1.5-.67-1.5-1.5v-4Zm5.5-1.5c-.83,0-1.5,.67-1.5,1.5v4c0,.83,.67,1.5,1.5,1.5s1.5-.67,1.5-1.5v-4c0-.83-.67-1.5-1.5-1.5Zm-1.5,8.65v4.35H9.09l-3.51-3.29,3.81-3.95c.8-.8,.8-2.09,0-2.89-.8-.8-2.09-.8-2.89,0l-3.51,3.62c-.65,.66-1,1.53-1,2.45s.36,1.81,1.06,2.51l4.85,4.55h14.09v-7.35c-.46,.22-.96,.35-1.5,.35s-1.04-.13-1.5-.35Zm-7.2-3.13l.02,.04L14.95,1.88c.21-.8-.27-1.62-1.08-1.83-.81-.21-1.62,.27-1.83,1.08l-2.01,7.75c.28,.17,.54,.36,.78,.59,1.1,1.1,1.41,2.67,.98,4.06Zm-5.06-5.03c.39-.13,.8-.21,1.22-.21,.71,0,1.39,.2,1.99,.54L7.95,1.12C7.74,.32,6.93-.16,6.12,.05c-.8,.21-1.28,1.03-1.08,1.83l1.69,6.61Z"/></svg>
