<?xml version="1.0" encoding="UTF-8"?>
<svg xmlns="http://www.w3.org/2000/svg" id="Layer_1" data-name="Layer 1" viewBox="0 0 24 24" width="512" height="512"><path d="M19.5,12h-1.5c-1.65,0-3,1.35-3,3v9h3v-3h1.5c2.48,0,4.5-2.02,4.5-4.5s-2.02-4.5-4.5-4.5Zm0,6h-1.5v-3h1.5c.83,0,1.5,.67,1.5,1.5s-.67,1.5-1.5,1.5ZM15,8C15,3.59,11.41,0,7,0H3.5C1.57,0,0,1.57,0,3.5V24H3V16h3.85l4.31,8h3.41l-4.62-8.57c2.95-1.18,5.05-4.06,5.05-7.43ZM3,3.5c0-.28,.22-.5,.5-.5h3.5c2.76,0,5,2.24,5,5s-2.24,5-5,5H3V3.5Z"/></svg>
