<?xml version="1.0" encoding="UTF-8"?>
<svg xmlns="http://www.w3.org/2000/svg" id="Layer_1" data-name="Layer 1" viewBox="0 0 24 24" width="512" height="512"><path d="m5.982,23.139l-1.191-2.048.664-.151c.551-.125,1.023-.317,1.442-.587,2.086-1.343,2.691-4.133,1.348-6.22-1.344-2.086-4.133-2.69-6.22-1.348-.289.186-.561.422-.856.741L.028,11.097c.642-.852,1.384-1.511,2.232-2,.861-.499,1.857-.835,2.914-.987-.442-1.071-.673-2.196-.673-3.289,0-.978.2-1.95.594-2.888l.386-.919h2.478l-.204.65c-.156.495-.228.92-.228,1.337,0,2.481,2.019,4.5,4.5,4.5s4.5-2.019,4.5-4.5c0-.417-.072-.843-.227-1.338l-.204-.649h2.318l.472.875c.415.982.615,1.954.615,2.932,0,1.081-.227,2.195-.661,3.259,1.064.172,2.066.519,2.929,1.018.849.491,1.59,1.15,2.204,1.96l-1.115,2.47c-.296-.32-.568-.556-.856-.741-1.01-.65-2.214-.868-3.389-.614-1.175.255-2.18.952-2.831,1.962-.651,1.011-.869,2.214-.614,3.389.254,1.175.951,2.18,1.962,2.831.42.271.892.463,1.443.587l.664.151-1.138,1.956-.991-.028c-1.057-.132-1.999-.446-2.847-.936-.821-.475-1.588-1.121-2.245-1.886-.649.76-1.417,1.405-2.249,1.885-.849.491-1.79.804-2.799.932l-.986.125Zm6.018-13.139c-1.103,0-2,.897-2,2s.897,2,2,2,2-.897,2-2-.897-2-2-2Zm-6.188,8.672c.665-.428,1.049-1.122,1.123-1.853-.691-.726-1.227-1.599-1.558-2.568-.724-.285-1.569-.237-2.271.216-.143.092-.627.586-.627.586.485,1.509,1.318,2.862,2.406,3.965,0,0,.703-.202.925-.346Zm3.713-15.672c0,.899.481,1.682,1.195,2.123.415-.077.842-.123,1.279-.123.451,0,.891.047,1.319.129.72-.439,1.207-1.225,1.207-2.129,0-.126-.016-.337-.123-.696-.771-.191-1.573-.304-2.402-.304-.809,0-1.592.107-2.346.289-.113.369-.128.583-.128.711Zm11.394,11.468c-.562-.361-1.233-.481-1.885-.341-.144.031-.281.079-.415.133-.327.955-.854,1.816-1.532,2.535.009.101.014.203.036.304.142.653.528,1.211,1.089,1.572.225.145.906.343.906.343,1.091-1.107,1.926-2.465,2.409-3.98,0,0-.466-.475-.608-.566Z"/></svg>
