<?xml version="1.0" encoding="UTF-8"?>
<svg xmlns="http://www.w3.org/2000/svg" id="Layer_1" data-name="Layer 1" viewBox="0 0 24 24" width="512" height="512"><path d="M22.43,11c.37-.75,.57-1.59,.57-2.5,0-2.44-1.48-4.46-3.6-5.2,.24-.13,.48-.29,.68-.49,1.05-1.05,.92-2.81,.92-2.81,0,0-1.76-.13-2.81,.92-.21,.21-.38,.46-.51,.72-.22-.72-.51-1.25-.7-1.59l-.88,.46-1.75,.97c.18,.33,.45,.83,.58,1.52h-.96c-.76,0-1.5,.16-2.18,.46-.34-.15-.7-.27-1.07-.34,.13-.09,.25-.19,.37-.3,1.05-1.05,.92-2.81,.92-2.81,0,0-1.76-.13-2.81,.92-.21,.21-.38,.46-.51,.72-.22-.72-.51-1.25-.7-1.59l-.88,.46-1.75,.97c.18,.34,.46,.84,.58,1.54-2.8,.23-4.93,2.56-4.93,5.48,0,.91,.2,1.75,.57,2.5H0v9.5c0,1.93,1.57,3.5,3.5,3.5H20.5c1.93,0,3.5-1.57,3.5-3.5V11h-1.57Zm-4.83,0h-3.17c.37-.75,.57-1.59,.57-2.5s-.2-1.75-.57-2.5h3.17c1.37,0,2.4,1.07,2.4,2.5s-1.03,2.5-2.4,2.5Zm-13.6-2.5c0-1.43,1.03-2.5,2.4-2.5h3.21c1.37,0,2.4,1.07,2.4,2.5s-1.03,2.5-2.4,2.5h-3.21c-1.37,0-2.4-1.07-2.4-2.5Zm17,12c0,.28-.22,.5-.5,.5H3.5c-.28,0-.5-.22-.5-.5v-1.5H19v-3H3v-2H21v6.5Z"/></svg>
