<?xml version="1.0" encoding="UTF-8"?>
<svg xmlns="http://www.w3.org/2000/svg" id="Layer_1" data-name="Layer 1" viewBox="0 0 24 24" width="512" height="512"><path d="M18.92,10.76c.68-.91,1.08-2.04,1.08-3.26,0-2.86-2.2-5.22-5-5.48V0h-3V2h-2V0h-3V2h-.5c-1.93,0-3.5,1.57-3.5,3.5v13c0,1.93,1.57,3.5,3.5,3.5h.5v2h3v-2h2v2h3v-2h1c3.31,0,6-2.69,6-6,0-2.25-1.24-4.21-3.08-5.24ZM6,5.5c0-.28,.22-.5,.5-.5H14.5c1.38,0,2.5,1.12,2.5,2.5s-1.12,2.5-2.5,2.5H6V5.5Zm10,13.5H6.5c-.28,0-.5-.22-.5-.5v-5.5h10c1.65,0,3,1.35,3,3s-1.35,3-3,3Z"/></svg>
