<?xml version="1.0" encoding="UTF-8"?>
<svg xmlns="http://www.w3.org/2000/svg" id="Layer_1" data-name="Layer 1" viewBox="0 0 24 24" width="512" height="512"><path d="m13.5,6h-3V2h3v4Zm5.799-1.714l-2.598-1.5-2,3.464,2.598,1.5,2-3.464Zm-10,1.964l-2-3.464-2.598,1.5,2,3.464,2.598-1.5Zm14.701,7.25c0-2.481-2.019-4.5-4.5-4.5-1.303,0-2.524.571-3.365,1.521l-2.565-.733-.824,2.885,4.858,1.388.535-1.177c.244-.537.778-.884,1.361-.884.827,0,1.5.673,1.5,1.5,0,.512-.263.984-.703,1.263l-1.206.765.704,1.242c.136.24.205.486.205.731,0,.827-.673,1.5-1.5,1.5s-1.5-.673-1.493-1.5l.2-1.472-5.208-1.488-5.208,1.488.208,1.472c0,.827-.673,1.5-1.5,1.5s-1.5-.673-1.5-1.5c0-.245.069-.491.205-.731l.704-1.242-1.206-.765c-.44-.279-.703-.751-.703-1.263,0-.827.673-1.5,1.5-1.5.583,0,1.117.347,1.361.884l.535,1.177,4.858-1.388-.824-2.885-2.565.733c-.841-.951-2.062-1.521-3.365-1.521-2.481,0-4.5,2.019-4.5,4.5,0,1.112.406,2.159,1.124,2.969-.082.337-.124.681-.124,1.031,0,2.481,2.019,4.5,4.5,4.5,2.226,0,4.08-1.625,4.437-3.751l2.063-.589,2.062.589c.357,2.126,2.211,3.751,4.438,3.751,2.481,0,4.5-2.019,4.5-4.5,0-.35-.042-.694-.124-1.031.717-.81,1.124-1.857,1.124-2.969Z"/></svg>
