<?xml version="1.0" encoding="UTF-8"?>
<svg xmlns="http://www.w3.org/2000/svg" id="Layer_1" data-name="Layer 1" viewBox="0 0 24 24" width="512" height="512"><path d="M17.994,2.284C16.085,.578,13.524-.229,10.957,.056,6.905,.515,3.591,3.781,3.074,7.823c-.359,2.83,.859,6.01,3.106,8.102,1.173,1.092,1.819,2.466,1.819,3.87v4.206h8v-4.051c0-1.422,.83-3.223,1.933-4.188,1.949-1.709,3.067-4.124,3.067-6.713,0-2.56-1.096-5.057-3.006-6.764Zm-4.994,17.716v1h-2v-1.155c0-.267-.016-.583-.044-.847h2.112c-.042,.32-.068,.689-.068,1.002Zm3-13h-3v-.5c0-.276-.225-.5-.5-.5h-1c-.275,0-.5,.224-.5,.5,0,.294,.177,.555,.45,.665l2.214,.886c1.419,.567,2.336,1.922,2.336,3.45,0,1.58-1.059,2.903-2.5,3.337v1.163h-3v-1.163c-1.441-.434-2.5-1.757-2.5-3.337v-.5h3v.5c0,.276,.225,.5,.5,.5h1c.275,0,.5-.224,.5-.5,0-.294-.177-.555-.45-.665l-2.214-.886c-1.419-.567-2.336-1.922-2.336-3.45,0-1.58,1.059-2.903,2.5-3.337v-1.163h3v1.163c1.441,.434,2.5,1.757,2.5,3.337v.5Z"/></svg>
