<?xml version="1.0" encoding="UTF-8"?>
<svg xmlns="http://www.w3.org/2000/svg" id="Layer_1" data-name="Layer 1" viewBox="0 0 24 24" width="512" height="512"><path d="M22.657,7.395L14.157,.743c-1.271-.992-3.044-.992-4.313,0L1.342,7.396c-.853,.669-1.342,1.674-1.342,2.756v13.849H24V10.151c0-1.082-.489-2.087-1.343-2.757Zm-1.657,13.605h-6.047l2.007-5.81c.179-.592-.264-1.19-.883-1.19h-3.904l1.827-5h-2l-4.848,7.594c-.399,.602,.032,1.406,.754,1.406h3.23l-1.152,3H3V10.151c0-.154,.07-.299,.192-.394L11.692,3.106c.182-.143,.435-.143,.616,0l8.499,6.65c.123,.096,.193,.24,.193,.395v10.849Z"/></svg>
