<?xml version="1.0" encoding="UTF-8"?>
<svg xmlns="http://www.w3.org/2000/svg" id="Layer_1" data-name="Layer 1" viewBox="0 0 24 24" width="512" height="512"><path d="M15.5,15h3v3h-3v-3Zm0-7h3v-3h-3v3Zm0,5h3v-3h-3v3ZM24,3.5V24H0V9.329c0-.935,.364-1.814,1.025-2.475l2.707-2.707c1.479-1.479,4.057-1.479,5.535,0l.732,.732v-1.379c0-1.93,1.57-3.5,3.5-3.5h7c1.93,0,3.5,1.57,3.5,3.5Zm-14,5.829c0-.134-.052-.259-.146-.354l-2.707-2.707c-.341-.34-.952-.34-1.293,0l-2.707,2.707c-.094,.095-.146,.22-.146,.354v11.671h7V9.329ZM21,3.5c0-.276-.224-.5-.5-.5h-7c-.276,0-.5,.224-.5,.5V21h8V3.5ZM5,13h3v-3h-3v3Zm0,5h3v-3h-3v3Z"/></svg>
