<?xml version="1.0" encoding="UTF-8"?>
<svg xmlns="http://www.w3.org/2000/svg" id="Layer_1" data-name="Layer 1" viewBox="0 0 24 24" width="512" height="512"><path d="M12.02,6.8l1.96,.39-2,10-1.96-.39,2-10Zm-3.73,2.12l-1.71,1.71c-.78,.78-.78,2.04,0,2.81l1.71,1.71,1.41-1.41-1.71-1.69,1.71-1.71-1.41-1.41Zm9.13,1.71l-1.71-1.71-1.41,1.41,1.71,1.7-1.71,1.71,1.41,1.41,1.71-1.71c.78-.78,.78-2.04,0-2.81Zm3.89,5l1.84,1.06-1.5,2.6-1.84-1.06c-1.54,1.92-3.76,3.25-6.3,3.64v2.12h-3v-2.12c-2.54-.38-4.77-1.72-6.3-3.64l-1.84,1.06-1.5-2.6,1.84-1.06c-.44-1.13-.7-2.35-.7-3.64s.25-2.51,.7-3.64l-1.84-1.06,1.5-2.6,1.84,1.06c1.54-1.92,3.76-3.25,6.3-3.64V0h3V2.12c2.54,.38,4.77,1.72,6.3,3.64l1.84-1.06,1.5,2.6-1.84,1.06c.44,1.13,.7,2.35,.7,3.64s-.25,2.51-.7,3.64Zm-2.3-3.64c0-3.86-3.14-7-7-7s-7,3.14-7,7,3.14,7,7,7,7-3.14,7-7Z"/></svg>
