<?xml version="1.0" encoding="UTF-8"?>
<svg xmlns="http://www.w3.org/2000/svg" id="Layer_1" data-name="Layer 1" viewBox="0 0 24 24" width="512" height="512"><path d="M24,9.75v11.25h-3V9.75c0-2.07-1.68-3.75-3.75-3.75-.8,0-1.54,.25-2.15,.68l-1.6,4.41v9.91h-3v-1.66l-1.7,4.66h-3.19l4.89-13.44v-.81c0-2.07-1.68-3.75-3.75-3.75s-3.75,1.68-3.75,3.75v11.25H0V3H3v1.14c1.07-.72,2.36-1.14,3.75-1.14,2.12,0,4.01,.98,5.25,2.51,.17-.21,.36-.42,.56-.61L14.34,0h3.19l-1.11,3.05c.27-.03,.55-.05,.83-.05,3.72,0,6.75,3.03,6.75,6.75Z"/></svg>
