<?xml version="1.0" encoding="UTF-8"?>
<svg xmlns="http://www.w3.org/2000/svg" id="Layer_1" data-name="Layer 1" viewBox="0 0 24 24" width="512" height="512"><path d="M20.5,0H3.5C1.57,0,0,1.57,0,3.5V20H6.74l3.6,3.03c.48,.43,1.08,.64,1.68,.64s1.16-.2,1.61-.6l3.71-3.07h6.67V3.5c0-1.93-1.57-3.5-3.5-3.5Zm.5,17h-4.75l-4.25,3.51-4.17-3.51H3V3.5c0-.28,.22-.5,.5-.5H20.5c.28,0,.5,.22,.5,.5v13.5ZM10,8.62c0,.31,.22,.57,.52,.62l3.29,.55c1.27,.21,2.19,1.3,2.19,2.59,0,1.45-1.18,2.62-2.62,2.62h-.38v1h-2v-1c-1.65,0-3-1.35-3-3h2c0,.55,.45,1,1,1h2.38c.34,0,.62-.28,.62-.62,0-.31-.22-.57-.52-.62l-3.29-.55c-1.27-.21-2.19-1.3-2.19-2.59,0-1.45,1.18-2.62,2.62-2.62h.38v-1h2v1c1.65,0,3,1.35,3,3h-2c0-.55-.45-1-1-1h-2.38c-.34,0-.62,.28-.62,.62Z"/></svg>
