<?xml version="1.0" encoding="UTF-8"?>
<svg xmlns="http://www.w3.org/2000/svg" id="Layer_1" data-name="Layer 1" viewBox="0 0 24 24" width="512" height="512"><path d="M24,11.5c0,1.933-1.567,3.5-3.5,3.5-1.396,0-2.601-.818-3.163-2H6.5c-.525,0-1.03-.091-1.5-.257v4.594c1.182,.562,2,1.767,2,3.163,0,1.933-1.567,3.5-3.5,3.5s-3.5-1.567-3.5-3.5c0-1.396,.818-2.601,2-3.163V6.663C.818,6.101,0,4.896,0,3.5,0,1.567,1.567,0,3.5,0s3.5,1.567,3.5,3.5c0,1.396-.818,2.601-2,3.163v1.837c0,.827,.673,1.5,1.5,1.5h10.837c.562-1.182,1.767-2,3.163-2,1.933,0,3.5,1.567,3.5,3.5Z"/></svg>
