<?xml version="1.0" encoding="UTF-8"?>
<svg xmlns="http://www.w3.org/2000/svg" id="Layer_1" data-name="Layer 1" viewBox="0 0 24 24" width="512" height="512"><path d="M4,8l-1.333-2.667L0,4l2.667-1.333L4,0l1.333,2.667,2.667,1.333-2.667,1.333-1.333,2.667ZM21.898,1.678C20.781,.56,19.241-.062,17.675,.003c-4.955,.168-8.652,.938-8.808,.971l.619,2.936c.035-.007,3.594-.749,8.29-.908,.75-.03,1.468,.266,2,.798,.297,.297,.297,.78,0,1.078l-.312,.312,2.121,2.121,.312-.312c1.467-1.467,1.467-3.853,0-5.32Zm-.3,7.854l-1.512,1.513c.6,1.225,.914,2.571,.914,3.955,0,4.962-4.038,9-9,9S3,19.962,3,15,7.038,6,12,6c1.38,0,2.724,.312,3.945,.909l1.515-1.515,4.139,4.139Zm-3.599,5.467c0-3.314-2.686-6-6-6s-6,2.686-6,6,2.686,6,6,6,6-2.686,6-6Z"/></svg>
