<?xml version="1.0" encoding="UTF-8"?>
<svg xmlns="http://www.w3.org/2000/svg" id="Layer_1" data-name="Layer 1" viewBox="0 0 24 24" width="512" height="512"><path d="M23.99,7.61c-.06-2.08-.96-4.03-2.52-5.49C19.92,.68,17.88-.07,15.76,0c-2.12,.08-4.09,.98-5.54,2.54-.74,.79-2.05,2.62-6.13,10.1C1.91,16.66,.06,19.93,.06,19.93l7.78,4.24s5.19-9.66,7.23-13.42l6.16,3.55,.8-1.03c1.34-1.72,2.01-3.68,1.95-5.66ZM7.32,13h3.11c-.36,.66-.72,1.34-1.08,2h-3.13c.16-.29,.33-.6,.5-.92,.2-.37,.4-.73,.59-1.08Zm1.67-3c.42-.74,.81-1.4,1.16-2h3.01c-.31,.55-.68,1.23-1.1,2h-3.07ZM15.88,3c.43-.01,.85,.03,1.26,.12l-1.34,1.88h-3.71c.13-.17,.24-.31,.34-.42,.9-.97,2.13-1.53,3.46-1.58ZM4.17,18.75c.12-.22,.26-.47,.41-.75h3.16c-.43,.8-.82,1.52-1.12,2.09l-2.46-1.34ZM20.36,10.34l-2.17-1.25c.09-.26,.13-.54,.13-.82,0-.43-.12-.83-.33-1.19l1.74-2.44c.78,.86,1.22,1.93,1.25,3.06,.03,.89-.19,1.79-.63,2.64Z"/></svg>
