<?xml version="1.0" encoding="UTF-8"?>
<svg xmlns="http://www.w3.org/2000/svg" id="Layer_1" data-name="Layer 1" viewBox="0 0 24 24" width="512" height="512"><path d="M3.5,19h3.5v3H3.5c-1.93,0-3.5-1.57-3.5-3.5v-3.5H3v3.5c0,.276,.224,.5,.5,.5Zm17.5-.5c0,.276-.224,.5-.5,.5h-3.5v3h3.5c1.93,0,3.5-1.57,3.5-3.5v-3.5h-3v3.5Zm-.5-16.5h-3.5v3h3.5c.276,0,.5,.224,.5,.5v3.5h3v-3.5c0-1.93-1.57-3.5-3.5-3.5ZM3,5.5c0-.276,.224-.5,.5-.5h3.5V2H3.5C1.57,2,0,3.57,0,5.5v3.5H3v-3.5Zm2,11.5h4V7H5v10Zm8,0h3V7h-3v10Zm-1-10h-2v10h2V7Zm7,0h-2v10h2V7Z"/></svg>
