<?xml version="1.0" encoding="UTF-8"?>
<svg xmlns="http://www.w3.org/2000/svg" id="Layer_1" data-name="Layer 1" viewBox="0 0 24 24" width="512" height="512"><path d="m11,3H0V0h11v3Zm-7,8h3v-4h4v-3H0v3h4v4ZM24,2.5c0-.725-.314-1.413-.862-1.889-.548-.476-1.273-.688-1.992-.587l-5,.715c-1.224.175-2.146,1.239-2.146,2.476v3.835c-1.141.232-2,1.24-2,2.45,0,1.381,1.119,2.5,2.5,2.5s2.5-1.119,2.5-2.5V3.648l4-.572v2.974c-1.141.232-2,1.24-2,2.45,0,1.381,1.119,2.5,2.5,2.5s2.5-1.119,2.5-2.5c0-.001,0-.003,0-.004h0V2.5Zm-1.5,18.5c-.828,0-1.5.672-1.5,1.5s.672,1.5,1.5,1.5,1.5-.672,1.5-1.5-.672-1.5-1.5-1.5Zm-7-4c.828,0,1.5-.672,1.5-1.5s-.672-1.5-1.5-1.5-1.5.672-1.5,1.5.672,1.5,1.5,1.5Zm5.871-2.987l-7,8,2.258,1.975,7-8-2.258-1.975Zm-8.142,4.348c-.237.338-.835,1.16-1.672,2.075l1.504,1.504-2.121,2.121-1.592-1.592c-1.17.873-2.5,1.531-3.847,1.531-2.649,0-4.5-1.645-4.5-4,0-.381,0-1.468,2.627-3.859-.357-.498-.627-1.065-.627-1.641,0-1.379,1.122-2.5,2.5-2.5s2.5,1.121,2.5,2.5c0,.6-.294,1.191-.674,1.704l2.101,2.101c.514-.564.979-1.146,1.345-1.667l2.457,1.722Zm-6.034,1.956l-1.753-1.753c-.675.644-1.241,1.268-1.431,1.593.097.692.851.844,1.489.844.49,0,1.08-.265,1.695-.684Z"/></svg>
