<?xml version="1.0" encoding="UTF-8"?>
<svg xmlns="http://www.w3.org/2000/svg" id="Layer_1" data-name="Layer 1" viewBox="0 0 24 24" width="512" height="512"><path d="m22.05,12h1.95v-3H7.859L2.622.061.034,1.576l6.106,10.424h1.809l4.732,4.013-2.586,2.194c-.339-.133-.708-.207-1.095-.207-1.657,0-3,1.343-3,3s1.343,3,3,3,3-1.343,3-3c0-.152-.011-.301-.033-.447l3.033-2.573,3.033,2.573c-.022.146-.033.295-.033.447,0,1.657,1.343,3,3,3s3-1.343,3-3-1.343-3-3-3c-.386,0-.755.074-1.095.207l-2.586-2.194,4.732-4.013Zm-9.463,0h4.825l-2.413,2.046-2.413-2.046Z"/></svg>
