<svg width="21" height="20" viewBox="0 0 21 20" fill="none" xmlns="http://www.w3.org/2000/svg">
<path d="M16.3671 8.0922C16.2896 8.01409 16.1974 7.9521 16.0959 7.90979C15.9943 7.86748 15.8854 7.8457 15.7754 7.8457C15.6654 7.8457 15.5565 7.86748 15.4549 7.90979C15.3534 7.9521 15.2612 8.01409 15.1837 8.0922L11.3671 11.9089C11.2896 11.987 11.1974 12.049 11.0959 12.0913C10.9943 12.1336 10.8854 12.1554 10.7754 12.1554C10.6654 12.1554 10.5565 12.1336 10.4549 12.0913C10.3534 12.049 10.2612 11.987 10.1837 11.9089L6.36707 8.0922C6.2896 8.01409 6.19743 7.9521 6.09588 7.90979C5.99433 7.86748 5.88541 7.8457 5.7754 7.8457C5.66539 7.8457 5.55647 7.86748 5.45492 7.90979C5.35337 7.9521 5.2612 8.01409 5.18373 8.0922C5.02852 8.24834 4.94141 8.45955 4.94141 8.6797C4.94141 8.89986 5.02852 9.11107 5.18373 9.2672L9.00873 13.0922C9.47748 13.5604 10.1129 13.8233 10.7754 13.8233C11.4379 13.8233 12.0733 13.5604 12.5421 13.0922L16.3671 9.2672C16.5223 9.11107 16.6094 8.89986 16.6094 8.6797C16.6094 8.45955 16.5223 8.24834 16.3671 8.0922Z" fill="#1E293B"/>
</svg>
