<svg width="18" height="18" viewBox="0 0 18 18" fill="none" xmlns="http://www.w3.org/2000/svg">
<path d="M7.28246 3.9674C7.21216 4.03712 7.15636 4.12007 7.11829 4.21146C7.08021 4.30286 7.06061 4.40089 7.06061 4.4999C7.06061 4.59891 7.08021 4.69693 7.11829 4.78833C7.15636 4.87972 7.21216 4.96267 7.28246 5.0324L10.7175 8.4674C10.7878 8.53712 10.8435 8.62007 10.8816 8.71146C10.9197 8.80286 10.9393 8.90089 10.9393 8.9999C10.9393 9.0989 10.9197 9.19693 10.8816 9.28833C10.8435 9.37972 10.7878 9.46267 10.7175 9.5324L7.28246 12.9674C7.21216 13.0371 7.15636 13.1201 7.11829 13.2115C7.08021 13.3029 7.06061 13.4009 7.06061 13.4999C7.06061 13.5989 7.08021 13.6969 7.11829 13.7883C7.15636 13.8797 7.21216 13.9627 7.28246 14.0324C7.42298 14.1721 7.61307 14.2505 7.81121 14.2505C8.00935 14.2505 8.19943 14.1721 8.33996 14.0324L11.7825 10.5899C12.2038 10.168 12.4405 9.59615 12.4405 8.9999C12.4405 8.40364 12.2038 7.83177 11.7825 7.4099L8.33996 3.9674C8.19943 3.82771 8.00935 3.7493 7.81121 3.7493C7.61307 3.7493 7.42298 3.82771 7.28246 3.9674Z" fill="#0F0F16"/>
</svg>
