<svg width="16" height="16" viewBox="0 0 16 16" fill="none" xmlns="http://www.w3.org/2000/svg">
<path d="M12.4735 6.47357C12.4116 6.41108 12.3378 6.36148 12.2566 6.32764C12.1753 6.29379 12.0882 6.27637 12.0002 6.27637C11.9122 6.27637 11.8251 6.29379 11.7438 6.32764C11.6626 6.36148 11.5888 6.41108 11.5269 6.47357L8.47354 9.5269C8.41156 9.58939 8.33783 9.63898 8.25659 9.67283C8.17535 9.70667 8.08821 9.7241 8.0002 9.7241C7.91219 9.7241 7.82506 9.70667 7.74382 9.67283C7.66258 9.63898 7.58884 9.58939 7.52687 9.5269L4.47354 6.47357C4.41156 6.41108 4.33783 6.36148 4.25659 6.32764C4.17535 6.29379 4.08821 6.27637 4.0002 6.27637C3.91219 6.27637 3.82506 6.29379 3.74382 6.32764C3.66258 6.36148 3.58884 6.41108 3.52687 6.47357C3.4027 6.59847 3.33301 6.76744 3.33301 6.94357C3.33301 7.11969 3.4027 7.28866 3.52687 7.41357L6.58687 10.4736C6.96187 10.8481 7.4702 11.0585 8.0002 11.0585C8.5302 11.0585 9.03853 10.8481 9.41353 10.4736L12.4735 7.41357C12.5977 7.28866 12.6674 7.11969 12.6674 6.94357C12.6674 6.76744 12.5977 6.59847 12.4735 6.47357Z" fill="#6E798A"/>
</svg>
