<svg width="21" height="20" viewBox="0 0 21 20" fill="none" xmlns="http://www.w3.org/2000/svg">
<path d="M4.95498 13.1583C5.03397 13.2364 5.12795 13.2984 5.2315 13.3407C5.33505 13.383 5.44611 13.4048 5.55829 13.4048C5.67046 13.4048 5.78153 13.383 5.88507 13.3407C5.98862 13.2984 6.0826 13.2364 6.16159 13.1583L10.0534 9.34162C10.1324 9.26351 10.2263 9.20152 10.3299 9.15921C10.4334 9.1169 10.5445 9.09512 10.6567 9.09512C10.7688 9.09512 10.8799 9.1169 10.9835 9.15921C11.087 9.20152 11.181 9.26351 11.26 9.34162L15.1518 13.1583C15.2307 13.2364 15.3247 13.2984 15.4283 13.3407C15.5318 13.383 15.6429 13.4048 15.7551 13.4048C15.8672 13.4048 15.9783 13.383 16.0819 13.3407C16.1854 13.2984 16.2794 13.2364 16.3584 13.1583C16.5166 13.0022 16.6055 12.7909 16.6055 12.5708C16.6055 12.3506 16.5166 12.1394 16.3584 11.9833L12.4581 8.15829C11.9801 7.69012 11.3322 7.42715 10.6567 7.42715C9.98114 7.42715 9.33322 7.69012 8.85524 8.15829L4.95498 11.9833C4.79671 12.1394 4.70788 12.3506 4.70788 12.5708C4.70788 12.7909 4.79671 13.0022 4.95498 13.1583Z" fill="#5363D2"/>
</svg>
