<svg width="21" height="22" viewBox="0 0 21 22" fill="none" xmlns="http://www.w3.org/2000/svg">
<path d="M7.49943 5.2983C7.42132 5.37729 7.35933 5.47127 7.31702 5.57482C7.27471 5.67837 7.25293 5.78943 7.25293 5.90161C7.25293 6.01378 7.27471 6.12485 7.31702 6.22839C7.35933 6.33194 7.42132 6.42592 7.49943 6.50492L11.3161 10.3967C11.3942 10.4757 11.4562 10.5697 11.4985 10.6732C11.5408 10.7768 11.5626 10.8878 11.5626 11C11.5626 11.1122 11.5408 11.2232 11.4985 11.3268C11.4562 11.4303 11.3942 11.5243 11.3161 11.6033L7.49943 15.4951C7.42132 15.5741 7.35933 15.6681 7.31702 15.7716C7.27471 15.8751 7.25293 15.9862 7.25293 16.0984C7.25293 16.2106 7.27471 16.3216 7.31702 16.4252C7.35933 16.5287 7.42132 16.6227 7.49943 16.7017C7.65556 16.86 7.86677 16.9488 8.08693 16.9488C8.30708 16.9488 8.51829 16.86 8.67443 16.7017L12.4994 12.8014C12.9676 12.3235 13.2306 11.6755 13.2306 11C13.2306 10.3245 12.9676 9.67654 12.4994 9.19857L8.67443 5.2983C8.51829 5.14004 8.30708 5.0512 8.08693 5.0512C7.86677 5.0512 7.65556 5.14004 7.49943 5.2983Z" fill="#201F22"/>
</svg>
