<svg width="24" height="24" viewBox="0 0 24 24" fill="none" xmlns="http://www.w3.org/2000/svg">
<g clip-path="url(#clip0_226_835)">
<path d="M12 0C5.38331 0 0 5.38331 0 12C0 18.6167 5.38331 24 12 24C18.6167 24 24 18.6167 24 12C24 5.38331 18.6167 0 12 0ZM12 22.5C6.21019 22.5 1.5 17.7898 1.5 12C1.5 6.21019 6.21019 1.5 12 1.5C17.7898 1.5 22.5 6.21019 22.5 12C22.5 17.7898 17.7898 22.5 12 22.5ZM17.0303 11.4698C17.3233 11.7628 17.3233 12.2374 17.0303 12.5303L13.2803 16.2803C13.1338 16.4267 12.9418 16.5 12.75 16.5C12.5582 16.5 12.3662 16.4267 12.2197 16.2803C11.9267 15.9872 11.9267 15.5126 12.2197 15.2197L14.6895 12.75H7.5C7.08581 12.75 6.75 12.4146 6.75 12C6.75 11.5854 7.08581 11.25 7.5 11.25H14.6895L12.2197 8.78025C11.9267 8.48719 11.9267 8.01262 12.2197 7.71975C12.5128 7.42688 12.9874 7.42669 13.2803 7.71975L17.0303 11.4698Z" fill="#201F22"/>
</g>
<defs>
<clipPath id="clip0_226_835">
<rect width="24" height="24" fill="white"/>
</clipPath>
</defs>
</svg>
