<svg width="20" height="20" viewBox="0 0 20 20" fill="none" xmlns="http://www.w3.org/2000/svg">
<path d="M18.9251 9.41052L13.0918 3.57719C12.9346 3.42539 12.7241 3.34139 12.5056 3.34329C12.2871 3.34519 12.0781 3.43283 11.9236 3.58734C11.7691 3.74185 11.6814 3.95086 11.6795 4.16935C11.6776 4.38785 11.7616 4.59835 11.9134 4.75552L16.3243 9.16636L1.66927 9.16636C1.44826 9.16636 1.2363 9.25415 1.08002 9.41043C0.923735 9.56671 0.835938 9.77868 0.835938 9.99969C0.835938 10.2207 0.923735 10.4327 1.08002 10.5889C1.2363 10.7452 1.44826 10.833 1.66927 10.833L16.3243 10.833L11.9134 15.2439C11.8338 15.3207 11.7704 15.4127 11.7267 15.5144C11.683 15.616 11.66 15.7254 11.6591 15.836C11.6581 15.9467 11.6792 16.0564 11.7211 16.1588C11.763 16.2612 11.8249 16.3543 11.9031 16.4325C11.9814 16.5108 12.0744 16.5726 12.1768 16.6145C12.2792 16.6564 12.389 16.6775 12.4996 16.6766C12.6103 16.6756 12.7196 16.6526 12.8213 16.6089C12.9229 16.5653 13.0149 16.5018 13.0918 16.4222L18.9251 10.5889C19.0813 10.4326 19.1691 10.2207 19.1691 9.99969C19.1691 9.77872 19.0813 9.5668 18.9251 9.41052Z" fill="#121314"/>
</svg>
