<svg width="44" height="45" viewBox="0 0 44 45" fill="none" xmlns="http://www.w3.org/2000/svg">
<mask id="path-1-inside-1_82_825" fill="white">
<path d="M28.4063 19.625L23.71 14.7706C23.5972 14.6542 23.463 14.5618 23.3151 14.4988C23.1672 14.4358 23.0086 14.4033 22.8484 14.4033C22.6882 14.4033 22.5296 14.4358 22.3817 14.4988C22.2338 14.5618 22.0996 14.6542 21.9868 14.7706C21.7608 15.0032 21.6339 15.3179 21.6339 15.6458C21.6339 15.9738 21.7608 16.2885 21.9868 16.5211L26.3069 20.9782H8.84438C8.52253 20.9782 8.21387 21.109 7.98629 21.3419C7.75871 21.5747 7.63086 21.8905 7.63086 22.2198C7.63086 22.549 7.75871 22.8648 7.98629 23.0977C8.21387 23.3305 8.52253 23.4613 8.84438 23.4613H26.3798L21.9868 27.9433C21.8731 28.0587 21.7828 28.196 21.7212 28.3473C21.6596 28.4986 21.6279 28.6608 21.6279 28.8247C21.6279 28.9886 21.6596 29.1509 21.7212 29.3022C21.7828 29.4535 21.8731 29.5908 21.9868 29.7062C22.0996 29.8226 22.2338 29.915 22.3817 29.978C22.5296 30.041 22.6882 30.0735 22.8484 30.0735C23.0086 30.0735 23.1672 30.041 23.3151 29.978C23.463 29.915 23.5972 29.8226 23.71 29.7062L28.4063 24.8891C29.0881 24.1907 29.471 23.244 29.471 22.257C29.471 21.27 29.0881 20.3233 28.4063 19.625Z"/>
</mask>
<path d="M28.4063 19.625L23.71 14.7706C23.5972 14.6542 23.463 14.5618 23.3151 14.4988C23.1672 14.4358 23.0086 14.4033 22.8484 14.4033C22.6882 14.4033 22.5296 14.4358 22.3817 14.4988C22.2338 14.5618 22.0996 14.6542 21.9868 14.7706C21.7608 15.0032 21.6339 15.3179 21.6339 15.6458C21.6339 15.9738 21.7608 16.2885 21.9868 16.5211L26.3069 20.9782H8.84438C8.52253 20.9782 8.21387 21.109 7.98629 21.3419C7.75871 21.5747 7.63086 21.8905 7.63086 22.2198C7.63086 22.549 7.75871 22.8648 7.98629 23.0977C8.21387 23.3305 8.52253 23.4613 8.84438 23.4613H26.3798L21.9868 27.9433C21.8731 28.0587 21.7828 28.196 21.7212 28.3473C21.6596 28.4986 21.6279 28.6608 21.6279 28.8247C21.6279 28.9886 21.6596 29.1509 21.7212 29.3022C21.7828 29.4535 21.8731 29.5908 21.9868 29.7062C22.0996 29.8226 22.2338 29.915 22.3817 29.978C22.5296 30.041 22.6882 30.0735 22.8484 30.0735C23.0086 30.0735 23.1672 30.041 23.3151 29.978C23.463 29.915 23.5972 29.8226 23.71 29.7062L28.4063 24.8891C29.0881 24.1907 29.471 23.244 29.471 22.257C29.471 21.27 29.0881 20.3233 28.4063 19.625Z" fill="white"/>
<path d="M28.4063 19.625L14.443 33.1336L14.4735 33.1651L14.5042 33.1965L28.4063 19.625ZM23.71 14.7706L37.6733 1.26194L37.6663 1.25467L37.6593 1.24741L23.71 14.7706ZM21.9868 14.7706L35.9208 28.3094L35.9285 28.3016L35.9361 28.2937L21.9868 14.7706ZM21.9868 16.5211L35.9374 2.99931L35.9291 2.9908L35.9208 2.9823L21.9868 16.5211ZM26.3069 20.9782V40.4065H72.1949L40.2575 7.45642L26.3069 20.9782ZM7.63086 22.2198L-11.7974 22.2198L7.63086 22.2198ZM26.3798 23.4613L40.2547 37.0607L72.6265 4.03304L26.3798 4.03304V23.4613ZM21.9868 27.9433L35.8247 41.5803L35.8433 41.5615L35.8617 41.5427L21.9868 27.9433ZM21.9868 29.7062L35.9361 16.1831L35.8806 16.1259L35.8247 16.0692L21.9868 29.7062ZM23.71 29.7062L9.79878 16.144L9.77974 16.1635L9.76075 16.1831L23.71 29.7062ZM28.4063 24.8891L14.5042 11.3175L14.4951 11.3268L28.4063 24.8891ZM42.3697 6.11634L37.6733 1.26194L9.74668 28.2792L14.443 33.1336L42.3697 6.11634ZM37.6593 1.24741C35.7617 -0.709957 33.4798 -2.28815 30.933 -3.37367L15.6972 32.3713C13.4462 31.4118 11.4327 30.0184 9.76075 28.2937L37.6593 1.24741ZM30.933 -3.37367C28.3852 -4.45964 25.6361 -5.02494 22.8484 -5.02494V33.8316C20.3811 33.8316 17.9493 33.3312 15.6972 32.3713L30.933 -3.37367ZM22.8484 -5.02494C20.0608 -5.02494 17.3117 -4.45967 14.7638 -3.37367L29.9996 32.3713C27.7475 33.3312 25.3156 33.8316 22.8484 33.8316V-5.02494ZM14.7638 -3.37367C12.2171 -2.28815 9.93513 -0.709957 8.03755 1.24741L35.9361 28.2937C34.2641 30.0184 32.2506 31.4118 29.9996 32.3713L14.7638 -3.37367ZM8.05276 1.23173C4.25926 5.13597 2.20566 10.3257 2.20566 15.6458H41.0622C41.0622 20.31 39.2623 24.8704 35.9208 28.3094L8.05276 1.23173ZM2.20566 15.6458C2.20566 20.966 4.25926 26.1557 8.05276 30.06L35.9208 2.9823C39.2623 6.4213 41.0622 10.9817 41.0622 15.6458H2.20566ZM8.03625 30.0429L12.3564 34.5001L40.2575 7.45642L35.9374 2.99931L8.03625 30.0429ZM26.3069 1.54997H8.84438V40.4065H26.3069V1.54997ZM8.84438 1.54997C3.22491 1.54997 -2.07228 3.83798 -5.90742 7.76166L21.88 34.9221C18.5 38.3801 13.8202 40.4065 8.84438 40.4065V1.54997ZM-5.90742 7.76166C-9.72785 11.6703 -11.7974 16.8791 -11.7974 22.2198L27.0591 22.2198C27.0591 26.9019 25.2453 31.4791 21.88 34.9221L-5.90742 7.76166ZM-11.7974 22.2198C-11.7974 27.5605 -9.72785 32.7693 -5.90742 36.6779L21.88 9.51746C25.2453 12.9604 27.0591 17.5376 27.0591 22.2198L-11.7974 22.2198ZM-5.90742 36.6779C-2.07229 40.6016 3.22489 42.8896 8.84438 42.8896V4.03304C13.8202 4.03304 18.5 6.05946 21.88 9.51746L-5.90742 36.6779ZM8.84438 42.8896H26.3798V4.03304H8.84438V42.8896ZM12.5048 9.8619L8.11189 14.3438L35.8617 41.5427L40.2547 37.0607L12.5048 9.8619ZM8.14888 14.3062C6.2356 16.2477 4.74022 18.5333 3.72761 21.02L39.7147 35.6746C38.8254 37.8586 37.5105 39.8697 35.8247 41.5803L8.14888 14.3062ZM3.72761 21.02C2.71527 23.506 2.19959 26.1573 2.19959 28.8247H41.0561C41.0561 31.1644 40.6039 33.4911 39.7147 35.6746L3.72761 21.02ZM2.19959 28.8247C2.19959 31.4922 2.71527 34.1435 3.72761 36.6295L39.7147 21.9749C40.6039 24.1583 41.0561 26.4851 41.0561 28.8247H2.19959ZM3.72761 36.6295C4.74019 39.1161 6.23554 41.4018 8.14888 43.3433L35.8247 16.0692C37.5106 17.7799 38.8254 19.7909 39.7147 21.9749L3.72761 36.6295ZM8.03755 43.2294C9.93515 45.1868 12.2171 46.765 14.7638 47.8505L29.9996 12.1055C32.2506 13.065 34.2641 14.4584 35.9361 16.1831L8.03755 43.2294ZM14.7638 47.8505C17.3118 48.9365 20.0608 49.5017 22.8484 49.5017V10.6452C25.3156 10.6452 27.7474 11.1456 29.9996 12.1055L14.7638 47.8505ZM22.8484 49.5017C25.636 49.5017 28.3851 48.9365 30.933 47.8505L15.6972 12.1055C17.9493 11.1456 20.3812 10.6452 22.8484 10.6452V49.5017ZM30.933 47.8505C33.4797 46.765 35.7617 45.1868 37.6593 43.2294L9.76075 16.1831C11.4327 14.4584 13.4462 13.065 15.6972 12.1055L30.933 47.8505ZM37.6212 43.2685L42.3176 38.4514L14.4951 11.3268L9.79878 16.144L37.6212 43.2685ZM42.3085 38.4606C46.5778 34.0873 48.8993 28.2514 48.8993 22.257H10.0428C10.0428 18.2367 11.5984 14.2941 14.5042 11.3175L42.3085 38.4606ZM48.8993 22.257C48.8993 16.2626 46.5778 10.4267 42.3085 6.0534L14.5042 33.1965C11.5984 30.22 10.0428 26.2774 10.0428 22.257H48.8993Z" fill="white" mask="url(#path-1-inside-1_82_825)"/>
<mask id="path-3-inside-2_82_825" fill="white">
<path d="M22.3422 44.3974C28.0865 44.3974 33.5954 42.0628 37.6572 37.9073C41.719 33.7517 44.0009 28.1156 44.0009 22.2387C44.0009 16.3619 41.719 10.7257 37.6572 6.5702C33.5954 2.41464 28.0865 0.0800778 22.3422 0.0800772L22.3422 2.00742C27.5868 2.00742 32.6166 4.13893 36.3251 7.93303C40.0336 11.7271 42.117 16.8731 42.117 22.2387C42.117 27.6044 40.0336 32.7503 36.3251 36.5444C32.6166 40.3385 27.5868 42.47 22.3422 42.47L22.3422 44.3974Z"/>
</mask>
<path d="M22.3422 44.3974C28.0865 44.3974 33.5954 42.0628 37.6572 37.9073C41.719 33.7517 44.0009 28.1156 44.0009 22.2387C44.0009 16.3619 41.719 10.7257 37.6572 6.5702C33.5954 2.41464 28.0865 0.0800778 22.3422 0.0800772L22.3422 2.00742C27.5868 2.00742 32.6166 4.13893 36.3251 7.93303C40.0336 11.7271 42.117 16.8731 42.117 22.2387C42.117 27.6044 40.0336 32.7503 36.3251 36.5444C32.6166 40.3385 27.5868 42.47 22.3422 42.47L22.3422 44.3974Z" fill="white" stroke="white" stroke-width="3.6428" mask="url(#path-3-inside-2_82_825)"/>
</svg>
