<svg width="23" height="23" viewBox="0 0 23 23" fill="none" xmlns="http://www.w3.org/2000/svg">
<g clip-path="url(#clip0_226_576)">
<path d="M16.1807 6.07073L9.58398 5.87421C9.40919 5.87204 9.24054 5.93861 9.11436 6.05958C8.98817 6.18056 8.91455 6.34625 8.90934 6.52097C8.90414 6.6957 8.96777 6.86548 9.08653 6.99375C9.20529 7.12202 9.36968 7.19851 9.54429 7.20675L14.5324 7.35535L5.99906 15.3949C5.87037 15.5162 5.79511 15.6836 5.78985 15.8603C5.78458 16.037 5.84974 16.2086 5.97098 16.3373C6.09223 16.466 6.25963 16.5413 6.43636 16.5465C6.6131 16.5518 6.78468 16.4866 6.91337 16.3654L15.4467 8.32582L15.2981 13.3139C15.2939 13.4023 15.3074 13.4907 15.3377 13.5738C15.3681 13.657 15.4147 13.7333 15.4748 13.7982C15.535 13.8632 15.6074 13.9155 15.688 13.9522C15.7686 13.9888 15.8557 14.0091 15.9442 14.0117C16.0326 14.0143 16.1208 13.9993 16.2034 13.9675C16.286 13.9357 16.3615 13.8878 16.4254 13.8266C16.4893 13.7653 16.5403 13.6919 16.5756 13.6107C16.6108 13.5295 16.6295 13.4421 16.6306 13.3536L16.8271 6.75685C16.8324 6.58015 16.7672 6.40861 16.646 6.27994C16.5248 6.15128 16.3574 6.07602 16.1807 6.07073Z" fill="white"/>
</g>
<defs>
<clipPath id="clip0_226_576">
<rect width="16" height="16" fill="white" transform="translate(0 10.9717) rotate(-43.2936)"/>
</clipPath>
</defs>
</svg>
