<svg width="20" height="20" viewBox="0 0 20 20" fill="none" xmlns="http://www.w3.org/2000/svg">
<g clip-path="url(#clip0_226_595)">
<path d="M10 0C4.48609 0 0 4.48609 0 10C0 15.5139 4.48609 20 10 20C15.5139 20 20 15.5139 20 10C20 4.48609 15.5139 0 10 0ZM10 18.75C5.17516 18.75 1.25 14.8248 1.25 10C1.25 5.17516 5.17516 1.25 10 1.25C14.8248 1.25 18.75 5.17516 18.75 10C18.75 14.8248 14.8248 18.75 10 18.75ZM14.1919 9.55813C14.4361 9.80234 14.4361 10.1978 14.1919 10.4419L11.0669 13.5669C10.9448 13.6889 10.7848 13.75 10.625 13.75C10.4652 13.75 10.3052 13.6889 10.1831 13.5669C9.93891 13.3227 9.93891 12.9272 10.1831 12.6831L12.2413 10.625H6.25C5.90484 10.625 5.625 10.3455 5.625 10C5.625 9.65453 5.90484 9.375 6.25 9.375H12.2413L10.1831 7.31687C9.93891 7.07266 9.93891 6.67719 10.1831 6.43313C10.4273 6.18906 10.8228 6.18891 11.0669 6.43313L14.1919 9.55813Z" fill="white"/>
</g>
<defs>
<clipPath id="clip0_226_595">
<rect width="20" height="20" fill="white"/>
</clipPath>
</defs>
</svg>
