<svg width="20" height="12" viewBox="0 0 20 12" fill="none" xmlns="http://www.w3.org/2000/svg">
<path d="M19.1317 7.9918L15.3015 11.7181C15.2095 11.8074 15.1 11.8783 14.9794 11.9267C14.8588 11.9751 14.7294 12 14.5988 12C14.4681 12 14.3388 11.9751 14.2182 11.9267C14.0976 11.8783 13.9881 11.8074 13.8961 11.7181C13.8033 11.6295 13.7297 11.5241 13.6794 11.408C13.6292 11.2918 13.6033 11.1673 13.6033 11.0415C13.6033 10.9156 13.6292 10.7911 13.6794 10.6749C13.7297 10.5588 13.8033 10.4534 13.8961 10.3648L17.4195 6.95302H0.98971C0.727222 6.95302 0.475485 6.85261 0.289879 6.67388C0.104271 6.49516 0 6.25276 0 6C0 5.74724 0.104271 5.50484 0.289879 5.32612C0.475485 5.14739 0.727222 5.04698 0.98971 5.04698H17.4788L13.8961 1.59706C13.7206 1.41982 13.6227 1.18435 13.6227 0.939482C13.6227 0.694613 13.7206 0.459139 13.8961 0.281901C13.9881 0.192576 14.0976 0.121677 14.2182 0.0732933C14.3388 0.02491 14.4681 0 14.5988 0C14.7294 0 14.8588 0.02491 14.9794 0.0732933C15.1 0.121677 15.2095 0.192576 15.3015 0.281901L19.1317 3.95101C19.6877 4.48709 20 5.21376 20 5.97141C20 6.72906 19.6877 7.45573 19.1317 7.9918Z" fill="#00907F"/>
</svg>
