<svg width="45" height="45" viewBox="0 0 45 45" fill="none" xmlns="http://www.w3.org/2000/svg">
<mask id="path-1-inside-1_82_822" fill="white">
<path d="M15.9539 19.625L20.7586 14.7706C20.8741 14.6542 21.0114 14.5618 21.1627 14.4988C21.314 14.4358 21.4762 14.4033 21.6401 14.4033C21.804 14.4033 21.9663 14.4358 22.1176 14.4988C22.2689 14.5618 22.4062 14.6542 22.5216 14.7706C22.7529 15.0032 22.8827 15.3179 22.8827 15.6458C22.8827 15.9738 22.7529 16.2885 22.5216 16.5211L18.1018 20.9782H35.9674C36.2967 20.9782 36.6125 21.109 36.8453 21.3419C37.0782 21.5747 37.209 21.8905 37.209 22.2198C37.209 22.549 37.0782 22.8648 36.8453 23.0977C36.6125 23.3305 36.2967 23.4613 35.9674 23.4613H18.0273L22.5216 27.9433C22.638 28.0587 22.7304 28.196 22.7934 28.3473C22.8564 28.4986 22.8889 28.6608 22.8889 28.8247C22.8889 28.9886 22.8564 29.1509 22.7934 29.3022C22.7304 29.4535 22.638 29.5908 22.5216 29.7062C22.4062 29.8226 22.2689 29.915 22.1176 29.978C21.9663 30.041 21.804 30.0735 21.6401 30.0735C21.4762 30.0735 21.314 30.041 21.1627 29.978C21.0114 29.915 20.8741 29.8226 20.7586 29.7062L15.9539 24.8891C15.2564 24.1907 14.8646 23.244 14.8646 22.257C14.8646 21.27 15.2564 20.3233 15.9539 19.625Z"/>
</mask>
<path d="M15.9539 19.625L20.7586 14.7706C20.8741 14.6542 21.0114 14.5618 21.1627 14.4988C21.314 14.4358 21.4762 14.4033 21.6401 14.4033C21.804 14.4033 21.9663 14.4358 22.1176 14.4988C22.2689 14.5618 22.4062 14.6542 22.5216 14.7706C22.7529 15.0032 22.8827 15.3179 22.8827 15.6458C22.8827 15.9738 22.7529 16.2885 22.5216 16.5211L18.1018 20.9782H35.9674C36.2967 20.9782 36.6125 21.109 36.8453 21.3419C37.0782 21.5747 37.209 21.8905 37.209 22.2198C37.209 22.549 37.0782 22.8648 36.8453 23.0977C36.6125 23.3305 36.2967 23.4613 35.9674 23.4613H18.0273L22.5216 27.9433C22.638 28.0587 22.7304 28.196 22.7934 28.3473C22.8564 28.4986 22.8889 28.6608 22.8889 28.8247C22.8889 28.9886 22.8564 29.1509 22.7934 29.3022C22.7304 29.4535 22.638 29.5908 22.5216 29.7062C22.4062 29.8226 22.2689 29.915 22.1176 29.978C21.9663 30.041 21.804 30.0735 21.6401 30.0735C21.4762 30.0735 21.314 30.041 21.1627 29.978C21.0114 29.915 20.8741 29.8226 20.7586 29.7062L15.9539 24.8891C15.2564 24.1907 14.8646 23.244 14.8646 22.257C14.8646 21.27 15.2564 20.3233 15.9539 19.625Z" fill="white"/>
<path d="M15.9539 19.625L29.7622 33.292L29.7313 33.3232L29.7003 33.3543L15.9539 19.625ZM20.7586 14.7706L6.95034 1.10352L6.95746 1.09633L6.96458 1.08915L20.7586 14.7706ZM21.1627 14.4988L13.691 -3.43529L21.1627 14.4988ZM22.5216 14.7706L8.74296 28.4675L8.73525 28.4597L8.72756 28.452L22.5216 14.7706ZM22.5216 16.5211L8.72625 2.84103L8.7346 2.83261L8.74296 2.8242L22.5216 16.5211ZM18.1018 20.9782V40.4065H-28.5253L4.30638 7.29814L18.1018 20.9782ZM37.209 22.2198L56.6372 22.2198L37.209 22.2198ZM18.0273 23.4613L4.30842 37.2182L-28.9686 4.03304H18.0273V23.4613ZM22.5216 27.9433L8.84021 41.7373L8.82147 41.7187L8.80278 41.7001L22.5216 27.9433ZM22.5216 29.7062L8.72756 16.0248L8.78365 15.9683L8.84021 15.9122L22.5216 29.7062ZM21.1627 29.978L13.691 47.9121L21.1627 29.978ZM20.7586 29.7062L34.5142 15.9861L34.5335 16.0054L34.5527 16.0248L20.7586 29.7062ZM15.9539 24.8891L29.7003 11.1598L29.7095 11.169L15.9539 24.8891ZM2.1456 5.95792L6.95034 1.10352L34.5669 28.4376L29.7622 33.292L2.1456 5.95792ZM6.96458 1.08915C8.88612 -0.848218 11.1722 -2.38593 13.691 -3.43529L28.6343 32.4329C30.8505 31.5096 32.862 30.1566 34.5527 28.452L6.96458 1.08915ZM13.691 -3.43529C16.2098 -4.48466 18.9114 -5.02494 21.6401 -5.02494V33.8316C24.041 33.8316 26.4181 33.3562 28.6343 32.4329L13.691 -3.43529ZM21.6401 -5.02494C24.3688 -5.02494 27.0704 -4.48468 29.5893 -3.43529L14.6459 32.4329C16.8622 33.3562 19.2393 33.8316 21.6401 33.8316V-5.02494ZM29.5893 -3.43529C32.108 -2.38593 34.3941 -0.848218 36.3157 1.08915L8.72756 28.452C10.4183 30.1566 12.4297 31.5096 14.6459 32.4329L29.5893 -3.43529ZM36.3003 1.07364C40.1501 4.94638 42.3109 10.1852 42.3109 15.6458H3.45439C3.45439 20.4505 5.35566 25.06 8.74296 28.4675L36.3003 1.07364ZM42.3109 15.6458C42.3109 21.1065 40.1501 26.3453 36.3003 30.2181L8.74296 2.8242C5.35566 6.23171 3.45439 10.8412 3.45439 15.6458H42.3109ZM36.317 30.2012L31.8971 34.6583L4.30638 7.29814L8.72625 2.84103L36.317 30.2012ZM18.1018 1.54997H35.9674V40.4065H18.1018V1.54997ZM35.9674 1.54997C41.4494 1.54997 46.7069 3.72768 50.5832 7.60402L23.1075 35.0797C26.5182 38.4904 31.144 40.4065 35.9674 40.4065V1.54997ZM50.5832 7.60402C54.4595 11.4804 56.6372 16.7378 56.6372 22.2198L17.7807 22.2198C17.7807 27.0432 19.6968 31.6691 23.1075 35.0797L50.5832 7.60402ZM56.6372 22.2198C56.6372 27.7017 54.4595 32.9592 50.5832 36.8355L23.1075 9.35981C19.6968 12.7705 17.7807 17.3964 17.7807 22.2198L56.6372 22.2198ZM50.5832 36.8355C46.7069 40.7119 41.4494 42.8896 35.9674 42.8896V4.03304C31.144 4.03304 26.5182 5.94915 23.1075 9.35981L50.5832 36.8355ZM35.9674 42.8896H18.0273V4.03304H35.9674V42.8896ZM31.7461 9.70446L36.2405 14.1864L8.80278 41.7001L4.30842 37.2182L31.7461 9.70446ZM36.203 14.1492C38.1404 16.0707 39.6781 18.3568 40.7275 20.8756L4.85929 35.8189C5.78261 38.0352 7.13561 40.0466 8.84021 41.7373L36.203 14.1492ZM40.7275 20.8756C41.7769 23.3945 42.3171 26.0962 42.3171 28.8247H3.4606C3.4606 31.2255 3.93593 33.6026 4.85929 35.8189L40.7275 20.8756ZM42.3171 28.8247C42.3171 31.5533 41.7769 34.255 40.7275 36.7739L4.85929 21.8305C3.93593 24.0469 3.4606 26.424 3.4606 28.8247H42.3171ZM40.7275 36.7739C39.6781 39.2926 38.1404 41.5787 36.203 43.5003L8.84021 15.9122C7.13555 17.6029 5.78258 19.6144 4.85929 21.8305L40.7275 36.7739ZM36.3157 43.3876C34.3941 45.325 32.108 46.8627 29.5893 47.9121L14.6459 12.0439C12.4298 12.9672 10.4183 14.3202 8.72756 16.0248L36.3157 43.3876ZM29.5893 47.9121C27.0703 48.9615 24.3687 49.5017 21.6401 49.5017V10.6452C19.2394 10.6452 16.8623 11.1205 14.6459 12.0439L29.5893 47.9121ZM21.6401 49.5017C18.9115 49.5017 16.2099 48.9615 13.691 47.9121L28.6343 12.0439C26.4181 11.1206 24.041 10.6452 21.6401 10.6452V49.5017ZM13.691 47.9121C11.1723 46.8627 8.88615 45.325 6.96458 43.3876L34.5527 16.0248C32.862 14.3202 30.8505 12.9672 28.6343 12.0439L13.691 47.9121ZM7.00307 43.4264L2.19833 38.6092L29.7095 11.169L34.5142 15.9861L7.00307 43.4264ZM2.2075 38.6184C-2.12828 34.2772 -4.56363 28.3925 -4.56363 22.257H34.2929C34.2929 18.0955 32.6411 14.1042 29.7003 11.1598L2.2075 38.6184ZM-4.56363 22.257C-4.56363 16.1215 -2.12828 10.2368 2.2075 5.89566L29.7003 33.3543C32.6411 30.4098 34.2929 26.4185 34.2929 22.257H-4.56363Z" fill="#FF375E" mask="url(#path-1-inside-1_82_822)"/>
<mask id="path-3-inside-2_82_822" fill="white">
<path d="M22.1578 44.3974C16.2809 44.3974 10.6448 42.0628 6.48923 37.9073C2.33367 33.7517 -0.000893865 28.1156 -0.000893608 22.2387C-0.000893351 16.3619 2.33367 10.7257 6.48922 6.5702C10.6448 2.41464 16.2809 0.0800778 22.1578 0.0800772L22.1578 2.00742C16.7921 2.00742 11.6462 4.13893 7.85206 7.93303C4.05795 11.7271 1.92645 16.8731 1.92645 22.2387C1.92645 27.6044 4.05796 32.7503 7.85206 36.5444C11.6462 40.3385 16.7921 42.47 22.1578 42.47L22.1578 44.3974Z"/>
</mask>
<path d="M22.1578 44.3974C16.2809 44.3974 10.6448 42.0628 6.48923 37.9073C2.33367 33.7517 -0.000893865 28.1156 -0.000893608 22.2387C-0.000893351 16.3619 2.33367 10.7257 6.48922 6.5702C10.6448 2.41464 16.2809 0.0800778 22.1578 0.0800772L22.1578 2.00742C16.7921 2.00742 11.6462 4.13893 7.85206 7.93303C4.05795 11.7271 1.92645 16.8731 1.92645 22.2387C1.92645 27.6044 4.05796 32.7503 7.85206 36.5444C11.6462 40.3385 16.7921 42.47 22.1578 42.47L22.1578 44.3974Z" stroke="#FF375E" stroke-width="3.6428" mask="url(#path-3-inside-2_82_822)"/>
</svg>
