<svg width="44" height="45" viewBox="0 0 44 45" fill="none" xmlns="http://www.w3.org/2000/svg">
<path d="M28.4066 19.625L23.7102 14.7706C23.5974 14.6542 23.4632 14.5618 23.3153 14.4988C23.1675 14.4358 23.0089 14.4033 22.8487 14.4033C22.6885 14.4033 22.5298 14.4358 22.382 14.4988C22.2341 14.5618 22.0999 14.6542 21.9871 14.7706C21.761 15.0032 21.6342 15.3179 21.6342 15.6458C21.6342 15.9738 21.761 16.2885 21.9871 16.5211L26.3072 20.9782H8.84462C8.52278 20.9782 8.21411 21.109 7.98654 21.3419C7.75896 21.5747 7.6311 21.8905 7.6311 22.2198C7.6311 22.549 7.75896 22.8648 7.98654 23.0977C8.21411 23.3305 8.52278 23.4613 8.84462 23.4613H26.38L21.9871 27.9433C21.8733 28.0587 21.783 28.196 21.7214 28.3473C21.6598 28.4986 21.6281 28.6608 21.6281 28.8247C21.6281 28.9886 21.6598 29.1509 21.7214 29.3022C21.783 29.4535 21.8733 29.5908 21.9871 29.7062C22.0999 29.8226 22.2341 29.915 22.382 29.978C22.5298 30.041 22.6885 30.0735 22.8487 30.0735C23.0089 30.0735 23.1675 30.041 23.3153 29.978C23.4632 29.915 23.5974 29.8226 23.7102 29.7062L28.4066 24.8891C29.0883 24.1907 29.4713 23.244 29.4713 22.257C29.4713 21.27 29.0883 20.3233 28.4066 19.625Z" fill="#FF375E"/>
<mask id="path-2-inside-1_2_3198" fill="white">
<path d="M22.3415 44.3974C28.0857 44.3974 33.5947 42.0628 37.6565 37.9073C41.7183 33.7517 44.0002 28.1156 44.0002 22.2387C44.0002 16.3619 41.7183 10.7257 37.6565 6.5702C33.5947 2.41464 28.0857 0.0800778 22.3415 0.0800772L22.3415 2.00742C27.5861 2.00742 32.6159 4.13893 36.3244 7.93303C40.0329 11.7271 42.1163 16.8731 42.1163 22.2387C42.1163 27.6044 40.0329 32.7503 36.3244 36.5444C32.6159 40.3385 27.5861 42.47 22.3415 42.47L22.3415 44.3974Z"/>
</mask>
<path d="M22.3415 44.3974C28.0857 44.3974 33.5947 42.0628 37.6565 37.9073C41.7183 33.7517 44.0002 28.1156 44.0002 22.2387C44.0002 16.3619 41.7183 10.7257 37.6565 6.5702C33.5947 2.41464 28.0857 0.0800778 22.3415 0.0800772L22.3415 2.00742C27.5861 2.00742 32.6159 4.13893 36.3244 7.93303C40.0329 11.7271 42.1163 16.8731 42.1163 22.2387C42.1163 27.6044 40.0329 32.7503 36.3244 36.5444C32.6159 40.3385 27.5861 42.47 22.3415 42.47L22.3415 44.3974Z" stroke="#FF375E" stroke-width="3.6428" mask="url(#path-2-inside-1_2_3198)"/>
</svg>
