<svg width="45" height="45" viewBox="0 0 45 45" fill="none" xmlns="http://www.w3.org/2000/svg">
<path d="M15.9534 19.625L20.7582 14.7706C20.8736 14.6542 21.0109 14.5618 21.1622 14.4988C21.3135 14.4358 21.4757 14.4033 21.6396 14.4033C21.8035 14.4033 21.9658 14.4358 22.1171 14.4988C22.2684 14.5618 22.4057 14.6542 22.5211 14.7706C22.7524 15.0032 22.8822 15.3179 22.8822 15.6458C22.8822 15.9738 22.7524 16.2885 22.5211 16.5211L18.1013 20.9782H35.967C36.2962 20.9782 36.612 21.109 36.8449 21.3419C37.0777 21.5747 37.2085 21.8905 37.2085 22.2198C37.2085 22.549 37.0777 22.8648 36.8449 23.0977C36.612 23.3305 36.2962 23.4613 35.967 23.4613H18.0268L22.5211 27.9433C22.6375 28.0587 22.7299 28.196 22.7929 28.3473C22.8559 28.4986 22.8884 28.6608 22.8884 28.8247C22.8884 28.9886 22.8559 29.1509 22.7929 29.3022C22.7299 29.4535 22.6375 29.5908 22.5211 29.7062C22.4057 29.8226 22.2684 29.915 22.1171 29.978C21.9658 30.041 21.8035 30.0735 21.6396 30.0735C21.4757 30.0735 21.3135 30.041 21.1622 29.978C21.0109 29.915 20.8736 29.8226 20.7582 29.7062L15.9534 24.8891C15.2559 24.1907 14.8641 23.244 14.8641 22.257C14.8641 21.27 15.2559 20.3233 15.9534 19.625Z" fill="white"/>
<mask id="path-2-inside-1_2_3195" fill="white">
<path d="M22.1587 44.3974C16.2819 44.3974 10.6458 42.0628 6.4902 37.9073C2.33465 33.7517 8.26979e-05 28.1156 8.29548e-05 22.2387C8.32116e-05 16.3619 2.33465 10.7257 6.4902 6.5702C10.6458 2.41464 16.2819 0.0800778 22.1587 0.0800772L22.1587 2.00742C16.7931 2.00742 11.6471 4.13893 7.85303 7.93303C4.05893 11.7271 1.92742 16.8731 1.92742 22.2387C1.92742 27.6044 4.05893 32.7503 7.85304 36.5444C11.6471 40.3385 16.7931 42.47 22.1587 42.47L22.1587 44.3974Z"/>
</mask>
<path d="M22.1587 44.3974C16.2819 44.3974 10.6458 42.0628 6.4902 37.9073C2.33465 33.7517 8.26979e-05 28.1156 8.29548e-05 22.2387C8.32116e-05 16.3619 2.33465 10.7257 6.4902 6.5702C10.6458 2.41464 16.2819 0.0800778 22.1587 0.0800772L22.1587 2.00742C16.7931 2.00742 11.6471 4.13893 7.85303 7.93303C4.05893 11.7271 1.92742 16.8731 1.92742 22.2387C1.92742 27.6044 4.05893 32.7503 7.85304 36.5444C11.6471 40.3385 16.7931 42.47 22.1587 42.47L22.1587 44.3974Z" stroke="white" stroke-width="3.6428" mask="url(#path-2-inside-1_2_3195)"/>
</svg>
