<svg width="18" height="18" viewBox="0 0 18 18" fill="none" xmlns="http://www.w3.org/2000/svg">
<path d="M13.9375 3.43319C13.7822 2.76592 13.3598 2.19162 12.7691 1.84454C12.1784 1.49746 11.471 1.40802 10.8125 1.59712L9.735 1.90521C9.46205 1.98366 9.21064 2.12345 9 2.31392C8.78936 2.12345 8.53795 1.98366 8.265 1.90521L7.1875 1.59712C6.52937 1.40901 5.82289 1.49894 5.2329 1.84593C4.6429 2.19293 4.22099 2.76663 4.06562 3.43319C2.58226 3.70304 1.50309 4.99344 1.5 6.501V10.8756C1.50207 12.6004 2.89997 13.9982 4.625 14.0003L8.375 14.0002V15.2501H6.5C6.15482 15.2501 5.875 15.5299 5.875 15.8751C5.875 16.2202 6.15482 16.5 6.5 16.5H11.5C11.8452 16.5 12.125 16.2202 12.125 15.8751C12.125 15.5299 11.8452 15.2501 11.5 15.2501H9.625V14.0002H13.375C15.1 13.9982 16.4979 12.6004 16.5 10.8756V6.501C16.4972 4.99442 15.4196 3.70437 13.9375 3.43319ZM9.625 3.70816C9.62512 3.42931 9.81 3.18428 10.0781 3.10759L11.1563 2.7995C11.5334 2.69162 11.9394 2.76707 12.2526 3.00326C12.5659 3.23945 12.75 3.60898 12.75 4.00125V6.46226C12.7482 7.01931 12.379 7.50837 11.8437 7.66276L9.625 8.29645V3.70816ZM5.75 3.00135C6.06263 2.76602 6.4677 2.69126 6.84375 2.7995L7.92188 3.10759C8.19 3.18428 8.37488 3.42931 8.375 3.70816L8.375 8.29645L6.15625 7.66276C5.62097 7.50837 5.25178 7.01931 5.25 6.46226V4.00125C5.24871 3.60754 5.43423 3.23655 5.75 3.00135ZM15.25 10.8756C15.25 11.911 14.4105 12.7504 13.375 12.7504H4.625C3.58947 12.7504 2.75 11.911 2.75 10.8756V6.501C2.75328 5.70934 3.25353 5.00506 4 4.74118L4 6.46226C4.00315 7.57691 4.74152 8.5558 5.8125 8.86514L7.96938 9.48195C8.64345 9.67408 9.3578 9.67408 10.0319 9.48195L12.1888 8.86514C13.2592 8.55534 13.997 7.57657 14 6.46226V4.74118C14.7465 5.00506 15.2467 5.70934 15.25 6.501V10.8756Z" fill="#929AA7"/>
</svg>
