<svg width="20" height="20" viewBox="0 0 20 20" fill="none" xmlns="http://www.w3.org/2000/svg">
<path d="M15.2667 4.06207C15.101 3.35031 14.6505 2.73773 14.0204 2.36751C13.3903 1.99729 12.6358 1.90188 11.9333 2.10359L10.784 2.43223C10.4929 2.5159 10.2247 2.66502 10 2.86818C9.77531 2.66502 9.50715 2.5159 9.216 2.43223L8.06667 2.10359C7.36467 1.90294 6.61108 1.99887 5.98176 2.36899C5.35243 2.73912 4.90239 3.35107 4.73667 4.06206C3.15441 4.34991 2.0033 5.72633 2 7.3344V12.0006C2.0022 13.8405 3.4933 15.3314 5.33333 15.3336L9.33333 15.3336V16.6668H7.33333C6.96514 16.6668 6.66667 16.9652 6.66667 17.3334C6.66667 17.7016 6.96514 18 7.33333 18H12.6667C13.0349 18 13.3333 17.7016 13.3333 17.3334C13.3333 16.9652 13.0349 16.6668 12.6667 16.6668H10.6667V15.3336H14.6667C16.5067 15.3314 17.9978 13.8405 18 12.0006V7.3344C17.997 5.72738 16.8476 4.35133 15.2667 4.06207ZM10.6667 4.35537C10.6668 4.05793 10.864 3.79656 11.15 3.71477L12.3 3.38613C12.7023 3.27107 13.1354 3.35154 13.4695 3.60348C13.8036 3.85541 14 4.24958 14 4.668V7.29307C13.9981 7.88726 13.6043 8.40892 13.0333 8.57361L10.6667 9.24954V4.35537ZM6.53333 3.60144C6.86681 3.35042 7.29888 3.27068 7.7 3.38613L8.85 3.71477C9.136 3.79656 9.3332 4.05793 9.33333 4.35537L9.33333 9.24954L6.96667 8.57361C6.3957 8.40892 6.0019 7.88726 6 7.29307V4.668C5.99863 4.24805 6.19651 3.85232 6.53333 3.60144ZM16.6667 12.0006C16.6667 13.1051 15.7712 14.0004 14.6667 14.0004H5.33333C4.22876 14.0004 3.33333 13.1051 3.33333 12.0006V7.3344C3.33683 6.48996 3.87043 5.73873 4.66667 5.45726L4.66667 7.29307C4.67002 8.48204 5.45762 9.52618 6.6 9.85615L8.90067 10.5141C9.61968 10.719 10.3817 10.719 11.1007 10.5141L13.4013 9.85615C14.5432 9.52569 15.3302 8.48167 15.3333 7.29307V5.45726C16.1296 5.73873 16.6632 6.48997 16.6667 7.3344V12.0006Z" fill="#929AA7"/>
</svg>
