<svg width="16" height="16" viewBox="0 0 16 16" fill="none" xmlns="http://www.w3.org/2000/svg">
<path d="M14.7137 2.86376V10.8822C14.7137 12.15 13.8617 13.2791 12.6418 13.6281L8.79853 14.7252C8.18256 14.9011 7.53116 14.9011 6.91518 14.7252L3.07191 13.6281C1.85196 13.2797 1 12.1506 1 10.8822V3.43487C1.00343 2.68786 2.13938 2.68843 2.14281 3.43487V10.8822C2.14281 11.6435 2.65422 12.3208 3.38619 12.5298L7.22945 13.6269C7.6403 13.744 8.07399 13.744 8.4854 13.6269L12.3281 12.5298C13.0601 12.3208 13.5715 11.6435 13.5715 10.8822V2.86376C13.5749 2.11674 14.7103 2.11732 14.7137 2.86376ZM3.28562 9.68112V3.43487C3.28562 2.71127 3.61703 2.0465 4.19472 1.61131C4.77241 1.17555 5.50267 1.03963 6.19921 1.23837L7.18546 1.51993C7.4403 1.59246 7.66829 1.72211 7.85743 1.89173C8.04656 1.72211 8.27455 1.59246 8.5294 1.51993L9.51507 1.23837C10.9213 0.79405 12.4698 1.96254 12.4287 3.43487V9.68112C12.4287 10.6954 11.747 11.5989 10.771 11.8776L8.7991 12.4407C8.18256 12.6166 7.53116 12.6166 6.91575 12.4407L4.94384 11.8776C3.96788 11.5989 3.28562 10.6954 3.28562 9.68112ZM8.42826 11.3579C8.44712 11.3528 10.4562 10.7794 10.4562 10.7794C10.9442 10.64 11.2853 10.1883 11.2853 9.68112V3.43487C11.2853 3.07336 11.1196 2.74097 10.831 2.52281C10.5407 2.3035 10.1733 2.23782 9.82878 2.33605L8.8431 2.61761C8.59911 2.68729 8.42826 2.91287 8.42826 3.16645V11.3579ZM4.42843 9.68112C4.42843 10.1883 4.76956 10.64 5.25754 10.7794C5.25754 10.7794 7.2666 11.3528 7.28545 11.3579V3.16702C7.28545 2.91345 7.11517 2.68786 6.87118 2.61818L5.88494 2.33662C5.54038 2.23782 5.1724 2.30407 4.8827 2.52338C4.59414 2.74097 4.42843 3.07336 4.42843 3.43544V9.68112Z" fill="#13BE95"/>
</svg>
