<svg width="76" height="76" viewBox="0 0 76 76" fill="none" xmlns="http://www.w3.org/2000/svg">
<g clip-path="url(#clip0_111_1257)">
<path fill-rule="evenodd" clip-rule="evenodd" d="M48.1646 66.7063H27.4805V64.4901H48.1646V66.7063Z" fill="black"/>
<path fill-rule="evenodd" clip-rule="evenodd" d="M48.4602 62.274H27.1851V60.0579H48.4602V62.274Z" fill="black"/>
<path fill-rule="evenodd" clip-rule="evenodd" d="M49.6419 57.8416H26.0029V55.6255H49.6419V57.8416Z" fill="black"/>
<path fill-rule="evenodd" clip-rule="evenodd" d="M32.2821 70.0305V71.508C32.2821 72.528 33.1089 73.3548 34.1289 73.3548H41.5161C42.5361 73.3548 43.3629 72.528 43.3629 71.508V70.0305H45.579V71.508C45.579 73.7519 43.76 75.5709 41.5161 75.5709H34.1289C31.8849 75.5709 30.0659 73.7519 30.0659 71.508V70.0305H32.2821Z" fill="black"/>
<path fill-rule="evenodd" clip-rule="evenodd" d="M17.9366 7.89917C23.1469 3.04509 30.1389 0.0738525 37.8225 0.0738525C45.506 0.0738525 52.498 3.04509 57.7083 7.89918L56.1977 9.52068C51.3813 5.03361 44.9235 2.29001 37.8225 2.29001C30.7214 2.29001 24.2636 5.03361 19.4473 9.52068L17.9366 7.89917ZM8.64307 29.2533C8.64307 21.5697 11.6143 14.5777 16.4684 9.36741L18.0899 10.8781C13.6028 15.6944 10.8592 22.1522 10.8592 29.2533C10.8592 33.6422 11.9071 37.7831 13.7652 41.4426L11.7892 42.4459C9.77681 38.4827 8.64307 33.9988 8.64307 29.2533ZM59.1765 9.36741C64.0306 14.5777 67.0019 21.5697 67.0019 29.2533C67.0019 33.9988 65.8681 38.4827 63.8557 42.4459L61.8797 41.4426C63.7379 37.7831 64.7857 33.6422 64.7857 29.2533C64.7857 22.1522 62.0421 15.6944 57.555 10.8781L59.1765 9.36741ZM21.63 53.5305C17.8303 50.9914 14.6603 47.5841 12.4033 43.5914L14.3326 42.5008C16.4183 46.1906 19.3488 49.3407 22.8613 51.6879C24.5719 52.831 25.9542 54.3471 26.9318 56.0876L24.9996 57.1729C24.1898 55.7311 23.0455 54.4764 21.63 53.5305ZM63.2416 43.5914C60.9846 47.5841 57.8146 50.9914 54.0149 53.5305C52.5994 54.4764 51.2315 56.1507 50.4216 57.5926L48.4431 56.5942C49.4207 54.8537 51.073 52.8309 52.7836 51.6879C56.2961 49.3407 59.2266 46.1906 61.3123 42.5008L63.2416 43.5914ZM50.4216 57.5926C49.6768 59.0687 49.2726 60.7196 49.2726 62.4232V64.8549H47.0565V62.4232C47.0565 60.3681 47.5441 58.3758 48.4431 56.5942L50.4216 57.5926ZM26.3723 62.4232C26.3723 60.7196 25.7445 58.6491 24.9996 57.1729L26.9318 56.0876C27.8309 57.8692 28.5885 60.3682 28.5885 62.4232V64.644H26.3723V62.4232ZM26.3723 67.0757V64.644H28.5885V67.0757C28.5885 67.5626 28.7754 68.0034 29.0836 68.3341L27.462 69.8447C26.7869 69.12 26.3723 68.145 26.3723 67.0757ZM49.2726 64.8549V67.0757C49.2726 68.145 48.6539 69.3242 47.9787 70.0489L46.4681 68.4274C46.7762 68.0967 47.0565 67.5626 47.0565 67.0757V64.8549H49.2726ZM30.4353 71.1386C29.3659 71.1386 28.1867 70.5199 27.462 69.8447L29.0836 68.3341C29.4143 68.6422 29.9483 68.9225 30.4353 68.9225H37.4877V71.1386H30.4353ZM47.9787 70.0489C47.254 70.724 46.279 71.1386 45.2097 71.1386H37.4877V68.9225H45.2097C45.6966 68.9225 46.1374 68.7355 46.4681 68.4274L47.9787 70.0489Z" fill="black"/>
<path fill-rule="evenodd" clip-rule="evenodd" d="M5.61426 30.8045H0V28.5884H5.61426V30.8045Z" fill="black"/>
<path fill-rule="evenodd" clip-rule="evenodd" d="M75.645 30.8045H70.0308V28.5884H75.645V30.8045Z" fill="black"/>
<path fill-rule="evenodd" clip-rule="evenodd" d="M7.93548 41.7535L2.65984 43.6737L1.90186 41.5912L7.17749 39.671L7.93548 41.7535Z" fill="black"/>
<path fill-rule="evenodd" clip-rule="evenodd" d="M73.7426 17.8017L68.467 19.722L67.709 17.6395L72.9846 15.7192L73.7426 17.8017Z" fill="black"/>
<path fill-rule="evenodd" clip-rule="evenodd" d="M13.8619 51.2483L9.56126 54.8571L8.13672 53.1594L12.4374 49.5507L13.8619 51.2483Z" fill="black"/>
<path fill-rule="evenodd" clip-rule="evenodd" d="M67.5084 6.23342L63.2077 9.84221L61.7832 8.14456L66.0839 4.53577L67.5084 6.23342Z" fill="black"/>
<path fill-rule="evenodd" clip-rule="evenodd" d="M68.467 39.671L73.7426 41.5912L72.9846 43.6737L67.709 41.7535L68.467 39.671Z" fill="black"/>
<path fill-rule="evenodd" clip-rule="evenodd" d="M2.65984 15.7192L7.93548 17.6395L7.17749 19.722L1.90186 17.8017L2.65984 15.7192Z" fill="black"/>
<path fill-rule="evenodd" clip-rule="evenodd" d="M63.2077 49.5507L67.5084 53.1594L66.0839 54.8571L61.7832 51.2483L63.2077 49.5507Z" fill="black"/>
<path fill-rule="evenodd" clip-rule="evenodd" d="M9.56126 4.53577L13.8619 8.14456L12.4374 9.84221L8.13672 6.23342L9.56126 4.53577Z" fill="black"/>
<path fill-rule="evenodd" clip-rule="evenodd" d="M28.0758 13.7133C29.1679 11.4999 31.4466 9.97266 34.0897 9.97266C35.4741 9.97266 36.7571 10.3951 37.8222 11.1109C38.8873 10.395 40.1703 9.97266 41.5546 9.97266C44.1978 9.97266 46.4766 11.4999 47.5687 13.7133C50.0454 13.9235 51.9939 15.996 51.9939 18.527C51.9939 18.5757 51.993 18.6239 51.9913 18.6716C54.6954 19.5317 56.6595 22.0524 56.6595 25.0425C56.6595 26.9765 55.8352 28.712 54.5261 29.93C55.2719 30.8912 55.7264 32.0957 55.7264 33.4196C55.7264 35.2735 54.843 36.9007 53.4941 37.9464C53.7266 38.5607 53.8602 39.2289 53.8602 39.9351C53.8602 42.7757 51.8008 45.1037 49.1104 45.5851C47.7946 47.8725 45.3264 49.4202 42.4878 49.4202C40.73 49.4202 39.1117 48.8256 37.8222 47.8305C36.5327 48.8256 34.9144 49.4202 33.1566 49.4202C30.318 49.4202 27.8498 47.8725 26.534 45.5851C23.8436 45.1037 21.7842 42.7757 21.7842 39.9351C21.7842 39.2289 21.9179 38.5606 22.1503 37.9464C20.8014 36.9008 19.918 35.2735 19.918 33.4196C19.918 32.0957 20.3726 30.8912 21.1183 29.93C19.8092 28.712 18.9849 26.9765 18.9849 25.0425C18.9849 22.0523 20.949 19.5316 23.6531 18.6716C23.6514 18.6239 23.6505 18.5757 23.6505 18.527C23.6505 15.996 25.5989 13.9235 28.0758 13.7133ZM34.0897 12.1888C32.1279 12.1888 30.4617 13.4464 29.8513 15.1997L29.5685 16.0117L28.7118 15.9395C28.6619 15.9353 28.6174 15.9299 28.584 15.9256C28.5674 15.9234 28.5515 15.9213 28.539 15.9196L28.5386 15.9195C28.525 15.9177 28.5151 15.9163 28.5056 15.9151C28.4926 15.9134 28.4844 15.9125 28.4799 15.912C27.0329 15.918 25.8666 17.089 25.8666 18.527C25.8666 18.739 25.9048 18.962 25.9769 19.2216L26.316 20.4407L25.0628 20.6159C22.8776 20.9215 21.201 22.7882 21.201 25.0425C21.201 26.6568 22.0616 28.0713 23.359 28.8612L24.7086 29.6829L23.4764 30.6719C22.6545 31.3315 22.1342 32.315 22.1342 33.4196C22.1342 34.7827 22.9188 35.9638 24.0793 36.5582L25.1374 37.1003L24.5224 38.1177C24.1922 38.6639 24.0003 39.2797 24.0003 39.9351C24.0003 41.8013 25.4594 43.3276 27.3207 43.4521L27.9716 43.4957L28.2494 44.086C29.1166 45.9294 30.9864 47.2041 33.1566 47.2041C34.6751 47.2041 36.0449 46.5813 37.0314 45.5762L37.8222 44.7704L38.613 45.5762C39.5995 46.5813 40.9693 47.2041 42.4878 47.2041C44.658 47.2041 46.5278 45.9294 47.395 44.086L47.6728 43.4957L48.3237 43.4521C50.185 43.3276 51.6441 41.8013 51.6441 39.9351C51.6441 39.2796 51.4523 38.6638 51.1221 38.1178L50.5069 37.1003L51.5651 36.5582C52.7256 35.9638 53.5102 34.7827 53.5102 33.4196C53.5102 32.3149 52.9898 31.3313 52.1681 30.6719L50.9357 29.683L52.2854 28.8612C53.5828 28.0713 54.4434 26.6568 54.4434 25.0425C54.4434 22.7884 52.7668 20.9216 50.5815 20.6159L49.3284 20.4406L49.6674 19.2216C49.7396 18.9621 49.7778 18.739 49.7778 18.527C49.7778 17.089 48.6114 15.918 47.1645 15.912C47.16 15.9125 47.1518 15.9134 47.1388 15.9151C47.1293 15.9163 47.1194 15.9177 47.1058 15.9195C47.0932 15.9212 47.0771 15.9234 47.0604 15.9256C47.027 15.9299 46.9825 15.9353 46.9326 15.9395L46.0758 16.0117L45.7931 15.1996C45.1828 13.4465 43.5166 12.1888 41.5546 12.1888C40.4047 12.1888 39.3591 12.623 38.561 13.337L37.8223 13.9979L37.0835 13.3371C36.2852 12.6231 35.2396 12.1888 34.0897 12.1888Z" fill="black"/>
<path fill-rule="evenodd" clip-rule="evenodd" d="M36.7144 46.3524V12.5112H38.9305V46.3524H36.7144Z" fill="black"/>
<path fill-rule="evenodd" clip-rule="evenodd" d="M25.0797 20.6135C25.0803 20.6134 25.0809 20.6133 24.9097 19.5186C24.7386 18.4238 24.7392 18.4237 24.7398 18.4236L24.7411 18.4234L24.744 18.423L24.7504 18.422C24.7551 18.4213 24.7606 18.4205 24.7668 18.4197C24.7791 18.418 24.7944 18.416 24.8125 18.4138C24.8486 18.4095 24.8961 18.4046 24.9538 18.4001C25.069 18.3912 25.2261 18.3839 25.4165 18.3873C25.7958 18.3941 26.3169 18.4431 26.9054 18.611C28.1059 18.9535 29.5379 19.7797 30.5848 21.6118L28.6607 22.7113C27.9347 21.4408 27.0102 20.9455 26.2974 20.7421C25.9293 20.6371 25.6045 20.6072 25.3771 20.6031C25.2642 20.6011 25.1778 20.6056 25.1253 20.6096C25.0991 20.6117 25.0817 20.6136 25.0739 20.6145C25.0708 20.6149 25.0693 20.6151 25.0693 20.6151C25.0693 20.6151 25.0694 20.6151 25.0697 20.615L25.0733 20.6145L25.0766 20.614L25.0786 20.6137L25.0797 20.6135Z" fill="black"/>
<path fill-rule="evenodd" clip-rule="evenodd" d="M50.9051 18.4236C50.9057 18.4237 50.9063 18.4238 50.7352 19.5186C50.564 20.6133 50.5646 20.6134 50.5652 20.6135L50.5663 20.6137L50.5683 20.614L50.5716 20.6145L50.5752 20.615L50.5756 20.6151C50.5756 20.6151 50.5741 20.6149 50.571 20.6145C50.5632 20.6136 50.5458 20.6117 50.5196 20.6096C50.4671 20.6056 50.3807 20.6011 50.2678 20.6031C50.0404 20.6072 49.7156 20.6371 49.3475 20.7421C48.6347 20.9455 47.7102 21.4408 46.9842 22.7113L45.0601 21.6118C46.107 19.7797 47.539 18.9535 48.7395 18.611C49.328 18.4431 49.8491 18.3941 50.2284 18.3873C50.4188 18.3839 50.5759 18.3912 50.6911 18.4001C50.7488 18.4046 50.7963 18.4095 50.8324 18.4138C50.8505 18.416 50.8658 18.418 50.8781 18.4197C50.8843 18.4205 50.8898 18.4213 50.8945 18.422L50.9009 18.423L50.9038 18.4234L50.9051 18.4236Z" fill="black"/>
<path fill-rule="evenodd" clip-rule="evenodd" d="M27.1925 45.6644C27.1919 45.6644 27.1913 45.6644 27.2469 44.5577C27.3026 43.451 27.302 43.451 27.3014 43.451L27.3003 43.4509L27.2985 43.4508L27.2958 43.4507C27.2948 43.4507 27.2943 43.4506 27.2943 43.4506L27.2945 43.4507C27.2955 43.4507 27.3 43.4508 27.3077 43.4509C27.3233 43.4511 27.3517 43.4512 27.391 43.45C27.4701 43.4476 27.59 43.4403 27.7355 43.4201C28.0332 43.3786 28.4002 43.2882 28.7398 43.105C29.0685 42.9277 29.3674 42.6671 29.575 42.2635C29.7846 41.856 29.9445 41.2181 29.8492 40.2174L32.0554 40.0073C32.1817 41.3336 31.9893 42.4149 31.5457 43.2772C31.1001 44.1434 30.445 44.7032 29.7919 45.0555C29.1497 45.4019 28.5072 45.5502 28.0409 45.6151C27.8044 45.648 27.6037 45.6608 27.4576 45.6651C27.3843 45.6674 27.324 45.6675 27.2791 45.6669C27.2565 45.6666 27.2378 45.6661 27.2231 45.6657C27.2157 45.6654 27.2094 45.6652 27.2041 45.665L27.1969 45.6646L27.1939 45.6645L27.1925 45.6644Z" fill="black"/>
<path fill-rule="evenodd" clip-rule="evenodd" d="M23.4062 30.7238C23.4068 30.7235 23.4073 30.7231 22.7829 29.8077C22.1585 28.8923 22.1591 28.8919 22.1597 28.8915L22.161 28.8906L22.1638 28.8887L22.1705 28.8843C22.1754 28.881 22.1813 28.8771 22.1881 28.8726C22.2018 28.8637 22.2193 28.8525 22.2404 28.8394C22.2825 28.8131 22.3395 28.7791 22.4099 28.7398C22.5505 28.6617 22.7475 28.5616 22.9911 28.4626C23.4735 28.2664 24.1681 28.0623 24.9838 28.0623C25.8126 28.0622 26.7456 28.2738 27.6681 28.8824C28.5833 29.4861 29.4307 30.442 30.1618 31.8433L28.1969 32.8684C27.5983 31.7211 26.9813 31.0842 26.4478 30.7323C25.9217 30.3852 25.4218 30.2784 24.984 30.2784C24.5329 30.2785 24.1271 30.393 23.8257 30.5155C23.6774 30.5758 23.5617 30.6351 23.4874 30.6764C23.4506 30.6969 23.4246 30.7127 23.4107 30.7213C23.4038 30.7256 23.3999 30.7281 23.3993 30.7285C23.399 30.7287 23.3995 30.7284 23.4008 30.7275L23.4034 30.7257L23.4052 30.7245L23.4062 30.7238Z" fill="black"/>
<path fill-rule="evenodd" clip-rule="evenodd" d="M48.3434 43.451C48.3428 43.451 48.3422 43.451 48.3979 44.5577C48.4535 45.6644 48.4529 45.6644 48.4522 45.6644L48.4509 45.6645L48.4479 45.6646L48.4407 45.665C48.4354 45.6652 48.429 45.6654 48.4217 45.6657C48.407 45.6661 48.3882 45.6666 48.3657 45.6669C48.3207 45.6675 48.2604 45.6674 48.1871 45.6651C48.0411 45.6608 47.8403 45.648 47.6038 45.6151C47.1376 45.5502 46.4951 45.4019 45.8529 45.0555C45.1998 44.7032 44.5446 44.1434 44.0991 43.2772C43.6555 42.4149 43.463 41.3336 43.5894 40.0073L45.7955 40.2174C45.7002 41.2181 45.8601 41.856 46.0698 42.2635C46.2774 42.6671 46.5763 42.9277 46.905 43.105C47.2445 43.2882 47.6115 43.3786 47.9093 43.4201C48.0548 43.4403 48.1747 43.4476 48.2538 43.45C48.293 43.4512 48.3215 43.4511 48.337 43.4509C48.3448 43.4508 48.3493 43.4507 48.3503 43.4507C48.3507 43.4506 48.3503 43.4506 48.349 43.4507L48.3463 43.4508L48.3444 43.4509L48.3434 43.451Z" fill="black"/>
<path fill-rule="evenodd" clip-rule="evenodd" d="M53.485 28.8915C53.4856 28.8919 53.4861 28.8923 52.8617 29.8077C52.2373 30.7231 52.2379 30.7235 52.2384 30.7238L52.2394 30.7245L52.2412 30.7257L52.2438 30.7275C52.2452 30.7284 52.2457 30.7287 52.2453 30.7285C52.2447 30.7281 52.2409 30.7256 52.234 30.7213C52.2201 30.7127 52.1941 30.6969 52.1572 30.6764C52.083 30.6351 51.9673 30.5758 51.819 30.5155C51.5176 30.393 51.1117 30.2785 50.6607 30.2784C50.2229 30.2784 49.723 30.3852 49.1969 30.7323C48.6633 31.0842 48.0463 31.7211 47.4477 32.8684L45.4829 31.8433C46.214 30.442 47.0614 29.4861 47.9765 28.8824C48.899 28.2738 49.832 28.0622 50.6609 28.0623C51.4765 28.0623 52.1712 28.2664 52.6536 28.4626C52.8972 28.5616 53.0942 28.6617 53.2347 28.7398C53.3052 28.7791 53.3621 28.8131 53.4043 28.8394C53.4254 28.8525 53.4429 28.8637 53.4565 28.8726C53.4634 28.8771 53.4693 28.881 53.4742 28.8843L53.4809 28.8887L53.4837 28.8906L53.485 28.8915Z" fill="black"/>
<path fill-rule="evenodd" clip-rule="evenodd" d="M62.5697 30.8784V33.0946H60.3535V30.8784H62.5697Z" fill="black"/>
<path fill-rule="evenodd" clip-rule="evenodd" d="M62.5697 26.2983V28.5145H60.3535V26.2983H62.5697Z" fill="black"/>
</g>
<defs>
<clipPath id="clip0_111_1257">
<rect width="75.6448" height="75.6448" fill="white"/>
</clipPath>
</defs>
</svg>
