<svg width="76" height="76" viewBox="0 0 76 76" fill="none" xmlns="http://www.w3.org/2000/svg">
<g clip-path="url(#clip0_198_925)">
<path fill-rule="evenodd" clip-rule="evenodd" d="M48.2539 66.6377H27.7461V64.4404H48.2539V66.6377Z" fill="#264871"/>
<path fill-rule="evenodd" clip-rule="evenodd" d="M48.5469 62.2432H27.4531V60.0459H48.5469V62.2432Z" fill="#264871"/>
<path fill-rule="evenodd" clip-rule="evenodd" d="M49.7188 57.8486H26.2812V55.6514H49.7188V57.8486Z" fill="#264871"/>
<path fill-rule="evenodd" clip-rule="evenodd" d="M32.5068 69.9336V71.3984C32.5068 72.4097 33.3266 73.2295 34.3379 73.2295H41.6621C42.6734 73.2295 43.4932 72.4097 43.4932 71.3984V69.9336H45.6904V71.3984C45.6904 73.6233 43.8869 75.4268 41.6621 75.4268H34.3379C32.1131 75.4268 30.3096 73.6233 30.3096 71.3984V69.9336H32.5068Z" fill="#264871"/>
<path fill-rule="evenodd" clip-rule="evenodd" d="M18.2837 8.33186C23.4495 3.51915 30.382 0.573242 38 0.573242C45.618 0.573242 52.5505 3.51915 57.7163 8.33186L56.2185 9.93954C51.4433 5.49072 45.0405 2.77051 38 2.77051C30.9595 2.77051 24.5567 5.49072 19.7815 9.93954L18.2837 8.33186ZM9.06934 29.5039C9.06934 21.8859 12.0152 14.9534 16.828 9.78758L18.4356 11.2854C13.9868 16.0606 11.2666 22.4634 11.2666 29.5039C11.2666 33.8554 12.3055 37.961 14.1478 41.5893L12.1886 42.5841C10.1934 38.6547 9.06934 34.209 9.06934 29.5039ZM59.172 9.78758C63.9848 14.9534 66.9307 21.8859 66.9307 29.5039C66.9307 34.209 65.8066 38.6547 63.8114 42.5841L61.8522 41.5893C63.6945 37.961 64.7334 33.8554 64.7334 29.5039C64.7334 22.4634 62.0132 16.0606 57.5644 11.2854L59.172 9.78758ZM21.9456 53.5742C18.1783 51.0567 15.0353 47.6785 12.7976 43.7198L14.7104 42.6385C16.7783 46.2968 19.6839 49.4201 23.1664 51.7473C24.8623 52.8806 26.2329 54.3839 27.2022 56.1095L25.2865 57.1856C24.4835 55.756 23.349 54.512 21.9456 53.5742ZM63.2024 43.7198C60.9647 47.6785 57.8217 51.0567 54.0544 53.5742C52.651 54.512 51.2947 56.1721 50.4918 57.6017L48.5301 56.6118C49.4994 54.8861 51.1376 52.8806 52.8336 51.7473C56.3161 49.4201 59.2217 46.2968 61.2896 42.6385L63.2024 43.7198ZM50.4918 57.6017C49.7532 59.0652 49.3525 60.702 49.3525 62.3911V64.802H47.1553V62.3911C47.1553 60.3536 47.6388 58.3782 48.5301 56.6118L50.4918 57.6017ZM26.6475 62.3911C26.6475 60.7021 26.025 58.6491 25.2865 57.1856L27.2022 56.1095C28.0936 57.8759 28.8447 60.3536 28.8447 62.3911V64.593H26.6475V62.3911ZM26.6475 67.0039V64.593H28.8447V67.0039C28.8447 67.4867 29.0301 67.9237 29.3356 68.2516L27.7279 69.7494C27.0585 69.0309 26.6475 68.0642 26.6475 67.0039ZM49.3525 64.802V67.0039C49.3525 68.0642 48.7391 69.2333 48.0697 69.9518L46.5719 68.3441C46.8774 68.0162 47.1553 67.4867 47.1553 67.0039V64.802H49.3525ZM30.6758 71.0322C29.6155 71.0322 28.4464 70.4188 27.7279 69.7494L29.3356 68.2516C29.6635 68.5571 30.193 68.835 30.6758 68.835H37.6681V71.0322H30.6758ZM48.0697 69.9518C47.3512 70.6212 46.3845 71.0322 45.3242 71.0322H37.6681V68.835H45.3242C45.807 68.835 46.244 68.6496 46.5719 68.3441L48.0697 69.9518Z" fill="#264871"/>
<path fill-rule="evenodd" clip-rule="evenodd" d="M6.06641 31.042H0.5V28.8447H6.06641V31.042Z" fill="#264871"/>
<path fill-rule="evenodd" clip-rule="evenodd" d="M75.5 31.042H69.9336V28.8447H75.5V31.042Z" fill="#264871"/>
<path fill-rule="evenodd" clip-rule="evenodd" d="M8.36793 41.8978L3.13727 43.8016L2.38574 41.7369L7.61641 39.833L8.36793 41.8978Z" fill="#264871"/>
<path fill-rule="evenodd" clip-rule="evenodd" d="M73.614 18.1497L68.3834 20.0536L67.6318 17.9888L72.8625 16.085L73.614 18.1497Z" fill="#264871"/>
<path fill-rule="evenodd" clip-rule="evenodd" d="M14.2438 51.3111L9.97978 54.8891L8.56738 53.206L12.8314 49.6279L14.2438 51.3111Z" fill="#264871"/>
<path fill-rule="evenodd" clip-rule="evenodd" d="M67.4332 6.68026L63.1692 10.2583L61.7568 8.5751L66.0209 4.99707L67.4332 6.68026Z" fill="#264871"/>
<path fill-rule="evenodd" clip-rule="evenodd" d="M68.3834 39.833L73.614 41.7369L72.8625 43.8016L67.6318 41.8978L68.3834 39.833Z" fill="#264871"/>
<path fill-rule="evenodd" clip-rule="evenodd" d="M3.13727 16.085L8.36793 17.9888L7.61641 20.0536L2.38574 18.1497L3.13727 16.085Z" fill="#264871"/>
<path fill-rule="evenodd" clip-rule="evenodd" d="M63.1692 49.6279L67.4332 53.206L66.0209 54.8891L61.7568 51.3111L63.1692 49.6279Z" fill="#264871"/>
<path fill-rule="evenodd" clip-rule="evenodd" d="M9.97978 4.99707L14.2438 8.5751L12.8314 10.2583L8.56738 6.68025L9.97978 4.99707Z" fill="#264871"/>
<path fill-rule="evenodd" clip-rule="evenodd" d="M28.3367 14.0965C29.4194 11.9019 31.6787 10.3877 34.2994 10.3877C35.6719 10.3877 36.944 10.8065 38 11.5163C39.056 10.8064 40.3281 10.3877 41.7006 10.3877C44.3212 10.3877 46.5807 11.9019 47.6634 14.0965C50.119 14.3049 52.0509 16.3597 52.0509 18.8691C52.0509 18.9174 52.05 18.9652 52.0483 19.0125C54.7293 19.8653 56.6768 22.3645 56.6768 25.3291C56.6768 27.2466 55.8594 28.9673 54.5615 30.1749C55.3009 31.1279 55.7516 32.3222 55.7516 33.6348C55.7516 35.4729 54.8757 37.0862 53.5383 38.123C53.7688 38.732 53.9013 39.3946 53.9013 40.0947C53.9013 42.9111 51.8595 45.2192 49.192 45.6966C47.8874 47.9645 45.4402 49.499 42.6258 49.499C40.883 49.499 39.2785 48.9094 38 47.9229C36.7215 48.9094 35.117 49.499 33.3742 49.499C30.5598 49.499 28.1126 47.9645 26.808 45.6966C24.1405 45.2192 22.0987 42.9111 22.0987 40.0947C22.0987 39.3945 22.2312 38.732 22.4617 38.123C21.1243 37.0863 20.2484 35.4729 20.2484 33.6348C20.2484 32.3221 20.6991 31.1279 21.4385 30.1749C20.1406 28.9673 19.3232 27.2466 19.3232 25.3291C19.3232 22.3644 21.2706 19.8651 23.9517 19.0125C23.95 18.9652 23.9491 18.9174 23.9491 18.8691C23.9491 16.3597 25.8809 14.3048 28.3367 14.0965ZM34.2994 12.585C32.3542 12.585 30.7022 13.8319 30.097 15.5702L29.8167 16.3753L28.9672 16.3037C28.9178 16.2995 28.8737 16.2942 28.8405 16.2899C28.8241 16.2877 28.8084 16.2856 28.7959 16.2839L28.7956 16.2839C28.7821 16.282 28.7722 16.2807 28.7628 16.2795C28.7499 16.2778 28.7418 16.2769 28.7373 16.2764C27.3027 16.2823 26.1463 17.4434 26.1463 18.8691C26.1463 19.0793 26.1841 19.3005 26.2557 19.5578L26.5919 20.7665L25.3494 20.9402C23.1828 21.2432 21.5205 23.094 21.5205 25.3291C21.5205 26.9296 22.3737 28.3321 23.6601 29.1153L24.9981 29.9299L23.7764 30.9105C22.9616 31.5645 22.4457 32.5396 22.4457 33.6348C22.4457 34.9863 23.2236 36.1573 24.3742 36.7467L25.4233 37.2841L24.8135 38.2928C24.4862 38.8343 24.2959 39.4449 24.2959 40.0947C24.2959 41.9451 25.7426 43.4583 27.588 43.5817L28.2334 43.6249L28.5088 44.2102C29.3686 46.038 31.2225 47.3018 33.3742 47.3018C34.8797 47.3018 36.2379 46.6843 37.2159 45.6877L38 44.8888L38.7841 45.6877C39.7621 46.6843 41.1203 47.3018 42.6258 47.3018C44.7775 47.3018 46.6314 46.038 47.4912 44.2102L47.7666 43.6249L48.412 43.5817C50.2574 43.4583 51.7041 41.9451 51.7041 40.0947C51.7041 39.4448 51.5139 38.8343 51.1865 38.2929L50.5765 37.2841L51.6258 36.7467C52.7764 36.1573 53.5543 34.9863 53.5543 33.6348C53.5543 32.5395 53.0383 31.5643 52.2236 30.9105L51.0017 29.93L52.3399 29.1153C53.6263 28.3321 54.4795 26.9296 54.4795 25.3291C54.4795 23.0942 52.8172 21.2433 50.6505 20.9402L49.4081 20.7664L49.7443 19.5578C49.8159 19.3005 49.8537 19.0793 49.8537 18.8691C49.8537 17.4434 48.6972 16.2823 47.2627 16.2764C47.2582 16.2769 47.2501 16.2778 47.2372 16.2795C47.2278 16.2807 47.2179 16.282 47.2044 16.2839C47.192 16.2855 47.176 16.2877 47.1595 16.2899C47.1263 16.2942 47.0822 16.2995 47.0328 16.3037L46.1832 16.3753L45.903 15.5701C45.2979 13.8319 43.6458 12.585 41.7006 12.585C40.5605 12.585 39.5238 13.0155 38.7325 13.7234L38.0001 14.3786L37.2676 13.7235C36.4762 13.0156 35.4394 12.585 34.2994 12.585Z" fill="#264871"/>
<path fill-rule="evenodd" clip-rule="evenodd" d="M36.9014 46.457V12.9043H39.0986V46.457H36.9014Z" fill="#264871"/>
<path fill-rule="evenodd" clip-rule="evenodd" d="M25.3654 20.9376C25.366 20.9375 25.3665 20.9374 25.1969 19.8519C25.0272 18.7665 25.0278 18.7664 25.0284 18.7663L25.0297 18.7661L25.0325 18.7657L25.0389 18.7647C25.0436 18.764 25.049 18.7632 25.0551 18.7624C25.0674 18.7607 25.0825 18.7587 25.1005 18.7566C25.1363 18.7523 25.1833 18.7475 25.2405 18.743C25.3548 18.7342 25.5106 18.727 25.6993 18.7303C26.0754 18.737 26.592 18.7857 27.1755 18.9521C28.3657 19.2917 29.7856 20.1109 30.8236 21.9273L28.9158 23.0175C28.196 21.7578 27.2794 21.2667 26.5727 21.0651C26.2077 20.9609 25.8857 20.9313 25.6603 20.9273C25.5483 20.9253 25.4626 20.9297 25.4106 20.9337C25.3846 20.9357 25.3673 20.9376 25.3596 20.9385C25.3566 20.9389 25.3551 20.9391 25.3551 20.9391C25.3551 20.9391 25.3552 20.9391 25.3554 20.939L25.359 20.9385L25.3623 20.938L25.3643 20.9377L25.3654 20.9376Z" fill="#264871"/>
<path fill-rule="evenodd" clip-rule="evenodd" d="M50.971 18.7663C50.9716 18.7664 50.9722 18.7665 50.8025 19.8519C50.6328 20.9374 50.6334 20.9375 50.634 20.9376L50.6351 20.9377L50.6371 20.938L50.6403 20.9385L50.6439 20.939L50.6443 20.9391C50.6443 20.9391 50.6428 20.9389 50.6398 20.9385C50.6321 20.9376 50.6148 20.9357 50.5888 20.9337C50.5368 20.9297 50.4511 20.9253 50.3391 20.9273C50.1136 20.9313 49.7917 20.9609 49.4267 21.0651C48.7199 21.2667 47.8034 21.7578 47.0835 23.0175L45.1758 21.9273C46.2138 20.1109 47.6336 19.2917 48.8239 18.9521C49.4073 18.7857 49.924 18.737 50.3001 18.7303C50.4888 18.727 50.6446 18.7342 50.7588 18.743C50.816 18.7475 50.8631 18.7523 50.8989 18.7566C50.9168 18.7587 50.932 18.7607 50.9443 18.7624C50.9504 18.7632 50.9558 18.764 50.9604 18.7647L50.9669 18.7657L50.9697 18.7661L50.971 18.7663Z" fill="#264871"/>
<path fill-rule="evenodd" clip-rule="evenodd" d="M27.4611 45.7749C27.4604 45.7749 27.4598 45.7748 27.515 44.6776C27.5702 43.5804 27.5696 43.5803 27.569 43.5803L27.568 43.5802L27.5661 43.5802L27.5634 43.58C27.5625 43.58 27.562 43.58 27.562 43.58L27.5622 43.58C27.5632 43.58 27.5676 43.5802 27.5753 43.5803C27.5907 43.5805 27.6189 43.5805 27.6579 43.5793C27.7363 43.577 27.8552 43.5697 27.9994 43.5497C28.2946 43.5086 28.6585 43.4189 28.9951 43.2373C29.321 43.0615 29.6174 42.8031 29.8232 42.4029C30.0311 41.9989 30.1896 41.3665 30.0951 40.3743L32.2825 40.166C32.4078 41.481 32.2169 42.5531 31.7771 43.408C31.3354 44.2668 30.6858 44.8219 30.0383 45.1712C29.4016 45.5146 28.7645 45.6616 28.3023 45.726C28.0678 45.7586 27.8688 45.7713 27.7239 45.7756C27.6512 45.7778 27.5915 45.7779 27.5469 45.7773C27.5246 45.777 27.506 45.7766 27.4914 45.7761C27.4841 45.7759 27.4778 45.7756 27.4725 45.7754L27.4654 45.7751L27.4624 45.775L27.4611 45.7749Z" fill="#264871"/>
<path fill-rule="evenodd" clip-rule="evenodd" d="M23.7066 30.9621C23.7072 30.9618 23.7077 30.9614 23.0886 30.0538C22.4696 29.1462 22.4702 29.1458 22.4707 29.1454L22.472 29.1446L22.4748 29.1427L22.4814 29.1382C22.4863 29.135 22.4921 29.1311 22.4989 29.1267C22.5125 29.1178 22.5298 29.1067 22.5507 29.0937C22.5925 29.0677 22.649 29.0339 22.7189 28.995C22.8582 28.9175 23.0535 28.8183 23.295 28.7201C23.7733 28.5257 24.462 28.3233 25.2707 28.3232C26.0925 28.3232 27.0176 28.533 27.9322 29.1364C28.8395 29.7349 29.6797 30.6827 30.4046 32.072L28.4565 33.0884C27.863 31.9509 27.2513 31.3195 26.7223 30.9705C26.2007 30.6264 25.705 30.5205 25.2709 30.5205C24.8237 30.5205 24.4214 30.6341 24.1225 30.7556C23.9755 30.8154 23.8608 30.8742 23.7872 30.9151C23.7506 30.9355 23.7248 30.951 23.7111 30.9596C23.7042 30.9639 23.7004 30.9663 23.6998 30.9668C23.6995 30.967 23.7 30.9666 23.7013 30.9658L23.7039 30.964L23.7056 30.9628L23.7066 30.9621Z" fill="#264871"/>
<path fill-rule="evenodd" clip-rule="evenodd" d="M48.4309 43.5803C48.4304 43.5803 48.4298 43.5804 48.485 44.6776C48.5401 45.7748 48.5395 45.7749 48.5389 45.7749L48.5375 45.775L48.5346 45.7751L48.5274 45.7754C48.5222 45.7756 48.5159 45.7759 48.5086 45.7761C48.494 45.7766 48.4754 45.777 48.4531 45.7773C48.4085 45.7779 48.3487 45.7778 48.276 45.7756C48.1312 45.7713 47.9322 45.7586 47.6977 45.726C47.2354 45.6616 46.5984 45.5146 45.9617 45.1712C45.3142 44.8219 44.6646 44.2668 44.2228 43.408C43.783 42.5531 43.5922 41.481 43.7174 40.166L45.9048 40.3743C45.8103 41.3665 45.9689 41.9989 46.1767 42.4029C46.3826 42.8031 46.6789 43.0615 47.0048 43.2373C47.3415 43.4189 47.7053 43.5086 48.0005 43.5497C48.1448 43.5697 48.2637 43.577 48.3421 43.5793C48.381 43.5805 48.4092 43.5805 48.4247 43.5803C48.4324 43.5802 48.4368 43.58 48.4378 43.58C48.4382 43.58 48.4378 43.58 48.4365 43.58L48.4338 43.5802L48.432 43.5802L48.4309 43.5803Z" fill="#264871"/>
<path fill-rule="evenodd" clip-rule="evenodd" d="M53.5295 29.1454C53.5301 29.1458 53.5307 29.1462 52.9116 30.0538C52.2926 30.9614 52.2931 30.9618 52.2936 30.9621L52.2946 30.9628L52.2964 30.964L52.299 30.9658C52.3003 30.9666 52.3008 30.967 52.3005 30.9668C52.2999 30.9663 52.2961 30.9639 52.2892 30.9596C52.2754 30.951 52.2497 30.9355 52.2131 30.9151C52.1395 30.8742 52.0248 30.8154 51.8777 30.7556C51.5789 30.6341 51.1766 30.5205 50.7294 30.5205C50.2953 30.5205 49.7996 30.6264 49.278 30.9705C48.749 31.3195 48.1373 31.9509 47.5438 33.0884L45.5957 32.072C46.3206 30.6827 47.1607 29.7349 48.0681 29.1364C48.9827 28.533 49.9077 28.3232 50.7295 28.3232C51.5382 28.3233 52.227 28.5257 52.7053 28.7201C52.9468 28.8183 53.1421 28.9175 53.2814 28.995C53.3513 29.0339 53.4078 29.0677 53.4496 29.0937C53.4705 29.1067 53.4878 29.1178 53.5013 29.1267C53.5081 29.1311 53.514 29.135 53.5189 29.1382L53.5255 29.1427L53.5283 29.1446L53.5295 29.1454Z" fill="#264871"/>
<path fill-rule="evenodd" clip-rule="evenodd" d="M62.5361 31.1152V33.3125H60.3389V31.1152H62.5361Z" fill="#264871"/>
<path fill-rule="evenodd" clip-rule="evenodd" d="M62.5361 26.5742V28.7715H60.3389V26.5742H62.5361Z" fill="#264871"/>
</g>
<defs>
<clipPath id="clip0_198_925">
<rect width="75" height="75" fill="white" transform="translate(0.5 0.5)"/>
</clipPath>
</defs>
</svg>
