<svg width="14" height="14" viewBox="0 0 14 14" fill="none" xmlns="http://www.w3.org/2000/svg">
<g clip-path="url(#clip0_111_1559)">
<path d="M12.25 1.16667H10.5V0H9.33333V1.16667H4.66667V0H3.5V1.16667H1.75C1.28587 1.16667 0.840752 1.35104 0.512563 1.67923C0.184374 2.00742 0 2.45254 0 2.91667L0 14H14V2.91667C14 2.45254 13.8156 2.00742 13.4874 1.67923C13.1592 1.35104 12.7141 1.16667 12.25 1.16667ZM1.16667 2.91667C1.16667 2.76196 1.22812 2.61358 1.33752 2.50419C1.44692 2.39479 1.59529 2.33333 1.75 2.33333H12.25C12.4047 2.33333 12.5531 2.39479 12.6625 2.50419C12.7719 2.61358 12.8333 2.76196 12.8333 2.91667V4.66667H1.16667V2.91667ZM1.16667 12.8333V5.83333H12.8333V12.8333H1.16667Z" fill="#00907F"/>
<path d="M9.91667 7.5835H8.75V8.75016H9.91667V7.5835Z" fill="#00907F"/>
<path d="M7.58317 7.5835H6.4165V8.75016H7.58317V7.5835Z" fill="#00907F"/>
<path d="M5.25016 7.5835H4.0835V8.75016H5.25016V7.5835Z" fill="#00907F"/>
<path d="M9.91667 9.9165H8.75V11.0832H9.91667V9.9165Z" fill="#00907F"/>
<path d="M7.58317 9.9165H6.4165V11.0832H7.58317V9.9165Z" fill="#00907F"/>
<path d="M5.25016 9.9165H4.0835V11.0832H5.25016V9.9165Z" fill="#00907F"/>
</g>
<defs>
<clipPath id="clip0_111_1559">
<rect width="14" height="14" fill="white"/>
</clipPath>
</defs>
</svg>
