<svg width="22" height="22" viewBox="0 0 22 22" fill="none" xmlns="http://www.w3.org/2000/svg">
<path d="M7.33398 5.271C6.95815 5.271 6.64648 4.95933 6.64648 4.5835V1.8335C6.64648 1.45766 6.95815 1.146 7.33398 1.146C7.70982 1.146 8.02148 1.45766 8.02148 1.8335V4.5835C8.02148 4.95933 7.70982 5.271 7.33398 5.271Z" fill="#929AA7"/>
<path d="M14.666 5.271C14.2902 5.271 13.9785 4.95933 13.9785 4.5835V1.8335C13.9785 1.45766 14.2902 1.146 14.666 1.146C15.0418 1.146 15.3535 1.45766 15.3535 1.8335V4.5835C15.3535 4.95933 15.0418 5.271 14.666 5.271Z" fill="#929AA7"/>
<path d="M7.79167 13.2916C7.6725 13.2916 7.55333 13.2641 7.44333 13.2183C7.32417 13.1725 7.2325 13.1083 7.14083 13.0258C6.97583 12.8516 6.875 12.6225 6.875 12.375C6.875 12.2558 6.9025 12.1366 6.94833 12.0266C6.99417 11.9166 7.05833 11.8158 7.14083 11.7241C7.2325 11.6416 7.32417 11.5774 7.44333 11.5316C7.77333 11.3941 8.18583 11.4675 8.4425 11.7241C8.6075 11.8983 8.70833 12.1366 8.70833 12.375C8.70833 12.43 8.69917 12.4941 8.69 12.5583C8.68083 12.6133 8.6625 12.6683 8.635 12.7233C8.61666 12.7783 8.58917 12.8333 8.5525 12.8883C8.525 12.9341 8.47917 12.98 8.4425 13.0258C8.26833 13.1908 8.03 13.2916 7.79167 13.2916Z" fill="#929AA7"/>
<path d="M11.0007 13.2918C10.8815 13.2918 10.7623 13.2643 10.6523 13.2185C10.5331 13.1726 10.4415 13.1085 10.3498 13.026C10.1848 12.8518 10.084 12.6226 10.084 12.3751C10.084 12.256 10.1115 12.1368 10.1573 12.0268C10.2032 11.9168 10.2673 11.816 10.3498 11.7243C10.4415 11.6418 10.5331 11.5776 10.6523 11.5318C10.9823 11.3851 11.3948 11.4676 11.6515 11.7243C11.8165 11.8985 11.9173 12.1368 11.9173 12.3751C11.9173 12.4301 11.9082 12.4943 11.899 12.5585C11.8898 12.6135 11.8715 12.6685 11.844 12.7235C11.8256 12.7785 11.7982 12.8335 11.7615 12.8885C11.734 12.9343 11.6881 12.9801 11.6515 13.026C11.4773 13.191 11.239 13.2918 11.0007 13.2918Z" fill="#929AA7"/>
<path d="M14.2077 13.2918C14.0885 13.2918 13.9693 13.2643 13.8593 13.2185C13.7402 13.1726 13.6485 13.1085 13.5568 13.026C13.5202 12.9801 13.4835 12.9343 13.4468 12.8885C13.4102 12.8335 13.3827 12.7785 13.3644 12.7235C13.3369 12.6685 13.3185 12.6135 13.3093 12.5585C13.3002 12.4943 13.291 12.4301 13.291 12.3751C13.291 12.1368 13.3918 11.8985 13.5568 11.7243C13.6485 11.6418 13.7402 11.5776 13.8593 11.5318C14.1985 11.3851 14.6018 11.4676 14.8585 11.7243C15.0235 11.8985 15.1243 12.1368 15.1243 12.3751C15.1243 12.4301 15.1152 12.4943 15.106 12.5585C15.0968 12.6135 15.0785 12.6685 15.051 12.7235C15.0327 12.7785 15.0052 12.8335 14.9685 12.8885C14.941 12.9343 14.8952 12.9801 14.8585 13.026C14.6843 13.191 14.446 13.2918 14.2077 13.2918Z" fill="#929AA7"/>
<path d="M7.79167 16.5001C7.6725 16.5001 7.55333 16.4726 7.44333 16.4268C7.33333 16.3809 7.2325 16.3167 7.14083 16.2342C6.97583 16.0601 6.875 15.8218 6.875 15.5834C6.875 15.4643 6.9025 15.3451 6.94833 15.2351C6.99417 15.1159 7.05833 15.0151 7.14083 14.9326C7.48 14.5934 8.10333 14.5934 8.4425 14.9326C8.6075 15.1068 8.70833 15.3451 8.70833 15.5834C8.70833 15.8218 8.6075 16.0601 8.4425 16.2342C8.26833 16.3992 8.03 16.5001 7.79167 16.5001Z" fill="#929AA7"/>
<path d="M11.0007 16.5001C10.7623 16.5001 10.524 16.3992 10.3498 16.2342C10.1848 16.0601 10.084 15.8218 10.084 15.5834C10.084 15.4643 10.1115 15.3451 10.1573 15.2351C10.2032 15.1159 10.2673 15.0151 10.3498 14.9326C10.689 14.5934 11.3123 14.5934 11.6515 14.9326C11.734 15.0151 11.7981 15.1159 11.844 15.2351C11.8898 15.3451 11.9173 15.4643 11.9173 15.5834C11.9173 15.8218 11.8165 16.0601 11.6515 16.2342C11.4773 16.3992 11.239 16.5001 11.0007 16.5001Z" fill="#929AA7"/>
<path d="M14.2077 16.5002C13.9693 16.5002 13.731 16.3993 13.5568 16.2343C13.4743 16.1518 13.4102 16.051 13.3644 15.9318C13.3185 15.8218 13.291 15.7027 13.291 15.5835C13.291 15.4643 13.3185 15.3452 13.3644 15.2352C13.4102 15.116 13.4743 15.0152 13.5568 14.9327C13.7677 14.7218 14.0885 14.621 14.3818 14.6852C14.446 14.6943 14.501 14.7127 14.556 14.7402C14.611 14.7585 14.666 14.786 14.721 14.8227C14.7669 14.8502 14.8127 14.896 14.8585 14.9327C15.0235 15.1068 15.1243 15.3452 15.1243 15.5835C15.1243 15.8218 15.0235 16.0602 14.8585 16.2343C14.6843 16.3993 14.446 16.5002 14.2077 16.5002Z" fill="#929AA7"/>
<path d="M18.7923 9.02002H3.20898C2.83315 9.02002 2.52148 8.70835 2.52148 8.33252C2.52148 7.95669 2.83315 7.64502 3.20898 7.64502H18.7923C19.1682 7.64502 19.4798 7.95669 19.4798 8.33252C19.4798 8.70835 19.1682 9.02002 18.7923 9.02002Z" fill="#929AA7"/>
<path d="M14.6667 20.8543H7.33333C3.9875 20.8543 2.0625 18.9293 2.0625 15.5835V7.79183C2.0625 4.446 3.9875 2.521 7.33333 2.521H14.6667C18.0125 2.521 19.9375 4.446 19.9375 7.79183V15.5835C19.9375 18.9293 18.0125 20.8543 14.6667 20.8543ZM7.33333 3.896C4.71167 3.896 3.4375 5.17016 3.4375 7.79183V15.5835C3.4375 18.2052 4.71167 19.4793 7.33333 19.4793H14.6667C17.2883 19.4793 18.5625 18.2052 18.5625 15.5835V7.79183C18.5625 5.17016 17.2883 3.896 14.6667 3.896H7.33333Z" fill="#929AA7"/>
</svg>
