<svg width="20" height="20" viewBox="0 0 20 20" fill="none" xmlns="http://www.w3.org/2000/svg">
<path d="M15.8958 16.9792C14.2153 16.8542 12.6215 16.441 11.1146 15.7396C9.60763 15.0382 8.25693 14.0903 7.06249 12.8958C5.86805 11.7014 4.92707 10.3542 4.23957 8.85417C3.55207 7.35417 3.13888 5.76389 2.99999 4.08333C2.97221 3.79167 3.05753 3.53819 3.25595 3.32292C3.45435 3.10764 3.70236 3 3.99999 3H6.83332C7.06943 3 7.2743 3.07292 7.44791 3.21875C7.62152 3.36458 7.7361 3.54861 7.79166 3.77083L8.29166 5.97917C8.31943 6.15972 8.30902 6.33333 8.26041 6.5C8.2118 6.66667 8.13193 6.80556 8.02082 6.91667L5.99999 8.95833C6.27777 9.48611 6.59721 9.99306 6.95832 10.4792C7.31943 10.9653 7.722 11.4235 8.16601 11.8538C8.58311 12.2707 9.02777 12.6562 9.49999 13.0104C9.97221 13.3646 10.4722 13.6806 11 13.9583L13.0625 11.9583C13.1736 11.8472 13.3125 11.7674 13.4792 11.7188C13.6458 11.6701 13.8194 11.6597 14 11.6875L16.2292 12.1667C16.4653 12.2361 16.6528 12.3576 16.7917 12.5312C16.9305 12.7049 17 12.9097 17 13.1458V15.9792C17 16.2768 16.8889 16.5248 16.6667 16.7232C16.4444 16.9216 16.1875 17.0069 15.8958 16.9792ZM5.31249 7.5L6.77082 6.04167L6.41332 4.5H4.54166C4.6111 5.02778 4.70832 5.53819 4.83332 6.03125C4.95832 6.52431 5.11805 7.01389 5.31249 7.5ZM12.4792 14.6667C12.9667 14.8645 13.4635 15.0216 13.9698 15.138C14.476 15.2543 14.9861 15.3472 15.5 15.4167V13.5417L13.9375 13.2083L12.4792 14.6667Z" fill="#192335"/>
</svg>
