<svg width="66" height="66" viewBox="0 0 66 66" fill="none" xmlns="http://www.w3.org/2000/svg">
<path d="M59.7194 24.6527C59.2731 24.4931 58.8653 24.2417 58.5224 23.9146C58.1794 23.5874 57.909 23.192 57.7285 22.7537C57.5481 22.3155 57.4617 21.8442 57.4748 21.3705C57.488 20.8967 57.6005 20.431 57.805 20.0035C58.5899 18.3518 58.8444 16.4977 58.5335 14.6957C58.2226 12.8936 57.3616 11.2319 56.0687 9.93871C54.7758 8.6455 53.1143 7.78412 51.3123 7.47281C49.5103 7.16151 47.6561 7.41553 46.0043 8.20002C45.5767 8.40412 45.111 8.51626 44.6374 8.52922C44.1638 8.54218 43.6927 8.45567 43.2546 8.27527C42.8165 8.09487 42.421 7.82458 42.0939 7.48188C41.7667 7.13917 41.515 6.73166 41.3551 6.28565C40.7403 4.56567 39.6088 3.0778 38.1156 2.02582C36.6224 0.973837 34.8405 0.40918 33.0139 0.40918C31.1873 0.40918 29.4054 0.973837 27.9122 2.02582C26.419 3.0778 25.2875 4.56567 24.6727 6.28565C24.5131 6.73192 24.2617 7.13972 23.9346 7.48267C23.6075 7.82561 23.212 8.09606 22.7737 8.27651C22.3355 8.45696 21.8643 8.5434 21.3905 8.53022C20.9168 8.51705 20.451 8.40455 20.0235 8.20002C18.3708 7.40931 16.5135 7.15053 14.7076 7.45931C12.9017 7.76809 11.236 8.62925 9.93984 9.92417C8.64373 11.2191 7.78103 12.884 7.47057 14.6897C7.16011 16.4953 7.41718 18.3528 8.20636 20.0062C8.41133 20.4337 8.52417 20.8995 8.53756 21.3733C8.55095 21.8472 8.4646 22.3186 8.2841 22.757C8.1036 23.1953 7.83298 23.5909 7.4898 23.9179C7.14661 24.245 6.73852 24.4962 6.29199 24.6554C4.57323 25.2715 3.08675 26.4034 2.03584 27.8965C0.984925 29.3896 0.420898 31.1708 0.420898 32.9966C0.420898 34.8224 0.984925 36.6037 2.03584 38.0968C3.08675 39.5898 4.57323 40.7218 6.29199 41.3378C6.73946 41.496 7.14869 41.7464 7.49312 42.0729C7.83755 42.3994 8.10949 42.7947 8.29129 43.2331C8.47309 43.6715 8.5607 44.1432 8.54842 44.6176C8.53615 45.0921 8.42427 45.5586 8.22004 45.987C7.4347 47.6377 7.17942 49.4909 7.48924 51.2924C7.79906 53.0939 8.65878 54.7554 9.95044 56.0488C11.2421 57.3423 12.9024 58.2043 14.7034 58.5166C16.5045 58.829 18.3581 58.5763 20.0098 57.7932C20.4374 57.5887 20.9031 57.4762 21.3768 57.463C21.8506 57.4498 22.3218 57.5363 22.7601 57.7167C23.1983 57.8972 23.5938 58.1676 23.9209 58.5106C24.248 58.8535 24.4995 59.2613 24.659 59.7076C25.2738 61.4276 26.4053 62.9154 27.8985 63.9674C29.3918 65.0194 31.1737 65.5841 33.0002 65.5841C34.8268 65.5841 36.6087 65.0194 38.1019 63.9674C39.5951 62.9154 40.7266 61.4276 41.3414 59.7076C41.501 59.2613 41.7524 58.8535 42.0796 58.5106C42.4067 58.1676 42.8021 57.8972 43.2404 57.7167C43.6786 57.5363 44.1499 57.4498 44.6236 57.463C45.0974 57.4762 45.5631 57.5887 45.9906 57.7932C47.6423 58.5781 49.4964 58.8326 51.2985 58.5217C53.1005 58.2108 54.7622 57.3498 56.0554 56.0569C57.3486 54.7639 58.21 53.1025 58.5213 51.3005C58.8326 49.4985 58.5786 47.6443 57.7941 45.9925C57.59 45.5649 57.4778 45.0992 57.4649 44.6256C57.4519 44.152 57.5384 43.6809 57.7188 43.2428C57.8992 42.8046 58.1695 42.4092 58.5122 42.0821C58.8549 41.7549 59.2625 41.5032 59.7085 41.3433C61.4284 40.7285 62.9163 39.597 63.9683 38.1038C65.0203 36.6106 65.5849 34.8287 65.5849 33.0021C65.5849 31.1755 65.0203 29.3936 63.9683 27.9004C62.9163 26.4072 61.4284 25.2757 59.7085 24.6609L59.7194 24.6527Z" fill="#F3B04C"/>
</svg>
