<svg width="24" height="24" viewBox="0 0 24 24" fill="none" xmlns="http://www.w3.org/2000/svg">
<g clip-path="url(#clip0_1201_6546)">
<path d="M16.6725 9.51254C16.9556 9.21018 16.94 8.73554 16.6376 8.45249C16.3352 8.16941 15.8606 8.18504 15.5775 8.48744L10.508 13.9026L8.42251 11.6749C8.13946 11.3725 7.66482 11.3569 7.36246 11.64C7.06006 11.923 7.04442 12.3977 7.32751 12.7L9.96046 15.5125C10.1023 15.664 10.3005 15.75 10.508 15.75C10.7155 15.75 10.9137 15.664 11.0555 15.5125L16.6725 9.51254Z" fill="#777F8F"/>
<path fill-rule="evenodd" clip-rule="evenodd" d="M14.1823 1.61194C12.9544 0.462687 11.0456 0.462687 9.81773 1.61194L8.75445 2.6071C8.45475 2.88759 8.0634 3.04969 7.65319 3.06326L6.19763 3.11142C4.51673 3.16704 3.16704 4.51673 3.11142 6.19763L3.06326 7.65319C3.04969 8.0634 2.88759 8.45475 2.6071 8.75445L1.61194 9.81773C0.462687 11.0456 0.462687 12.9544 1.61194 14.1823L2.6071 15.2456C2.88759 15.5453 3.04969 15.9366 3.06326 16.3469L3.11142 17.8024C3.16704 19.4833 4.51673 20.833 6.19763 20.8886L7.65319 20.9367C8.0634 20.9503 8.45475 21.1124 8.75445 21.3929L9.81773 22.3881C11.0456 23.5373 12.9544 23.5373 14.1823 22.3881L15.2456 21.3929C15.5453 21.1124 15.9366 20.9503 16.3468 20.9367L17.8024 20.8886C19.4833 20.833 20.833 19.4833 20.8886 17.8024L20.9367 16.3469C20.9503 15.9366 21.1124 15.5453 21.3929 15.2456L22.3881 14.1823C23.5373 12.9544 23.5373 11.0456 22.3881 9.81773L21.3929 8.75445C21.1124 8.45475 20.9503 8.0634 20.9367 7.65319L20.8886 6.19763C20.833 4.51673 19.4833 3.16704 17.8024 3.11142L16.3469 3.06326C15.9366 3.04969 15.5453 2.88759 15.2456 2.6071L14.1823 1.61194ZM10.8427 2.70709C11.4939 2.09764 12.5061 2.09764 13.1573 2.70709L14.2206 3.70226C14.7857 4.23116 15.5237 4.53686 16.2972 4.56244L17.7528 4.61059C18.6441 4.6401 19.3599 5.35586 19.3894 6.24724L19.4376 7.70276C19.4631 8.47635 19.7688 9.21435 20.2977 9.77944L21.2929 10.8427C21.9024 11.4939 21.9024 12.5061 21.2929 13.1573L20.2977 14.2206C19.7688 14.7857 19.4631 15.5237 19.4376 16.2972L19.3894 17.7528C19.3599 18.6441 18.6441 19.3599 17.7528 19.3894L16.2972 19.4376C15.5237 19.4631 14.7857 19.7688 14.2206 20.2977L13.1573 21.2929C12.5061 21.9024 11.4939 21.9024 10.8427 21.2929L9.77944 20.2977C9.21435 19.7688 8.47635 19.4631 7.70276 19.4376L6.24724 19.3894C5.35586 19.3599 4.6401 18.6441 4.61059 17.7528L4.56244 16.2972C4.53686 15.5237 4.23116 14.7857 3.70226 14.2206L2.70709 13.1573C2.09764 12.5061 2.09764 11.4939 2.70709 10.8427L3.70226 9.77944C4.23116 9.21435 4.53686 8.47635 4.56244 7.70276L4.61059 6.24724C4.6401 5.35586 5.35586 4.6401 6.24724 4.61059L7.70276 4.56244C8.47635 4.53686 9.21435 4.23116 9.77944 3.70226L10.8427 2.70709Z" fill="#777F8F"/>
</g>
<defs>
<clipPath id="clip0_1201_6546">
<rect width="24" height="24" fill="white"/>
</clipPath>
</defs>
</svg>
