<svg width="18" height="18" viewBox="0 0 18 18" fill="none" xmlns="http://www.w3.org/2000/svg">
<path d="M5.87482 10.25C7.25351 10.25 8.37471 9.12875 8.37471 7.75C8.37471 6.37125 7.25351 5.25 5.87482 5.25C4.49612 5.25 3.37492 6.37125 3.37492 7.75C3.37492 9.12875 4.49612 10.25 5.87482 10.25ZM5.87482 6.5C6.56416 6.5 7.12477 7.06063 7.12477 7.75C7.12477 8.43937 6.56416 9 5.87482 9C5.18547 9 4.62487 8.43937 4.62487 7.75C4.62487 7.06063 5.18547 6.5 5.87482 6.5ZM10.2496 15.875C10.2496 16.2206 9.96965 16.5 9.62466 16.5C9.27968 16.5 8.99969 16.2206 8.99969 15.875C8.99969 14.1519 7.59787 12.75 5.87482 12.75C4.15176 12.75 2.74995 14.1519 2.74995 15.875C2.74995 16.2206 2.46996 16.5 2.12497 16.5C1.77999 16.5 1.5 16.2206 1.5 15.875C1.5 13.4631 3.46242 11.5 5.87482 11.5C8.28722 11.5 10.2496 13.4631 10.2496 15.875ZM16.4994 4.625V9.625C16.4994 11.3481 15.0976 12.75 13.3745 12.75H10.8746C10.5296 12.75 10.2496 12.4706 10.2496 12.125V10.875C10.2496 10.5294 10.5296 10.25 10.8746 10.25H12.7495C13.0945 10.25 13.3745 10.5294 13.3745 10.875V11.5C14.4082 11.5 15.2494 10.6587 15.2494 9.625V4.625C15.2494 3.59125 14.4082 2.75 13.3745 2.75H7.41538C6.74791 2.75 6.12543 3.10938 5.79107 3.68812C5.61795 3.98688 5.23609 4.09 4.93736 3.91563C4.63799 3.74312 4.53612 3.36063 4.70924 3.06188C5.26672 2.09875 6.30355 1.5 7.416 1.5H13.3751C15.0982 1.5 16.4994 2.90188 16.4994 4.625Z" fill="#929AA7"/>
</svg>
