<svg width="20" height="20" viewBox="0 0 20 20" fill="none" xmlns="http://www.w3.org/2000/svg">
<path d="M6.52692 11.3892C8.0588 11.3892 9.30459 10.1434 9.30459 8.61144C9.30459 7.07949 8.0588 5.83366 6.52692 5.83366C4.99504 5.83366 3.74926 7.07949 3.74926 8.61144C3.74926 10.1434 4.99504 11.3892 6.52692 11.3892ZM6.52692 7.22255C7.29286 7.22255 7.91576 7.84546 7.91576 8.61144C7.91576 9.37741 7.29286 10.0003 6.52692 10.0003C5.76098 10.0003 5.13809 9.37741 5.13809 8.61144C5.13809 7.84546 5.76098 7.22255 6.52692 7.22255ZM11.3878 17.6392C11.3878 18.0232 11.0767 18.3337 10.6934 18.3337C10.3101 18.3337 9.999 18.0232 9.999 17.6392C9.999 15.7246 8.44143 14.167 6.52692 14.167C4.61242 14.167 3.05485 15.7246 3.05485 17.6392C3.05485 18.0232 2.74375 18.3337 2.36043 18.3337C1.97711 18.3337 1.66602 18.0232 1.66602 17.6392C1.66602 14.9594 3.84648 12.7781 6.52692 12.7781C9.20737 12.7781 11.3878 14.9594 11.3878 17.6392ZM18.332 5.13921V10.6948C18.332 12.6094 16.7744 14.167 14.8599 14.167H12.0822C11.6989 14.167 11.3878 13.8566 11.3878 13.4725V12.0837C11.3878 11.6996 11.6989 11.3892 12.0822 11.3892H14.1655C14.5488 11.3892 14.8599 11.6996 14.8599 12.0837V12.7781C16.0085 12.7781 16.9432 11.8434 16.9432 10.6948V5.13921C16.9432 3.9906 16.0085 3.05588 14.8599 3.05588H8.23866C7.49702 3.05588 6.80539 3.45519 6.43387 4.09824C6.24152 4.43019 5.81723 4.54477 5.4853 4.35102C5.15268 4.15935 5.03949 3.73435 5.23184 3.40241C5.85126 2.33227 7.00329 1.66699 8.23935 1.66699H14.8606C16.7751 1.66699 18.332 3.22463 18.332 5.13921Z" fill="#929AA7"/>
</svg>
