<svg width="20" height="20" viewBox="0 0 20 20" fill="none" xmlns="http://www.w3.org/2000/svg">
<path d="M10 18C5.58867 18 2 14.4113 2 10C2 5.58867 5.58867 2 10 2C14.4113 2 18 5.58867 18 10C18 14.4113 14.4113 18 10 18ZM10 3.33333C6.324 3.33333 3.33333 6.324 3.33333 10C3.33333 13.676 6.324 16.6667 10 16.6667C13.676 16.6667 16.6667 13.676 16.6667 10C16.6667 6.324 13.676 3.33333 10 3.33333ZM13.3333 10C13.3333 9.63133 13.0353 9.33333 12.6667 9.33333H10.6667V6C10.6667 5.63133 10.368 5.33333 10 5.33333C9.632 5.33333 9.33333 5.63133 9.33333 6V10C9.33333 10.3687 9.632 10.6667 10 10.6667H12.6667C13.0353 10.6667 13.3333 10.3687 13.3333 10Z" fill="#909090"/>
</svg>
