<svg width="132" height="31" viewBox="0 0 132 31" fill="none" xmlns="http://www.w3.org/2000/svg">
<path opacity="0.87" fill-rule="evenodd" clip-rule="evenodd" d="M44.0495 15.311C43.2985 16.1538 42.9231 17.1632 42.9231 18.3399C42.9231 19.5166 43.2985 20.5268 44.0495 21.3688C44.8004 22.2116 45.7196 22.6322 46.8087 22.6322C47.9186 22.6322 48.8491 22.2116 49.6009 21.3688C50.3518 20.5268 50.7273 19.5166 50.7273 18.3399C50.7273 17.1632 50.3518 16.1547 49.6 15.311C48.8491 14.469 47.9186 14.0475 46.8078 14.0475C45.7196 14.0475 44.8004 14.469 44.0495 15.311ZM43.1459 11.9994C43.5769 11.3672 44.235 10.8539 45.1204 10.4576C46.0057 10.0622 46.9821 9.86446 48.0496 9.86446C50.2747 9.86446 52.1884 10.6666 53.7892 12.2699C55.3899 13.8741 56.1903 15.9752 56.1903 18.5731C56.1903 21.1485 55.3778 23.2487 53.7536 24.8755C52.1303 26.5014 50.1957 27.3147 47.9481 27.3147C46.9249 27.3147 45.9832 27.1231 45.1213 26.739C44.2576 26.3548 43.5882 25.8354 43.1112 25.1799V26.4979C43.1135 26.5923 43.0965 26.6863 43.0613 26.7739C43.026 26.8616 42.9732 26.9411 42.9062 27.0077C42.8392 27.0742 42.7592 27.1264 42.6713 27.161C42.5834 27.1956 42.4894 27.2119 42.395 27.209L38.9897 27.2098C38.7625 27.2098 38.5822 27.1422 38.4452 27.0069C38.3779 26.9408 38.325 26.8616 38.2898 26.7742C38.2546 26.6868 38.2378 26.593 38.2405 26.4988V3.83265C38.2405 3.62887 38.3081 3.45978 38.4452 3.32364C38.5813 3.18836 38.7625 3.12073 38.9897 3.12073H42.4305C42.6118 3.12073 42.7756 3.18836 42.9239 3.32364C43.0713 3.45978 43.1459 3.62887 43.1459 3.83265V11.9985V11.9994ZM63.3676 10.0362V18.8203C63.3676 19.9389 63.6477 20.8216 64.207 21.4694C64.7663 22.1189 65.5944 22.4423 66.6922 22.4423C67.7674 22.4423 68.5999 22.1189 69.1939 21.4694C69.787 20.8216 70.0844 19.9605 70.0844 18.887V10.0362C70.0844 9.85666 70.1573 9.70057 70.3021 9.56616C70.4322 9.43837 70.607 9.36622 70.7894 9.36499H74.1816C74.4045 9.36499 74.584 9.43783 74.7184 9.58264C74.8514 9.72288 74.9239 9.90972 74.9205 10.1029V25.7262C74.9231 25.8194 74.9066 25.9121 74.8718 25.9987C74.837 26.0852 74.7848 26.1636 74.7184 26.2291C74.584 26.3635 74.4045 26.4311 74.1808 26.4311H70.7894C70.6041 26.4367 70.4238 26.3702 70.2865 26.2456C70.2195 26.1842 70.1668 26.1089 70.1319 26.025C70.097 25.9412 70.0808 25.8507 70.0844 25.76V24.3543C68.8756 25.8085 67.2402 26.5343 65.1816 26.5343C63.1438 26.5343 61.5258 25.903 60.3283 24.6388C59.1307 23.3762 58.5315 21.7044 58.5315 19.625V10.0362C58.5315 9.85666 58.6096 9.70057 58.7657 9.56616C58.9035 9.43946 59.0831 9.36786 59.2703 9.36499H62.6288C62.8308 9.36499 63.0034 9.43176 63.149 9.56616C63.2171 9.62421 63.2718 9.69624 63.3095 9.77734C63.3472 9.85844 63.367 9.94672 63.3676 10.0362ZM84.681 9.36499C86.156 9.36499 87.4575 9.58091 88.5865 10.0101C89.7147 10.4402 90.581 10.9458 91.1845 11.5259C91.7204 11.9681 91.7429 12.4797 91.2521 13.0599L90.0113 14.5227C89.6089 15.0109 89.073 15.0456 88.4018 14.6285C87.0838 13.7224 85.8438 13.2688 84.6818 13.2688C84.0549 13.2688 83.5459 13.3902 83.1557 13.6348C82.7654 13.8784 82.5695 14.175 82.5695 14.5227C82.5695 15.1982 83.1938 15.6621 84.4468 15.918L87.0274 16.44C90.4023 17.1146 92.0898 18.822 92.0898 21.5648C92.0898 23.2366 91.4073 24.6136 90.0451 25.6941C88.6819 26.7754 86.9043 27.3147 84.7148 27.3147C82.3007 27.3147 80.2334 26.6869 78.513 25.4331C77.1273 24.4341 76.8923 23.5626 77.8089 22.8195L79.2839 21.6341C79.8198 21.2153 80.3678 21.2509 80.9262 21.7382C82.1784 22.8776 83.4964 23.4464 84.8821 23.4464C85.5967 23.4464 86.1508 23.3068 86.5418 23.0285C86.932 22.7484 87.128 22.4128 87.128 22.0165C87.128 21.622 86.9442 21.3142 86.5757 21.093C86.2063 20.8728 85.6079 20.6811 84.7815 20.5181L82.1004 19.9259C80.7363 19.6466 79.6585 19.0787 78.8651 18.2176C78.0716 17.3591 77.6745 16.2544 77.6745 14.9069C77.6745 13.3269 78.3118 12.008 79.5857 10.951C80.8603 9.89394 82.5573 9.36499 84.681 9.36499ZM106.728 26.634V18.4023C106.728 17.1996 106.404 16.2345 105.754 15.5087C105.104 14.7829 104.209 14.4195 103.066 14.4195C101.924 14.4195 101.006 14.7889 100.311 15.526C99.6174 16.2631 99.2697 17.2221 99.2697 18.4023V26.634C99.273 26.7276 99.255 26.8207 99.2172 26.9063C99.1793 26.9919 99.1226 27.0678 99.0512 27.1283C98.9066 27.2524 98.7214 27.3188 98.5309 27.3147H95.1378C95.044 27.3161 94.951 27.2984 94.8642 27.263C94.7774 27.2275 94.6986 27.1748 94.6327 27.1082C94.5667 27.0416 94.5148 26.9623 94.4802 26.8752C94.4455 26.7881 94.4288 26.6948 94.4311 26.6011V3.83525C94.4311 3.63147 94.4987 3.46238 94.6331 3.3245C94.6987 3.25768 94.7773 3.20515 94.8642 3.17023C94.951 3.13531 95.0442 3.11875 95.1378 3.12159H98.53C98.7329 3.12159 98.9055 3.18403 99.0512 3.3089C99.1224 3.36914 99.1791 3.44476 99.217 3.53007C99.2548 3.61538 99.2729 3.70816 99.2697 3.80143V12.1051C100.479 10.631 102.248 9.89394 104.578 9.89394C106.705 9.89394 108.408 10.5738 109.686 11.9352C110.962 13.2966 111.6 15.0092 111.6 17.0747V26.634C111.604 26.7276 111.586 26.8207 111.548 26.9064C111.51 26.992 111.453 27.0679 111.382 27.1283C111.237 27.2525 111.052 27.3189 110.862 27.3147H107.468C107.277 27.3187 107.091 27.252 106.946 27.1274C106.875 27.067 106.818 26.9913 106.781 26.9058C106.743 26.8204 106.725 26.7274 106.728 26.634Z" fill="#0F101A"/>
<mask id="mask0_111_1147" style="mask-type:alpha" maskUnits="userSpaceOnUse" x="113" y="9" width="19" height="19">
<path d="M113.942 9.36499H131.892V27.3148H113.942V9.36499Z" fill="white"/>
</mask>
<g mask="url(#mask0_111_1147)">
<path fill-rule="evenodd" clip-rule="evenodd" d="M119.739 15.311C118.996 16.1547 118.624 17.1632 118.624 18.3399C118.624 19.5166 118.996 20.5268 119.739 21.3688C120.482 22.2116 121.411 22.6322 122.527 22.6322C123.641 22.6322 124.57 22.2116 125.314 21.3688C126.057 20.5268 126.429 19.5166 126.429 18.3399C126.429 17.1632 126.057 16.1547 125.314 15.311C124.57 14.469 123.641 14.0475 122.527 14.0475C121.411 14.0475 120.482 14.469 119.739 15.311ZM116.411 24.8061C114.766 23.1317 113.942 20.9708 113.942 18.3225C113.942 15.6734 114.765 13.5186 116.411 11.8571C118.056 10.1957 120.005 9.36499 122.253 9.36499C123.319 9.36499 124.279 9.58091 125.13 10.0101C125.982 10.4402 126.612 10.9917 127.02 11.6655V10.2391C127.02 10.031 127.094 9.85059 127.242 9.69884C127.389 9.54882 127.554 9.47338 127.736 9.47338H131.176C131.381 9.47338 131.551 9.54882 131.687 9.69884C131.822 9.84611 131.895 10.0394 131.892 10.2391V26.4754C131.895 26.5718 131.878 26.6679 131.843 26.7577C131.808 26.8476 131.755 26.9294 131.687 26.9982C131.621 27.0666 131.542 27.1205 131.454 27.1564C131.366 27.1924 131.271 27.2097 131.176 27.2072H127.736C127.554 27.2072 127.389 27.1379 127.242 26.9991C127.17 26.9326 127.113 26.8515 127.075 26.7612C127.037 26.6708 127.018 26.5734 127.021 26.4754V25.0142C126.612 25.6889 125.982 26.2404 125.131 26.6705C124.279 27.0997 123.31 27.3148 122.219 27.3148C119.993 27.3148 118.056 26.478 116.411 24.8053" fill="#2E2F37"/>
</g>
<mask id="mask1_111_1147" style="mask-type:alpha" maskUnits="userSpaceOnUse" x="4" y="-1" width="26" height="19">
<path d="M4.68262 -0.00012207H29.6562V17.1692H4.68262V-0.00012207Z" fill="white"/>
</mask>
<g mask="url(#mask1_111_1147)">
<path fill-rule="evenodd" clip-rule="evenodd" d="M27.5993 16.2605L26.1746 17.1693L23.2584 11.9214C22.4598 10.489 21.2928 9.29627 19.8783 8.46657C18.4637 7.63687 16.8531 7.20041 15.2131 7.2024H4.68262L14.9946 0.632967C15.7658 0.142366 16.6804 -0.0726579 17.5894 0.02292C18.4984 0.118498 19.3483 0.519045 20.0006 1.15932L28.3338 9.37112C30.3646 11.3716 30.0074 14.7266 27.5993 16.2614" fill="#67C462"/>
</g>
<mask id="mask2_111_1147" style="mask-type:alpha" maskUnits="userSpaceOnUse" x="0" y="9" width="28" height="22">
<path d="M0 9.36499H27.3148V30.4364H0V9.36499Z" fill="white"/>
</mask>
<g mask="url(#mask2_111_1147)">
<path fill-rule="evenodd" clip-rule="evenodd" d="M23.1682 30.4364H10.9069C10.301 30.4337 9.7088 30.2566 9.20091 29.9263C8.69302 29.596 8.29094 29.1265 8.04272 28.5738L0.235875 11.4635L0.119679 11.2059C0.0424715 11.0385 0.00169617 10.8567 5.17988e-05 10.6724C-0.00159258 10.488 0.0359315 10.3055 0.11014 10.1367C0.118811 10.1133 0.130951 10.0934 0.142224 10.0682C0.246709 9.85769 0.407747 9.68038 0.607303 9.55617C0.806859 9.43197 1.03705 9.36577 1.27211 9.36499H14.6434C17.1893 9.36499 19.534 10.775 20.7619 13.0451L23.7154 18.4986L26.7937 24.1792C28.3155 26.9913 26.3211 30.4364 23.1691 30.4364" fill="#74DF70"/>
</g>
</svg>
