<svg width="118" height="33" viewBox="0 0 118 33" fill="none" xmlns="http://www.w3.org/2000/svg">
<path opacity="0.87" fill-rule="evenodd" clip-rule="evenodd" d="M99.4221 27.9437C98.9415 27.7903 98.5223 27.6129 98.1674 27.4108L96.4942 31.8953C97.2422 32.2297 98.018 32.4979 98.8128 32.6968C99.6236 32.8989 100.511 33 101.474 33C102.995 33 104.319 32.6819 105.448 32.0486C106.576 31.4152 107.47 30.3231 108.127 28.7785L117.405 6.80648H110.563L106.837 17.6381L103.074 6.80648H95.8488L103.719 24.5571L102.655 26.9555C102.45 27.4114 102.202 27.726 101.912 27.9035C101.621 28.0815 101.236 28.1699 100.752 28.1699C100.349 28.1699 99.9049 28.0964 99.4221 27.9437ZM88.7857 17.0506C89.1652 17.0139 89.5476 16.98 89.9266 16.9559V20.4154C89.5965 20.6686 89.2321 20.8736 88.8443 21.0241C88.4492 21.1768 88.0151 21.2503 87.5317 21.2503C86.8742 21.2503 86.3603 21.0821 85.9928 20.7393C85.6259 20.397 85.4393 19.9595 85.4393 19.4272C85.4393 18.9196 85.6047 18.458 85.9348 18.0388C86.2656 17.6225 86.822 17.3475 87.608 17.2218C87.9979 17.1473 88.3908 17.0902 88.7857 17.0506ZM90.3458 23.9123L90.8781 25.3586H96.4667V13.6491C96.4667 11.1652 95.7449 9.33293 94.2979 8.15526C92.8544 6.97414 90.9148 6.38674 88.4831 6.38674C86.7335 6.38674 85.2314 6.64111 83.9774 7.1487C82.7334 7.64745 81.5832 8.35401 80.5759 9.23819L83.5399 12.545C84.1152 12.0852 84.7474 11.7015 85.4209 11.4035C86.0764 11.124 86.7824 10.9825 87.4949 10.9878C88.1529 10.9878 88.7248 11.1652 89.2049 11.52C89.6855 11.8749 89.9266 12.4313 89.9266 13.1932V13.6491C89.2855 13.6788 88.6451 13.7226 88.0059 13.7806C87.2495 13.8517 86.4956 13.9474 85.7453 14.0677C84.8872 14.1854 84.0455 14.4022 83.2373 14.7137C82.4506 15.0163 81.7593 15.4108 81.1633 15.8908C80.5742 16.3647 80.095 16.9609 79.7588 17.6381C79.4166 18.3231 79.2449 19.1246 79.2449 20.0359C79.2449 20.923 79.3948 21.7091 79.7008 22.3912C79.995 23.0641 80.4287 23.6669 80.9732 24.1597C81.5181 24.6553 82.1601 25.0285 82.8945 25.2823C83.6283 25.5326 84.427 25.6612 85.2894 25.6612C86.4304 25.6612 87.4306 25.4901 88.2936 25.1473C89.1532 24.808 89.8382 24.3951 90.3458 23.9117V23.9123ZM49.6774 2.11935L57.8999 25.3581H62.9562L65.8438 15.6244L68.7716 25.3581H73.8647L80.4444 6.80591H73.6379L70.9002 16.6522L68.0493 6.80533H63.7147L60.8639 16.6527L56.1107 2.11992H49.6774V2.11935ZM37.9007 6.80533V11.4431H40.5248V19.5794C40.5248 20.5153 40.6201 21.3628 40.8096 22.1248C40.9991 22.8862 41.3235 23.5316 41.78 24.0638C42.2353 24.5961 42.8377 25.0095 43.5841 25.3001C44.3334 25.5906 45.2516 25.7376 46.3402 25.7376C47.6345 25.7376 48.7691 25.5843 49.7452 25.2817C50.7207 24.9757 51.6262 24.5353 52.4611 23.9507L50.7512 19.9193C50.4016 20.1858 50.0254 20.4153 49.6286 20.6043C49.2214 20.8051 48.7735 20.9098 48.3195 20.9104C47.836 20.9104 47.5271 20.7329 47.3864 20.3781C47.2486 20.0232 47.1785 19.5277 47.1785 18.8944V11.4437H51.6412L49.999 6.80591H47.1785V2.12911H40.5254V6.80591H37.9007V6.80533ZM30.9266 11.4615C31.4462 12.0299 31.7431 12.8108 31.8195 13.8013H26.0414C26.1424 12.8378 26.4789 12.0638 27.0479 11.4798C27.6198 10.8988 28.2836 10.6048 29.045 10.6048C29.7794 10.6048 30.4064 10.8919 30.9266 11.4615ZM27.0875 19.9406C26.4146 19.3199 26.054 18.4511 26.0017 17.3343H38.0541C38.0294 13.6089 37.2002 10.8528 35.5638 9.06593C33.9302 7.28019 31.731 6.38674 28.9686 6.38674C27.6261 6.38674 26.3778 6.60092 25.2249 7.03214C24.0713 7.46336 23.0774 8.09669 22.2391 8.93444C21.4007 9.76989 20.7433 10.7885 20.2633 11.9937C19.7798 13.199 19.5409 14.5719 19.5409 16.1199C19.5409 17.7167 19.7918 19.1149 20.2994 20.3201C20.8076 21.5219 21.4926 22.525 22.355 23.3208C23.2146 24.1224 24.2212 24.7247 25.3776 25.1284C26.5306 25.5326 27.7634 25.737 29.0817 25.737C30.171 25.737 31.1528 25.6486 32.0273 25.4712C32.9024 25.2938 33.6764 25.04 34.3465 24.7098C34.9825 24.4041 35.5826 24.0285 36.1357 23.5901C36.6559 23.171 37.1175 22.7087 37.5246 22.2012L33.4559 19.0075C32.9449 19.6408 32.3948 20.1122 31.8011 20.4143C31.2045 20.7209 30.4891 20.8708 29.6536 20.8708C28.6143 20.8708 27.7576 20.5618 27.087 19.9406H27.0875ZM7.47025 20.8162C7.20382 20.776 6.92878 20.7215 6.6503 20.6417V11.6699C6.95635 11.5688 7.25894 11.4861 7.56499 11.4253C7.89 11.3593 8.22098 11.3274 8.5526 11.33C9.61715 11.33 10.4985 11.7095 11.1956 12.468C11.8904 13.23 12.2389 14.4076 12.2389 16.0045C12.2389 17.653 11.8841 18.8766 11.1744 19.6753C10.4647 20.4734 9.54079 20.8708 8.39987 20.8708C8.04501 20.8708 7.7361 20.8524 7.46967 20.8162H7.47025ZM8.26838 6.51881C7.72124 6.60256 7.18058 6.7242 6.6503 6.88285V0H0V24.2539C1.13805 24.6857 2.38003 25.0463 3.72307 25.3374C5.06897 25.6308 6.5768 25.7778 8.24713 25.7778C9.76702 25.7778 11.168 25.5728 12.4502 25.1692C13.7284 24.7621 14.8389 24.1471 15.7748 23.3214C16.7142 22.5015 17.4423 21.4553 17.9625 20.1863C18.4821 18.9196 18.7422 17.4239 18.7422 15.7019C18.7422 14.4076 18.5527 13.1932 18.1703 12.0523C17.7914 10.9114 17.2401 9.9232 16.5184 9.08545C15.7966 8.25 14.9003 7.58968 13.8357 7.10908C12.7712 6.62905 11.5688 6.38732 10.2264 6.38732C9.48911 6.38732 8.83683 6.42981 8.26838 6.51881Z" fill="#0F101A"/>
</svg>
