<svg width="155" height="27" viewBox="0 0 155 27" fill="none" xmlns="http://www.w3.org/2000/svg">
<path d="M12.1894 26.1644C8.95657 26.1644 5.85615 24.8827 3.57019 22.6015C1.28424 20.3203 0 17.2261 0 13.9998V1.83533H8.12627V13.9998C8.12627 15.0752 8.55436 16.1066 9.31633 16.867C10.0783 17.6275 11.1118 18.0547 12.1894 18.0547C13.267 18.0547 14.3005 17.6275 15.0625 16.867C15.8245 16.1066 16.2525 15.0752 16.2525 13.9998V1.83533H24.3788V13.9998C24.3788 17.2261 23.0945 20.3203 20.8086 22.6015C18.5227 24.8827 15.4223 26.1644 12.1894 26.1644Z" fill="#1EC572"/>
<path d="M32.5051 18.0547H12.1895V26.1644H32.5051V18.0547Z" fill="#016938"/>
<g opacity="0.6">
<g opacity="0.6">
<path opacity="0.6" d="M12.1894 26.1644C8.95657 26.1644 5.85615 24.8827 3.57019 22.6015C1.28424 20.3203 0 17.2261 0 13.9998V1.83533H8.12627V13.9998C8.12627 15.0752 8.55436 16.1066 9.31633 16.867C10.0783 17.6275 11.1118 18.0547 12.1894 18.0547C13.267 18.0547 14.3005 17.6275 15.0625 16.867C15.8245 16.1066 16.2525 15.0752 16.2525 13.9998V1.83533H24.3788V13.9998C24.3788 17.2261 23.0945 20.3203 20.8086 22.6015C18.5227 24.8827 15.4223 26.1644 12.1894 26.1644Z" fill="#1EC572"/>
</g>
</g>
<path opacity="0.87" d="M37.3245 12.1326H34.687V8.03434H37.3245V6.97934C37.3245 4.76114 37.9467 3.04338 39.191 1.82608C40.4354 0.608775 42.1261 0.00012207 44.2631 0.00012207C47.6986 0.00012207 49.7951 1.52852 50.5526 4.5853L46.9006 5.72146C46.4678 4.72056 45.7915 4.22011 44.8718 4.22011C43.7086 4.22011 43.127 4.99107 43.127 6.53299V8.03434H47.7933V12.1326H43.127V26.0505H37.3245V12.1326ZM62.0059 17.2047V8.03434H67.8895V26.0505H62.0059V23.2506C60.9509 25.4418 59.0438 26.5374 56.2846 26.5374C54.0123 26.5374 52.3757 25.8746 51.3748 24.5491C50.3739 23.2236 49.8734 21.4923 49.8734 19.3553V8.03434H55.7165V17.9351C55.7165 20.5861 56.7174 21.9116 58.7192 21.9116C59.8012 21.9116 60.6128 21.4923 61.1538 20.6537C61.7219 19.8151 62.0059 18.6655 62.0059 17.2047ZM77.9214 16.8801V26.0505H72.0783V8.03434H77.9214V10.8341C78.4083 9.83324 79.1658 9.03523 80.1937 8.4401C81.2487 7.84498 82.4525 7.54741 83.805 7.54741C86.0774 7.54741 87.7275 8.22369 88.7554 9.57626C89.7834 10.9018 90.2973 12.633 90.2973 14.7701V26.0505H84.4543V16.1903C84.4543 13.5122 83.4534 12.1732 81.4516 12.1732C80.2884 12.1732 79.4092 12.5925 78.8141 13.4311C78.219 14.2696 77.9214 15.4193 77.9214 16.8801ZM107.384 17.2453V16.8395C107.384 15.4058 107.005 14.2696 106.248 13.4311C105.517 12.5654 104.543 12.1326 103.326 12.1326C101.973 12.1326 100.945 12.5789 100.242 13.4716C99.5659 14.3373 99.2277 15.5275 99.2277 17.0424C99.2277 18.5843 99.5659 19.8016 100.242 20.6943C100.945 21.5599 101.973 21.9928 103.326 21.9928C104.543 21.9928 105.517 21.5599 106.248 20.6943C107.005 19.8287 107.384 18.679 107.384 17.2453ZM107.384 26.0505V22.8449C106.951 23.954 106.207 24.8467 105.152 25.523C104.097 26.1992 102.826 26.5374 101.338 26.5374C98.7679 26.5374 96.7796 25.6582 95.3729 23.8999C93.9933 22.1145 93.3035 19.8287 93.3035 17.0424C93.3035 14.2832 93.9933 12.0109 95.3729 10.2255C96.7796 8.4401 98.7679 7.54741 101.338 7.54741C102.826 7.54741 104.097 7.89908 105.152 8.60241C106.207 9.27869 106.951 10.1714 107.384 11.2805V0.487044H113.267V26.0505H107.384ZM128.02 18.422V18.0568L125.058 18.6655C124.03 18.8819 123.272 19.1524 122.785 19.477C122.326 19.7746 122.096 20.248 122.096 20.8972C122.096 21.4112 122.285 21.8305 122.664 22.1551C123.042 22.4526 123.543 22.6014 124.165 22.6014C125.274 22.6014 126.194 22.2227 126.924 21.4653C127.655 20.6808 128.02 19.6664 128.02 18.422ZM133.782 14.5672V21.1407C133.782 22.0333 134.16 22.4797 134.918 22.4797C135.459 22.4797 135.959 22.3715 136.419 22.1551V25.2795C135.337 26.064 134.066 26.4562 132.605 26.4562C131.523 26.4562 130.603 26.1857 129.846 25.6447C129.115 25.0766 128.615 24.2921 128.344 23.2912C127.316 25.4012 125.301 26.4562 122.298 26.4562C120.486 26.4562 119.052 26.0234 117.997 25.1578C116.942 24.2921 116.415 23.0883 116.415 21.5464C116.415 19.9233 116.969 18.679 118.079 17.8134C119.215 16.9207 120.851 16.2714 122.988 15.8657L128.02 14.973V14.6484C128.02 12.8359 127.141 11.9297 125.382 11.9297C123.84 11.9297 122.88 12.7818 122.501 14.4861L117.064 14.0803C117.389 12.0785 118.281 10.496 119.742 9.33279C121.23 8.14254 123.218 7.54741 125.707 7.54741C128.169 7.54741 130.13 8.12901 131.591 9.29222C133.051 10.4554 133.782 12.2137 133.782 14.5672ZM138.876 0.487044H144.719V26.0505H138.876V0.487044ZM148.951 0.487044H154.794V26.0505H148.951V0.487044Z" fill="#0F101A"/>
</svg>
