<svg width="77" height="76" viewBox="0 0 77 76" fill="none" xmlns="http://www.w3.org/2000/svg">
<path d="M19.0846 28.7543C18.3823 28.7543 17.8123 28.1843 17.8123 27.482V22.8737C17.8123 22.4741 17.9981 22.1001 18.3161 21.8609C19.6139 20.8787 20.3569 19.4028 20.3569 17.8124V13.9955C20.3569 11.1887 18.0744 8.9062 15.2677 8.9062C12.4609 8.9062 10.1784 11.1887 10.1784 13.9955V17.8124C10.1784 19.4028 10.9214 20.8787 12.2192 21.8609C12.5373 22.1001 12.723 22.4767 12.723 22.8762V27.4845C12.723 28.1868 12.153 28.7568 11.4507 28.7568C10.7484 28.7568 10.1784 28.1843 10.1784 27.482V23.4742C8.5524 22.0212 7.63379 19.9906 7.63379 17.8124V13.9955C7.63379 9.78664 11.0589 6.36157 15.2677 6.36157C19.4765 6.36157 22.9016 9.78664 22.9016 13.9955V17.8124C22.9016 19.9906 21.9829 22.0187 20.3569 23.4742V27.482C20.3569 28.1843 19.7869 28.7543 19.0846 28.7543Z" fill="black"/>
<path d="M16.5475 25.3191C15.9571 25.3191 15.4279 24.9043 15.3032 24.3038C15.1632 23.6142 15.606 22.9424 16.2956 22.8025C18.6468 22.3165 20.3568 20.2197 20.3568 17.8125C20.3568 17.1102 20.9268 16.5402 21.6291 16.5402C22.3314 16.5402 22.9014 17.1102 22.9014 17.8125C22.9014 21.4208 20.3364 24.5659 16.8045 25.2911C16.718 25.3089 16.634 25.3191 16.5475 25.3191Z" fill="black"/>
<path d="M23.8534 30.7493C23.6854 30.7493 23.5149 30.7163 23.3521 30.645L18.5834 28.5966C17.9371 28.3192 17.6394 27.5711 17.9167 26.9248C18.1916 26.2759 18.9397 25.9833 19.586 26.2581L24.3547 28.3065C25.001 28.5839 25.2987 29.332 25.0213 29.9783C24.8152 30.4618 24.3445 30.7493 23.8534 30.7493Z" fill="black"/>
<path d="M7.63388 46.1519C7.4583 46.1519 7.27763 46.1163 7.10714 46.0374L2.23673 43.8236C0.877896 43.2027 0 41.8388 0 40.3476V36.8208C0 33.2532 2.11204 30.047 5.37934 28.6525L10.9444 26.2377C11.5959 25.9578 12.3389 26.2529 12.6188 26.8967C12.8962 27.5405 12.601 28.2912 11.9572 28.5711L6.38701 30.9885C4.05105 31.9885 2.54463 34.2761 2.54463 36.8208V40.3476C2.54463 40.8438 2.83726 41.3019 3.2902 41.508L8.16062 43.7218C8.79932 44.0119 9.08177 44.7676 8.79169 45.4063C8.57794 45.8745 8.11482 46.1519 7.63388 46.1519Z" fill="black"/>
<path d="M20.2017 16.3111C17.6673 16.3111 15.2448 15.4383 13.1963 13.7868C12.6518 13.3466 12.5653 12.5476 13.003 12.0005C13.4483 11.4534 14.2498 11.3694 14.7918 11.8096C16.4255 13.1252 18.3645 13.8351 20.3518 13.7664C20.2297 11.064 17.9955 8.9062 15.2677 8.9062C12.4609 8.9062 10.1784 11.1887 10.1784 13.9955V14.937C10.1784 15.6393 9.60842 16.2093 8.9061 16.2093C8.20379 16.2093 7.63379 15.6418 7.63379 14.937V13.9955C7.63379 9.78664 11.0589 6.36157 15.2677 6.36157C19.4765 6.36157 22.9016 9.78664 22.9016 13.9955V14.8861C22.9016 15.5121 22.4461 16.0439 21.8303 16.1431C21.2425 16.2373 20.7335 16.3111 20.2017 16.3111Z" fill="black"/>
<path d="M64.8878 28.7543C64.1855 28.7543 63.6155 28.1843 63.6155 27.482V22.8737C63.6155 22.4742 63.8013 22.1001 64.1194 21.8609C65.4171 20.8787 66.1601 19.4028 66.1601 17.8124V13.9955C66.1601 11.1887 63.8776 8.90622 61.0709 8.90622C58.2642 8.90622 55.9816 11.1887 55.9816 13.9955V17.8124C55.9816 19.4028 56.7247 20.8787 58.0224 21.8609C58.3405 22.1001 58.5263 22.4767 58.5263 22.8762V27.4845C58.5263 28.1869 57.9563 28.7569 57.254 28.7569C56.5516 28.7569 55.9816 28.1869 55.9816 27.4845V23.4768C54.3556 22.0238 53.437 19.9932 53.437 17.815V13.998C53.437 9.7892 56.8621 6.36414 61.0709 6.36414C65.2797 6.36414 68.7048 9.7892 68.7048 13.998V17.815C68.7048 19.9932 67.7862 22.0212 66.1601 23.4768V27.4845C66.1601 28.1843 65.5901 28.7543 64.8878 28.7543Z" fill="black"/>
<path d="M62.3512 25.3191C61.7608 25.3191 61.2316 24.9043 61.1069 24.3038C60.9669 23.6142 61.4097 22.9424 62.0993 22.8025C64.4505 22.3165 66.1605 20.2197 66.1605 17.8125C66.1605 17.1102 66.7305 16.5402 67.4328 16.5402C68.1351 16.5402 68.7051 17.1102 68.7051 17.8125C68.7051 21.4208 66.1402 24.5659 62.6082 25.2911C62.5217 25.3089 62.4377 25.3191 62.3512 25.3191Z" fill="black"/>
<path d="M52.8596 30.589C52.3685 30.589 51.8978 30.3015 51.6916 29.818C51.4143 29.1742 51.712 28.4236 52.3583 28.1462L56.7529 26.2581C57.3942 25.9858 58.1448 26.2759 58.4222 26.9248C58.6995 27.5686 58.4018 28.3192 57.7555 28.5966L53.3609 30.4847C53.1981 30.556 53.0301 30.589 52.8596 30.589Z" fill="black"/>
<path d="M68.7049 46.1519C68.2239 46.1519 67.7608 45.8745 67.547 45.4063C67.257 44.7676 67.5394 44.0119 68.1781 43.7218L73.0485 41.508C73.5015 41.3018 73.7941 40.8464 73.7941 40.3476V36.8208C73.7941 34.2761 72.2877 31.9885 69.9594 30.9936L64.3815 28.5711C63.7377 28.2912 63.4426 27.543 63.7199 26.8967C63.9998 26.2504 64.7378 25.9552 65.3943 26.2377L70.9645 28.655C74.2267 30.047 76.3387 33.2532 76.3387 36.8208V40.3476C76.3387 41.8388 75.4608 43.2027 74.102 43.8236L69.2316 46.0374C69.0611 46.1137 68.8804 46.1519 68.7049 46.1519Z" fill="black"/>
<path d="M41.5029 12.5094C37.8844 12.5094 34.1184 11.2346 32.042 9.36681C31.5178 8.89605 31.4745 8.09195 31.9453 7.5703C32.416 7.04865 33.2277 7.00539 33.7418 7.47615C36.2508 9.73069 42.2612 10.9089 45.7041 9.06145C46.3224 8.72811 47.096 8.95967 47.4268 9.58056C47.7601 10.2014 47.526 10.9699 46.9077 11.3033C45.3376 12.1405 43.4419 12.5094 41.5029 12.5094Z" fill="black"/>
<path d="M38.1515 35.6248C33.9299 35.6248 31.7288 32.332 31.1537 30.589C30.9323 29.9197 31.2962 29.2021 31.9629 28.9808C32.6296 28.7619 33.3447 29.1233 33.566 29.7849C33.6195 29.9375 34.7467 33.0776 38.1515 33.0776C41.5842 33.0776 42.7929 29.8408 42.8463 29.7034C43.0829 29.0444 43.8209 28.7009 44.4698 28.935C45.1288 29.1691 45.4774 29.8892 45.2459 30.5508C45.1721 30.7595 43.4137 35.6248 38.1515 35.6248Z" fill="black"/>
<path d="M62.3433 45.8033C61.641 45.8033 61.071 45.2333 61.071 44.531V43.821C61.071 40.0474 58.6918 36.6732 55.1522 35.4289L44.5386 31.6628C43.0118 31.131 41.9863 29.6856 41.9863 28.0698V24.9399C41.9863 24.2376 42.5563 23.6676 43.2586 23.6676C43.961 23.6676 44.531 24.2376 44.531 24.9399V28.0698C44.531 28.6042 44.8745 29.0826 45.3834 29.2607L55.9996 33.0293C60.5545 34.6299 63.6157 38.9684 63.6157 43.821V44.5335C63.6157 45.2359 63.0457 45.8033 62.3433 45.8033Z" fill="black"/>
<path d="M13.9955 45.8033C13.2931 45.8033 12.7231 45.2333 12.7231 44.531V43.8439C12.7231 43.05 12.8071 42.2535 12.9725 41.4672C13.7919 37.5918 16.6266 34.3601 20.3621 33.0267L30.9529 29.3116C31.4643 29.1334 31.8078 28.6525 31.8078 28.1181V24.9374C31.8078 24.235 32.3778 23.665 33.0802 23.665C33.7825 23.665 34.3525 24.235 34.3525 24.9374V28.1181C34.3525 29.7314 33.327 31.1768 31.7951 31.7137L21.212 35.4263C18.3035 36.462 16.0999 38.9786 15.4612 41.994C15.3314 42.6047 15.2678 43.2281 15.2678 43.8439V44.531C15.2678 45.2358 14.6978 45.8033 13.9955 45.8033Z" fill="black"/>
<path d="M38.1692 27.9909C37.4669 27.9909 36.8969 27.4209 36.8969 26.7186C36.8969 26.0163 37.4669 25.4463 38.1692 25.4463C40.8106 25.4463 45.8031 23.0543 45.8031 13.9954V10.1785C45.8031 5.96969 42.378 2.54463 38.1692 2.54463C33.9604 2.54463 30.5353 5.96969 30.5353 10.1785V13.9954C30.5353 18.3824 31.7084 21.7387 33.9248 23.7007C34.4515 24.1663 34.5024 24.9704 34.0342 25.4972C33.5635 26.0264 32.7619 26.0697 32.2402 25.6066C30.3012 23.8915 27.9907 20.4868 27.9907 13.9954V10.1785C27.9907 4.56506 32.5558 0 38.1692 0C43.7827 0 48.3477 4.56506 48.3477 10.1785V13.9954C48.3477 25.0671 41.691 27.9909 38.1692 27.9909Z" fill="black"/>
<path d="M57.5546 68.7049C57.0864 68.7049 56.6385 68.4454 56.4146 67.9975C56.1041 67.3665 56.3611 66.6056 56.9922 66.2926L63.2851 63.1755C63.6388 62.9999 64.0612 62.9999 64.4123 63.1755L68.5245 65.2137L67.8552 60.6741C67.7993 60.2822 67.9265 59.8827 68.2064 59.6003L71.4203 56.3151L66.8908 55.5441C66.5015 55.478 66.1631 55.2311 65.9773 54.88L63.85 50.8137L61.7201 54.88C61.5344 55.2311 61.1959 55.478 60.8066 55.5441L56.2797 56.3151L59.491 59.6003C59.9822 60.1041 59.972 60.9082 59.4707 61.3993C58.9668 61.893 58.1602 61.8828 57.6716 61.3789L52.7631 56.3584C52.4322 56.02 52.3152 55.5263 52.4628 55.0759C52.6104 54.6255 52.9921 54.2947 53.4603 54.2158L59.7608 53.142L62.7253 47.4827C62.9466 47.0629 63.3818 46.8008 63.8525 46.8008C64.3284 46.8008 64.7584 47.0654 64.9798 47.4827L67.9418 53.142L74.2448 54.2158C74.713 54.2947 75.0947 54.6281 75.2423 55.0759C75.3899 55.5238 75.2728 56.02 74.942 56.3584L70.4711 60.926L71.4024 67.2469C71.4686 67.7151 71.2727 68.1833 70.891 68.4606C70.5093 68.7406 70.0004 68.7838 69.5779 68.5701L63.8525 65.7328L58.1246 68.5701C57.9388 68.6642 57.7454 68.7049 57.5546 68.7049Z" fill="black"/>
<path d="M30.7287 75.6289C30.4641 75.6289 30.202 75.5474 29.9806 75.3871C29.5989 75.1098 29.4004 74.6416 29.4691 74.1708L30.5837 66.5802L25.2196 61.094C24.8888 60.7555 24.7717 60.2619 24.9193 59.8115C25.0669 59.3611 25.4486 59.0277 25.9168 58.9514L33.4845 57.6638L37.0419 50.8671C37.4847 50.0274 38.8562 50.0274 39.299 50.8671L42.8564 57.6638L50.4241 58.9514C50.8923 59.0303 51.274 59.3636 51.4216 59.8115C51.5692 60.2593 51.4522 60.7555 51.1213 61.094L45.7547 66.5802L46.8718 74.1708C46.938 74.639 46.742 75.1072 46.3604 75.3846C45.9787 75.667 45.4697 75.7052 45.0473 75.494L38.1692 72.0867L31.2936 75.494C31.1155 75.5831 30.9221 75.6289 30.7287 75.6289ZM28.7363 61.0507L32.8433 65.2519C33.1207 65.5369 33.2504 65.9338 33.1945 66.3257L32.3395 72.1351L37.6043 69.5268C37.958 69.3487 38.3804 69.3487 38.7316 69.5268L43.9938 72.1351L43.1389 66.3257C43.0829 65.9338 43.2101 65.5343 43.49 65.2519L47.5996 61.0507L41.8055 60.0634C41.4161 59.9972 41.0777 59.7504 40.8919 59.3992L38.1692 54.1955L35.4464 59.3992C35.2607 59.7504 34.9223 59.9972 34.5329 60.0634L28.7363 61.0507Z" fill="black"/>
<path d="M18.9906 68.7052C18.7998 68.7052 18.6089 68.6619 18.4257 68.5729L12.7003 65.7356L6.97234 68.5754C6.55248 68.7841 6.04609 68.7434 5.65931 68.4635C5.27762 68.1861 5.07914 67.7179 5.14784 67.2497L6.07917 60.9288L1.60826 56.3612C1.27746 56.0228 1.16041 55.5291 1.308 55.0787C1.45559 54.6283 1.83728 54.295 2.30549 54.2186L8.60853 53.1448L11.573 47.4855C11.7944 47.0657 12.2295 46.8036 12.7003 46.8036C13.1761 46.8036 13.6062 47.0682 13.8276 47.4855L16.7895 53.1448L23.09 54.2186C23.5582 54.2975 23.9399 54.6309 24.0875 55.0787C24.2351 55.5266 24.118 56.0228 23.7872 56.3612L18.8786 61.3792C18.3926 61.883 17.586 61.8932 17.0796 61.3996C16.5783 60.9085 16.5681 60.1044 17.0592 59.6005L20.2706 56.3154L15.7437 55.5444C15.3518 55.4782 15.0159 55.2314 14.8301 54.8802L12.7028 50.8139L10.573 54.8802C10.3872 55.2314 10.0488 55.4782 9.65946 55.5444L5.13003 56.3154L8.34389 59.6005C8.62126 59.8855 8.75103 60.2825 8.69505 60.6743L8.02581 65.214L12.1405 63.1757C12.4942 63.0001 12.9166 63.0001 13.2677 63.1757L19.5581 66.2929C20.1891 66.6059 20.4461 67.3667 20.1357 67.9978C19.9067 68.4456 19.4563 68.7052 18.9906 68.7052Z" fill="black"/>
</svg>
