<svg width="30" height="30" viewBox="0 0 30 30" fill="none" xmlns="http://www.w3.org/2000/svg">
<path d="M29.3051 13.4515H17.7752C17.6478 13.4515 17.5256 13.5021 17.4355 13.5922C17.3454 13.6823 17.2948 13.8045 17.2948 13.9319V15.6662C16.4177 15.1617 15.4241 14.8951 14.4123 14.8927H12.9711V13.9319C13.9172 13.2293 14.572 12.2034 14.8111 11.0495H14.8927C15.2602 11.0474 15.6194 10.94 15.9278 10.74C16.2361 10.54 16.4806 10.2558 16.6323 9.92103C16.7839 9.58629 16.8365 9.21508 16.7836 8.8514C16.7307 8.48772 16.5747 8.14682 16.334 7.86913V6.24534C16.334 4.58898 15.676 3.00045 14.5048 1.82922C13.3335 0.65799 11.745 0 10.0886 0C8.43226 0 6.84374 0.65799 5.67251 1.82922C4.50128 3.00045 3.84329 4.58898 3.84329 6.24534V7.86913C3.60257 8.14682 3.44652 8.48772 3.39366 8.8514C3.34079 9.21508 3.39331 9.58629 3.54501 9.92103C3.6967 10.2558 3.9412 10.54 4.24951 10.74C4.55782 10.94 4.91702 11.0474 5.28452 11.0495H5.3806C5.61594 12.2013 6.26546 13.2268 7.20617 13.9319V14.8927H5.76493C4.23598 14.8927 2.76964 15.5001 1.68851 16.5813C0.607375 17.6624 0 19.1287 0 20.6577V29.3051C0 29.4325 0.0506146 29.5547 0.140709 29.6448C0.230804 29.7349 0.352998 29.7855 0.480411 29.7855H16.334V28.8247H12.4186L11.0495 20.7345L11.6308 19.5719L12.7357 20.1244C12.8084 20.1618 12.8894 20.18 12.9711 20.1773C13.0718 20.1775 13.1701 20.1461 13.252 20.0875C13.3339 20.0289 13.3953 19.946 13.4275 19.8506L14.7534 15.8536C15.6754 15.9226 16.5578 16.2563 17.2948 16.8144V29.3051C17.2948 29.4325 17.3454 29.5547 17.4355 29.6448C17.5256 29.7349 17.6478 29.7855 17.7752 29.7855H29.3051C29.4325 29.7855 29.5547 29.7349 29.6448 29.6448C29.7349 29.5547 29.7855 29.4325 29.7855 29.3051V13.9319C29.7855 13.8045 29.7349 13.6823 29.6448 13.5922C29.5547 13.5021 29.4325 13.4515 29.3051 13.4515ZM14.8927 10.0886V8.16699C15.1476 8.16699 15.392 8.26822 15.5721 8.44841C15.7523 8.6286 15.8536 8.87298 15.8536 9.12781C15.8536 9.38264 15.7523 9.62702 15.5721 9.80721C15.392 9.9874 15.1476 10.0886 14.8927 10.0886ZM4.3237 9.12781C4.3237 8.87298 4.42493 8.6286 4.60512 8.44841C4.78531 8.26822 5.0297 8.16699 5.28452 8.16699V10.0886C5.0297 10.0886 4.78531 9.9874 4.60512 9.80721C4.42493 9.62702 4.3237 9.38264 4.3237 9.12781ZM5.28452 7.20617C5.12222 7.20865 4.96085 7.23125 4.80411 7.27342V6.24534C4.80411 4.8438 5.36087 3.49966 6.35191 2.50862C7.34295 1.51758 8.68709 0.960822 10.0886 0.960822C11.4902 0.960822 12.8343 1.51758 13.8254 2.50862C14.8164 3.49966 15.3732 4.8438 15.3732 6.24534V7.27342C15.2164 7.23125 15.055 7.20865 14.8927 7.20617C14.8927 7.07875 14.8421 6.95656 14.752 6.86646C14.6619 6.77637 14.5397 6.72575 14.4123 6.72575C14.0394 6.72575 13.6716 6.63893 13.3381 6.47216C13.0046 6.30539 12.7144 6.06326 12.4907 5.76493L11.9142 4.99627C11.8694 4.93661 11.8114 4.88818 11.7447 4.85483C11.678 4.82147 11.6044 4.80411 11.5299 4.80411C11.4553 4.80411 11.3817 4.82147 11.315 4.85483C11.2483 4.88818 11.1903 4.93661 11.1455 4.99627L10.569 5.76493C10.3453 6.06326 10.0552 6.30539 9.72163 6.47216C9.38809 6.63893 9.02031 6.72575 8.6474 6.72575H5.76493C5.63752 6.72575 5.51533 6.77637 5.42523 6.86646C5.33514 6.95656 5.28452 7.07875 5.28452 7.20617ZM6.24534 10.0886V7.68658H8.6474C9.16947 7.68658 9.68437 7.56502 10.1513 7.33155C10.6183 7.09807 11.0245 6.75908 11.3377 6.34143L11.5299 6.08681L11.722 6.34143C12.2581 7.05154 13.0518 7.52256 13.9319 7.65295V10.0886C13.9319 11.1079 13.527 12.0855 12.8062 12.8062C12.0855 13.527 11.1079 13.9319 10.0886 13.9319C9.06933 13.9319 8.09177 13.527 7.37102 12.8062C6.65026 12.0855 6.24534 11.1079 6.24534 10.0886ZM10.0886 14.8927C10.7502 14.8931 11.4047 14.7556 12.0103 14.4892V15.2002L10.0886 17.5062L8.16699 15.2002V14.4892C8.77258 14.7556 9.42702 14.8931 10.0886 14.8927ZM7.4848 19.0195L6.4327 15.8536H7.46078L9.32958 18.0971L7.4848 19.0195ZM0.960822 20.6577C0.957751 19.4405 1.41681 18.2675 2.24525 17.3758C3.07369 16.484 4.20973 15.94 5.42384 15.8536L6.74977 19.8314C6.77865 19.9304 6.83861 20.0175 6.9208 20.0798C7.00299 20.142 7.10304 20.1762 7.20617 20.1773C7.28137 20.1768 7.35542 20.1587 7.42235 20.1244L8.5273 19.5719L9.12781 20.7345L7.75864 28.8247H3.84329V22.0989H2.88247V28.8247H0.960822V20.6577ZM8.73387 28.8247L10.0166 21.1381H10.1607L11.4434 28.8247H8.73387ZM10.2712 20.1773H9.90608L9.38723 19.1444L10.0886 18.7937L10.79 19.1444L10.2712 20.1773ZM12.6732 19.0195L10.8285 18.0971L12.7165 15.8536H13.7446L12.6732 19.0195ZM21.1381 14.4123H25.9422V15.3732H21.1381V14.4123ZM28.8247 28.8247H18.2556V14.4123H20.1773V15.8536C20.1773 15.981 20.2279 16.1032 20.318 16.1933C20.4081 16.2834 20.5303 16.334 20.6577 16.334H26.4226C26.55 16.334 26.6722 16.2834 26.7623 16.1933C26.8524 16.1032 26.903 15.981 26.903 15.8536V14.4123H28.8247V28.8247Z" fill="#00907F"/>
<path d="M21.6184 17.2949H19.6967C19.5693 17.2949 19.4471 17.3455 19.357 17.4356C19.2669 17.5257 19.2163 17.6479 19.2163 17.7753V19.697C19.2163 19.8244 19.2669 19.9466 19.357 20.0367C19.4471 20.1268 19.5693 20.1774 19.6967 20.1774H21.6184C21.7458 20.1774 21.868 20.1268 21.9581 20.0367C22.0482 19.9466 22.0988 19.8244 22.0988 19.697V17.7753C22.0988 17.6479 22.0482 17.5257 21.9581 17.4356C21.868 17.3455 21.7458 17.2949 21.6184 17.2949ZM21.138 19.2166H20.1771V18.2557H21.138V19.2166Z" fill="#00907F"/>
<path d="M21.6184 21.1382H19.6967C19.5693 21.1382 19.4471 21.1888 19.357 21.2789C19.2669 21.369 19.2163 21.4912 19.2163 21.6186V23.5402C19.2163 23.6677 19.2669 23.7898 19.357 23.8799C19.4471 23.97 19.5693 24.0207 19.6967 24.0207H21.6184C21.7458 24.0207 21.868 23.97 21.9581 23.8799C22.0482 23.7898 22.0988 23.6677 22.0988 23.5402V21.6186C22.0988 21.4912 22.0482 21.369 21.9581 21.2789C21.868 21.1888 21.7458 21.1382 21.6184 21.1382ZM21.138 23.0598H20.1771V22.099H21.138V23.0598Z" fill="#00907F"/>
<path d="M21.6184 24.9814H19.6967C19.5693 24.9814 19.4471 25.0321 19.357 25.1222C19.2669 25.2122 19.2163 25.3344 19.2163 25.4619V27.3835C19.2163 27.5109 19.2669 27.6331 19.357 27.7232C19.4471 27.8133 19.5693 27.8639 19.6967 27.8639H21.6184C21.7458 27.8639 21.868 27.8133 21.9581 27.7232C22.0482 27.6331 22.0988 27.5109 22.0988 27.3835V25.4619C22.0988 25.3344 22.0482 25.2122 21.9581 25.1222C21.868 25.0321 21.7458 24.9814 21.6184 24.9814ZM21.138 26.9031H20.1771V25.9423H21.138V26.9031Z" fill="#00907F"/>
<path d="M23.0596 17.2949H27.8637V18.2557H23.0596V17.2949Z" fill="#00907F"/>
<path d="M23.0596 19.2163H27.8637V20.1771H23.0596V19.2163Z" fill="#00907F"/>
<path d="M23.0596 21.1382H27.8637V22.099H23.0596V21.1382Z" fill="#00907F"/>
<path d="M23.0596 23.0596H27.8637V24.0204H23.0596V23.0596Z" fill="#00907F"/>
<path d="M23.0596 24.9814H27.8637V25.9423H23.0596V24.9814Z" fill="#00907F"/>
<path d="M23.0596 26.9033H27.8637V27.8641H23.0596V26.9033Z" fill="#00907F"/>
</svg>
