<svg width="24" height="24" viewBox="0 0 24 24" fill="none" xmlns="http://www.w3.org/2000/svg">
<g clip-path="url(#clip0_1201_6531)">
<path fill-rule="evenodd" clip-rule="evenodd" d="M11.5125 1.40625C6.44179 1.40625 2.33067 5.51694 2.33067 10.5881C2.33067 15.0628 5.53277 18.7911 9.77051 19.6045C9.7772 19.5925 9.78398 19.5805 9.79086 19.5685C9.79099 19.5682 9.79111 19.568 9.79124 19.5678L13.6649 12.7893C14.802 10.7996 17.6707 10.7996 18.8079 12.7892L19.8053 14.5343C20.3751 13.3392 20.694 12.0015 20.694 10.5881C20.694 5.5169 16.5833 1.40625 11.5125 1.40625ZM0.924423 10.5881C0.924423 4.74025 5.66518 0 11.5125 0C17.36 0 22.1002 4.74029 22.1002 10.5881C22.1002 12.7089 21.476 14.6862 20.4007 16.3436C20.2672 16.5494 20.0362 16.6707 19.791 16.6638C19.5459 16.6569 19.3221 16.5228 19.2004 16.3099L17.5869 13.487C16.9897 12.442 15.4831 12.442 14.8858 13.487L11.011 20.2675C10.95 20.374 10.9038 20.4823 10.8708 20.5909C10.7705 20.92 10.4467 21.1282 10.1056 21.0829C4.9228 20.3945 0.924423 15.9586 0.924423 10.5881Z" fill="#777F8F"/>
<path fill-rule="evenodd" clip-rule="evenodd" d="M11.5125 4.94238C11.9008 4.94238 12.2156 5.25718 12.2156 5.64551V10.2966L14.4809 12.5619C14.7555 12.8365 14.7555 13.2817 14.4809 13.5563C14.2063 13.8308 13.7611 13.8308 13.4865 13.5563L11.0153 11.0851C10.8835 10.9532 10.8094 10.7743 10.8094 10.5879V5.64551C10.8094 5.25718 11.1242 4.94238 11.5125 4.94238Z" fill="#777F8F"/>
<path fill-rule="evenodd" clip-rule="evenodd" d="M14.8858 13.4869C14.8858 13.4869 14.8858 13.4869 14.8858 13.4869L11.0111 20.2674C10.95 20.3739 10.9038 20.4822 10.8708 20.5908L10.8703 20.5922C10.575 21.5543 11.2932 22.5936 12.3624 22.5936H20.1104C21.3048 22.5936 22.0535 21.3033 21.4611 20.2663L17.5869 13.4869C16.9897 12.4419 15.4831 12.4419 14.8858 13.4869ZM18.8078 12.7891C17.6707 10.7995 14.802 10.7995 13.6649 12.7891L9.79124 19.5677C9.79114 19.5678 9.79105 19.568 9.79096 19.5682C9.67695 19.767 9.58918 19.9723 9.52577 20.1803C8.963 22.0154 10.3156 23.9999 12.3624 23.9999H20.1104C22.3847 23.9999 23.81 21.543 22.6821 19.5688L20.4213 15.612L20.4213 15.6119L18.8078 12.7891C18.8078 12.7891 18.8078 12.7891 18.8078 12.7891Z" fill="#777F8F"/>
<path fill-rule="evenodd" clip-rule="evenodd" d="M16.2364 15.5332C16.6247 15.5332 16.9395 15.848 16.9395 16.2363V17.6484C16.9395 18.0368 16.6247 18.3516 16.2364 18.3516C15.848 18.3516 15.5332 18.0368 15.5332 17.6484V16.2363C15.5332 15.848 15.848 15.5332 16.2364 15.5332Z" fill="#777F8F"/>
<path d="M16.2364 21.1758C16.6042 21.1758 16.9565 20.8524 16.9395 20.4727C16.9224 20.0917 16.6305 19.7695 16.2364 19.7695C15.8686 19.7695 15.5162 20.0929 15.5332 20.4727C15.5503 20.8536 15.8422 21.1758 16.2364 21.1758Z" fill="#777F8F"/>
<path fill-rule="evenodd" clip-rule="evenodd" d="M11.5125 0C11.9008 0 12.2156 0.3148 12.2156 0.703125V2.11523C12.2156 2.50356 11.9008 2.81836 11.5125 2.81836C11.1242 2.81836 10.8094 2.50356 10.8094 2.11523V0.703125C10.8094 0.3148 11.1242 0 11.5125 0Z" fill="#777F8F"/>
<path fill-rule="evenodd" clip-rule="evenodd" d="M4.02574 3.10145C4.30033 2.82686 4.74552 2.82686 5.02011 3.10145L6.0186 4.09993C6.29318 4.37452 6.29318 4.81971 6.0186 5.0943C5.74401 5.36889 5.29881 5.36889 5.02423 5.0943L4.02574 4.09582C3.75115 3.82123 3.75115 3.37604 4.02574 3.10145Z" fill="#777F8F"/>
<path fill-rule="evenodd" clip-rule="evenodd" d="M0.924614 10.5879C0.924614 10.1996 1.23941 9.88477 1.62774 9.88477H3.03985C3.42817 9.88477 3.74297 10.1996 3.74297 10.5879C3.74297 10.9762 3.42817 11.291 3.03985 11.291H1.62774C1.23941 11.291 0.924614 10.9762 0.924614 10.5879Z" fill="#777F8F"/>
<path fill-rule="evenodd" clip-rule="evenodd" d="M6.0186 16.0819C6.29318 16.3565 6.29318 16.8017 6.0186 17.0763L5.02011 18.0748C4.74552 18.3494 4.30033 18.3494 4.02574 18.0748C3.75115 17.8002 3.75115 17.355 4.02574 17.0804L5.02423 16.0819C5.29881 15.8073 5.74401 15.8073 6.0186 16.0819Z" fill="#777F8F"/>
<path fill-rule="evenodd" clip-rule="evenodd" d="M19.282 10.5879C19.282 10.1996 19.5968 9.88477 19.9852 9.88477H21.3973C21.7856 9.88477 22.1004 10.1996 22.1004 10.5879C22.1004 10.9762 21.7856 11.291 21.3973 11.291H19.9852C19.5968 11.291 19.282 10.9762 19.282 10.5879Z" fill="#777F8F"/>
<path fill-rule="evenodd" clip-rule="evenodd" d="M18.9993 3.10146C19.2738 3.37605 19.2738 3.82125 18.9992 4.09583L18.0007 5.09431C17.7261 5.36889 17.2809 5.36888 17.0063 5.09429C16.7318 4.8197 16.7318 4.3745 17.0064 4.09992L18.0049 3.10144C18.2795 2.82686 18.7247 2.82687 18.9993 3.10146Z" fill="#777F8F"/>
</g>
<defs>
<clipPath id="clip0_1201_6531">
<rect width="24" height="24" fill="white"/>
</clipPath>
</defs>
</svg>
