<?xml version="1.0" encoding="iso-8859-1"?>
<!-- Generator: Adobe Illustrator 19.0.0, SVG Export Plug-In . SVG Version: 6.00 Build 0)  -->
<svg version="1.1" id="Capa_1" xmlns="http://www.w3.org/2000/svg" xmlns:xlink="http://www.w3.org/1999/xlink" x="0px" y="0px"
	 viewBox="0 0 512.001 512.001" style="enable-background:new 0 0 512.001 512.001;" xml:space="preserve">
<path style="fill:#F34336;" d="M508.977,246.637l-35.34-48.973l6.157-60.054c0.703-6.871-3.078-13.418-9.383-16.238l-55.117-24.66
	l-24.657-55.121c-2.821-6.301-9.367-10.082-16.234-9.383l-60.082,6.153L265.36,3.024c-5.594-4.031-13.133-4.031-18.727,0
	l-48.961,35.336l-60.07-6.153c-6.84-0.699-13.414,3.082-16.234,9.387L96.716,96.711l-55.121,24.653
	c-6.305,2.821-10.09,9.363-9.387,16.234l6.153,60.078L3.028,246.637c-4.035,5.59-4.035,13.137-0.004,18.727l35.34,48.969
	l-6.149,60.074c-0.703,6.871,3.082,13.414,9.383,16.234l55.109,24.649l24.66,55.125c2.821,6.301,9.395,10.078,16.234,9.383
	l60.07-6.149l48.961,35.328c2.797,2.015,6.078,3.023,9.363,3.023c3.281,0,6.566-1.008,9.359-3.023l48.973-35.328l60.078,6.145
	c6.91,0.699,13.414-3.082,16.234-9.387l24.653-55.109l55.117-24.657c6.301-2.821,10.086-9.367,9.383-16.234l-6.153-60.074
	l35.336-48.969C513.008,259.774,513.008,252.227,508.977,246.637z"/>
<path style="fill:#D22F2F;" d="M508.977,246.637l-35.34-48.973l6.157-60.054c0.703-6.871-3.078-13.418-9.383-16.238l-55.117-24.66
	l-24.657-55.121c-2.821-6.301-9.367-10.082-16.234-9.383l-48.691,4.985c1.201,1.277,2.233,2.735,2.976,4.398l24.657,55.121
	l55.117,24.66c6.305,2.821,10.086,9.367,9.383,16.238l-6.157,60.054l35.34,48.973c4.031,5.59,4.031,13.137,0,18.727l-35.336,48.969
	l6.153,60.074c0.703,6.867-3.082,13.414-9.383,16.234l-55.117,24.657l-24.653,55.109c-0.746,1.668-1.777,3.129-2.98,4.406
	l48.695,4.981c6.91,0.699,13.414-3.082,16.234-9.387l24.653-55.109l55.117-24.657c6.301-2.821,10.086-9.367,9.383-16.234
	l-6.153-60.074l35.336-48.969C513.008,259.774,513.008,252.227,508.977,246.637z"/>
<g>
	<path style="fill:#FEEA3B;" d="M134.852,197.168H88c-6.629,0-12,5.371-12,12v93.672c0,6.629,5.371,12,12,12c6.628,0,12-5.371,12-12
		V268h25.469c6.629,0,12-5.375,12-12c0-6.624-5.371-12-12-12H100v-22.832h34.852c6.629,0,12-5.371,12-12
		C146.852,202.539,141.481,197.168,134.852,197.168z"/>
	<path style="fill:#FEEA3B;" d="M327.625,221.156c6.629-0.004,11.996-5.379,11.996-12.008c-0.004-6.625-5.375-11.993-12-11.993
		h-0.004l-46.84,0.012c-6.625,0.004-11.996,5.375-11.996,12v93.683c0,3.179,1.266,6.235,3.516,8.485
		c2.25,2.25,5.3,3.516,8.485,3.516h0.004l46.84-0.016c6.629,0,11.996-5.375,11.996-12.004c-0.004-6.625-5.375-11.996-12-11.996
		h-0.004l-34.836,0.008v-22.843l25.469-0.004c6.625-0.004,11.996-5.375,11.996-12.004c0-6.625-5.375-11.996-12-11.996h-0.004
		l-25.461,0.004v-22.836L327.625,221.156z"/>
	<path style="fill:#FEEA3B;" d="M424,290.836l-34.84,0.004V268l25.469-0.004c6.629-0.004,12-5.375,12-12.004
		c0-6.625-5.375-12-12-11.996L389.16,244v-22.836l34.844-0.008c6.629-0.004,12-5.379,11.996-12.008
		c-0.004-6.625-5.375-11.993-12-11.993h-0.004l-46.84,0.012c-6.625,0.004-11.996,5.375-11.996,12v93.672
		c0,3.183,1.266,6.239,3.516,8.489c2.25,2.25,5.304,3.512,8.485,3.512l46.84-0.004c6.629,0,12-5.375,12-12
		C436.001,296.207,430.625,290.836,424,290.836z"/>
	<path style="fill:#FEEA3B;" d="M215.7,268h13.184c6.629,0,12-5.375,12-12v-46.832c0-6.629-5.371-12-12-12h-46.832
		c-6.629,0-12,5.371-12,12v93.672c0,6.629,5.371,12,12,12c6.629,0,12-5.371,12-12V280.29l31.035,31.039
		c2.344,2.344,5.414,3.512,8.485,3.512c3.07,0,6.141-1.172,8.485-3.512c4.688-4.688,4.688-12.285,0-16.972L215.7,268z
		 M194.052,221.168h22.832V244h-22.832V221.168z"/>
</g>
<g>
</g>
<g>
</g>
<g>
</g>
<g>
</g>
<g>
</g>
<g>
</g>
<g>
</g>
<g>
</g>
<g>
</g>
<g>
</g>
<g>
</g>
<g>
</g>
<g>
</g>
<g>
</g>
<g>
</g>
</svg>
