<svg width="16" height="16" viewBox="0 0 16 16" fill="none" xmlns="http://www.w3.org/2000/svg">
<path d="M15.0449 6.71683C14.6583 6.33226 14.2728 5.94654 13.8866 5.56155V1.82997C13.8866 1.16003 13.3435 0.616924 12.6735 0.616924C12.0036 0.616924 11.4605 1.16003 11.4605 1.82997V3.13823C10.7365 2.41332 10.0125 1.68842 9.28973 0.962275C8.97731 0.648377 8.66181 0.355629 8.21007 0.265137H7.78707C7.32968 0.356868 7.01207 0.655356 6.69612 0.972789C4.78895 2.88914 2.87719 4.80093 0.960689 6.70791C0.646398 7.02064 0.354799 7.33701 0.263672 7.78854V8.21154C0.31549 8.35687 0.350387 8.51123 0.422177 8.64593C0.681991 9.13326 1.09406 9.39268 1.64755 9.42111C1.73203 9.42546 1.81691 9.42172 1.92238 9.42172V9.6095C1.92238 11.0643 1.93719 12.5193 1.91725 13.9739C1.9038 14.9535 2.61575 15.6241 3.3373 15.7135C3.3508 15.7152 3.36298 15.7276 3.37576 15.7349H6.15549C6.42358 15.6348 6.51652 15.4369 6.5148 15.1578C6.50779 14.0161 6.51154 12.8743 6.51205 11.7326C6.51232 11.1774 6.8135 10.8787 7.37217 10.8781C7.7997 10.8776 8.22723 10.8768 8.65477 10.8783C9.17116 10.8801 9.48301 11.1898 9.48352 11.7037C9.4847 12.8555 9.48811 14.0073 9.48092 15.1591C9.47917 15.4389 9.57401 15.6352 9.84165 15.7349H12.6214C12.7172 15.7088 12.814 15.6854 12.9088 15.656C13.5843 15.4461 14.0667 14.8181 14.0703 14.1095C14.0778 12.615 14.0733 11.1205 14.0738 9.62597V9.42229C14.1553 9.42229 14.2283 9.42304 14.3013 9.42217C15.0132 9.41386 15.5676 8.95134 15.7073 8.25027C15.7121 8.22649 15.7246 8.20426 15.7335 8.18132V7.81875C15.6542 7.35731 15.364 7.03423 15.0449 6.71683Z" fill="#754FFE"/>
</svg>
