<svg width="568" height="885" viewBox="0 0 568 885" fill="none" xmlns="http://www.w3.org/2000/svg">
<g opacity="0.15" filter="url(#filter0_f_53_211)">
<circle cx="30" cy="347" r="223" fill="#13BE95"/>
</g>
<g opacity="0.46">
<path d="M-105.15 241.722C-56.8171 237.888 21.8496 214.722 81.8496 300.222C128.742 367.043 225.85 470.222 374.35 507.222" stroke="url(#paint0_linear_53_211)"/>
<path d="M-117.558 274.46C-69.3252 269.522 8.79113 244.563 70.7306 328.668C119.139 394.4 218.58 495.331 367.888 528.925" stroke="url(#paint1_linear_53_211)"/>
<path d="M-132.766 312.866C-84.6303 307.058 -6.97791 280.69 56.4717 363.662C106.06 428.508 207.31 527.625 357.2 558.516" stroke="url(#paint2_linear_53_211)"/>
</g>
<defs>
<filter id="filter0_f_53_211" x="-507.3" y="-190.3" width="1074.6" height="1074.6" filterUnits="userSpaceOnUse" color-interpolation-filters="sRGB">
<feFlood flood-opacity="0" result="BackgroundImageFix"/>
<feBlend mode="normal" in="SourceGraphic" in2="BackgroundImageFix" result="shape"/>
<feGaussianBlur stdDeviation="157.15" result="effect1_foregroundBlur_53_211"/>
</filter>
<linearGradient id="paint0_linear_53_211" x1="134.6" y1="236" x2="134.6" y2="507.222" gradientUnits="userSpaceOnUse">
<stop stop-color="#13BE95"/>
<stop offset="0.625" stop-color="#13BE95" stop-opacity="0"/>
</linearGradient>
<linearGradient id="paint1_linear_53_211" x1="121.998" y1="263.257" x2="128.2" y2="534.408" gradientUnits="userSpaceOnUse">
<stop stop-color="#13BE95"/>
<stop offset="0.625" stop-color="#13BE95" stop-opacity="0"/>
</linearGradient>
<linearGradient id="paint2_linear_53_211" x1="106.549" y1="297.335" x2="117.651" y2="568.33" gradientUnits="userSpaceOnUse">
<stop stop-color="#13BE95"/>
<stop offset="0.625" stop-color="#13BE95" stop-opacity="0"/>
</linearGradient>
</defs>
</svg>
