<svg width="24" height="22" viewBox="0 0 24 22" fill="none" xmlns="http://www.w3.org/2000/svg">
<path d="M13.0095 2.67646L18.9095 5.07813C20.6095 5.76563 20.6095 6.9023 18.9095 7.5898L13.0095 9.99147C12.3395 10.2665 11.2395 10.2665 10.5695 9.99147L4.66953 7.5898C2.96953 6.9023 2.96953 5.76563 4.66953 5.07813L10.5695 2.67646C11.2395 2.40146 12.3395 2.40146 13.0095 2.67646Z" stroke="#929AA7" stroke-width="1.5" stroke-linecap="round" stroke-linejoin="round"/>
<path d="M3 10.0835C3 10.8535 3.63 11.7427 4.4 12.0543L11.19 14.8227C11.71 15.0335 12.3 15.0335 12.81 14.8227L19.6 12.0543C20.37 11.7427 21 10.8535 21 10.0835" stroke="#929AA7" stroke-width="1.5" stroke-linecap="round" stroke-linejoin="round"/>
<path d="M3 14.6665C3 15.519 3.55 16.289 4.4 16.6373L11.19 19.4057C11.71 19.6165 12.3 19.6165 12.81 19.4057L19.6 16.6373C20.45 16.289 21 15.519 21 14.6665" stroke="#929AA7" stroke-width="1.5" stroke-linecap="round" stroke-linejoin="round"/>
</svg>
