<svg width="8" height="14" viewBox="0 0 8 14" fill="none" xmlns="http://www.w3.org/2000/svg">
<g clip-path="url(#clip0_198_1403)">
<path d="M2.05041 7.66685C2.05041 7.66685 1.90514 7.66685 1.85672 7.66685C1.37248 7.66685 0.888235 7.66685 0.403994 7.66685C0.11345 7.66685 0.0166016 7.58614 0.0166016 7.2956C0.0166016 6.61766 0.0166016 5.93972 0.0166016 5.27793C0.0166016 4.98738 0.11345 4.90667 0.403994 4.90667C0.888235 4.90667 1.37248 4.90667 1.85672 4.90667C1.92128 4.90667 1.96971 4.90667 2.05041 4.90667C2.05041 4.82597 2.05041 4.7614 2.05041 4.69684C2.05041 4.06732 2.05041 3.43781 2.09884 2.8083C2.22797 1.2103 3.43857 0.0804063 5.02043 -0.000300555C5.68222 -0.0325833 6.34402 -0.000300555 7.00581 -0.000300555C7.23179 -0.000300555 7.32864 0.0965476 7.32864 0.306385C7.32864 0.968181 7.32864 1.62998 7.32864 2.27563C7.32864 2.50161 7.23179 2.59846 7.00581 2.59846C6.55385 2.59846 6.11804 2.59846 5.66608 2.6146C5.14956 2.6146 4.93972 2.82444 4.92358 3.34096C4.92358 3.8252 4.92358 4.32559 4.92358 4.84211C4.98814 4.84211 5.05271 4.84211 5.10113 4.84211C5.68222 4.84211 6.24717 4.84211 6.82826 4.84211C7.18337 4.84211 7.26407 4.92282 7.26407 5.27793C7.26407 5.92358 7.26407 6.58538 7.26407 7.23103C7.26407 7.53772 7.18337 7.61842 6.87668 7.61842C6.29559 7.61842 5.69836 7.61842 5.11727 7.61842C5.05271 7.61842 5.00428 7.61842 4.90744 7.61842V7.8444C4.90744 9.58767 4.90744 11.3148 4.90744 13.0581C4.90744 13.51 4.84287 13.5584 4.40705 13.5584C3.79368 13.5584 3.16417 13.5584 2.5508 13.5584C2.11498 13.5584 2.05041 13.4939 2.05041 13.0742C2.05041 11.3309 2.05041 9.60381 2.05041 7.86054V7.65071V7.66685Z" fill="#264871"/>
</g>
<defs>
<clipPath id="clip0_198_1403">
<rect width="7.32818" height="13.5749" fill="white"/>
</clipPath>
</defs>
</svg>
