<svg width="15" height="15" viewBox="0 0 15 15" fill="none" xmlns="http://www.w3.org/2000/svg">
<g clip-path="url(#clip0_198_1411)">
<path d="M4.97154 0H9.47498C10.0076 0.0645655 10.5565 0.0645655 11.073 0.177555C12.4611 0.451958 13.4296 1.25903 13.9139 2.59876C14.156 3.24441 14.2044 3.92235 14.2044 4.61643C14.2044 6.24671 14.2044 7.87699 14.2044 9.52341C14.2044 10.0399 14.156 10.5726 14.0591 11.073C13.7847 12.445 13.0099 13.3973 11.7025 13.9139C11.073 14.156 10.4112 14.2205 9.73324 14.2367C8.2321 14.2367 6.73095 14.269 5.2298 14.2528C4.4873 14.2528 3.7448 14.2528 3.01844 14.0753C1.84012 13.7847 0.968482 13.1229 0.435817 12.0092C0.129131 11.3312 0.0322827 10.5887 0.0322827 9.84623C0 8.3128 0 6.76323 0 5.2298C0 4.58415 0.0484241 3.92235 0.145272 3.29284C0.290545 2.29207 0.774786 1.46886 1.58185 0.855492C2.29207 0.322827 3.09914 0.11299 3.95463 0.0645655C4.2936 0.0484241 4.63257 0.0322827 4.98768 0H4.97154ZM7.11834 12.9938C7.48959 12.9777 7.87699 12.9938 8.24824 12.9615C9.05531 12.9292 9.86238 12.9454 10.6694 12.8485C11.7186 12.7194 12.445 12.1222 12.7678 11.0891C12.9131 10.621 12.9454 10.1206 12.9454 9.63639C12.9454 8.37737 12.9777 7.11834 12.9615 5.84317C12.9615 5.10067 12.9292 4.34203 12.8485 3.59952C12.7194 2.45349 11.993 1.6787 10.8631 1.45272C10.3789 1.35587 9.86238 1.32359 9.36199 1.32359C8.11911 1.30745 6.87622 1.30745 5.63334 1.32359C4.92312 1.32359 4.19676 1.32359 3.50268 1.43658C2.42121 1.63028 1.6787 2.30821 1.45272 3.38969C1.35587 3.85779 1.32359 4.34203 1.32359 4.81013C1.29131 5.95616 1.29131 7.1022 1.30745 8.24824C1.30745 9.05531 1.33973 9.84623 1.42044 10.6533C1.48501 11.3958 1.82397 12.0092 2.45349 12.445C2.93773 12.784 3.50268 12.9131 4.06762 12.9292C5.08453 12.9615 6.11758 12.9777 7.13448 13.0099L7.11834 12.9938Z" fill="#264871"/>
<path d="M3.4541 7.13479C3.4541 5.11712 5.10052 3.4707 7.11819 3.4707C9.13586 3.4707 10.7661 5.10098 10.7823 7.11865C10.7823 9.13632 9.152 10.7827 7.13433 10.7989C5.11666 10.7989 3.47024 9.1686 3.47024 7.13479H3.4541ZM7.10205 9.50757C8.4095 9.50757 9.47483 8.45838 9.47483 7.15093C9.47483 5.84348 8.42564 4.77815 7.11819 4.76201C5.7946 4.76201 4.72927 5.8112 4.72927 7.13479C4.72927 8.44224 5.77846 9.50757 7.10205 9.50757Z" fill="#264871"/>
<path d="M10.9439 2.46977C11.4281 2.46977 11.7833 2.87331 11.7833 3.34141C11.7833 3.80951 11.3797 4.18076 10.9116 4.16462C10.4435 4.16462 10.0723 3.76108 10.0723 3.27684C10.0723 2.80874 10.4758 2.43749 10.9439 2.45363V2.46977Z" fill="#264871"/>
</g>
<defs>
<clipPath id="clip0_198_1411">
<rect width="14.2205" height="14.2528" fill="white"/>
</clipPath>
</defs>
</svg>
