<svg width="14" height="12" viewBox="0 0 14 12" fill="none" xmlns="http://www.w3.org/2000/svg">
<path d="M0 9.8298C1.48501 9.92665 2.82474 9.57154 4.05148 8.65148C2.77631 8.53849 1.93696 7.89284 1.45272 6.69838H2.64718V6.63381C2.03381 6.4724 1.51729 6.14957 1.11375 5.64919C0.71022 5.1488 0.516524 4.56771 0.500382 3.88978C0.887775 4.06733 1.27517 4.2126 1.71098 4.2126C0.532665 3.1957 0.161414 1.9851 0.887775 0.50009C2.40506 2.27564 4.27746 3.26026 6.56954 3.40554C6.56954 3.09885 6.5534 2.80831 6.56954 2.5339C6.69867 1.08118 7.92541 -0.032575 9.39428 -0.000292261C10.1368 -0.000292261 10.7663 0.274111 11.299 0.790635C11.3635 0.8552 11.4281 0.887483 11.5249 0.8552C12.0415 0.726069 12.5418 0.548514 13.0099 0.290252C13.0422 0.274111 13.0745 0.25797 13.1552 0.225687C12.9292 0.871342 12.558 1.35558 12.0253 1.74298C12.1867 1.71069 12.3481 1.67841 12.5096 1.64613C12.671 1.61384 12.8485 1.56542 13.0099 1.50085C13.1714 1.45243 13.3328 1.38787 13.5265 1.3233C13.2843 1.71069 13.0261 2.01738 12.7194 2.29178C12.5741 2.43705 12.4127 2.56618 12.2513 2.69532C12.1544 2.75988 12.1383 2.82445 12.1383 2.93744C12.2352 6.0043 10.4435 9.05501 7.68329 10.2979C5.11681 11.4601 2.58262 11.3148 0.129131 9.91051C0.0968482 9.89437 0.0645655 9.86208 0.0161414 9.84594L0 9.8298Z" fill="#264871"/>
</svg>
