<svg width="26" height="32" viewBox="0 0 26 32" fill="none" xmlns="http://www.w3.org/2000/svg">
<path d="M7.33332 10.8812V21.2203C7.33332 22.7401 10.2688 23.4323 12.9962 23.4323C15.7237 23.4323 18.6592 22.7401 18.6592 21.2203V10.8812C18.6592 9.36148 15.7237 8.66929 12.9962 8.66929C10.2688 8.66929 7.33332 9.36148 7.33332 10.8812ZM16.4952 21.9276C15.5678 22.2323 14.3252 22.4 12.9962 22.4C11.6673 22.4 10.4246 22.2323 9.49728 21.9276C8.54061 21.6134 8.33356 21.2848 8.33356 21.2203V19.1028C9.42614 19.7032 11.2536 19.9859 12.9962 19.9859C14.7389 19.9859 16.5664 19.7032 17.6589 19.1028V21.2203C17.6589 21.2848 17.4518 21.6134 16.4952 21.9276ZM16.4952 18.4812C15.5678 18.7859 14.3252 18.9536 12.9962 18.9536C11.6673 18.9536 10.4246 18.7859 9.49728 18.4812C8.54061 18.167 8.33356 17.8384 8.33356 17.7739V15.6564C9.42614 16.2568 11.2536 16.5395 12.9962 16.5395C14.7389 16.5395 16.5664 16.2568 17.6589 15.6564V17.7739C17.6589 17.8385 17.4518 18.167 16.4952 18.4812ZM16.4952 15.0349C15.5678 15.3395 14.3252 15.5073 12.9962 15.5073C11.6673 15.5073 10.4247 15.3395 9.49728 15.0349C8.54061 14.7206 8.33356 14.3921 8.33356 14.3276V12.2101C9.42614 12.8106 11.2536 13.0932 12.9962 13.0932C14.7389 13.0932 16.5664 12.8106 17.6589 12.2101V14.3276C17.6589 14.3921 17.4518 14.7206 16.4952 15.0349ZM17.6589 10.8812C17.6589 10.9457 17.4519 11.2743 16.4952 11.5885C15.5678 11.8932 14.3252 12.0609 12.9962 12.0609C11.6673 12.0609 10.4247 11.8932 9.49728 11.5885C8.54061 11.2743 8.33356 10.9457 8.33356 10.8812C8.33356 10.8168 8.54061 10.4881 9.49728 10.1739C10.4246 9.86929 11.6673 9.70155 12.9962 9.70155C14.3252 9.70155 15.5678 9.86929 16.4952 10.1739C17.4518 10.4881 17.6589 10.8167 17.6589 10.8812ZM25.8373 18.0968C25.2947 21.6365 23.4488 24.7463 20.6396 26.8533C19.5785 27.6492 18.4164 28.2721 17.1854 28.7046C17.132 28.7234 17.0776 28.7323 17.0242 28.7323C16.8159 28.7323 16.6216 28.5972 16.5507 28.3825C16.4617 28.1126 16.6015 27.8194 16.863 27.7275C17.999 27.3283 19.0717 26.7533 20.0516 26.0183C22.6446 24.0734 24.3485 21.2029 24.8494 17.9355C25.3504 14.6681 24.5884 11.3948 22.7038 8.71884C21.4579 6.94981 19.8043 5.56948 17.8878 4.68974L18.3449 5.57916C18.4743 5.83097 18.3814 6.14342 18.1374 6.27697C18.0628 6.31787 17.9825 6.33723 17.9035 6.33723C17.7243 6.33723 17.551 6.23761 17.4613 6.06284L16.3806 3.96026C16.3085 3.82013 16.303 3.65355 16.3655 3.50858C16.428 3.36361 16.5517 3.25639 16.7008 3.21781L18.9377 2.63897C19.2059 2.56961 19.4773 2.73761 19.5445 3.01406C19.6117 3.29052 19.4489 3.57084 19.1811 3.64019L18.4636 3.82581C20.4687 4.78181 22.2 6.24761 23.5129 8.11194C25.5545 11.011 26.38 14.557 25.8373 18.0968ZM9.61181 28.0399C9.68382 28.18 9.68939 28.3466 9.62687 28.4915C9.56436 28.6365 9.4407 28.7437 9.2916 28.7823L7.05463 29.3612C7.0138 29.3717 6.97286 29.3768 6.9326 29.3768C6.70861 29.3768 6.50481 29.2204 6.44785 28.9861C6.38065 28.7095 6.54344 28.4292 6.81132 28.3599L7.52862 28.1743C5.52338 27.2183 3.79321 25.7534 2.47952 23.888C-1.73506 17.9035 -0.446123 9.49613 5.35278 5.14665C6.32607 4.41665 7.38714 3.83077 8.50654 3.40535C8.76573 3.30677 9.05323 3.44381 9.14863 3.71129C9.24409 3.97877 9.11137 4.27548 8.85219 4.37394C7.81919 4.76652 6.83964 5.30748 5.94079 5.98161C0.588065 9.99645 -0.601723 17.757 3.28859 23.2811C4.53527 25.0513 6.18779 26.4309 8.10476 27.3108L7.64739 26.4209C7.51799 26.1691 7.61089 25.8566 7.85488 25.7231C8.09881 25.5895 8.40164 25.6854 8.53105 25.9372L9.61181 28.0399ZM12.724 6.19839C14.3799 6.19839 15.7271 4.80806 15.7271 3.09916C15.7271 1.39026 14.3799 0 12.724 0C11.0681 0 9.72089 1.39026 9.72089 3.09916C9.72089 4.80806 11.0681 6.19839 12.724 6.19839ZM12.724 1.03226C13.8284 1.03226 14.7269 1.95948 14.7269 3.09916C14.7269 4.2389 13.8284 5.16613 12.724 5.16613C11.6196 5.16613 10.7211 4.2389 10.7211 3.09916C10.7211 1.95948 11.6196 1.03226 12.724 1.03226ZM11.3812 3.43548C11.2039 3.2169 11.2319 2.89135 11.4437 2.70845C11.6556 2.52548 11.9709 2.55445 12.1482 2.77303L12.3886 3.06948L13.3086 1.99561C13.4916 1.782 13.8076 1.76194 14.0146 1.95084C14.2215 2.13961 14.2409 2.46581 14.0579 2.67935L12.7528 4.20271C12.6578 4.31361 12.5213 4.37697 12.3782 4.37697C12.3758 4.37697 12.3736 4.37697 12.3713 4.3769C12.2257 4.37484 12.0881 4.30735 11.9946 4.19206L11.3812 3.43548ZM12.9617 25.8015C11.3058 25.8015 9.95858 27.1919 9.95858 28.9008C9.95858 30.6097 11.3058 32 12.9617 32C14.6176 32 15.9648 30.6097 15.9648 28.9008C15.9648 27.1919 14.6176 25.8015 12.9617 25.8015ZM12.9617 30.9677C11.8573 30.9677 10.9588 30.0405 10.9588 28.9008C10.9588 27.761 11.8573 26.8338 12.9617 26.8338C14.0661 26.8338 14.9645 27.761 14.9645 28.9008C14.9645 30.0405 14.0661 30.9677 12.9617 30.9677ZM14.2957 28.481L12.9906 30.0043C12.8955 30.1152 12.7591 30.1786 12.6159 30.1786C12.6136 30.1786 12.6113 30.1786 12.6091 30.1785C12.4634 30.1765 12.3258 30.109 12.2324 29.9937L11.6189 29.237C11.4417 29.0185 11.4697 28.6929 11.6815 28.51C11.8933 28.327 12.2087 28.356 12.386 28.5746L12.6263 28.871L13.5464 27.7972C13.7293 27.5836 14.0454 27.5635 14.2523 27.7524C14.4592 27.9412 14.4786 28.2674 14.2957 28.481Z" fill="#00907F"/>
</svg>
