<svg width="1083" height="151" viewBox="0 0 1083 151" fill="none" xmlns="http://www.w3.org/2000/svg">
<g clip-path="url(#clip0_108_904)">
<path d="M41.2699 15.43C39.4966 25.0567 37.1532 33.86 34.2399 41.84C31.4532 49.6933 28.7299 57.1033 26.0699 64.07C23.4099 71.0367 21.1299 77.75 19.2299 84.21C17.3299 90.5433 16.3799 97.13 16.3799 103.97C16.3799 109.543 17.0766 114.357 18.4699 118.41C19.8632 122.463 21.6999 125.82 23.9799 128.48C26.2599 131.013 28.9199 132.913 31.9599 134.18C34.9999 135.32 38.1032 135.89 41.2699 135.89C48.1099 135.89 54.3166 133.42 59.8899 128.48C65.5899 123.54 70.6566 117.08 75.0899 109.1L41.2699 15.43ZM190.99 146.91V149H139.69V146.91H149.76C152.42 146.91 153.243 145.58 152.23 142.92L106.44 17.14C105.68 21.0667 104.73 25.5633 103.59 30.63C102.45 35.6967 101.12 41.08 99.5999 46.78C98.2066 52.3533 96.6232 58.18 94.8499 64.26C93.0766 70.34 91.1132 76.42 88.9599 82.5L111 142.92C112.013 145.58 113.787 146.91 116.32 146.91H126.39V149H74.8999V146.91H84.9699C87.7566 146.91 88.6432 145.58 87.6299 142.92L76.2299 111.57C73.1899 117.143 69.8966 122.337 66.3499 127.15C62.8032 131.963 58.9399 136.143 54.7599 139.69C50.7066 143.11 46.3999 145.833 41.8399 147.86C37.2799 149.887 32.4032 150.9 27.2099 150.9C23.6632 150.9 20.2432 150.393 16.9499 149.38C13.6566 148.367 10.8066 146.783 8.39992 144.63C5.99325 142.35 4.02992 139.5 2.50992 136.08C1.11659 132.66 0.419922 128.543 0.419922 123.73C0.419922 118.537 1.24325 113.28 2.88992 107.96C4.53659 102.513 6.62659 96.94 9.15992 91.24C11.6932 85.54 14.4799 79.7133 17.5199 73.76C20.5599 67.68 23.5366 61.41 26.4499 54.95C29.3632 48.3633 32.0232 41.65 34.4299 34.81C36.8366 27.8433 38.6099 20.6233 39.7499 13.15C38.8632 11.7567 37.4699 11.06 35.5699 11.06H24.7399V9.15999H62.1699L88.0099 80.03C90.1632 74.0767 92.0632 68.06 93.7099 61.98C95.4832 55.7733 97.0666 49.7567 98.4599 43.93C99.8532 38.1033 101.057 32.6567 102.07 27.59C103.21 22.3967 104.16 17.7733 104.92 13.72C104.033 11.9467 102.513 11.06 100.36 11.06H89.5299V9.15999H126.96L175.6 142.92C176.74 145.58 178.577 146.91 181.11 146.91H190.99ZM270.702 89.72C270.576 83.64 269.942 78.13 268.802 73.19C267.662 68.25 266.016 64.0067 263.862 60.46C261.836 56.9133 259.302 54.19 256.262 52.29C253.349 50.39 249.992 49.44 246.192 49.44C239.226 49.44 233.652 52.3533 229.472 58.18C225.419 64.0067 223.392 71.7333 223.392 81.36C223.392 84.02 223.582 86.8067 223.962 89.72H270.702ZM289.322 106.25C289.449 110.43 289.132 115.117 288.372 120.31C287.739 125.503 286.156 130.38 283.622 134.94C281.216 139.373 277.606 143.173 272.792 146.34C267.979 149.38 261.519 150.9 253.412 150.9C246.192 150.9 239.796 149.633 234.222 147.1C228.649 144.44 223.899 140.83 219.972 136.27C216.046 131.583 213.069 126.073 211.042 119.74C209.016 113.28 208.002 106.25 208.002 98.65C208.002 91.05 209.016 84.0833 211.042 77.75C213.069 71.4167 215.919 65.97 219.592 61.41C223.392 56.85 227.889 53.3667 233.082 50.96C238.276 48.4267 243.976 47.16 250.182 47.16C256.009 47.16 261.329 48.2367 266.142 50.39C270.956 52.4167 275.136 55.3933 278.682 59.32C282.229 63.2467 285.016 67.9333 287.042 73.38C289.196 78.8267 290.399 84.9067 290.652 91.62H224.152C224.912 97.0667 226.306 102.577 228.332 108.15C230.359 113.723 232.956 118.727 236.122 123.16C239.416 127.593 243.216 131.203 247.522 133.99C251.956 136.777 256.896 138.17 262.342 138.17C270.322 138.17 276.466 135.193 280.772 129.24C285.079 123.287 287.232 115.56 287.232 106.06L289.322 106.25ZM392.099 98.84C392.099 91.8733 391.466 85.73 390.199 80.41C388.932 74.9633 387.159 70.4033 384.879 66.73C382.726 62.93 380.129 60.08 377.089 58.18C374.176 56.1533 371.009 55.14 367.589 55.14C363.916 55.14 360.622 56.2167 357.709 58.37C354.796 60.3967 352.262 63.3733 350.109 67.3C348.082 71.1 346.499 75.7867 345.359 81.36C344.346 86.8067 343.839 92.8867 343.839 99.6C343.839 113.027 345.929 123.603 350.109 131.33C354.289 139.057 359.926 142.92 367.019 142.92C370.566 142.92 373.859 141.97 376.899 140.07C379.939 138.043 382.599 135.13 384.879 131.33C387.159 127.53 388.932 122.907 390.199 117.46C391.466 112.013 392.099 105.807 392.099 98.84ZM380.129 11.06V9.15999H412.049V142.92C412.049 145.58 413.379 146.91 416.039 146.91H424.019V149H392.099V118.03C389.946 128.163 386.146 136.207 380.699 142.16C375.252 147.987 368.222 150.9 359.609 150.9C354.162 150.9 349.159 149.697 344.599 147.29C340.166 144.757 336.302 141.21 333.009 136.65C329.842 132.09 327.372 126.643 325.599 120.31C323.826 113.977 322.939 106.947 322.939 99.22C322.939 91.4933 323.826 84.4633 325.599 78.13C327.372 71.67 329.906 66.16 333.199 61.6C336.492 57.04 340.419 53.4933 344.979 50.96C349.539 48.4267 354.542 47.16 359.989 47.16C368.476 47.16 375.379 50.1367 380.699 56.09C386.146 61.9167 389.946 69.8967 392.099 80.03V15.05C392.099 12.39 390.769 11.06 388.109 11.06H380.129ZM449.291 21.7C460.817 18.7867 467.847 11.6933 470.381 0.419983C473.294 11.9467 480.387 19.04 491.661 21.7C480.261 24.36 473.167 31.39 470.381 42.79C467.847 31.6433 460.817 24.6133 449.291 21.7ZM493.371 146.91V149H449.481V146.91H457.461C460.121 146.91 461.451 145.58 461.451 142.92V55.14C461.451 52.48 460.121 51.15 457.461 51.15H449.481V49.06H481.401V142.92C481.401 145.58 482.731 146.91 485.391 146.91H493.371ZM513.913 49.06C518.726 49.06 522.843 48.1733 526.263 46.4C529.683 44.6267 532.596 42.2833 535.003 39.37C537.536 36.33 539.626 32.91 541.273 29.11C543.046 25.1833 544.566 21.13 545.833 16.95H547.923V49.06H568.253V51.15H547.923V119.55C547.923 126.39 548.619 131.9 550.013 136.08C551.406 140.26 553.749 142.35 557.043 142.35C558.563 142.35 559.956 141.907 561.223 141.02C562.616 140.133 563.819 138.993 564.833 137.6C565.846 136.08 566.606 134.433 567.113 132.66C567.746 130.76 568.063 128.923 568.063 127.15H570.153C569.899 134.37 567.873 140.133 564.073 144.44C560.273 148.747 555.206 150.9 548.873 150.9C542.413 150.9 537.283 148.683 533.483 144.25C529.809 139.69 527.973 133.673 527.973 126.2V51.15H513.533V49.06H513.913ZM655.314 84.02C650.374 85.16 645.624 86.68 641.064 88.58C636.504 90.3533 632.451 92.76 628.904 95.8C625.358 98.84 622.508 102.577 620.354 107.01C618.328 111.317 617.314 116.51 617.314 122.59C617.314 128.67 618.454 133.61 620.734 137.41C623.141 141.083 627.004 142.92 632.324 142.92C634.478 142.92 636.821 142.54 639.354 141.78C642.014 141.02 644.484 139.753 646.764 137.98C649.044 136.207 651.008 133.863 652.654 130.95C654.301 128.037 655.188 124.49 655.314 120.31V84.02ZM675.264 142.92C675.264 145.58 676.594 146.91 679.254 146.91H687.234V149H655.314V130.19C653.161 136.27 649.361 141.273 643.914 145.2C638.468 149 632.198 150.9 625.104 150.9C620.924 150.9 617.124 150.203 613.704 148.81C610.411 147.417 607.498 145.58 604.964 143.3C602.558 140.893 600.658 138.043 599.264 134.75C597.998 131.457 597.364 127.91 597.364 124.11C597.364 117.27 599.328 111.443 603.254 106.63C607.181 101.817 612.058 97.8267 617.884 94.66C623.711 91.3667 629.981 88.77 636.694 86.87C643.534 84.8433 649.741 83.26 655.314 82.12V78.89C655.314 69.5167 653.921 62.2967 651.134 57.23C648.474 52.1633 644.801 49.63 640.114 49.63C638.088 49.63 635.808 50.1367 633.274 51.15C630.741 52.1633 628.144 53.81 625.484 56.09C622.951 58.37 620.544 61.2833 618.264 64.83C616.111 68.3767 614.338 72.62 612.944 77.56L611.044 77.75L604.394 55.71C612.628 50.01 622.254 47.16 633.274 47.16C638.468 47.16 643.598 47.92 648.664 49.44C653.731 50.8333 658.228 53.1767 662.154 56.47C666.081 59.7633 669.248 64.07 671.654 69.39C674.061 74.71 675.264 81.2967 675.264 89.15V142.92ZM703.319 49.06C708.132 49.06 712.249 48.1733 715.669 46.4C719.089 44.6267 722.002 42.2833 724.409 39.37C726.942 36.33 729.032 32.91 730.679 29.11C732.452 25.1833 733.972 21.13 735.239 16.95H737.329V49.06H757.659V51.15H737.329V119.55C737.329 126.39 738.026 131.9 739.419 136.08C740.812 140.26 743.156 142.35 746.449 142.35C747.969 142.35 749.362 141.907 750.629 141.02C752.022 140.133 753.226 138.993 754.239 137.6C755.252 136.08 756.012 134.433 756.519 132.66C757.152 130.76 757.469 128.923 757.469 127.15H759.559C759.306 134.37 757.279 140.133 753.479 144.44C749.679 148.747 744.612 150.9 738.279 150.9C731.819 150.9 726.689 148.683 722.889 144.25C719.216 139.69 717.379 133.673 717.379 126.2V51.15H702.939V49.06H703.319ZM784.871 21.7C796.397 18.7867 803.427 11.6933 805.961 0.419983C808.874 11.9467 815.967 19.04 827.241 21.7C815.841 24.36 808.747 31.39 805.961 42.79C803.427 31.6433 796.397 24.6133 784.871 21.7ZM828.951 146.91V149H785.061V146.91H793.041C795.701 146.91 797.031 145.58 797.031 142.92V55.14C797.031 52.48 795.701 51.15 793.041 51.15H785.061V49.06H816.981V142.92C816.981 145.58 818.311 146.91 820.971 146.91H828.951ZM854.402 99.03C854.402 91.5567 855.605 84.6533 858.012 78.32C860.418 71.9867 863.775 66.54 868.082 61.98C872.515 57.2933 877.835 53.6833 884.042 51.15C890.248 48.49 897.152 47.16 904.752 47.16C912.352 47.16 919.255 48.49 925.462 51.15C931.668 53.6833 936.925 57.2933 941.232 61.98C945.665 66.54 949.022 71.9867 951.302 78.32C953.708 84.6533 954.912 91.5567 954.912 99.03C954.912 106.503 953.708 113.407 951.302 119.74C949.022 126.073 945.665 131.583 941.232 136.27C936.925 140.83 931.668 144.44 925.462 147.1C919.255 149.633 912.352 150.9 904.752 150.9C897.152 150.9 890.248 149.633 884.042 147.1C877.835 144.44 872.515 140.83 868.082 136.27C863.775 131.583 860.418 126.073 858.012 119.74C855.605 113.407 854.402 106.503 854.402 99.03ZM869.792 78.7C869.792 82.2467 870.298 86.4267 871.312 91.24C872.325 95.9267 873.782 100.803 875.682 105.87C877.582 110.937 879.862 116.003 882.522 121.07C885.308 126.01 888.348 130.443 891.642 134.37C894.935 138.17 898.482 141.273 902.282 143.68C906.208 146.087 910.325 147.29 914.632 147.29C918.685 147.29 922.232 146.53 925.272 145.01C928.312 143.49 930.845 141.463 932.872 138.93C935.025 136.397 936.608 133.483 937.622 130.19C938.762 126.77 939.332 123.223 939.332 119.55C939.332 116.003 938.825 111.823 937.812 107.01C936.798 102.197 935.342 97.2567 933.442 92.19C931.668 86.9967 929.388 81.93 926.602 76.99C923.942 72.05 920.965 67.6167 917.672 63.69C914.378 59.7633 910.768 56.5967 906.842 54.19C903.042 51.7833 898.988 50.58 894.682 50.58C890.755 50.58 887.208 51.34 884.042 52.86C881.002 54.38 878.405 56.47 876.252 59.13C874.098 61.6633 872.452 64.64 871.312 68.06C870.298 71.48 869.792 75.0267 869.792 78.7ZM1024.29 146.91V149H980.404V146.91H988.384C991.044 146.91 992.374 145.58 992.374 142.92V55.14C992.374 52.48 991.044 51.15 988.384 51.15H980.404V49.06H1012.32V77.75C1014.86 68.3767 1019.29 60.9667 1025.62 55.52C1031.96 49.9467 1039.24 47.16 1047.47 47.16C1055.07 47.16 1060.77 49.44 1064.57 54C1068.5 58.4333 1070.46 64.3867 1070.46 71.86V142.92C1070.46 145.58 1071.79 146.91 1074.45 146.91H1082.43V149H1038.54V146.91H1046.52C1049.18 146.91 1050.51 145.58 1050.51 142.92V78.51C1050.51 71.67 1049.18 66.2233 1046.52 62.17C1043.99 58.1167 1040.32 56.09 1035.5 56.09C1032.72 56.09 1029.99 56.85 1027.33 58.37C1024.8 59.89 1022.46 62.0433 1020.3 64.83C1018.28 67.6167 1016.57 71.0367 1015.17 75.09C1013.78 79.0167 1012.83 83.3867 1012.32 88.2V142.92C1012.32 145.58 1013.65 146.91 1016.31 146.91H1024.29Z" fill="#121314"/>
</g>
<defs>
<clipPath id="clip0_108_904">
<rect width="1083" height="151" fill="white"/>
</clipPath>
</defs>
</svg>