<svg width="20" height="20" viewBox="0 0 20 20" fill="none" xmlns="http://www.w3.org/2000/svg">
<path d="M13.1111 2H6.88889C4.74456 2 3 3.49533 3 5.33333V14.6667C3 16.5047 4.74456 18 6.88889 18H13.1111C15.2554 18 17 16.5047 17 14.6667V5.33333C17 3.49533 15.2554 2 13.1111 2ZM15.4444 14.6667C15.4444 15.7693 14.3976 16.6667 13.1111 16.6667H6.88889C5.60244 16.6667 4.55556 15.7693 4.55556 14.6667V5.33333C4.55556 4.23067 5.60244 3.33333 6.88889 3.33333H13.1111C14.3976 3.33333 15.4444 4.23067 15.4444 5.33333V14.6667ZM13.8889 6C13.8889 6.36867 13.5412 6.66667 13.1111 6.66667H6.88889C6.45878 6.66667 6.11111 6.36867 6.11111 6C6.11111 5.63133 6.45878 5.33333 6.88889 5.33333H13.1111C13.5412 5.33333 13.8889 5.63133 13.8889 6ZM13.8889 9.33333C13.8889 9.702 13.5412 10 13.1111 10H6.88889C6.45878 10 6.11111 9.702 6.11111 9.33333C6.11111 8.96467 6.45878 8.66667 6.88889 8.66667H13.1111C13.5412 8.66667 13.8889 8.96467 13.8889 9.33333ZM10.7778 12.6667C10.7778 13.0353 10.4301 13.3333 10 13.3333H6.88889C6.45878 13.3333 6.11111 13.0353 6.11111 12.6667C6.11111 12.298 6.45878 12 6.88889 12H10C10.4301 12 10.7778 12.298 10.7778 12.6667Z" fill="#929AA7"/>
</svg>
