<svg width="18" height="18" viewBox="0 0 18 18" fill="none" xmlns="http://www.w3.org/2000/svg">
<path d="M11.6667 1.5H6.33333C4.49533 1.5 3 2.90188 3 4.625V13.375C3 15.0981 4.49533 16.5 6.33333 16.5H11.6667C13.5047 16.5 15 15.0981 15 13.375V4.625C15 2.90188 13.5047 1.5 11.6667 1.5ZM13.6667 13.375C13.6667 14.4087 12.7693 15.25 11.6667 15.25H6.33333C5.23067 15.25 4.33333 14.4087 4.33333 13.375V4.625C4.33333 3.59125 5.23067 2.75 6.33333 2.75H11.6667C12.7693 2.75 13.6667 3.59125 13.6667 4.625V13.375ZM12.3333 5.25C12.3333 5.59562 12.0353 5.875 11.6667 5.875H6.33333C5.96467 5.875 5.66667 5.59562 5.66667 5.25C5.66667 4.90438 5.96467 4.625 6.33333 4.625H11.6667C12.0353 4.625 12.3333 4.90438 12.3333 5.25ZM12.3333 8.375C12.3333 8.72062 12.0353 9 11.6667 9H6.33333C5.96467 9 5.66667 8.72062 5.66667 8.375C5.66667 8.02938 5.96467 7.75 6.33333 7.75H11.6667C12.0353 7.75 12.3333 8.02938 12.3333 8.375ZM9.66667 11.5C9.66667 11.8456 9.36867 12.125 9 12.125H6.33333C5.96467 12.125 5.66667 11.8456 5.66667 11.5C5.66667 11.1544 5.96467 10.875 6.33333 10.875H9C9.36867 10.875 9.66667 11.1544 9.66667 11.5Z" fill="#929AA7"/>
</svg>
