<svg width="34" height="23" viewBox="0 0 34 23" fill="none" xmlns="http://www.w3.org/2000/svg">
<g clip-path="url(#clip0_111_1687)">
<path d="M31.9402 3.01989H30.712V2.12125C30.7115 1.55902 30.4701 1.01994 30.0409 0.622265C29.6116 0.224594 29.0295 0.000807593 28.4223 0H3.96996C3.36273 0.000807593 2.78063 0.224594 2.35138 0.622265C1.92212 1.01994 1.68076 1.55902 1.68023 2.12125V19.3456H0.633217C0.465445 19.3458 0.304585 19.4075 0.18589 19.5173C0.0671954 19.6271 0.000348708 19.776 0 19.9313V20.88C0.00069757 21.442 0.24216 21.9809 0.671417 22.3783C1.10067 22.7758 1.68267 22.9994 2.28973 23H30.1025C30.7098 22.9995 31.292 22.776 31.7215 22.3786C32.151 21.9812 32.3927 21.4422 32.3936 20.88V19.9313C32.3932 19.776 32.3264 19.6271 32.2077 19.5173C32.089 19.4075 31.9281 19.3458 31.7604 19.3456H30.712V11.2755H31.9402C32.4863 11.2748 33.0098 11.0737 33.3959 10.7162C33.7821 10.3587 33.9993 9.87398 34 9.36838V4.93005C34 4.42398 33.7831 3.93858 33.3969 3.58044C33.0107 3.22231 32.4868 3.0207 31.9402 3.01989ZM29.4462 3.01989H24.5228C23.9765 3.02038 23.4526 3.22151 23.0662 3.57915C22.6798 3.93679 22.4624 4.42175 22.4617 4.92761V7.98838L19.7885 10.2554C19.6941 10.3349 19.628 10.4391 19.5989 10.5541C19.5699 10.6692 19.5792 10.7897 19.6258 10.8997C19.6728 11.0098 19.7545 11.1043 19.8602 11.1708C19.966 11.2374 20.0909 11.273 20.2188 11.2731H29.4462V19.3456H17.3525H17.3281C17.1603 19.3458 16.9993 19.4076 16.8806 19.5175C16.7619 19.6274 16.6951 19.7765 16.6949 19.9319C16.6924 20.0518 16.6396 20.1662 16.5477 20.2507C16.4558 20.3353 16.332 20.3835 16.2025 20.3852C16.0729 20.3869 15.9478 20.3418 15.8534 20.2597C15.759 20.1775 15.7028 20.0645 15.6967 19.9447V19.9325C15.6963 19.777 15.6294 19.6279 15.5106 19.5179C15.3918 19.4079 15.2308 19.3459 15.0628 19.3456H15.0351H2.94601V2.12125C2.94636 1.8699 3.05435 1.62895 3.2463 1.45122C3.43826 1.27349 3.6985 1.17351 3.96996 1.17318H28.4223C28.6938 1.17351 28.954 1.27349 29.1459 1.45122C29.3379 1.62895 29.4459 1.8699 29.4462 2.12125V3.01989ZM16.1955 21.5663C16.5525 21.5669 16.9013 21.4668 17.1955 21.2795C17.4898 21.0922 17.7155 20.8265 17.8428 20.5176H31.1265V20.8788C31.1261 21.1301 31.0181 21.3711 30.8262 21.5488C30.6342 21.7265 30.374 21.8265 30.1025 21.8268H2.28973C2.01827 21.8265 1.75802 21.7265 1.56607 21.5488C1.37412 21.3711 1.26612 21.1301 1.26578 20.8788V20.5176H14.5482C14.6754 20.8265 14.9011 21.0923 15.1953 21.2796C15.4895 21.467 15.8384 21.5669 16.1955 21.5663ZM23.5233 8.68143C23.5879 8.6265 23.6394 8.55974 23.6747 8.48539C23.71 8.41104 23.7282 8.33071 23.7282 8.2495V4.93005C23.7284 4.73497 23.8121 4.54792 23.9611 4.40997C24.1101 4.27203 24.3121 4.19446 24.5228 4.1943H31.9396C32.1496 4.19526 32.3507 4.27321 32.4989 4.41109C32.6471 4.54896 32.7303 4.73555 32.7303 4.93005V9.36472C32.7303 9.55922 32.6471 9.74581 32.4989 9.88369C32.3507 10.0216 32.1496 10.0995 31.9396 10.1005H21.8463L23.5233 8.68143Z" fill="#00907F"/>
<path d="M15.6224 2.92764H16.7702C16.855 2.93017 16.9396 2.91689 17.0187 2.88859C17.0979 2.86028 17.1701 2.81752 17.2311 2.76286C17.2921 2.70819 17.3406 2.64274 17.3737 2.57038C17.4068 2.49802 17.4239 2.42024 17.4239 2.34166C17.4239 2.26307 17.4068 2.18529 17.3737 2.11293C17.3406 2.04058 17.2921 1.97512 17.2311 1.92046C17.1701 1.86579 17.0979 1.82304 17.0187 1.79473C16.9396 1.76642 16.855 1.75314 16.7702 1.75568H15.6224C15.5376 1.75314 15.453 1.76642 15.3739 1.79473C15.2947 1.82304 15.2225 1.86579 15.1615 1.92046C15.1005 1.97512 15.052 2.04058 15.0189 2.11293C14.9858 2.18529 14.9688 2.26307 14.9688 2.34166C14.9688 2.42024 14.9858 2.49802 15.0189 2.57038C15.052 2.64274 15.1005 2.70819 15.1615 2.76286C15.2225 2.81752 15.2947 2.86028 15.3739 2.88859C15.453 2.91689 15.5376 2.93017 15.6224 2.92764Z" fill="#00907F"/>
<path d="M18.893 10.0724V8.37454C18.8922 7.74036 18.6197 7.13239 18.1354 6.68395C17.651 6.23552 16.9944 5.98323 16.3094 5.98242H16.0828C15.3978 5.98323 14.7412 6.23552 14.2569 6.68395C13.7725 7.13239 13.5 7.74036 13.4992 8.37454V10.0724C13.5001 10.5542 13.6576 11.0246 13.9512 11.4225C11.5132 11.9063 10.9202 13.6066 10.795 14.1355C10.7553 14.2599 10.7354 14.389 10.7357 14.5187V16.5801C10.7329 16.6587 10.7473 16.7369 10.7779 16.8102C10.8084 16.8835 10.8546 16.9504 10.9137 17.0069C10.9727 17.0633 11.0434 17.1082 11.1215 17.1389C11.1997 17.1695 11.2837 17.1853 11.3686 17.1853C11.4534 17.1853 11.5375 17.1695 11.6156 17.1389C11.6938 17.1082 11.7644 17.0633 11.8235 17.0069C11.8825 16.9504 11.9287 16.8835 11.9593 16.8102C11.9898 16.7369 12.0042 16.6587 12.0015 16.5801V14.5187C12.0011 14.498 12.0043 14.4774 12.0107 14.4576C12.0166 14.4412 12.0212 14.4235 12.0272 14.4015C12.1589 13.8183 12.752 12.4627 15.381 12.4627H16.0815C16.1197 12.4627 16.1579 12.4595 16.1954 12.4529C16.233 12.4595 16.2712 12.4627 16.3094 12.4627H17.0099C19.6403 12.4627 20.232 13.8183 20.3644 14.404C20.369 14.4217 20.3736 14.4381 20.3796 14.4564C20.3863 14.4762 20.3896 14.4967 20.3894 14.5174V16.5789C20.3896 16.695 20.427 16.8083 20.4968 16.9048C20.5666 17.0012 20.6657 17.0762 20.7815 17.1205C20.8974 17.1648 21.0248 17.1763 21.1477 17.1535C21.2707 17.1307 21.3835 17.0747 21.472 16.9925C21.5306 16.9382 21.577 16.8737 21.6084 16.8027C21.6399 16.7317 21.6558 16.6556 21.6552 16.5789V14.5187C21.6555 14.3891 21.636 14.2601 21.5972 14.1355C21.4701 13.6066 20.8757 11.9057 18.441 11.4225C18.7349 11.0248 18.8924 10.5543 18.893 10.0724ZM14.7649 8.37332C14.7649 8.04972 14.9038 7.73937 15.1509 7.51054C15.3981 7.28172 15.7333 7.15316 16.0828 7.15316H16.3108C16.6603 7.15316 16.9955 7.28172 17.2426 7.51054C17.4897 7.73937 17.6286 8.04972 17.6286 8.37332V10.0712C17.6286 10.3948 17.4897 10.7051 17.2426 10.934C16.9955 11.1628 16.6603 11.2913 16.3108 11.2913C16.2725 11.2915 16.2343 11.295 16.1968 11.3017C16.1592 11.295 16.121 11.2915 16.0828 11.2913C15.7333 11.2913 15.3981 11.1628 15.1509 10.934C14.9038 10.7051 14.7649 10.3948 14.7649 10.0712V8.37332Z" fill="#00907F"/>
</g>
<defs>
<clipPath id="clip0_111_1687">
<rect width="34" height="23" fill="white"/>
</clipPath>
</defs>
</svg>
