<svg width="76" height="76" viewBox="0 0 76 76" fill="none" xmlns="http://www.w3.org/2000/svg">
<path d="M18.9996 28.8952C18.3004 28.8952 17.7329 28.3224 17.7329 27.6166V22.9857C17.7329 22.5842 17.9179 22.2083 18.2345 21.968C19.5265 20.9809 20.2663 19.4978 20.2663 17.8996V14.0639C20.2663 11.2434 17.9939 8.94969 15.1996 8.94969C12.4053 8.94969 10.1329 11.2434 10.1329 14.0639V17.8996C10.1329 19.4978 10.8727 20.9809 12.1647 21.968C12.4813 22.2083 12.6663 22.5868 12.6663 22.9882V27.6192C12.6663 28.3249 12.0988 28.8977 11.3996 28.8977C10.7004 28.8977 10.1329 28.3224 10.1329 27.6166V23.5892C8.51414 22.1291 7.59961 20.0885 7.59961 17.8996V14.0639C7.59961 9.83445 11.0095 6.39258 15.1996 6.39258C19.3897 6.39258 22.7996 9.83445 22.7996 14.0639V17.8996C22.7996 20.0885 21.8851 22.1265 20.2663 23.5892V27.6166C20.2663 28.3224 19.6988 28.8952 18.9996 28.8952Z" fill="#264871"/>
<path d="M16.4745 25.4431C15.8867 25.4431 15.3598 25.0263 15.2357 24.4228C15.0963 23.7299 15.5371 23.0548 16.2237 22.9142C18.5645 22.4257 20.2669 20.3187 20.2669 17.8997C20.2669 17.1939 20.8343 16.6211 21.5335 16.6211C22.2327 16.6211 22.8002 17.1939 22.8002 17.8997C22.8002 21.5256 20.2466 24.6862 16.7303 25.415C16.6442 25.4329 16.5606 25.4431 16.4745 25.4431Z" fill="#264871"/>
<path d="M23.7479 30.9001C23.5807 30.9001 23.411 30.8668 23.2489 30.7952L18.5014 28.7367C17.8579 28.458 17.5615 27.7062 17.8377 27.0567C18.1113 26.4047 18.8561 26.1106 19.4995 26.3868L24.247 28.4452C24.8905 28.724 25.1869 29.4757 24.9107 30.1253C24.7055 30.6111 24.2369 30.9001 23.7479 30.9001Z" fill="#264871"/>
<path d="M7.6 46.378C7.4252 46.378 7.24533 46.3422 7.0756 46.2629L2.2268 44.0382C0.874 43.4143 0 42.0437 0 40.5452V37.001C0 33.416 2.10267 30.194 5.35547 28.7927L10.8959 26.366C11.5444 26.0847 12.2841 26.3813 12.5628 27.0283C12.8389 27.6752 12.5451 28.4296 11.9041 28.7109L6.35867 31.1401C4.03307 32.1451 2.53333 34.4439 2.53333 37.001V40.5452C2.53333 41.0438 2.82467 41.5041 3.2756 41.7112L8.1244 43.9359C8.76027 44.2274 9.04147 44.9869 8.75267 45.6287C8.53987 46.0992 8.0788 46.378 7.6 46.378Z" fill="#264871"/>
<path d="M20.1117 16.3909C17.5885 16.3909 15.1768 15.5138 13.1375 13.8542C12.5953 13.4119 12.5092 12.6089 12.9449 12.0591C13.3883 11.5094 14.1863 11.425 14.7259 11.8674C16.3523 13.1894 18.2827 13.9028 20.2612 13.8338C20.1396 11.1181 17.9153 8.94969 15.1996 8.94969C12.4053 8.94969 10.1329 11.2434 10.1329 14.0639V15.0101C10.1329 15.7158 9.56548 16.2886 8.86628 16.2886C8.16708 16.2886 7.59961 15.7184 7.59961 15.0101V14.0639C7.59961 9.83445 11.0095 6.39258 15.1996 6.39258C19.3897 6.39258 22.7996 9.83445 22.7996 14.0639V14.9589C22.7996 15.588 22.3461 16.1224 21.7331 16.2221C21.1479 16.3167 20.6412 16.3909 20.1117 16.3909Z" fill="#264871"/>
<path d="M64.6002 28.8956C63.901 28.8956 63.3335 28.3228 63.3335 27.617V22.9861C63.3335 22.5846 63.5185 22.2087 63.8351 21.9683C65.1271 20.9813 65.8669 19.4982 65.8669 17.9V14.0643C65.8669 11.2438 63.5945 8.95006 60.8002 8.95006C58.0059 8.95006 55.7335 11.2438 55.7335 14.0643V17.9C55.7335 19.4982 56.4733 20.9813 57.7653 21.9683C58.0819 22.2087 58.2669 22.5872 58.2669 22.9886V27.6196C58.2669 28.3253 57.6994 28.8981 57.0002 28.8981C56.301 28.8981 55.7335 28.3253 55.7335 27.6196V23.5921C54.1147 22.132 53.2002 20.0914 53.2002 17.9025V14.0669C53.2002 9.83738 56.6101 6.39551 60.8002 6.39551C64.9903 6.39551 68.4002 9.83738 68.4002 14.0669V17.9025C68.4002 20.0914 67.4857 22.1294 65.8669 23.5921V27.6196C65.8669 28.3228 65.2994 28.8956 64.6002 28.8956Z" fill="#264871"/>
<path d="M62.0741 25.4431C61.4863 25.4431 60.9594 25.0263 60.8353 24.4228C60.6959 23.7299 61.1367 23.0548 61.8233 22.9142C64.1641 22.4257 65.8665 20.3187 65.8665 17.8997C65.8665 17.1939 66.4339 16.6211 67.1331 16.6211C67.8323 16.6211 68.3998 17.1939 68.3998 17.8997C68.3998 21.5256 65.8462 24.6862 62.3299 25.415C62.2438 25.4329 62.1602 25.4431 62.0741 25.4431Z" fill="#264871"/>
<path d="M52.6255 30.7389C52.1365 30.7389 51.6679 30.4499 51.4627 29.964C51.1865 29.3171 51.4829 28.5628 52.1264 28.284L56.5015 26.3866C57.1399 26.113 57.8872 26.4045 58.1633 27.0566C58.4395 27.7036 58.1431 28.4579 57.4996 28.7366L53.1245 30.634C52.9624 30.7056 52.7952 30.7389 52.6255 30.7389Z" fill="#264871"/>
<path d="M68.3996 46.3785C67.9208 46.3785 67.4597 46.0997 67.2469 45.6292C66.9581 44.9874 67.2393 44.2279 67.8752 43.9364L72.724 41.7117C73.1749 41.5046 73.4662 41.0469 73.4662 40.5457V37.0015C73.4662 34.4444 71.9665 32.1456 69.6485 31.1457L64.0954 28.7113C63.4545 28.4301 63.1606 27.6783 63.4368 27.0288C63.7154 26.3793 64.4501 26.0826 65.1037 26.3665L70.6492 28.7957C73.8969 30.1945 75.9996 33.4164 75.9996 37.0015V40.5457C75.9996 42.0441 75.1256 43.4148 73.7728 44.0387L68.924 46.2634C68.7542 46.3401 68.5744 46.3785 68.3996 46.3785Z" fill="#264871"/>
<path d="M41.3189 12.571C37.7165 12.571 33.9671 11.2899 31.8999 9.41297C31.3781 8.9399 31.335 8.13185 31.8037 7.60765C32.2723 7.08344 33.0805 7.03997 33.5922 7.51303C36.0901 9.77864 42.0738 10.9626 45.5014 9.10611C46.117 8.77113 46.8871 9.00383 47.2165 9.62777C47.5483 10.2517 47.3153 11.024 46.6997 11.3589C45.1366 12.2002 43.2493 12.571 41.3189 12.571Z" fill="#264871"/>
<path d="M37.9824 35.7995C33.7796 35.7995 31.5883 32.4905 31.0157 30.7389C30.7953 30.0664 31.1576 29.3453 31.8213 29.1228C32.4851 28.9029 33.1969 29.266 33.4173 29.9309C33.4705 30.0843 34.5928 33.2398 37.9824 33.2398C41.3999 33.2398 42.6032 29.9871 42.6564 29.849C42.892 29.1868 43.6267 28.8415 44.2727 29.0768C44.9288 29.3121 45.2759 30.0357 45.0453 30.7006C44.9719 30.9102 43.2213 35.7995 37.9824 35.7995Z" fill="#264871"/>
<path d="M62.0674 46.0275C61.3682 46.0275 60.8008 45.4547 60.8008 44.749V44.0355C60.8008 40.2433 58.4321 36.8526 54.9082 35.6022L44.3417 31.8177C42.8217 31.2832 41.8008 29.8308 41.8008 28.207V25.0618C41.8008 24.356 42.3682 23.7832 43.0674 23.7832C43.7666 23.7832 44.3341 24.356 44.3341 25.0618V28.207C44.3341 28.744 44.6761 29.2247 45.1828 29.4037L55.7518 33.1908C60.2865 34.7993 63.3341 39.1591 63.3341 44.0355V44.7515C63.3341 45.4573 62.7666 46.0275 62.0674 46.0275Z" fill="#264871"/>
<path d="M13.9337 46.0281C13.2345 46.0281 12.667 45.4553 12.667 44.7496V44.0592C12.667 43.2613 12.7506 42.461 12.9153 41.6708C13.731 37.7763 16.5531 34.5288 20.2721 33.1889L30.8158 29.4555C31.325 29.2765 31.667 28.7932 31.667 28.2562V25.0598C31.667 24.354 32.2345 23.7812 32.9337 23.7812C33.6329 23.7812 34.2003 24.354 34.2003 25.0598V28.2562C34.2003 29.8774 33.1794 31.3298 31.6543 31.8694L21.1182 35.6002C18.2226 36.641 16.0287 39.17 15.3929 42.2001C15.2637 42.8139 15.2003 43.4403 15.2003 44.0592V44.7496C15.2003 45.4579 14.6329 46.0281 13.9337 46.0281Z" fill="#264871"/>
<path d="M38.0005 28.1283C37.3013 28.1283 36.7339 27.5555 36.7339 26.8497C36.7339 26.1439 37.3013 25.5711 38.0005 25.5711C40.6301 25.5711 45.6005 23.1675 45.6005 14.0641V10.2285C45.6005 5.99899 42.1907 2.55711 38.0005 2.55711C33.8104 2.55711 30.4005 5.99899 30.4005 10.2285V14.0641C30.4005 18.4726 31.5684 21.8454 33.7749 23.817C34.2993 24.2849 34.35 25.093 33.8839 25.6223C33.4152 26.1542 32.6172 26.1976 32.0979 25.7322C30.1675 24.0087 27.8672 20.5873 27.8672 14.0641V10.2285C27.8672 4.58746 32.412 0 38.0005 0C43.5891 0 48.1339 4.58746 48.1339 10.2285V14.0641C48.1339 25.1901 41.5067 28.1283 38.0005 28.1283Z" fill="#264871"/>
<path d="M57.2988 69.0419C56.8327 69.0419 56.3868 68.7811 56.1639 68.331C55.8548 67.6969 56.1107 66.9323 56.7389 66.6178L63.0039 63.4853C63.356 63.3089 63.7765 63.3089 64.1261 63.4853L68.22 65.5336L67.5537 60.9717C67.498 60.5779 67.6247 60.1764 67.9033 59.8926L71.1029 56.5913L66.5936 55.8165C66.206 55.75 65.8691 55.502 65.6841 55.1491L63.5663 51.0628L61.4459 55.1491C61.2609 55.502 60.924 55.75 60.5364 55.8165L56.0296 56.5913L59.2267 59.8926C59.7156 60.3989 59.7055 61.2069 59.2064 61.7004C58.7048 62.1965 57.9017 62.1863 57.4153 61.68L52.5285 56.6348C52.1992 56.2947 52.0827 55.7986 52.2296 55.346C52.3765 54.8934 52.7565 54.561 53.2227 54.4817L59.4952 53.4026L62.4465 47.7156C62.6669 47.2937 63.1001 47.0303 63.5688 47.0303C64.0425 47.0303 64.4707 47.2962 64.6911 47.7156L67.6399 53.4026L73.9149 54.4817C74.3811 54.561 74.7611 54.896 74.908 55.346C75.0549 55.7961 74.9384 56.2947 74.6091 56.6348L70.158 61.2248L71.0852 67.5767C71.1511 68.0472 70.956 68.5177 70.576 68.7964C70.196 69.0777 69.6893 69.1212 69.2688 68.9064L63.5688 66.0552L57.8663 68.9064C57.6813 69.001 57.4888 69.0419 57.2988 69.0419Z" fill="#264871"/>
<path d="M30.5923 75.9996C30.3288 75.9996 30.0679 75.9177 29.8475 75.7566C29.4675 75.4779 29.2699 75.0074 29.3383 74.5343L30.4479 66.9065L25.1076 61.3933C24.7783 61.0532 24.6618 60.5572 24.8087 60.1045C24.9556 59.6519 25.3356 59.3169 25.8018 59.2402L33.3359 57.9463L36.8775 51.1163C37.3183 50.2724 38.6838 50.2724 39.1246 51.1163L42.6662 57.9463L50.2003 59.2402C50.6664 59.3195 51.0464 59.6545 51.1934 60.1045C51.3403 60.5546 51.2238 61.0532 50.8944 61.3933L45.5516 66.9065L46.6638 74.5343C46.7296 75.0049 46.5346 75.4754 46.1546 75.7541C45.7746 76.0379 45.2679 76.0763 44.8474 75.864L37.9998 72.4401L31.1547 75.864C30.9774 75.9535 30.7848 75.9996 30.5923 75.9996ZM28.6087 61.3499L32.6975 65.5717C32.9736 65.8581 33.1028 66.257 33.0471 66.6508L32.1959 72.4887L37.4374 69.8676C37.7895 69.6886 38.21 69.6886 38.5596 69.8676L43.7986 72.4887L42.9474 66.6508C42.8916 66.257 43.0183 65.8555 43.297 65.5717L47.3883 61.3499L41.6199 60.3577C41.2323 60.2912 40.8954 60.0432 40.7104 59.6903L37.9998 54.461L35.2891 59.6903C35.1042 60.0432 34.7672 60.2912 34.3796 60.3577L28.6087 61.3499Z" fill="#264871"/>
<path d="M18.906 69.0423C18.716 69.0423 18.526 68.9988 18.3436 68.9093L12.6436 66.0581L6.94106 68.9119C6.52306 69.1216 6.01893 69.0806 5.63386 68.7994C5.25386 68.5206 5.05626 68.0501 5.12466 67.5796L6.05186 61.2277L1.60079 56.6377C1.27146 56.2976 1.15493 55.8015 1.30186 55.3489C1.44879 54.8963 1.82879 54.5613 2.29493 54.4846L8.56999 53.4055L11.5213 47.7185C11.7417 47.2966 12.1749 47.0332 12.6436 47.0332C13.1173 47.0332 13.5455 47.2991 13.7659 47.7185L16.7147 53.4055L22.9872 54.4846C23.4533 54.5639 23.8333 54.8989 23.9803 55.3489C24.1272 55.799 24.0107 56.2976 23.6813 56.6377L18.7945 61.6804C18.3107 62.1867 17.5076 62.1969 17.0035 61.7008C16.5044 61.2073 16.4943 60.3992 16.9832 59.8929L20.1803 56.5917L15.6735 55.8169C15.2833 55.7504 14.9489 55.5024 14.764 55.1495L12.6461 51.0632L10.5257 55.1495C10.3408 55.5024 10.0039 55.7504 9.61626 55.8169L5.10693 56.5917L8.30653 59.8929C8.58266 60.1793 8.71186 60.5782 8.65613 60.972L7.98986 65.5339L12.0863 63.4857C12.4384 63.3092 12.8589 63.3092 13.2085 63.4857L19.4709 66.6181C20.0992 66.9327 20.3551 67.6972 20.046 68.3314C19.818 68.7815 19.3696 69.0423 18.906 69.0423Z" fill="#264871"/>
</svg>
