<svg width="12" height="14" viewBox="0 0 12 14" fill="none" xmlns="http://www.w3.org/2000/svg">
<path d="M11.033 7.93686C10.9719 7.99961 10.741 8.26793 10.5261 8.48864C9.26552 9.87675 5.97702 12.1488 4.25589 12.8423C3.9945 12.9537 3.33363 13.1896 2.98055 13.2047C2.64221 13.2047 2.31969 13.1268 2.01192 12.9689C1.62827 12.7482 1.32051 12.4009 1.15187 11.9908C1.04331 11.7063 0.874673 10.8548 0.874673 10.8397C0.706034 9.90812 0.613281 8.39452 0.613281 6.72186C0.613281 5.12819 0.706034 3.67626 0.844109 2.73066C0.859916 2.71551 1.02855 1.65739 1.213 1.29495C1.55133 0.63281 2.21219 0.22168 2.91941 0.22168H2.98055C3.44114 0.237909 4.40974 0.649039 4.40974 0.664185C6.03814 1.35878 9.25069 3.51938 10.5419 4.95509C10.5419 4.95509 10.9055 5.32402 11.0636 5.55447C11.3102 5.88554 11.4325 6.29559 11.4325 6.70564C11.4325 7.16329 11.2944 7.58956 11.033 7.93686Z" fill="white"/>
</svg>
