<svg width="14" height="14" viewBox="0 0 14 14" fill="none" xmlns="http://www.w3.org/2000/svg">
<path d="M6.70866 12.6878C3.41283 12.6878 0.729492 10.0045 0.729492 6.70866C0.729492 3.41283 3.41283 0.729492 6.70866 0.729492C10.0045 0.729492 12.6878 3.41283 12.6878 6.70866C12.6878 10.0045 10.0045 12.6878 6.70866 12.6878ZM6.70866 1.60449C3.89116 1.60449 1.60449 3.89699 1.60449 6.70866C1.60449 9.52033 3.89116 11.8128 6.70866 11.8128C9.52616 11.8128 11.8128 9.52033 11.8128 6.70866C11.8128 3.89699 9.52616 1.60449 6.70866 1.60449Z" fill="white"/>
<path d="M12.8323 13.2708C12.7214 13.2708 12.6106 13.2299 12.5231 13.1424L10.499 11.1183C10.3298 10.9491 10.3298 10.6691 10.499 10.4999C10.6681 10.3308 10.9481 10.3308 11.1173 10.4999L13.1414 12.5241C13.3106 12.6933 13.3106 12.9733 13.1414 13.1424C13.0539 13.2299 12.9431 13.2708 12.8323 13.2708Z" fill="white"/>
</svg>
