<svg width="34" height="33" viewBox="0 0 34 33" fill="none" xmlns="http://www.w3.org/2000/svg">
<path d="M6.17732 2.85693C4.94577 2.85693 3.94385 3.85853 3.94385 5.08955C3.94385 6.32057 4.94577 7.32216 6.17732 7.32216C7.40986 7.32216 8.41264 6.32057 8.41264 5.08955C8.41264 3.85853 7.40986 2.85693 6.17732 2.85693ZM6.17732 5.99066C5.67999 5.99066 5.27541 5.58642 5.27541 5.08955C5.27541 4.59268 5.67999 4.1885 6.17732 4.1885C6.67564 4.1885 7.08114 4.59274 7.08114 5.08961C7.08114 5.58648 6.67564 5.99066 6.17732 5.99066Z" fill="#00907F"/>
<path d="M25.706 2.85693H19.8018C18.5703 2.85693 17.5684 3.85853 17.5684 5.08955C17.5684 6.32057 18.5703 7.32216 19.8018 7.32216H25.706C26.9375 7.32216 27.9395 6.32057 27.9395 5.08955C27.9395 3.85853 26.9375 2.85693 25.706 2.85693ZM25.706 5.99066H19.8018C19.3045 5.99066 18.8999 5.58642 18.8999 5.08955C18.8999 4.59268 19.3046 4.18843 19.8018 4.18843H25.706C26.2033 4.18843 26.6079 4.59268 26.6079 5.08955C26.6079 5.58642 26.2033 5.99066 25.706 5.99066Z" fill="#00907F"/>
<path d="M11.9654 2.85693C10.7339 2.85693 9.73193 3.85853 9.73193 5.08955C9.73193 6.32057 10.7339 7.32216 11.9654 7.32216C13.1979 7.32216 14.2007 6.32057 14.2007 5.08955C14.2007 3.85853 13.1979 2.85693 11.9654 2.85693ZM11.9654 5.99066C11.4681 5.99066 11.0635 5.58642 11.0635 5.08955C11.0635 4.59268 11.4681 4.18843 11.9654 4.18843C12.4637 4.18843 12.8692 4.59268 12.8692 5.08955C12.8692 5.58642 12.4637 5.99066 11.9654 5.99066Z" fill="#00907F"/>
<path d="M10.8797 13.8939C10.5222 13.8083 10.1629 14.029 10.0775 14.3867L8.75666 19.9138C8.67123 20.2714 8.8918 20.6307 9.24943 20.7161C9.30146 20.7285 9.35355 20.7345 9.40478 20.7345C9.70577 20.7345 9.9787 20.5289 10.0517 20.2233L11.3725 14.6962C11.458 14.3386 11.2374 13.9794 10.8797 13.8939Z" fill="#00907F"/>
<path d="M13.3241 20.0666C13.451 20.1797 13.6092 20.2352 13.7667 20.2352C13.95 20.2352 14.1326 20.16 14.2641 20.0123L16.1311 17.9165C16.4391 17.5736 16.4391 17.0366 16.133 16.6959L14.2641 14.5979C14.0194 14.3233 13.5985 14.2991 13.3241 14.5436C13.0494 14.7882 13.0251 15.2091 13.2697 15.4836L14.8923 17.3051L13.2697 19.1266C13.0252 19.4012 13.0495 19.8221 13.3241 20.0666Z" fill="#00907F"/>
<path d="M6.80493 14.5436C6.53029 14.299 6.10954 14.3235 5.86493 14.5979L3.9982 16.6935C3.68975 17.0365 3.68975 17.5737 3.99609 17.9143L5.865 20.0123C5.99658 20.16 6.17906 20.2352 6.36246 20.2352C6.51999 20.2352 6.67824 20.1796 6.80506 20.0666C7.07971 19.822 7.104 19.4011 6.8594 19.1266L5.23681 17.3052L6.8594 15.4837C7.10387 15.209 7.07958 14.7881 6.80493 14.5436Z" fill="#00907F"/>
<path d="M32.3098 21.6241H32.0627C31.9332 21.2047 31.7654 20.7999 31.5608 20.413L31.7372 20.236C32.0189 19.956 32.1744 19.5821 32.175 19.1832C32.1755 18.7834 32.0206 18.408 31.7386 18.1261L31.3949 17.7826V3.60135C31.3949 1.61552 29.9935 0 28.2709 0H3.12396C1.40135 0 0 1.61552 0 3.60135V22.2094C0 24.1953 1.40135 25.8108 3.12396 25.8108H7.03013C7.39779 25.8108 7.69588 25.5127 7.69588 25.145C7.69588 24.7774 7.39779 24.4793 7.03013 24.4793H3.12396C2.1524 24.4793 1.33157 23.4398 1.33157 22.2095V10.1308H30.0632V16.8586C29.9874 16.8469 29.9105 16.8393 29.8323 16.8393C29.8315 16.8393 29.8307 16.8393 29.83 16.8393C29.4311 16.8399 29.0572 16.9952 28.7794 17.2745L28.5994 17.4537C28.2044 17.245 27.793 17.0753 27.3689 16.9457V16.7085C27.3689 15.8856 26.6993 15.2163 25.8762 15.2163H24.6714C23.8494 15.2163 23.1807 15.8856 23.1807 16.7085V16.9619C22.7645 17.0927 22.3626 17.261 21.9785 17.4654L21.806 17.2935C21.526 17.012 21.152 16.8566 20.7531 16.856C20.7524 16.856 20.7517 16.856 20.7509 16.856C20.3519 16.856 19.9773 17.0108 19.6959 17.2921L18.8447 18.1429C18.5627 18.4248 18.4077 18.8003 18.4083 19.2C18.4089 19.5989 18.5643 19.9728 18.8439 20.2506L19.0278 20.435C18.8282 20.8159 18.6643 21.2133 18.5374 21.624H18.2846C17.4625 21.624 16.7938 22.2925 16.7938 23.1143V24.3203C16.7938 24.3739 16.7967 24.4269 16.8023 24.479H12.9285C12.5609 24.479 12.2628 24.7771 12.2628 25.1448C12.2628 25.5124 12.5609 25.8105 12.9285 25.8105H18.2845H18.5399C18.6687 26.2251 18.8351 26.6256 19.0381 27.009L18.8582 27.1882C18.279 27.7705 18.2796 28.7158 18.8596 29.2954L19.7113 30.1467C19.9913 30.4282 20.3653 30.5836 20.7642 30.5842H20.7663C21.1654 30.5842 21.54 30.4294 21.8214 30.1481L21.9997 29.9699C22.3866 30.1738 22.7889 30.3404 23.203 30.4685V30.7261C23.203 31.549 23.8717 32.2184 24.6938 32.2184H25.9004C26.7225 32.2184 27.3912 31.549 27.3912 30.7261V30.47C27.8092 30.3411 28.2131 30.1738 28.5995 29.9698L28.777 30.1467C29.057 30.4282 29.4309 30.5835 29.8298 30.5842H29.8321C30.231 30.5842 30.6056 30.4294 30.8876 30.1476L31.737 29.2968C32.0187 29.0168 32.1742 28.6429 32.1748 28.244C32.1754 27.8442 32.0204 27.4688 31.7383 27.1868L31.5606 27.0092C31.7632 26.6255 31.9296 26.2247 32.0581 25.8106H32.3097C33.1328 25.8106 33.8024 25.1421 33.8024 24.3203V23.1143C33.8025 22.2926 33.1329 21.6241 32.3098 21.6241ZM1.33157 8.79921V3.60135C1.33157 2.37106 2.1524 1.33157 3.12396 1.33157H28.2709C29.2425 1.33157 30.0633 2.37106 30.0633 3.60135V8.79928L1.33157 8.79921ZM32.4709 24.3204C32.4709 24.405 32.3957 24.4791 32.3098 24.4791H31.5484C31.238 24.4791 30.9688 24.6936 30.8994 24.9962C30.7556 25.6237 30.5087 26.2188 30.1653 26.7652C29.9999 27.0283 30.0385 27.3708 30.2584 27.5904L30.7971 28.1288C30.8374 28.1691 30.8433 28.2172 30.8433 28.2422C30.8433 28.2722 30.8355 28.3157 30.7966 28.3543L29.946 29.2064C29.9056 29.2467 29.8575 29.2528 29.8321 29.2528C29.8321 29.2528 29.832 29.2528 29.832 29.2528C29.8018 29.2528 29.7581 29.2449 29.7191 29.2056L29.1784 28.6671C28.9585 28.4482 28.6166 28.4102 28.3541 28.5752C27.807 28.9194 27.2094 29.1668 26.5777 29.3105C26.2748 29.3796 26.0597 29.6489 26.0597 29.9598V30.7263C26.0597 30.8119 25.9853 30.887 25.9006 30.887H24.6939C24.6091 30.887 24.5347 30.812 24.5347 30.7263V29.9578C24.5347 29.6468 24.3192 29.3771 24.0157 29.3085C23.3922 29.1675 22.7956 28.9205 22.2428 28.5745C22.1338 28.5063 22.0114 28.473 21.8898 28.473C21.7178 28.473 21.5473 28.5395 21.4189 28.668L20.8802 29.2064C20.8399 29.2467 20.7918 29.2528 20.7664 29.2528C20.7663 29.2528 20.7663 29.2528 20.7662 29.2528C20.736 29.2528 20.6923 29.2449 20.6541 29.2065L19.8011 28.3538C19.7413 28.2941 19.742 28.1884 19.8003 28.1297L20.3409 27.5913C20.5618 27.3713 20.6004 27.0276 20.434 26.764C20.0901 26.2195 19.8428 25.6248 19.6989 24.9964C19.6295 24.6938 19.3603 24.4793 19.0498 24.4793H18.2846C18.1984 24.4793 18.1254 24.4066 18.1254 24.3206V23.1146C18.1254 23.0285 18.1984 22.9558 18.2846 22.9558H19.0479C19.3587 22.9558 19.6282 22.7408 19.6971 22.4378C19.8392 21.8134 20.0834 21.2212 20.4228 20.6773C20.5866 20.4147 20.548 20.0739 20.3294 19.8547L19.7847 19.3084C19.7477 19.2717 19.7399 19.2282 19.7399 19.1982C19.7399 19.1731 19.7458 19.1251 19.7861 19.0849L20.6372 18.2341C20.6776 18.1939 20.7257 18.1878 20.751 18.1878H20.7512C20.7814 18.1879 20.8251 18.1956 20.8641 18.2349L21.401 18.7697C21.6216 18.9893 21.9647 19.027 22.2273 18.8603C22.7713 18.5154 23.3672 18.2656 23.9982 18.1179C24.2992 18.0475 24.5122 17.7789 24.5122 17.4697V16.7087C24.5122 16.6216 24.585 16.548 24.6713 16.548H25.8761C25.9635 16.548 26.0373 16.6216 26.0373 16.7087V17.4585C26.0373 17.7704 26.2538 18.0405 26.5584 18.1083C27.1919 18.2494 27.7962 18.4985 28.3547 18.8489C28.6171 19.0134 28.9586 18.9754 29.1784 18.7566L29.7212 18.2159C29.7581 18.1789 29.8017 18.1711 29.8319 18.171H29.8321C29.8574 18.171 29.9056 18.1771 29.9458 18.2174L30.797 19.068C30.8373 19.1083 30.8433 19.1564 30.8433 19.1815C30.8432 19.2114 30.8354 19.2549 30.7962 19.2938L30.2575 19.8342C30.0381 20.0542 30 20.3968 30.1658 20.6595C30.5105 21.206 30.7585 21.8044 30.9029 22.438C30.972 22.741 31.2414 22.9559 31.5521 22.9559H32.3098C32.3956 22.9559 32.4709 23.0301 32.4709 23.1146V24.3204Z" fill="#00907F"/>
<path d="M25.2982 19.6514C23.0547 19.6514 21.2295 21.4758 21.2295 23.7183C21.2295 25.9598 23.0547 27.7834 25.2982 27.7834C27.5407 27.7834 29.3651 25.9598 29.3651 23.7183C29.3651 21.4758 27.5407 19.6514 25.2982 19.6514ZM25.2982 26.4518C23.789 26.4518 22.5611 25.2255 22.5611 23.7183C22.5611 22.21 23.789 20.9829 25.2982 20.9829C26.8064 20.9829 28.0335 22.21 28.0335 23.7183C28.0335 25.2255 26.8064 26.4518 25.2982 26.4518Z" fill="#00907F"/>
<path d="M9.99914 24.479H9.98606C9.6184 24.479 9.32031 24.7771 9.32031 25.1448C9.32031 25.5124 9.6184 25.8105 9.98606 25.8105H9.99914C10.3668 25.8105 10.6649 25.5124 10.6649 25.1448C10.6649 24.7771 10.3668 24.479 9.99914 24.479Z" fill="#00907F"/>
</svg>
