<svg width="21" height="20" viewBox="0 0 21 20" fill="none" xmlns="http://www.w3.org/2000/svg">
<path d="M15.6577 14.7915H6.78268C5.95768 14.7915 5.16601 14.4415 4.60768 13.8332C4.04934 13.2248 3.76602 12.4082 3.83268 11.5832L4.52435 3.28317C4.54935 3.02484 4.45768 2.77484 4.28268 2.58318C4.10768 2.39151 3.86601 2.2915 3.60768 2.2915H2.16602C1.82435 2.2915 1.54102 2.00817 1.54102 1.6665C1.54102 1.32484 1.82435 1.0415 2.16602 1.0415H3.61602C4.22435 1.0415 4.79934 1.29983 5.20768 1.7415C5.43268 1.9915 5.59935 2.28317 5.69101 2.60817H16.0994C16.941 2.60817 17.716 2.9415 18.2827 3.5415C18.841 4.14984 19.1244 4.94151 19.0577 5.78317L18.6077 12.0332C18.516 13.5582 17.1827 14.7915 15.6577 14.7915ZM5.73268 3.84983L5.08268 11.6832C5.04102 12.1665 5.19935 12.6248 5.52435 12.9832C5.84935 13.3415 6.29934 13.5332 6.78268 13.5332H15.6577C16.5244 13.5332 17.3077 12.7998 17.3744 11.9332L17.8243 5.68318C17.8577 5.19151 17.6994 4.72485 17.3744 4.38318C17.0494 4.03318 16.5993 3.84149 16.1077 3.84149H5.73268V3.84983Z" fill="#929AA7"/>
<path d="M14.0417 18.9583C13.125 18.9583 12.375 18.2083 12.375 17.2917C12.375 16.375 13.125 15.625 14.0417 15.625C14.9583 15.625 15.7083 16.375 15.7083 17.2917C15.7083 18.2083 14.9583 18.9583 14.0417 18.9583ZM14.0417 16.875C13.8083 16.875 13.625 17.0583 13.625 17.2917C13.625 17.525 13.8083 17.7083 14.0417 17.7083C14.275 17.7083 14.4583 17.525 14.4583 17.2917C14.4583 17.0583 14.275 16.875 14.0417 16.875Z" fill="#929AA7"/>
<path d="M7.37565 18.9583C6.45898 18.9583 5.70898 18.2083 5.70898 17.2917C5.70898 16.375 6.45898 15.625 7.37565 15.625C8.29232 15.625 9.04232 16.375 9.04232 17.2917C9.04232 18.2083 8.29232 18.9583 7.37565 18.9583ZM7.37565 16.875C7.14232 16.875 6.95898 17.0583 6.95898 17.2917C6.95898 17.525 7.14232 17.7083 7.37565 17.7083C7.60898 17.7083 7.79232 17.525 7.79232 17.2917C7.79232 17.0583 7.60898 16.875 7.37565 16.875Z" fill="#929AA7"/>
<path d="M18 7.2915H8C7.65833 7.2915 7.375 7.00817 7.375 6.6665C7.375 6.32484 7.65833 6.0415 8 6.0415H18C18.3417 6.0415 18.625 6.32484 18.625 6.6665C18.625 7.00817 18.3417 7.2915 18 7.2915Z" fill="#929AA7"/>
</svg>
