<svg width="22" height="22" viewBox="0 0 22 22" fill="none" xmlns="http://www.w3.org/2000/svg">
<path d="M16.6729 16.2705H6.91036C6.00286 16.2705 5.13203 15.8855 4.51786 15.2163C3.90369 14.5472 3.59203 13.6488 3.66536 12.7413L4.4262 3.61134C4.4537 3.32718 4.35286 3.05218 4.16036 2.84135C3.96786 2.63051 3.70203 2.52051 3.41786 2.52051H1.83203C1.4562 2.52051 1.14453 2.20884 1.14453 1.83301C1.14453 1.45717 1.4562 1.14551 1.83203 1.14551H3.42704C4.0962 1.14551 4.72869 1.42967 5.17786 1.9155C5.42536 2.1905 5.60869 2.51135 5.70953 2.86885H17.1587C18.0845 2.86885 18.937 3.23551 19.5604 3.89551C20.1745 4.56467 20.4862 5.43551 20.4129 6.36134L19.9179 13.2363C19.817 14.9138 18.3504 16.2705 16.6729 16.2705ZM5.75536 4.23467L5.04037 12.8513C4.99453 13.383 5.1687 13.8872 5.5262 14.2813C5.8837 14.6755 6.37869 14.8863 6.91036 14.8863H16.6729C17.6262 14.8863 18.4879 14.0797 18.5612 13.1263L19.0562 6.25135C19.0929 5.71051 18.9187 5.19718 18.5612 4.82135C18.2037 4.43635 17.7087 4.22549 17.1679 4.22549H5.75536V4.23467Z" fill="#929AA7"/>
<path d="M14.8958 20.8542C13.8875 20.8542 13.0625 20.0292 13.0625 19.0208C13.0625 18.0125 13.8875 17.1875 14.8958 17.1875C15.9042 17.1875 16.7292 18.0125 16.7292 19.0208C16.7292 20.0292 15.9042 20.8542 14.8958 20.8542ZM14.8958 18.5625C14.6392 18.5625 14.4375 18.7642 14.4375 19.0208C14.4375 19.2775 14.6392 19.4792 14.8958 19.4792C15.1525 19.4792 15.3542 19.2775 15.3542 19.0208C15.3542 18.7642 15.1525 18.5625 14.8958 18.5625Z" fill="#929AA7"/>
<path d="M7.5638 20.8542C6.55547 20.8542 5.73047 20.0292 5.73047 19.0208C5.73047 18.0125 6.55547 17.1875 7.5638 17.1875C8.57214 17.1875 9.39714 18.0125 9.39714 19.0208C9.39714 20.0292 8.57214 20.8542 7.5638 20.8542ZM7.5638 18.5625C7.30714 18.5625 7.10547 18.7642 7.10547 19.0208C7.10547 19.2775 7.30714 19.4792 7.5638 19.4792C7.82047 19.4792 8.02214 19.2775 8.02214 19.0208C8.02214 18.7642 7.82047 18.5625 7.5638 18.5625Z" fill="#929AA7"/>
<path d="M19.25 8.021H8.25C7.87417 8.021 7.5625 7.70933 7.5625 7.3335C7.5625 6.95766 7.87417 6.646 8.25 6.646H19.25C19.6258 6.646 19.9375 6.95766 19.9375 7.3335C19.9375 7.70933 19.6258 8.021 19.25 8.021Z" fill="#929AA7"/>
</svg>
