<svg width="14" height="14" viewBox="0 0 14 14" fill="none" xmlns="http://www.w3.org/2000/svg">
<path d="M6.13866 1.18228C6.51352 0.469718 7.53381 0.469719 7.90867 1.18228L9.23262 3.69894C9.3771 3.97358 9.6409 4.16558 9.94666 4.21863L12.747 4.70457C13.5383 4.84189 13.8531 5.80899 13.2941 6.38576L11.31 8.43324C11.0946 8.65544 10.9943 8.96481 11.0382 9.27109L11.443 12.0943C11.5572 12.8905 10.7323 13.4889 10.0109 13.1331L7.46595 11.8781C7.18712 11.7406 6.86021 11.7406 6.58138 11.8781L4.03645 13.1331C3.31501 13.4889 2.49012 12.8905 2.6043 12.0943L3.00912 9.2711C3.05304 8.96481 2.9527 8.65544 2.73737 8.43324L0.7532 6.38576C0.194256 5.80899 0.508999 4.84189 1.30035 4.70457L4.10067 4.21863C4.40643 4.16558 4.67022 3.97358 4.81471 3.69894L6.13866 1.18228Z" fill="#D9D9DF"/>
</svg>
