<svg width="19" height="19" viewBox="0 0 19 19" fill="none" xmlns="http://www.w3.org/2000/svg">
<path d="M8.61558 0.678474C8.99066 -0.0331809 10.0098 -0.0331813 10.3849 0.678474L12.6295 4.9373C12.7741 5.21168 13.0379 5.40343 13.3435 5.45637L18.0849 6.27762C18.8769 6.41479 19.1916 7.38287 18.6318 7.95953L15.2768 11.4151C15.061 11.6374 14.9604 11.9472 15.0044 12.2539L15.6895 17.0225C15.8039 17.8185 14.9796 18.417 14.258 18.0619L9.94185 15.9374C9.66339 15.8003 9.33707 15.8003 9.05861 15.9374L4.74241 18.0619C4.0209 18.417 3.1966 17.8185 3.31095 17.0225L3.99601 12.2539C4.04006 11.9472 3.93947 11.6374 3.72364 11.4151L0.368692 7.95953C-0.191181 7.38287 0.123553 6.41479 0.915502 6.27762L5.65696 5.45637C5.96257 5.40343 6.22633 5.21168 6.37094 4.9373L8.61558 0.678474Z" fill="#FBBF27"/>
</svg>
