<svg width="14" height="14" viewBox="0 0 14 14" fill="none" xmlns="http://www.w3.org/2000/svg">
<path d="M6.11522 1.18228C6.49008 0.469718 7.51037 0.469719 7.88523 1.18228L9.20919 3.69894C9.35367 3.97358 9.61746 4.16558 9.92322 4.21863L12.7235 4.70457C13.5149 4.84189 13.8296 5.80899 13.2707 6.38576L11.2865 8.43324C11.0712 8.65544 10.9709 8.96481 11.0148 9.27109L11.4196 12.0943C11.5338 12.8905 10.7089 13.4889 9.98744 13.1331L7.44251 11.8781C7.16368 11.7406 6.83677 11.7406 6.55795 11.8781L4.01302 13.1331C3.29157 13.4889 2.46668 12.8905 2.58086 12.0943L2.98568 9.2711C3.0296 8.96481 2.92926 8.65544 2.71393 8.43324L0.729762 6.38576C0.170818 5.80899 0.485561 4.84189 1.27691 4.70457L4.07724 4.21863C4.38299 4.16558 4.64679 3.97358 4.79127 3.69894L6.11522 1.18228Z" fill="#FBBF27"/>
</svg>
