<svg width="22" height="22" viewBox="0 0 22 22" fill="none" xmlns="http://www.w3.org/2000/svg">
<path d="M10.1273 1.67847C10.5024 0.966819 11.5215 0.966819 11.8966 1.67847L14.1412 5.9373C14.2858 6.21168 14.5496 6.40343 14.8552 6.45637L19.5967 7.27762C20.3886 7.41479 20.7034 8.38287 20.1435 8.95953L16.7885 12.4151C16.5727 12.6374 16.4721 12.9472 16.5162 13.2539L17.2012 18.0225C17.3156 18.8185 16.4913 19.417 15.7698 19.0619L11.4536 16.9374C11.1751 16.8003 10.8488 16.8003 10.5703 16.9374L6.25413 19.0619C5.53262 19.417 4.70831 18.8185 4.82267 18.0225L5.50772 13.2539C5.55178 12.9472 5.45119 12.6374 5.23536 12.4151L1.88041 8.95953C1.32054 8.38287 1.63527 7.41479 2.42722 7.27762L7.16868 6.45637C7.47429 6.40343 7.73804 6.21168 7.88266 5.9373L10.1273 1.67847Z" fill="#6E798A" fill-opacity="0.2"/>
<path fill-rule="evenodd" clip-rule="evenodd" d="M11.5593 1.28734C11.5593 1.12486 11.5197 0.964825 11.444 0.821085L11.2765 0.50327C11.164 0.289773 10.8582 0.289773 10.7457 0.50327L7.72127 6.24161C7.67789 6.32393 7.59876 6.38145 7.50707 6.39733L1.12019 7.50358C0.882602 7.54473 0.788182 7.83516 0.956144 8.00816L5.47406 12.6616C5.53881 12.7282 5.56899 12.8212 5.55577 12.9132L4.63309 19.3359C4.59878 19.5747 4.84607 19.7543 5.06253 19.6477L10.8786 16.7849C10.9621 16.7438 11.06 16.7438 11.1436 16.7849V16.7849C11.3352 16.8793 11.5593 16.7398 11.5593 16.5262V1.28734Z" fill="#FBBF27"/>
</svg>
