<svg width="14" height="14" viewBox="0 0 14 14" fill="none" xmlns="http://www.w3.org/2000/svg">
<path opacity="0.3" d="M9.36424 3.93749L13.0019 4.48781C13.3098 4.53445 13.5616 4.74898 13.6549 5.04746C13.7481 5.34594 13.6735 5.6724 13.459 5.90559L10.8193 8.57324L11.4443 12.3975C11.5002 12.7053 11.3696 13.0224 11.1178 13.2183C10.866 13.4049 10.5395 13.4235 10.269 13.2743L7.02304 11.4927L3.77709 13.2743C3.5066 13.4235 3.1708 13.3955 2.91896 13.2183C2.66712 13.0318 2.53654 12.7146 2.5925 12.3975L3.21744 8.57324L0.587098 5.90559C0.372566 5.68173 0.28862 5.34594 0.391222 5.04746C0.484497 4.74898 0.736342 4.53445 1.04415 4.48781L4.67253 3.93749L6.30483 0.486336C6.48205 0.0852556 6.95775 -0.0919661 7.35883 0.0852556C7.53605 0.169203 7.67597 0.309115 7.75991 0.486336L9.38289 3.93749H9.36424Z" fill="#8F919B"/>
</svg>
