<svg width="13" height="12" viewBox="0 0 13 12" fill="none" xmlns="http://www.w3.org/2000/svg">
<path d="M8.61426 3.52313L11.8795 4.01995C12.1499 4.05978 12.3771 4.25663 12.4634 4.52613C12.5498 4.79797 12.4793 5.09325 12.2839 5.29479L9.91625 7.6898L10.4752 11.1253C10.5207 11.4065 10.4093 11.6924 10.1821 11.8588C9.95715 12.0252 9.65949 12.0463 9.41636 11.9127L6.49882 10.3074L3.58354 11.9127C3.33813 12.0463 3.04047 12.0252 2.81552 11.8588C2.59057 11.6924 2.47696 11.4065 2.52467 11.1253L3.08365 7.6898L0.715522 5.29479C0.519882 5.09325 0.45035 4.79797 0.536247 4.52613C0.62191 4.25663 0.848448 4.05978 1.12089 4.01995L4.38336 3.52313L5.84668 0.422035C5.96711 0.16388 6.2216 0 6.49882 0C6.7783 0 7.03279 0.16388 7.15322 0.422035L8.61426 3.52313Z" fill="#F9B23A"/>
</svg>
