<svg xmlns="http://www.w3.org/2000/svg" version="1.1" xmlns:xlink="http://www.w3.org/1999/xlink" width="14" height="14" x="0" y="0" viewBox="0 0 24 24" style="enable-background:new 0 0 512 512" xml:space="preserve" class=""><g transform="matrix(0.9500000000000003,0,0,0.9500000000000003,0.6000058684556233,0.6008411064743964)"><path fill="#d8dada" d="m23.79 9.87-5.36 5.49 1.26 7.77c.111.62-.562 1.074-1.1.78L12 20.26V.03c.28 0 .56.13.68.4l3.31 7.05 7.37 1.12c.616.11.843.835.43 1.27z" opacity="1" data-original="#eceff1" class=""></path><path fill="#ffc41f" d="M12 .03v20.23l-6.59 3.65c-.529.297-1.212-.153-1.1-.78l1.26-7.77L.21 9.87A.757.757 0 0 1 .64 8.6l7.37-1.12L11.32.43c.12-.27.4-.4.68-.4z" opacity="1" data-original="#ffc107" class=""></path></g></svg>