<svg width="14" height="14" viewBox="0 0 18 17" fill="none" xmlns="http://www.w3.org/2000/svg">
<path d="M7.87908 1.27123C8.3376 0.342175 9.6624 0.342175 10.1209 1.27123L11.6481 4.36561C11.8302 4.73454 12.1821 4.99025 12.5893 5.04941L16.0041 5.54562C17.0294 5.6946 17.4388 6.95457 16.6969 7.67774L14.2259 10.0864C13.9313 10.3735 13.7968 10.7873 13.8664 11.1928L14.4497 14.5938C14.6248 15.615 13.553 16.3937 12.636 15.9116L9.58168 14.3058C9.21752 14.1144 8.78248 14.1144 8.41832 14.3058L5.36399 15.9116C4.44695 16.3937 3.37516 15.615 3.5503 14.5938L4.13363 11.1928C4.20317 10.7873 4.06874 10.3735 3.77413 10.0864L1.30312 7.67774C0.561225 6.95457 0.970613 5.6946 1.99589 5.54562L5.41074 5.04941C5.81788 4.99025 6.16983 4.73454 6.35191 4.36561L7.87908 1.27123Z" fill="#858C8A" fill-opacity="0.3"/>
</svg>
