<svg width="20" height="19" viewBox="0 0 20 19" fill="none" xmlns="http://www.w3.org/2000/svg">
<path d="M9.1273 0.678474C9.50238 -0.0331809 10.5215 -0.0331813 10.8966 0.678474L13.1412 4.9373C13.2858 5.21168 13.5496 5.40343 13.8552 5.45637L18.5967 6.27762C19.3886 6.41479 19.7034 7.38287 19.1435 7.95953L15.7885 11.4151C15.5727 11.6374 15.4721 11.9472 15.5162 12.2539L16.2012 17.0225C16.3156 17.8185 15.4913 18.417 14.7698 18.0619L10.4536 15.9374C10.1751 15.8003 9.84879 15.8003 9.57032 15.9374L5.25413 18.0619C4.53262 18.417 3.70831 17.8185 3.82267 17.0225L4.50772 12.2539C4.55178 11.9472 4.45119 11.6374 4.23536 11.4151L0.880411 7.95953C0.320537 7.38287 0.635272 6.41479 1.42722 6.27762L6.16868 5.45637C6.47429 5.40343 6.73804 5.21168 6.88266 4.9373L9.1273 0.678474Z" fill="#6E798A" fill-opacity="0.2"/>
</svg>
