<svg width="16" height="17" viewBox="0 0 16 17" fill="none" xmlns="http://www.w3.org/2000/svg">
<path d="M7.13866 2.18228C7.51352 1.46972 8.53381 1.46972 8.90867 2.18228L10.2326 4.69894C10.3771 4.97358 10.6409 5.16558 10.9467 5.21863L13.747 5.70457C14.5383 5.84189 14.8531 6.80899 14.2941 7.38576L12.31 9.43324C12.0946 9.65544 11.9943 9.96481 12.0382 10.2711L12.443 13.0943C12.5572 13.8905 11.7323 14.4889 11.0109 14.1331L8.46595 12.8781C8.18712 12.7406 7.86021 12.7406 7.58138 12.8781L5.03645 14.1331C4.31501 14.4889 3.49012 13.8905 3.6043 13.0943L4.00912 10.2711C4.05304 9.96481 3.9527 9.65544 3.73737 9.43324L1.7532 7.38576C1.19426 6.80899 1.509 5.84189 2.30035 5.70457L5.10067 5.21863C5.40643 5.16558 5.67022 4.97358 5.81471 4.69894L7.13866 2.18228Z" fill="#D9D9DF"/>
<path fill-rule="evenodd" clip-rule="evenodd" d="M8.41789 1.49465C8.41789 1.33242 8.37843 1.17264 8.3029 1.02907L8.29001 1.00456C8.17755 0.790796 7.87146 0.790796 7.759 1.00456L5.65515 5.00371C5.61181 5.0861 5.53267 5.1437 5.44094 5.15961L0.997047 5.93076C0.759642 5.97195 0.665219 6.26208 0.832903 6.43511L3.97718 9.67971C4.04177 9.74637 4.07188 9.83918 4.0587 9.93107L3.41665 14.4087C3.3824 14.6475 3.62986 14.827 3.8463 14.7203L7.89182 12.7253C7.97547 12.6841 8.07354 12.6841 8.15719 12.7253V12.7253C8.27732 12.7845 8.41789 12.6971 8.41789 12.5632V1.49465Z" fill="#FBBF27"/>
</svg>
