<svg width="22" height="22" viewBox="0 0 22 22" fill="none" xmlns="http://www.w3.org/2000/svg">
<path d="M11 12.6043C10.6242 12.6043 10.3125 12.2927 10.3125 11.9168V7.3335C10.3125 6.95766 10.6242 6.646 11 6.646C11.3758 6.646 11.6875 6.95766 11.6875 7.3335V11.9168C11.6875 12.2927 11.3758 12.6043 11 12.6043Z" fill="#929AA7"/>
<path d="M11.0013 20.8542C6.19797 20.8542 2.29297 16.9492 2.29297 12.1458C2.29297 7.3425 6.19797 3.4375 11.0013 3.4375C15.8046 3.4375 19.7096 7.3425 19.7096 12.1458C19.7096 12.5217 19.398 12.8333 19.0221 12.8333C18.6463 12.8333 18.3346 12.5217 18.3346 12.1458C18.3346 8.10333 15.0438 4.8125 11.0013 4.8125C6.9588 4.8125 3.66797 8.10333 3.66797 12.1458C3.66797 16.1883 6.9588 19.4792 11.0013 19.4792C11.3771 19.4792 11.6888 19.7908 11.6888 20.1667C11.6888 20.5425 11.3771 20.8542 11.0013 20.8542Z" fill="#929AA7"/>
<path d="M13.75 2.521H8.25C7.87417 2.521 7.5625 2.20933 7.5625 1.8335C7.5625 1.45766 7.87417 1.146 8.25 1.146H13.75C14.1258 1.146 14.4375 1.45766 14.4375 1.8335C14.4375 2.20933 14.1258 2.521 13.75 2.521Z" fill="#929AA7"/>
<path d="M14.804 20.1851C14.4832 20.1851 14.1899 20.1117 13.924 19.9559C13.319 19.6076 12.9707 18.9017 12.9707 18.0217V15.9042C12.9707 15.0242 13.319 14.3184 13.924 13.9701C14.529 13.6217 15.3082 13.6767 16.069 14.1076L17.9024 15.1709C18.6632 15.6109 19.1032 16.2617 19.1032 16.9584C19.1032 17.6551 18.6632 18.3059 17.9024 18.7459L16.069 19.8092C15.6474 20.0567 15.2165 20.1851 14.804 20.1851ZM14.8132 15.1067C14.7399 15.1067 14.6665 15.1251 14.6115 15.1526C14.4465 15.2442 14.3457 15.5284 14.3457 15.8951V18.0126C14.3457 18.3792 14.4465 18.6634 14.6115 18.7551C14.7765 18.8467 15.0699 18.8009 15.3815 18.6176L17.2149 17.5542C17.5357 17.3709 17.7282 17.1417 17.7282 16.9584C17.7282 16.7751 17.5357 16.5459 17.2149 16.3626L15.3815 15.2992C15.1707 15.1709 14.969 15.1067 14.8132 15.1067Z" fill="#929AA7"/>
</svg>
