<svg width="21" height="20" viewBox="0 0 21 20" fill="none" xmlns="http://www.w3.org/2000/svg">
<path d="M10.5 11.4582C10.1583 11.4582 9.875 11.1748 9.875 10.8332V6.6665C9.875 6.32484 10.1583 6.0415 10.5 6.0415C10.8417 6.0415 11.125 6.32484 11.125 6.6665V10.8332C11.125 11.1748 10.8417 11.4582 10.5 11.4582Z" fill="#929AA7"/>
<path d="M10.5007 18.9583C6.13398 18.9583 2.58398 15.4083 2.58398 11.0417C2.58398 6.675 6.13398 3.125 10.5007 3.125C14.8673 3.125 18.4173 6.675 18.4173 11.0417C18.4173 11.3833 18.134 11.6667 17.7923 11.6667C17.4507 11.6667 17.1673 11.3833 17.1673 11.0417C17.1673 7.36667 14.1757 4.375 10.5007 4.375C6.82565 4.375 3.83398 7.36667 3.83398 11.0417C3.83398 14.7167 6.82565 17.7083 10.5007 17.7083C10.8423 17.7083 11.1257 17.9917 11.1257 18.3333C11.1257 18.675 10.8423 18.9583 10.5007 18.9583Z" fill="#929AA7"/>
<path d="M13 2.2915H8C7.65833 2.2915 7.375 2.00817 7.375 1.6665C7.375 1.32484 7.65833 1.0415 8 1.0415H13C13.3417 1.0415 13.625 1.32484 13.625 1.6665C13.625 2.00817 13.3417 2.2915 13 2.2915Z" fill="#929AA7"/>
<path d="M13.9577 18.3498C13.666 18.3498 13.3993 18.2832 13.1577 18.1415C12.6077 17.8248 12.291 17.1832 12.291 16.3832V14.4582C12.291 13.6582 12.6077 13.0165 13.1577 12.6998C13.7077 12.3832 14.416 12.4332 15.1077 12.8248L16.7744 13.7915C17.466 14.1915 17.866 14.7832 17.866 15.4165C17.866 16.0498 17.466 16.6415 16.7744 17.0415L15.1077 18.0082C14.7243 18.2332 14.3327 18.3498 13.9577 18.3498ZM13.966 13.7332C13.8993 13.7332 13.8327 13.7498 13.7827 13.7748C13.6327 13.8582 13.541 14.1165 13.541 14.4498V16.3748C13.541 16.7082 13.6327 16.9665 13.7827 17.0498C13.9327 17.1332 14.1993 17.0915 14.4827 16.9248L16.1493 15.9582C16.441 15.7915 16.616 15.5832 16.616 15.4165C16.616 15.2498 16.441 15.0415 16.1493 14.8748L14.4827 13.9082C14.291 13.7915 14.1077 13.7332 13.966 13.7332Z" fill="#929AA7"/>
</svg>
