<svg width="94" height="27" viewBox="0 0 94 27" fill="none" xmlns="http://www.w3.org/2000/svg">
<path opacity="0.87" fill-rule="evenodd" clip-rule="evenodd" d="M79.6766 22.8723C79.2953 22.7507 78.9627 22.6099 78.6812 22.4496L77.3538 26.0073C77.9472 26.2726 78.5627 26.4854 79.1932 26.6432C79.8365 26.8036 80.5403 26.8838 81.3047 26.8838C82.5109 26.8838 83.5619 26.6314 84.457 26.1289C85.3526 25.6265 86.0614 24.7601 86.583 23.5347L93.9436 6.10307H88.5149L85.5589 14.6963L82.5738 6.10307H76.8418L83.0858 20.1855L82.2417 22.0883C82.0791 22.45 81.8823 22.6997 81.6518 22.8404C81.4213 22.9816 81.1156 23.0518 80.732 23.0518C80.4118 23.0518 80.0597 22.9935 79.6766 22.8723ZM71.2382 14.2303C71.5393 14.2012 71.8427 14.1743 72.1433 14.1551V16.8998C71.8815 17.1006 71.5923 17.2632 71.2847 17.3826C70.9713 17.5038 70.6269 17.5621 70.2433 17.5621C69.7217 17.5621 69.314 17.4286 69.0225 17.1567C68.7314 16.8852 68.5833 16.5381 68.5833 16.1158C68.5833 15.7131 68.7145 15.3468 68.9765 15.0143C69.2388 14.684 69.6803 14.4658 70.3039 14.3661C70.6132 14.307 70.9249 14.2617 71.2382 14.2303ZM72.4759 19.674L72.8982 20.8215H77.3319V11.5317C77.3319 9.56105 76.7593 8.10743 75.6114 7.17312C74.4661 6.23608 72.9273 5.77007 70.9981 5.77007C69.6101 5.77007 68.4184 5.97187 67.4235 6.37457C66.4366 6.77025 65.524 7.3308 64.7249 8.03227L67.0764 10.6557C67.5328 10.2909 68.0344 9.98654 68.5687 9.7501C69.0888 9.52839 69.6489 9.41612 70.2141 9.42029C70.7362 9.42029 71.1899 9.56105 71.5707 9.84257C71.952 10.1241 72.1433 10.5655 72.1433 11.17V11.5317C71.6347 11.5552 71.1267 11.59 70.6196 11.636C70.0194 11.6924 69.4213 11.7684 68.8261 11.8638C68.1453 11.9572 67.4776 12.1292 66.8363 12.3763C66.2122 12.6163 65.6638 12.9293 65.1909 13.3101C64.7236 13.6861 64.3434 14.1591 64.0767 14.6963C63.8052 15.2398 63.669 15.8757 63.669 16.5986C63.669 17.3025 63.7879 17.9261 64.0307 18.4673C64.2641 19.0011 64.6081 19.4794 65.0402 19.8703C65.4725 20.2634 65.9817 20.5595 66.5644 20.7609C67.1466 20.9595 67.7802 21.0615 68.4644 21.0615C69.3696 21.0615 70.1631 20.9258 70.8478 20.6538C71.5297 20.3846 72.0732 20.0575 72.4759 19.674ZM40.2115 2.38451L46.7348 20.821H50.7463L53.0372 13.0988L55.36 20.821H59.4006L64.6206 6.10261H59.2207L57.0487 13.9142L54.7869 6.10215H51.3481L49.0863 13.9146L45.3154 2.38497L40.2115 2.38451ZM30.8685 6.10215V9.78153H32.9503V16.2365C32.9503 16.979 33.0259 17.6514 33.1762 18.2559C33.3265 18.8599 33.5839 19.372 33.9461 19.7942C34.3073 20.2165 34.7852 20.5445 35.3774 20.775C35.9719 21.0055 36.7003 21.1221 37.564 21.1221C38.5907 21.1221 39.4909 21.0005 40.2653 20.7604C41.0393 20.5176 41.7576 20.1682 42.42 19.7045L41.0634 16.5062C40.7861 16.7176 40.4876 16.8997 40.1728 17.0496C39.8497 17.2089 39.4944 17.292 39.1342 17.2924C38.7506 17.2924 38.5056 17.1517 38.3939 16.8701C38.2846 16.5886 38.229 16.1955 38.229 15.693V9.78199H41.7695L40.4666 6.10261H38.229V2.39226H32.9507V6.10261L30.8685 6.10215ZM25.3355 9.79611C25.7478 10.2471 25.9833 10.8666 26.0439 11.6524H21.4598C21.54 10.888 21.8069 10.274 22.2584 9.81068C22.7121 9.34968 23.2387 9.11645 23.8427 9.11645C24.4253 9.11645 24.9228 9.34421 25.3355 9.79611ZM22.2898 16.523C21.7559 16.0306 21.4698 15.3414 21.4284 14.4553H30.9901C30.9705 11.4998 30.3127 9.31324 29.0144 7.89561C27.7184 6.47888 25.9737 5.77007 23.7821 5.77007C22.7171 5.77007 21.7267 5.93998 20.812 6.28209C19.8968 6.6242 19.1083 7.12666 18.4432 7.79129C17.7781 8.45409 17.2566 9.26222 16.8757 10.2184C16.4922 11.1746 16.3027 12.2638 16.3027 13.4919C16.3027 14.7587 16.5017 15.868 16.9044 16.8241C17.3076 17.7776 17.851 18.5734 18.5352 19.2048C19.2172 19.8407 20.0157 20.3186 20.9332 20.6388C21.8479 20.9595 22.826 21.1217 23.8719 21.1217C24.736 21.1217 25.515 21.0515 26.2088 20.9108C26.903 20.77 27.5171 20.5687 28.0487 20.3067C28.5533 20.0642 29.0294 19.7662 29.4681 19.4184C29.8809 19.0859 30.2471 18.7192 30.5701 18.3165L27.3422 15.7828C26.9367 16.2852 26.5003 16.6592 26.0293 16.8988C25.556 17.1421 24.9884 17.261 24.3256 17.261C23.5011 17.261 22.8219 17.0159 22.2898 16.523ZM6.72635 17.2177C6.51498 17.1858 6.29678 17.1426 6.07584 17.0792V9.96147C6.31864 9.88129 6.55871 9.8157 6.80151 9.76741C7.05935 9.71509 7.32194 9.68975 7.58504 9.69179C8.4296 9.69179 9.12885 9.9929 9.68187 10.5947C10.2331 11.1992 10.5096 12.1335 10.5096 13.4003C10.5096 14.7082 10.2281 15.6789 9.66502 16.3126C9.10198 16.9458 8.36901 17.261 7.46386 17.261C7.18234 17.261 6.93772 17.2464 6.72635 17.2177ZM7.35954 5.87484C6.92547 5.94128 6.49654 6.03779 6.07584 6.16365V0.703125H0.799805V19.945C1.70268 20.2876 2.68801 20.5737 3.75351 20.8046C4.82129 21.0374 6.01753 21.154 7.34269 21.154C8.5485 21.154 9.66001 20.9914 10.6772 20.6712C11.6913 20.3482 12.5723 19.8603 13.3148 19.2052C14.06 18.5547 14.6377 17.7247 15.0504 16.718C15.4626 15.7131 15.669 14.5264 15.669 13.1603C15.669 12.1335 15.5187 11.17 15.2153 10.2649C14.9146 9.3597 14.4773 8.57572 13.9047 7.91109C13.3321 7.24829 12.621 6.72442 11.7764 6.34313C10.9319 5.9623 9.97797 5.77052 8.91293 5.77052C8.32802 5.77052 7.81053 5.80423 7.35954 5.87484Z" fill="#0F101A"/>
</svg>
