<svg width="105" height="25" viewBox="0 0 105 25" fill="none" xmlns="http://www.w3.org/2000/svg">
<path opacity="0.87" fill-rule="evenodd" clip-rule="evenodd" d="M34.9467 12.8674C34.3509 13.5361 34.053 14.3369 34.053 15.2704C34.053 16.204 34.3509 17.0054 34.9467 17.6734C35.5424 18.3421 36.2716 18.6758 37.1357 18.6758C38.0163 18.6758 38.7544 18.3421 39.3509 17.6734C39.9467 17.0054 40.2445 16.204 40.2445 15.2704C40.2445 14.3369 39.9467 13.5368 39.3502 12.8674C38.7544 12.1994 38.0163 11.8651 37.135 11.8651C36.2716 11.8651 35.5424 12.1994 34.9467 12.8674ZM34.2298 10.2402C34.5717 9.73866 35.0939 9.3314 35.7963 9.017C36.4987 8.7033 37.2733 8.54645 38.1202 8.54645C39.8854 8.54645 41.4037 9.1828 42.6737 10.4548C43.9436 11.7275 44.5786 13.3944 44.5786 15.4555C44.5786 17.4987 43.934 19.1649 42.6455 20.4555C41.3576 21.7454 39.8228 22.3907 38.0397 22.3907C37.2279 22.3907 36.4808 22.2386 35.797 21.9339C35.1118 21.6291 34.5807 21.217 34.2023 20.697V21.7426C34.2041 21.8176 34.1906 21.8921 34.1627 21.9616C34.1347 22.0311 34.0928 22.0942 34.0396 22.147C33.9865 22.1999 33.9231 22.2412 33.8533 22.2687C33.7836 22.2962 33.709 22.3091 33.6341 22.3068L30.9325 22.3074C30.7523 22.3074 30.6092 22.2538 30.5005 22.1465C30.4471 22.094 30.4052 22.0312 30.3772 21.9618C30.3493 21.8925 30.336 21.8181 30.3381 21.7433V3.76109C30.3381 3.59943 30.3918 3.46528 30.5005 3.35727C30.6085 3.24995 30.7523 3.19629 30.9325 3.19629H33.6623C33.806 3.19629 33.9361 3.24995 34.0537 3.35727C34.1707 3.46528 34.2298 3.59943 34.2298 3.76109V10.2395V10.2402ZM50.2727 8.68266V15.6516C50.2727 16.539 50.4949 17.2393 50.9387 17.7532C51.3824 18.2685 52.0394 18.5251 52.9103 18.5251C53.7634 18.5251 54.4238 18.2685 54.895 17.7532C55.3656 17.2393 55.6016 16.5562 55.6016 15.7045V8.68266C55.6016 8.54026 55.6594 8.41643 55.7742 8.30979C55.8775 8.20841 56.0162 8.15117 56.1609 8.15019H58.8521C59.0289 8.15019 59.1713 8.20798 59.278 8.32287C59.3834 8.43412 59.441 8.58235 59.4382 8.73563V21.1304C59.4404 21.2043 59.4272 21.2779 59.3996 21.3466C59.3721 21.4152 59.3306 21.4774 59.278 21.5294C59.1713 21.636 59.0289 21.6897 58.8514 21.6897H56.1609C56.0138 21.6941 55.8708 21.6413 55.7619 21.5424C55.7088 21.4937 55.6669 21.434 55.6392 21.3675C55.6115 21.301 55.5987 21.2292 55.6016 21.1572V20.042C54.6426 21.1957 53.3451 21.7715 51.7119 21.7715C50.0952 21.7715 48.8115 21.2707 47.8615 20.2677C46.9114 19.266 46.4361 17.9397 46.4361 16.29V8.68266C46.4361 8.54026 46.498 8.41643 46.6218 8.30979C46.7312 8.20928 46.8737 8.15247 47.0222 8.15019H49.6866C49.8469 8.15019 49.9838 8.20316 50.0994 8.30979C50.1534 8.35585 50.1968 8.41299 50.2267 8.47733C50.2566 8.54167 50.2723 8.61171 50.2727 8.68266ZM67.1818 8.15019C68.352 8.15019 69.3846 8.32149 70.2803 8.66202C71.1753 9.00324 71.8626 9.40432 72.3414 9.86455C72.7665 10.2154 72.7844 10.6213 72.395 11.0815L71.4106 12.2421C71.0914 12.6294 70.6662 12.6569 70.1337 12.326C69.0881 11.6071 68.1043 11.2473 67.1825 11.2473C66.6851 11.2473 66.2812 11.3436 65.9717 11.5376C65.6621 11.731 65.5066 11.9662 65.5066 12.2421C65.5066 12.778 66.0019 13.1461 66.996 13.349L69.0434 13.7631C71.7208 14.2984 73.0596 15.6529 73.0596 17.8289C73.0596 19.1553 72.5182 20.2477 71.4374 21.1049C70.356 21.9628 68.9457 22.3907 67.2086 22.3907C65.2934 22.3907 63.6533 21.8926 62.2884 20.8978C61.1891 20.1053 61.0026 19.4139 61.7298 18.8244L62.9 17.8839C63.3251 17.5517 63.7599 17.5799 64.203 17.9665C65.1964 18.8705 66.242 19.3218 67.3414 19.3218C67.9082 19.3218 68.3478 19.211 68.6581 18.9902C68.9677 18.768 69.1232 18.5017 69.1232 18.1873C69.1232 17.8743 68.9773 17.6301 68.6849 17.4547C68.3919 17.2799 67.9172 17.1279 67.2616 16.9986L65.1344 16.5287C64.0523 16.3072 63.1972 15.8566 62.5677 15.1734C61.9382 14.4924 61.6232 13.6159 61.6232 12.5469C61.6232 11.2934 62.1288 10.2471 63.1394 9.40845C64.1507 8.56984 65.497 8.15019 67.1818 8.15019ZM84.6728 21.8506V15.32C84.6728 14.3658 84.4155 13.6001 83.9002 13.0243C83.3843 12.4485 82.6743 12.1602 81.7676 12.1602C80.8616 12.1602 80.1331 12.4533 79.582 13.0381C79.0317 13.6228 78.7558 14.3837 78.7558 15.32V21.8506C78.7584 21.9249 78.7442 21.9987 78.7141 22.0666C78.6841 22.1345 78.6391 22.1948 78.5824 22.2428C78.4677 22.3412 78.3208 22.3939 78.1697 22.3907H75.4777C75.4033 22.3917 75.3295 22.3777 75.2607 22.3496C75.1918 22.3214 75.1293 22.2797 75.077 22.2268C75.0246 22.174 74.9835 22.1111 74.956 22.042C74.9285 21.9728 74.9153 21.8989 74.917 21.8245V3.76316C74.917 3.60149 74.9707 3.46734 75.0773 3.35796C75.1293 3.30494 75.1918 3.26327 75.2607 3.23556C75.3296 3.20786 75.4035 3.19472 75.4777 3.19698H78.169C78.3299 3.19698 78.4668 3.24651 78.5824 3.34557C78.639 3.39337 78.684 3.45336 78.714 3.52104C78.744 3.58872 78.7583 3.66233 78.7558 3.73633V10.3241C79.7155 9.15459 81.1189 8.56984 82.9674 8.56984C84.6549 8.56984 86.006 9.10919 87.0194 10.1893C88.0321 11.2693 88.5384 12.628 88.5384 14.2667V21.8506C88.5411 21.9249 88.5269 21.9987 88.4969 22.0667C88.4669 22.1346 88.4218 22.1948 88.365 22.2428C88.2504 22.3413 88.1034 22.394 87.9523 22.3907H85.2596C85.1082 22.3938 84.961 22.3409 84.8462 22.2421C84.7896 22.1942 84.7446 22.134 84.7146 22.0662C84.6846 21.9985 84.6703 21.9247 84.6728 21.8506Z" fill="#0F101A"/>
<mask id="mask0_2_1409" style="mask-type:alpha" maskUnits="userSpaceOnUse" x="90" y="8" width="15" height="15">
<path d="M90.3955 8.15039H104.636V22.3909H90.3955V8.15039Z" fill="white"/>
</mask>
<g mask="url(#mask0_2_1409)">
<path fill-rule="evenodd" clip-rule="evenodd" d="M94.9944 12.8676C94.4049 13.537 94.1104 14.3371 94.1104 15.2706C94.1104 16.2042 94.4049 17.0056 94.9944 17.6736C95.584 18.3423 96.3215 18.676 97.2062 18.676C98.0902 18.676 98.8277 18.3423 99.4179 17.6736C100.007 17.0056 100.302 16.2042 100.302 15.2706C100.302 14.3371 100.007 13.537 99.4179 12.8676C98.8277 12.1996 98.0902 11.8653 97.2062 11.8653C96.3215 11.8653 95.584 12.1996 94.9944 12.8676ZM92.3541 20.4007C91.0491 19.0722 90.3955 17.3579 90.3955 15.2569C90.3955 13.1552 91.0484 11.4457 92.3541 10.1275C93.6598 8.80944 95.2056 8.15039 96.9888 8.15039C97.835 8.15039 98.5965 8.32169 99.2714 8.66222C99.9476 9.00344 100.447 9.44098 100.771 9.97551V8.84384C100.771 8.67873 100.83 8.53564 100.947 8.41525C101.064 8.29624 101.195 8.23638 101.339 8.23638H104.068C104.231 8.23638 104.366 8.29624 104.474 8.41525C104.581 8.53209 104.639 8.68547 104.636 8.84384V21.725C104.638 21.8015 104.625 21.8777 104.597 21.949C104.569 22.0203 104.527 22.0852 104.474 22.1398C104.421 22.194 104.358 22.2367 104.288 22.2653C104.219 22.2938 104.144 22.3076 104.068 22.3056H101.339C101.195 22.3056 101.064 22.2505 100.947 22.1405C100.89 22.0877 100.845 22.0234 100.815 21.9517C100.784 21.88 100.77 21.8027 100.772 21.725V20.5658C100.447 21.101 99.9476 21.5385 99.2721 21.8797C98.5965 22.2203 97.8274 22.3909 96.962 22.3909C95.196 22.3909 93.6598 21.727 92.3541 20.4" fill="#2E2F37"/>
</g>
<mask id="mask1_2_1409" style="mask-type:alpha" maskUnits="userSpaceOnUse" x="3" y="0" width="21" height="15">
<path d="M3.71484 0.720703H23.5277V14.342H3.71484V0.720703Z" fill="white"/>
</mask>
<g mask="url(#mask1_2_1409)">
<path fill-rule="evenodd" clip-rule="evenodd" d="M21.8959 13.6214L20.7656 14.3424L18.452 10.179C17.8184 9.04261 16.8926 8.09632 15.7703 7.43808C14.6481 6.77983 13.3703 6.43357 12.0693 6.43515H3.71484L11.8959 1.22326C12.5077 0.834045 13.2333 0.663455 13.9545 0.739282C14.6757 0.815109 15.3499 1.13288 15.8674 1.64085L22.4786 8.1557C24.0898 9.74279 23.8063 12.4045 21.8959 13.6221" fill="#67C462"/>
</g>
<mask id="mask2_2_1409" style="mask-type:alpha" maskUnits="userSpaceOnUse" x="0" y="8" width="22" height="17">
<path d="M0 8.15039H21.6703V24.8675H0V8.15039Z" fill="white"/>
</mask>
<g mask="url(#mask2_2_1409)">
<path fill-rule="evenodd" clip-rule="evenodd" d="M18.3806 24.8675H8.653C8.17236 24.8653 7.70251 24.7248 7.29957 24.4628C6.89663 24.2007 6.57764 23.8282 6.38071 23.3898L0.187132 9.81522L0.0949474 9.6109C0.0336949 9.47811 0.00134566 9.33383 4.10947e-05 9.1876C-0.00126348 9.04136 0.0285064 8.89652 0.08738 8.76266C0.0942594 8.74409 0.103891 8.72827 0.112834 8.70832C0.195727 8.54127 0.323487 8.4006 0.481806 8.30206C0.640124 8.20353 0.822749 8.15101 1.00923 8.15039H11.6174C13.6372 8.15039 15.4974 9.26899 16.4715 11.07L18.8147 15.3965L21.2569 19.9033C22.4642 22.1343 20.8819 24.8675 18.3813 24.8675" fill="#74DF70"/>
</g>
</svg>
