<svg width="123" height="22" viewBox="0 0 123 22" fill="none" xmlns="http://www.w3.org/2000/svg">
<path d="M9.77695 21.0252C7.21217 21.0252 4.75244 20.0084 2.93887 18.1985C1.1253 16.3887 0.106445 13.9339 0.106445 11.3744V1.72363H6.55345V11.3744C6.55345 12.2276 6.89307 13.0458 7.49758 13.6491C8.10211 14.2524 8.92202 14.5913 9.77695 14.5913C10.6319 14.5913 11.4518 14.2524 12.0563 13.6491C12.6608 13.0458 13.0005 12.2276 13.0005 11.3744V1.72363H19.4475V11.3744C19.4475 13.9339 18.4286 16.3887 16.615 18.1985C14.8015 20.0084 12.3417 21.0252 9.77695 21.0252Z" fill="#1EC572"/>
<path d="M25.8949 14.5908H9.77734V21.0247H25.8949V14.5908Z" fill="#016938"/>
<g opacity="0.6">
<g opacity="0.6">
<path opacity="0.6" d="M9.77695 21.0252C7.21217 21.0252 4.75244 20.0084 2.93887 18.1985C1.1253 16.3887 0.106445 13.9339 0.106445 11.3744V1.72363H6.55345V11.3744C6.55345 12.2276 6.89307 13.0458 7.49758 13.6491C8.10211 14.2524 8.92202 14.5913 9.77695 14.5913C10.6319 14.5913 11.4518 14.2524 12.0563 13.6491C12.6608 13.0458 13.0005 12.2276 13.0005 11.3744V1.72363H19.4475V11.3744C19.4475 13.9339 18.4286 16.3887 16.615 18.1985C14.8015 20.0084 12.3417 21.0252 9.77695 21.0252Z" fill="#1EC572"/>
</g>
</g>
<path opacity="0.87" d="M29.7175 9.89291H27.625V6.64154H29.7175V5.80456C29.7175 4.04474 30.2111 2.68196 31.1983 1.71621C32.1855 0.750454 33.5268 0.267578 35.2223 0.267578C37.9478 0.267578 39.6111 1.48013 40.212 3.90525L37.3147 4.80661C36.9713 4.01255 36.4348 3.61552 35.7051 3.61552C34.7823 3.61552 34.3209 4.22716 34.3209 5.45045V6.64154H38.0229V9.89291H34.3209V20.9347H29.7175V9.89291ZM49.2985 13.9169V6.64154H53.9663V20.9347H49.2985V18.7134C48.4615 20.4518 46.9485 21.321 44.7595 21.321C42.9568 21.321 41.6583 20.7952 40.8643 19.7436C40.0702 18.692 39.6732 17.3185 39.6732 15.623V6.64154H44.3088V14.4963C44.3088 16.5995 45.1029 17.6511 46.691 17.6511C47.5494 17.6511 48.1933 17.3185 48.6225 16.6532C49.0732 15.9879 49.2985 15.0758 49.2985 13.9169ZM61.9251 13.6593V20.9347H57.2895V6.64154H61.9251V8.86277C62.3114 8.06871 62.9123 7.43561 63.7279 6.96346C64.5648 6.49132 65.5199 6.25524 66.5929 6.25524C68.3957 6.25524 69.7048 6.79177 70.5203 7.86483C71.3358 8.91643 71.7436 10.2899 71.7436 11.9854V20.9347H67.108V13.1121C67.108 10.9874 66.3139 9.9251 64.7258 9.9251C63.803 9.9251 63.1055 10.2578 62.6333 10.923C62.1612 11.5883 61.9251 12.5004 61.9251 13.6593ZM85.2991 13.9491V13.6272C85.2991 12.4897 84.9986 11.5883 84.3977 10.923C83.8183 10.2363 83.0457 9.89291 82.0799 9.89291C81.0069 9.89291 80.1913 10.247 79.6334 10.9552C79.0968 11.642 78.8286 12.5863 78.8286 13.7881C78.8286 15.0114 79.0968 15.9771 79.6334 16.6854C80.1913 17.3721 81.0069 17.7155 82.0799 17.7155C83.0457 17.7155 83.8183 17.3721 84.3977 16.6854C84.9986 15.9986 85.2991 15.0865 85.2991 13.9491ZM85.2991 20.9347V18.3915C84.9557 19.2714 84.3655 19.9797 83.5286 20.5162C82.6916 21.0527 81.6829 21.321 80.5025 21.321C78.4637 21.321 76.8863 20.6235 75.7704 19.2285C74.6758 17.8121 74.1286 15.9986 74.1286 13.7881C74.1286 11.5991 74.6758 9.79634 75.7704 8.3799C76.8863 6.96346 78.4637 6.25524 80.5025 6.25524C81.6829 6.25524 82.6916 6.53424 83.5286 7.09223C84.3655 7.62876 84.9557 8.33698 85.2991 9.21688V0.653879H89.9669V20.9347H85.2991ZM101.671 14.8826V14.5929L99.3209 15.0758C98.5053 15.2475 97.9044 15.4621 97.5181 15.7196C97.1533 15.9557 96.9709 16.3313 96.9709 16.8463C96.9709 17.2541 97.1211 17.5867 97.4215 17.8443C97.722 18.0803 98.119 18.1984 98.6126 18.1984C99.4926 18.1984 100.222 17.8979 100.802 17.297C101.381 16.6746 101.671 15.8698 101.671 14.8826ZM106.242 11.8244V17.0395C106.242 17.7477 106.543 18.1018 107.143 18.1018C107.573 18.1018 107.97 18.016 108.335 17.8443V20.323C107.476 20.9454 106.467 21.2566 105.309 21.2566C104.45 21.2566 103.72 21.042 103.119 20.6128C102.54 20.1621 102.143 19.5397 101.928 18.7456C101.113 20.4196 99.514 21.2566 97.1318 21.2566C95.6939 21.2566 94.5565 20.9132 93.7195 20.2265C92.8825 19.5397 92.464 18.5847 92.464 17.3614C92.464 16.0737 92.904 15.0865 93.7839 14.3998C94.6852 13.6915 95.9836 13.1765 97.6791 12.8546L101.671 12.1463V11.8888C101.671 10.4509 100.973 9.73195 99.5784 9.73195C98.3551 9.73195 97.5932 10.408 97.2928 11.76L92.9791 11.4381C93.2366 9.84999 93.9448 8.59451 95.1037 7.67168C96.2841 6.72739 97.8615 6.25524 99.8359 6.25524C101.789 6.25524 103.345 6.71666 104.504 7.63949C105.663 8.56232 106.242 9.95729 106.242 11.8244ZM110.284 0.653879H114.919V20.9347H110.284V0.653879ZM118.276 0.653879H122.912V20.9347H118.276V0.653879Z" fill="#0F101A"/>
</svg>
