<svg width="21" height="20" viewBox="0 0 21 20" fill="none" xmlns="http://www.w3.org/2000/svg">
<path d="M10.6322 9.68317C10.6072 9.68317 10.5905 9.68317 10.5655 9.68317C10.5238 9.67484 10.4655 9.67484 10.4155 9.68317C7.99883 9.60817 6.17383 7.70817 6.17383 5.3665C6.17383 2.98317 8.11549 1.0415 10.4988 1.0415C12.8822 1.0415 14.8238 2.98317 14.8238 5.3665C14.8155 7.70817 12.9822 9.60817 10.6572 9.68317C10.6488 9.68317 10.6405 9.68317 10.6322 9.68317ZM10.4988 2.2915C8.80716 2.2915 7.42383 3.67484 7.42383 5.3665C7.42383 7.03317 8.72383 8.37484 10.3822 8.43317C10.4238 8.42484 10.5405 8.42484 10.6488 8.43317C12.2822 8.35817 13.5655 7.0165 13.5738 5.3665C13.5738 3.67484 12.1905 2.2915 10.4988 2.2915Z" fill="#929AA7"/>
<path d="M10.6404 18.7918C9.00703 18.7918 7.36536 18.3752 6.1237 17.5418C4.96536 16.7752 4.33203 15.7252 4.33203 14.5835C4.33203 13.4418 4.96536 12.3835 6.1237 11.6085C8.6237 9.95016 12.6737 9.95016 15.157 11.6085C16.307 12.3752 16.9487 13.4252 16.9487 14.5668C16.9487 15.7085 16.3154 16.7668 15.157 17.5418C13.907 18.3752 12.2737 18.7918 10.6404 18.7918ZM6.81536 12.6585C6.01536 13.1918 5.58203 13.8752 5.58203 14.5918C5.58203 15.3002 6.0237 15.9835 6.81536 16.5085C8.89036 17.9002 12.3904 17.9002 14.4654 16.5085C15.2654 15.9752 15.6987 15.2918 15.6987 14.5752C15.6987 13.8668 15.257 13.1835 14.4654 12.6585C12.3904 11.2752 8.89036 11.2752 6.81536 12.6585Z" fill="#929AA7"/>
</svg>
