<svg width="22" height="22" viewBox="0 0 22 22" fill="none" xmlns="http://www.w3.org/2000/svg">
<path d="M11.1464 10.6513C11.1189 10.6513 11.1005 10.6513 11.073 10.6513C11.0272 10.6422 10.963 10.6422 10.908 10.6513C8.24969 10.5688 6.24219 8.47884 6.24219 5.90301C6.24219 3.28134 8.37802 1.14551 10.9997 1.14551C13.6214 1.14551 15.7572 3.28134 15.7572 5.90301C15.748 8.47884 13.7314 10.5688 11.1739 10.6513C11.1647 10.6513 11.1555 10.6513 11.1464 10.6513ZM10.9997 2.52051C9.13885 2.52051 7.61719 4.04217 7.61719 5.90301C7.61719 7.73634 9.04719 9.21217 10.8714 9.27634C10.9172 9.26717 11.0455 9.26717 11.1647 9.27634C12.9614 9.19384 14.373 7.71801 14.3822 5.90301C14.3822 4.04217 12.8605 2.52051 10.9997 2.52051Z" fill="#929AA7"/>
<path d="M11.154 20.6712C9.35734 20.6712 7.55151 20.2128 6.18568 19.2962C4.91151 18.4528 4.21484 17.2978 4.21484 16.042C4.21484 14.7862 4.91151 13.622 6.18568 12.7695C8.93568 10.9453 13.3907 10.9453 16.1223 12.7695C17.3873 13.6128 18.0932 14.7678 18.0932 16.0237C18.0932 17.2795 17.3965 18.4437 16.1223 19.2962C14.7473 20.2128 12.9507 20.6712 11.154 20.6712ZM6.94651 13.9245C6.06651 14.5112 5.58984 15.2628 5.58984 16.0512C5.58984 16.8303 6.07568 17.582 6.94651 18.1595C9.22901 19.6903 13.079 19.6903 15.3615 18.1595C16.2415 17.5728 16.7182 16.8212 16.7182 16.0328C16.7182 15.2537 16.2323 14.502 15.3615 13.9245C13.079 12.4028 9.22901 12.4028 6.94651 13.9245Z" fill="#929AA7"/>
</svg>
