<svg width="638" height="817" viewBox="0 0 638 817" fill="none" xmlns="http://www.w3.org/2000/svg">
<g opacity="0.38" clip-path="url(#clip0_2_3077)">
<path d="M-217.253 240.35L-217.056 240.561C-198.477 239.055 -179.797 237.149 -161.177 235.249C-99.7299 228.977 -38.9571 222.773 15.2744 231.272C140.318 250.869 230.605 348.705 214.331 704.167L214.546 704.398C230.871 348.589 140.49 250.674 15.3012 231.049C-38.9584 222.547 -99.7464 228.75 -161.209 235.024C-179.882 236.931 -198.619 238.842 -217.253 240.35Z" fill="url(#paint0_linear_2_3077)"/>
<path d="M-223.939 233.165L-223.736 233.383C-201.17 232.523 -178.326 231.001 -155.512 229.484C-92.181 225.261 -29.0511 221.052 27.3487 231.077C159.615 254.593 254.908 356.467 229.193 720.149L229.402 720.374C255.177 356.355 159.792 254.391 27.3801 230.855C-29.05 220.824 -92.1904 225.034 -155.536 229.259C-178.41 230.779 -201.315 232.306 -223.939 233.165Z" fill="url(#paint1_linear_2_3077)"/>
<path d="M-231.813 224.702L-231.602 224.929C-205.057 225.027 -177.93 224.124 -150.741 223.22C-85.1707 221.037 -19.2441 218.844 39.6885 230.644C179.151 258.568 279.464 364.945 243.38 735.386L243.587 735.608C279.737 364.837 179.329 258.375 39.7259 230.421C-19.2325 218.618 -85.172 220.811 -150.758 222.993C-178.012 223.901 -205.208 224.806 -231.813 224.702Z" fill="url(#paint2_linear_2_3077)"/>
<path d="M-240.884 214.954L-240.666 215.188C-210.231 216.539 -178.721 216.478 -146.999 216.424C-78.7322 216.298 -9.42468 216.17 52.5027 230.063C199.007 262.924 304.223 374.322 256.853 749.865L257.056 750.084C304.502 374.222 199.188 262.735 52.5447 229.842C-9.40727 215.947 -78.7265 216.073 -147.008 216.198C-178.808 216.257 -210.384 216.313 -240.884 214.954Z" fill="url(#paint3_linear_2_3077)"/>
<path d="M-242.759 204.582L-242.983 204.791C-211.234 207.181 -178.044 208.102 -144.433 209.032C-72.9017 211.013 0.537291 213.045 66.0428 229.431C219.302 267.768 329.13 384.769 269.59 763.553L269.786 763.764C329.414 384.672 219.487 267.589 66.0917 229.213C0.559398 212.82 -72.8924 210.787 -144.431 208.803C-177.963 207.882 -211.076 206.964 -242.759 204.582Z" fill="url(#paint4_linear_2_3077)"/>
<path d="M-232.266 194.82L-232.487 195.025C-203.756 197.646 -173.736 199.301 -143.221 200.986C-67.7433 205.157 10.7964 209.499 80.6011 228.903C240.192 273.27 354.121 396.448 281.564 776.422L281.755 776.628C354.406 396.36 240.381 273.091 80.6617 228.685C10.8337 209.276 -67.7177 204.934 -143.203 200.756C-173.651 199.083 -203.592 197.427 -232.266 194.82Z" fill="url(#paint5_linear_2_3077)"/>
<path d="M-221.751 185.034L-221.969 185.238C-196.726 187.915 -170.422 190.044 -143.6 192.212C-63.3759 198.698 21.4842 205.562 96.4612 228.656C261.782 279.579 379.059 409.493 292.724 788.425L292.917 788.632C379.356 409.414 261.986 279.408 96.5277 228.44C21.5263 205.337 -63.3467 198.474 -143.582 191.986C-170.33 189.823 -196.563 187.703 -221.751 185.034Z" fill="url(#paint6_linear_2_3077)"/>
<path d="M-211.201 175.218L-211.416 175.418C-190.25 177.969 -168.289 180.261 -145.86 182.603C-59.9968 191.57 32.7339 201.246 113.931 228.901C284.235 286.901 403.828 424.013 303.058 799.52L303.24 799.716C404.125 423.939 284.437 286.738 114.001 228.691C32.7793 201.03 -59.9618 191.347 -145.84 182.383C-168.199 180.048 -190.093 177.762 -211.201 175.218Z" fill="url(#paint7_linear_2_3077)"/>
<path d="M-200.633 165.384L-200.845 165.581C-184.486 167.78 -167.622 169.899 -150.41 172.064C-57.9436 183.685 44.6162 196.575 133.272 229.904C307.625 295.452 428.195 440.088 312.485 809.652L312.664 809.844C428.494 440.019 307.83 295.289 133.348 229.696C44.6673 196.359 -57.9065 183.466 -150.385 171.844C-167.531 169.688 -184.33 167.577 -200.633 165.384Z" fill="url(#paint8_linear_2_3077)"/>
<path d="M-190.044 155.531L-190.255 155.727C-179.645 157.296 -168.824 158.871 -157.792 160.453C-57.7842 174.902 57.1492 191.507 154.726 231.953C330.799 304.932 450.321 455.576 323.668 811.264L324.033 810.925C450.494 455.38 330.92 304.741 154.812 231.746C57.2048 191.296 -57.7411 174.682 -157.762 160.231C-168.715 158.647 -179.476 157.08 -190.044 155.531Z" fill="url(#paint9_linear_2_3077)"/>
<path d="M-179.432 145.656L-179.64 145.85L-168.791 147.591C-60.4638 164.96 70.2503 185.923 178.495 235.355C351.925 314.557 467.663 466.921 341.375 794.787L341.757 794.432C467.834 466.712 352.038 314.362 178.582 235.149C70.3065 185.699 -60.4183 164.739 -168.762 147.367L-179.432 145.656Z" fill="url(#paint10_linear_2_3077)"/>
<path d="M-168.802 135.765L-169.009 135.957C-54.456 155.783 88.902 182.191 204.693 240.446C373.574 325.412 483.769 478.169 360.374 777.109L360.77 776.741C483.923 477.947 373.684 325.216 204.788 240.244C89.0295 182.009 -54.2662 155.597 -168.802 135.765Z" fill="url(#paint11_linear_2_3077)"/>
<path d="M-158.157 125.86L-158.361 126.05C-38.8444 148.167 113.454 181.077 233.364 247.552C395.561 337.468 498.468 488.838 380.894 758.015L381.313 757.625C498.621 488.611 395.674 337.273 233.478 247.365C113.587 180.899 -38.6463 147.983 -158.157 125.86Z" fill="url(#paint12_linear_2_3077)"/>
<path d="M-147.497 115.941L-147.699 116.129C-10.7628 143.06 170.984 188.791 297.994 279.068C430.659 373.381 503.556 516.327 403.222 737.239L403.653 736.838C503.707 516.078 430.775 373.192 298.117 278.891C171.12 188.614 -10.5579 142.881 -147.497 115.941Z" fill="url(#paint13_linear_2_3077)"/>
<path d="M-136.821 106.007L-137.022 106.193C1.16161 134.911 186.765 187.4 315.946 281.752C446.482 377.094 519.376 515.186 427.462 714.683L427.896 714.279C519.512 514.937 446.595 376.894 316.077 281.574C186.914 187.236 1.37092 134.739 -136.821 106.007Z" fill="url(#paint14_linear_2_3077)"/>
<path d="M-126.131 96.0597L-126.332 96.2462C12.7575 126.658 201.65 185.73 332.966 283.736C384.162 321.947 426.606 366.073 453.928 416.725C481.249 467.376 493.445 524.544 484.16 588.851C479.526 620.946 469.539 654.819 453.41 690.545L453.84 690.145C469.845 654.584 479.769 620.856 484.384 588.892C493.677 524.533 481.466 467.312 454.125 416.623C426.784 365.933 384.32 321.786 333.097 283.557C201.799 185.564 12.9644 126.489 -126.131 96.0597Z" fill="url(#paint15_linear_2_3077)"/>
<path d="M-115.427 86.1005L-115.625 86.2848C31.3631 119.961 235.908 190.651 369.57 301.223C415.418 339.151 452.925 381.771 476.906 429.198C500.886 476.625 511.337 528.848 503.091 586.004C499.417 611.484 492.014 637.945 480.441 665.386L480.851 665.006C492.319 637.715 499.656 611.397 503.32 586.05C511.578 528.849 501.114 476.574 477.115 429.112C453.117 381.649 415.592 339.011 369.72 301.063C236.064 190.494 31.579 119.801 -115.427 86.1005Z" fill="url(#paint16_linear_2_3077)"/>
<path d="M-104.71 76.1275L-104.908 76.3118C0.987048 101.649 137.719 148.72 256.692 215.318C345.587 265.074 424.558 325.72 473.322 396.317C522.086 466.915 540.632 547.439 508.709 636.991C508.332 638.047 507.948 639.103 507.559 640.159L507.924 639.82C508.259 638.904 508.59 637.991 508.918 637.081C540.868 547.449 522.297 466.844 473.503 396.199C424.708 325.555 345.717 264.901 256.793 215.129C137.862 148.554 1.1787 101.479 -104.71 76.1275Z" fill="url(#paint17_linear_2_3077)"/>
<path d="M-93.9849 66.1475L-94.1806 66.3295C18.0634 94.2869 166.036 149.466 291.167 225.416C376.364 277.135 450.965 338.475 496.479 407.402C538.452 470.967 555.682 540.988 533.67 615.87L533.995 615.567C555.867 540.759 538.608 470.801 496.668 407.284C451.131 338.323 376.508 276.963 291.285 225.234C166.185 149.297 18.2619 94.1226 -93.9849 66.1475Z" fill="url(#paint18_linear_2_3077)"/>
<path d="M-83.2475 56.156L-83.4419 56.3369C35.2963 87.0424 195.19 151.264 326.133 237.076C407.378 290.304 477.479 351.85 519.677 418.841C554.327 473.846 570.157 532.527 557.914 593.304L558.199 593.038C570.337 532.313 554.488 473.685 519.867 418.723C477.65 351.702 407.529 290.139 326.259 236.885C195.347 151.104 35.5015 86.8878 -83.2475 56.156Z" fill="url(#paint19_linear_2_3077)"/>
<path d="M-72.5013 46.1573L-72.6944 46.3371C52.5465 79.8826 224.849 154.037 361.097 249.957C438.258 304.278 503.853 365.576 542.773 430.422C570.438 476.514 584.618 524.396 579.903 572.836L580.153 572.604C584.794 524.198 570.606 476.355 542.964 430.311C504.026 365.433 438.41 304.112 361.224 249.774C225.013 153.885 52.7562 79.7328 -72.5013 46.1573Z" fill="url(#paint20_linear_2_3077)"/>
<path d="M199.029 687.722C206.817 341.393 121.307 247.136 3.29522 230.974C-49.0788 223.799 -107.842 231.998 -167.689 240.347C-182.333 242.391 -197.041 244.44 -211.737 246.278L-211.546 246.483C-196.903 244.649 -182.244 242.607 -167.657 240.564C-107.823 232.218 -49.0739 224.021 3.26629 231.192C121.153 247.353 206.558 341.511 198.809 687.486L199.029 687.722Z" fill="url(#paint21_linear_2_3077)"/>
</g>
<defs>
<linearGradient id="paint0_linear_2_3077" x1="161.41" y1="320.921" x2="-1.35353" y2="472.374" gradientUnits="userSpaceOnUse">
<stop stop-color="white"/>
<stop offset="1" stop-color="white" stop-opacity="0"/>
</linearGradient>
<linearGradient id="paint1_linear_2_3077" x1="173.255" y1="318.096" x2="2.72889" y2="476.771" gradientUnits="userSpaceOnUse">
<stop stop-color="white"/>
<stop offset="1" stop-color="white" stop-opacity="0"/>
</linearGradient>
<linearGradient id="paint2_linear_2_3077" x1="184.179" y1="314.253" x2="5.88673" y2="480.155" gradientUnits="userSpaceOnUse">
<stop stop-color="white"/>
<stop offset="1" stop-color="white" stop-opacity="0"/>
</linearGradient>
<linearGradient id="paint3_linear_2_3077" x1="194.149" y1="309.386" x2="8.08587" y2="482.519" gradientUnits="userSpaceOnUse">
<stop stop-color="white"/>
<stop offset="1" stop-color="white" stop-opacity="0"/>
</linearGradient>
<linearGradient id="paint4_linear_2_3077" x1="205.267" y1="305.745" x2="11.4294" y2="486.112" gradientUnits="userSpaceOnUse">
<stop stop-color="white"/>
<stop offset="1" stop-color="white" stop-opacity="0"/>
</linearGradient>
<linearGradient id="paint5_linear_2_3077" x1="219.038" y1="304.932" x2="17.4143" y2="492.544" gradientUnits="userSpaceOnUse">
<stop stop-color="white"/>
<stop offset="1" stop-color="white" stop-opacity="0"/>
</linearGradient>
<linearGradient id="paint6_linear_2_3077" x1="232.412" y1="303.684" x2="22.9931" y2="498.549" gradientUnits="userSpaceOnUse">
<stop stop-color="white"/>
<stop offset="1" stop-color="white" stop-opacity="0"/>
</linearGradient>
<linearGradient id="paint7_linear_2_3077" x1="245.371" y1="301.97" x2="28.1567" y2="504.088" gradientUnits="userSpaceOnUse">
<stop stop-color="white"/>
<stop offset="1" stop-color="white" stop-opacity="0"/>
</linearGradient>
<linearGradient id="paint8_linear_2_3077" x1="257.88" y1="299.778" x2="32.8687" y2="509.152" gradientUnits="userSpaceOnUse">
<stop stop-color="white"/>
<stop offset="1" stop-color="white" stop-opacity="0"/>
</linearGradient>
<linearGradient id="paint9_linear_2_3077" x1="268.587" y1="295.645" x2="40.9656" y2="507.447" gradientUnits="userSpaceOnUse">
<stop stop-color="white"/>
<stop offset="1" stop-color="white" stop-opacity="0"/>
</linearGradient>
<linearGradient id="paint10_linear_2_3077" x1="276.4" y1="288.375" x2="58.6727" y2="490.971" gradientUnits="userSpaceOnUse">
<stop stop-color="white"/>
<stop offset="1" stop-color="white" stop-opacity="0"/>
</linearGradient>
<linearGradient id="paint11_linear_2_3077" x1="284.219" y1="281.099" x2="77.6711" y2="473.293" gradientUnits="userSpaceOnUse">
<stop stop-color="white"/>
<stop offset="1" stop-color="white" stop-opacity="0"/>
</linearGradient>
<linearGradient id="paint12_linear_2_3077" x1="292.047" y1="273.816" x2="98.1915" y2="454.199" gradientUnits="userSpaceOnUse">
<stop stop-color="white"/>
<stop offset="1" stop-color="white" stop-opacity="0"/>
</linearGradient>
<linearGradient id="paint13_linear_2_3077" x1="299.882" y1="266.526" x2="120.52" y2="433.423" gradientUnits="userSpaceOnUse">
<stop stop-color="white"/>
<stop offset="1" stop-color="white" stop-opacity="0"/>
</linearGradient>
<linearGradient id="paint14_linear_2_3077" x1="307.726" y1="259.226" x2="144.76" y2="410.866" gradientUnits="userSpaceOnUse">
<stop stop-color="white"/>
<stop offset="1" stop-color="white" stop-opacity="0"/>
</linearGradient>
<linearGradient id="paint15_linear_2_3077" x1="315.577" y1="251.924" x2="156.372" y2="400.064" gradientUnits="userSpaceOnUse">
<stop stop-color="white"/>
<stop offset="1" stop-color="white" stop-opacity="0"/>
</linearGradient>
<linearGradient id="paint16_linear_2_3077" x1="323.434" y1="244.61" x2="167.077" y2="390.101" gradientUnits="userSpaceOnUse">
<stop stop-color="white"/>
<stop offset="1" stop-color="white" stop-opacity="0"/>
</linearGradient>
<linearGradient id="paint17_linear_2_3077" x1="331.299" y1="237.294" x2="177.796" y2="380.13" gradientUnits="userSpaceOnUse">
<stop stop-color="white"/>
<stop offset="1" stop-color="white" stop-opacity="0"/>
</linearGradient>
<linearGradient id="paint18_linear_2_3077" x1="339.182" y1="229.962" x2="188.525" y2="370.149" gradientUnits="userSpaceOnUse">
<stop stop-color="white"/>
<stop offset="1" stop-color="white" stop-opacity="0"/>
</linearGradient>
<linearGradient id="paint19_linear_2_3077" x1="347.069" y1="222.62" x2="199.262" y2="360.155" gradientUnits="userSpaceOnUse">
<stop stop-color="white"/>
<stop offset="1" stop-color="white" stop-opacity="0"/>
</linearGradient>
<linearGradient id="paint20_linear_2_3077" x1="354.966" y1="215.27" x2="210.008" y2="350.153" gradientUnits="userSpaceOnUse">
<stop stop-color="white"/>
<stop offset="1" stop-color="white" stop-opacity="0"/>
</linearGradient>
<linearGradient id="paint21_linear_2_3077" x1="148.651" y1="322.767" x2="-6.35393" y2="467" gradientUnits="userSpaceOnUse">
<stop stop-color="white"/>
<stop offset="1" stop-color="white" stop-opacity="0"/>
</linearGradient>
<clipPath id="clip0_2_3077">
<rect width="830" height="436" fill="white" transform="matrix(-0.681211 -0.732087 -0.732087 0.681211 637.672 519.089)"/>
</clipPath>
</defs>
</svg>
