<svg width="260" height="906" viewBox="0 0 260 906" fill="none" xmlns="http://www.w3.org/2000/svg">
<g opacity="0.38" clip-path="url(#clip0_2_3100)">
<path d="M855.367 329.411L855.171 329.622C836.592 328.116 817.911 326.21 799.291 324.309C737.844 318.038 677.072 311.833 622.84 320.332C497.796 339.93 407.51 437.766 423.784 793.227L423.569 793.458C407.244 437.65 497.625 339.734 622.813 320.11C677.073 311.608 737.861 317.81 799.323 324.085C817.996 325.992 836.733 327.903 855.367 329.411Z" fill="url(#paint0_linear_2_3100)"/>
<path d="M862.054 322.225L861.85 322.444C839.284 321.584 816.44 320.062 793.626 318.544C730.295 314.322 667.165 310.112 610.766 320.138C478.499 343.654 383.206 445.528 408.921 809.209L408.712 809.434C382.937 445.415 478.322 343.451 610.734 319.916C667.164 309.885 730.305 314.095 793.65 318.319C816.524 319.84 839.429 321.367 862.054 322.225Z" fill="url(#paint1_linear_2_3100)"/>
<path d="M869.927 313.763L869.716 313.99C843.171 314.087 816.044 313.184 788.855 312.281C723.285 310.097 657.358 307.904 598.425 319.704C458.963 347.628 358.651 454.005 394.734 824.446L394.527 824.669C358.377 453.898 458.785 347.435 598.388 319.481C657.347 307.678 723.286 309.872 788.872 312.054C816.126 312.962 843.322 313.867 869.927 313.763Z" fill="url(#paint2_linear_2_3100)"/>
<path d="M878.999 304.014L878.781 304.249C848.346 305.599 816.835 305.538 785.114 305.485C716.847 305.359 647.539 305.23 585.612 319.123C439.107 351.984 333.891 463.383 381.262 838.925L381.058 839.144C333.613 463.283 438.927 351.796 585.57 318.903C647.522 305.008 716.841 305.133 785.122 305.259C816.923 305.318 848.499 305.374 878.999 304.014Z" fill="url(#paint3_linear_2_3100)"/>
<path d="M880.873 293.643L881.098 293.852C849.348 296.242 816.158 297.162 782.547 298.092C711.016 300.074 637.577 302.105 572.071 318.492C418.812 356.829 308.984 473.829 368.524 852.614L368.329 852.824C308.7 473.733 418.627 356.65 572.023 318.274C637.555 301.881 711.007 299.847 782.545 297.863C816.078 296.942 849.19 296.025 880.873 293.643Z" fill="url(#paint4_linear_2_3100)"/>
<path d="M870.381 283.88L870.602 284.086C841.87 286.706 811.85 288.361 781.335 290.047C705.858 294.218 627.318 298.56 557.513 317.963C397.922 362.331 283.994 485.509 356.55 865.483L356.359 865.688C283.709 485.42 397.733 362.151 557.453 317.746C627.281 298.337 705.832 293.994 781.317 289.817C811.765 288.143 841.706 286.488 870.381 283.88Z" fill="url(#paint5_linear_2_3100)"/>
<path d="M859.865 274.095L860.084 274.298C834.84 276.976 808.536 279.104 781.715 281.273C701.49 287.759 616.63 294.623 541.653 317.717C376.332 368.639 259.055 498.553 345.39 877.485L345.197 877.693C258.759 498.475 376.129 368.468 541.587 317.501C616.588 294.398 701.461 287.534 781.696 281.047C808.445 278.883 834.678 276.763 859.865 274.095Z" fill="url(#paint6_linear_2_3100)"/>
<path d="M849.316 264.279L849.531 264.479C828.364 267.03 806.403 269.322 783.974 271.664C698.111 280.631 605.381 290.307 524.183 317.962C353.879 375.961 234.286 513.073 335.057 888.581L334.875 888.777C233.99 513 353.677 375.798 524.113 317.752C605.335 290.09 698.076 280.408 783.954 271.444C806.313 269.109 828.208 266.823 849.316 264.279Z" fill="url(#paint7_linear_2_3100)"/>
<path d="M838.747 254.444L838.96 254.642C822.6 256.84 805.736 258.96 788.524 261.125C696.058 272.745 593.498 285.635 504.843 318.964C330.489 384.512 209.919 529.149 325.629 898.712L325.451 898.904C209.621 529.079 330.285 384.349 504.766 318.757C593.447 285.42 696.021 272.527 788.5 260.905C805.645 258.748 822.445 256.637 838.747 254.444Z" fill="url(#paint8_linear_2_3100)"/>
<path d="M828.159 244.592L828.369 244.787C817.759 246.357 806.938 247.932 795.906 249.513C695.899 263.962 580.965 280.567 483.388 321.014C307.315 393.993 187.794 544.637 314.446 900.324L314.082 899.985C187.62 544.441 307.194 393.801 483.302 320.807C580.909 280.357 695.855 263.743 795.877 249.291C806.83 247.707 817.59 246.141 828.159 244.592Z" fill="url(#paint9_linear_2_3100)"/>
<path d="M817.546 234.717L817.754 234.91L806.906 236.652C698.578 254.021 567.864 274.984 459.62 324.415C286.189 403.618 170.451 555.981 296.739 883.848L296.358 883.493C170.28 555.773 286.077 403.422 459.532 324.209C567.808 274.759 698.533 253.799 806.876 236.428L817.546 234.717Z" fill="url(#paint10_linear_2_3100)"/>
<path d="M806.917 224.826L807.123 225.018C692.571 244.843 549.213 271.251 433.422 329.506C264.541 414.472 154.345 567.23 277.741 866.17L277.345 865.801C154.192 567.007 264.43 414.277 433.327 329.304C549.085 271.069 692.381 244.658 806.917 224.826Z" fill="url(#paint11_linear_2_3100)"/>
<path d="M796.271 214.92L796.475 215.11C676.959 237.228 524.661 270.138 404.75 336.613C242.553 426.529 139.647 577.898 257.22 847.075L256.801 846.685C139.493 577.671 242.44 426.333 404.637 336.425C524.528 269.959 676.761 237.044 796.271 214.92Z" fill="url(#paint12_linear_2_3100)"/>
<path d="M785.611 205.002L785.813 205.19C648.877 232.121 467.131 277.851 340.12 368.129C207.455 462.442 134.559 605.388 234.892 826.3L234.461 825.898C134.408 605.139 207.339 462.252 339.997 367.951C466.994 277.674 648.672 231.941 785.611 205.002Z" fill="url(#paint13_linear_2_3100)"/>
<path d="M774.936 195.067L775.136 195.254C636.953 223.971 451.35 276.46 322.168 370.813C191.632 466.155 118.738 604.246 210.652 803.743L210.218 803.34C118.603 603.997 191.52 465.955 322.037 370.634C451.201 276.297 636.743 223.799 774.936 195.067Z" fill="url(#paint14_linear_2_3100)"/>
<path d="M764.245 185.12L764.446 185.307C625.356 215.719 436.464 274.791 305.148 372.796C253.952 411.008 211.508 455.133 184.186 505.785C156.865 556.437 144.669 613.605 153.954 677.912C158.588 710.007 168.575 743.88 184.704 779.606L184.274 779.205C168.269 743.644 158.345 709.917 153.73 677.953C144.437 613.593 156.648 556.373 183.989 505.683C211.33 454.993 253.794 410.847 305.017 372.618C436.315 274.625 625.15 215.549 764.245 185.12Z" fill="url(#paint15_linear_2_3100)"/>
<path d="M753.542 175.161L753.74 175.345C606.751 209.021 402.207 279.711 268.544 390.284C222.697 428.211 185.19 470.831 161.209 518.258C137.228 565.685 126.777 617.909 135.023 675.065C138.698 700.544 146.1 727.006 157.673 754.447L157.264 754.066C145.795 726.776 138.459 700.458 134.795 675.111C126.537 617.909 137.001 565.635 160.999 518.172C184.997 470.709 222.523 428.072 268.394 390.124C402.051 279.555 606.535 208.861 753.542 175.161Z" fill="url(#paint16_linear_2_3100)"/>
<path d="M742.825 165.188L743.023 165.372C637.127 190.709 500.395 237.781 381.422 304.378C292.527 354.134 213.556 414.78 164.792 485.378C116.028 555.976 97.4823 636.5 129.405 726.052C129.782 727.108 130.166 728.164 130.555 729.22L130.191 728.881C129.856 727.964 129.524 727.051 129.197 726.142C97.2465 636.509 115.817 555.905 164.612 485.26C213.406 414.615 292.398 353.962 381.322 304.189C500.253 237.615 636.936 190.54 742.825 165.188Z" fill="url(#paint17_linear_2_3100)"/>
<path d="M732.099 155.208L732.295 155.39C620.051 183.347 472.078 238.526 346.948 314.477C261.75 366.195 187.149 427.536 141.636 496.462C99.6621 560.028 82.4326 630.049 104.445 704.931L104.119 704.628C82.247 629.82 99.5058 559.862 141.446 496.345C186.983 427.383 261.607 366.023 346.83 314.294C471.929 238.358 619.852 183.183 732.099 155.208Z" fill="url(#paint18_linear_2_3100)"/>
<path d="M721.362 145.217L721.556 145.397C602.818 176.103 442.924 240.325 311.981 326.136C230.736 379.364 160.635 440.91 118.437 507.901C83.7872 562.906 67.9565 621.588 80.2004 682.364L79.9149 682.099C67.7774 621.374 83.6264 562.745 118.247 507.784C160.464 440.763 230.585 379.199 311.855 325.946C442.767 240.165 602.612 175.948 721.362 145.217Z" fill="url(#paint19_linear_2_3100)"/>
<path d="M710.615 135.218L710.808 135.398C585.568 168.943 413.265 243.098 277.017 339.018C199.856 393.339 134.261 454.636 95.3412 519.483C67.6758 565.574 53.4959 613.457 58.2109 661.897L57.9607 661.664C53.3197 613.259 67.5081 565.416 95.1505 519.371C134.088 454.494 199.704 393.173 276.89 338.834C413.101 242.945 585.358 168.793 710.615 135.218Z" fill="url(#paint20_linear_2_3100)"/>
</g>
<defs>
<linearGradient id="paint0_linear_2_3100" x1="476.704" y1="409.982" x2="639.468" y2="561.434" gradientUnits="userSpaceOnUse">
<stop stop-color="white"/>
<stop offset="1" stop-color="white" stop-opacity="0"/>
</linearGradient>
<linearGradient id="paint1_linear_2_3100" x1="464.859" y1="407.156" x2="635.385" y2="565.832" gradientUnits="userSpaceOnUse">
<stop stop-color="white"/>
<stop offset="1" stop-color="white" stop-opacity="0"/>
</linearGradient>
<linearGradient id="paint2_linear_2_3100" x1="453.935" y1="403.314" x2="632.227" y2="569.216" gradientUnits="userSpaceOnUse">
<stop stop-color="white"/>
<stop offset="1" stop-color="white" stop-opacity="0"/>
</linearGradient>
<linearGradient id="paint3_linear_2_3100" x1="443.966" y1="398.447" x2="630.029" y2="571.579" gradientUnits="userSpaceOnUse">
<stop stop-color="white"/>
<stop offset="1" stop-color="white" stop-opacity="0"/>
</linearGradient>
<linearGradient id="paint4_linear_2_3100" x1="432.847" y1="394.805" x2="626.685" y2="575.173" gradientUnits="userSpaceOnUse">
<stop stop-color="white"/>
<stop offset="1" stop-color="white" stop-opacity="0"/>
</linearGradient>
<linearGradient id="paint5_linear_2_3100" x1="419.076" y1="393.993" x2="620.7" y2="581.605" gradientUnits="userSpaceOnUse">
<stop stop-color="white"/>
<stop offset="1" stop-color="white" stop-opacity="0"/>
</linearGradient>
<linearGradient id="paint6_linear_2_3100" x1="405.703" y1="392.744" x2="615.121" y2="587.609" gradientUnits="userSpaceOnUse">
<stop stop-color="white"/>
<stop offset="1" stop-color="white" stop-opacity="0"/>
</linearGradient>
<linearGradient id="paint7_linear_2_3100" x1="392.744" y1="391.03" x2="609.958" y2="593.149" gradientUnits="userSpaceOnUse">
<stop stop-color="white"/>
<stop offset="1" stop-color="white" stop-opacity="0"/>
</linearGradient>
<linearGradient id="paint8_linear_2_3100" x1="380.234" y1="388.838" x2="605.246" y2="598.213" gradientUnits="userSpaceOnUse">
<stop stop-color="white"/>
<stop offset="1" stop-color="white" stop-opacity="0"/>
</linearGradient>
<linearGradient id="paint9_linear_2_3100" x1="369.527" y1="384.705" x2="597.149" y2="596.508" gradientUnits="userSpaceOnUse">
<stop stop-color="white"/>
<stop offset="1" stop-color="white" stop-opacity="0"/>
</linearGradient>
<linearGradient id="paint10_linear_2_3100" x1="361.715" y1="377.436" x2="579.442" y2="580.032" gradientUnits="userSpaceOnUse">
<stop stop-color="white"/>
<stop offset="1" stop-color="white" stop-opacity="0"/>
</linearGradient>
<linearGradient id="paint11_linear_2_3100" x1="353.895" y1="370.159" x2="560.443" y2="562.353" gradientUnits="userSpaceOnUse">
<stop stop-color="white"/>
<stop offset="1" stop-color="white" stop-opacity="0"/>
</linearGradient>
<linearGradient id="paint12_linear_2_3100" x1="346.068" y1="362.876" x2="539.923" y2="543.259" gradientUnits="userSpaceOnUse">
<stop stop-color="white"/>
<stop offset="1" stop-color="white" stop-opacity="0"/>
</linearGradient>
<linearGradient id="paint13_linear_2_3100" x1="338.232" y1="355.586" x2="517.595" y2="522.483" gradientUnits="userSpaceOnUse">
<stop stop-color="white"/>
<stop offset="1" stop-color="white" stop-opacity="0"/>
</linearGradient>
<linearGradient id="paint14_linear_2_3100" x1="330.388" y1="348.286" x2="493.355" y2="499.927" gradientUnits="userSpaceOnUse">
<stop stop-color="white"/>
<stop offset="1" stop-color="white" stop-opacity="0"/>
</linearGradient>
<linearGradient id="paint15_linear_2_3100" x1="322.537" y1="340.985" x2="481.742" y2="489.125" gradientUnits="userSpaceOnUse">
<stop stop-color="white"/>
<stop offset="1" stop-color="white" stop-opacity="0"/>
</linearGradient>
<linearGradient id="paint16_linear_2_3100" x1="314.681" y1="333.671" x2="471.037" y2="479.162" gradientUnits="userSpaceOnUse">
<stop stop-color="white"/>
<stop offset="1" stop-color="white" stop-opacity="0"/>
</linearGradient>
<linearGradient id="paint17_linear_2_3100" x1="306.815" y1="326.355" x2="460.319" y2="469.19" gradientUnits="userSpaceOnUse">
<stop stop-color="white"/>
<stop offset="1" stop-color="white" stop-opacity="0"/>
</linearGradient>
<linearGradient id="paint18_linear_2_3100" x1="298.932" y1="319.023" x2="449.589" y2="459.21" gradientUnits="userSpaceOnUse">
<stop stop-color="white"/>
<stop offset="1" stop-color="white" stop-opacity="0"/>
</linearGradient>
<linearGradient id="paint19_linear_2_3100" x1="291.045" y1="311.681" x2="438.852" y2="449.216" gradientUnits="userSpaceOnUse">
<stop stop-color="white"/>
<stop offset="1" stop-color="white" stop-opacity="0"/>
</linearGradient>
<linearGradient id="paint20_linear_2_3100" x1="283.148" y1="304.33" x2="428.106" y2="439.214" gradientUnits="userSpaceOnUse">
<stop stop-color="white"/>
<stop offset="1" stop-color="white" stop-opacity="0"/>
</linearGradient>
<clipPath id="clip0_2_3100">
<rect width="830" height="436" fill="white" transform="translate(0.442383 608.149) rotate(-47.0617)"/>
</clipPath>
</defs>
</svg>
