<svg width="70" height="70" viewBox="0 0 70 70" fill="none" xmlns="http://www.w3.org/2000/svg">
<path fill-rule="evenodd" clip-rule="evenodd" d="M14.0552 62.4173C19.8625 66.86 27.1245 69.5 34.9994 69.5C54.0532 69.5 69.4994 54.0538 69.4994 35C69.4994 27.1049 66.8458 19.8256 62.3824 14.011C61.9292 13.4205 61.0832 13.3093 60.4928 13.7625C59.9024 14.2157 59.7911 15.0617 60.2443 15.6521C64.359 21.0125 66.8041 27.7189 66.8041 35C66.8041 52.5652 52.5647 66.8047 34.9994 66.8047C27.7369 66.8047 21.0464 64.3721 15.6929 60.2766C15.1018 59.8244 14.256 59.937 13.8037 60.5281C13.3515 61.1192 13.4641 61.9651 14.0552 62.4173Z" fill="#264871"/>
<path fill-rule="evenodd" clip-rule="evenodd" d="M56.2446 9.51222C56.698 8.92194 56.587 8.0759 55.9967 7.62254C50.1809 3.15577 42.8989 0.499884 35.0004 0.499884C27.6034 0.499884 20.7464 2.82934 15.1283 6.79466C14.5202 7.22385 14.3752 8.06472 14.8044 8.6728C15.2335 9.28088 16.0744 9.4259 16.6825 8.99671C21.8607 5.34185 28.1779 3.19519 35.0004 3.19519C42.2847 3.19519 48.9935 5.64234 54.3549 9.76014C54.9452 10.2135 55.7912 10.1025 56.2446 9.51222Z" fill="#264871"/>
<path fill-rule="evenodd" clip-rule="evenodd" d="M9.45984 56.1811C10.0512 55.7292 10.1643 54.8834 9.71241 54.292C5.62347 48.941 3.19531 42.256 3.19531 34.9999C3.19531 28.4395 5.18008 22.3469 8.58165 17.2846C8.99677 16.6668 8.83247 15.8295 8.21469 15.4144C7.59692 14.9993 6.75959 15.1636 6.34448 15.7813C2.65361 21.2742 0.5 27.8875 0.5 34.9999C0.5 42.8677 3.13525 50.1239 7.57078 55.9285C8.02269 56.5199 8.86845 56.633 9.45984 56.1811Z" fill="#264871"/>
<path fill-rule="evenodd" clip-rule="evenodd" d="M29.64 66.3812C31.0832 68.2124 32.8843 69.5 35 69.5C37.9335 69.5 40.2637 67.0571 41.9868 63.863C43.7669 60.5632 45.1856 55.961 46.1226 50.5951C46.2506 49.8619 45.76 49.1638 45.0269 49.0357C44.2937 48.9077 43.5955 49.3983 43.4675 50.1315C42.5579 55.3399 41.2067 59.6321 39.6146 62.5833C37.9656 65.6402 36.3216 66.8047 35 66.8047C34.0641 66.8047 32.958 66.2369 31.757 64.7129C30.5679 63.2041 29.4381 60.9373 28.4644 58.0161C26.5216 52.1877 25.2969 44.0502 25.2969 35C25.2969 32.7226 25.3744 30.5007 25.5219 28.3569C25.5729 27.6144 25.0124 26.971 24.2698 26.92C23.5273 26.8689 22.884 27.4294 22.8329 28.172C22.6812 30.3781 22.6016 32.6617 22.6016 35C22.6016 44.2593 23.8506 52.698 25.9074 58.8684C26.9334 61.9466 28.1849 64.5348 29.64 66.3812Z" fill="#264871"/>
<path fill-rule="evenodd" clip-rule="evenodd" d="M45.7297 43.0827C46.4722 43.1338 47.1156 42.5733 47.1667 41.8307C47.3185 39.6238 47.3983 37.3391 47.3983 34.9998C47.3983 25.7405 46.1492 17.3019 44.0924 11.1314C43.0663 8.05324 41.8149 5.46499 40.3597 3.6186C38.9166 1.78741 37.1155 0.499832 34.9998 0.499832C32.0612 0.499832 29.7277 2.95122 28.0031 6.15518C26.2213 9.46556 24.8021 14.0823 23.8668 19.4641C23.7394 20.1974 24.2305 20.8952 24.9638 21.0226C25.6971 21.1501 26.3949 20.6589 26.5223 19.9256C27.4302 14.7014 28.7822 10.3945 30.3765 7.43267C32.028 4.36443 33.6756 3.19514 34.9998 3.19514C35.9357 3.19514 37.0418 3.76292 38.2428 5.28693C39.4319 6.79574 40.5617 9.06253 41.5354 11.9838C43.4782 17.8121 44.703 25.9496 44.703 34.9998C44.703 37.2781 44.6253 39.5011 44.4777 41.6457C44.4266 42.3882 44.9871 43.0316 45.7297 43.0827Z" fill="#264871"/>
<path fill-rule="evenodd" clip-rule="evenodd" d="M2.88086 46.0508C2.88086 46.7951 3.48423 47.3984 4.22852 47.3984H41.1087C41.853 47.3984 42.4564 46.7951 42.4564 46.0508C42.4564 45.3065 41.853 44.7031 41.1087 44.7031H4.22852C3.48423 44.7031 2.88086 45.3065 2.88086 46.0508Z" fill="#264871"/>
<path fill-rule="evenodd" clip-rule="evenodd" d="M28.0371 23.9492C28.0371 24.6935 28.6405 25.2969 29.3848 25.2969H65.7715C66.5158 25.2969 67.1191 24.6935 67.1191 23.9492C67.1191 23.2049 66.5158 22.6016 65.7715 22.6016H29.3848C28.6405 22.6016 28.0371 23.2049 28.0371 23.9492Z" fill="#264871"/>
<path fill-rule="evenodd" clip-rule="evenodd" d="M2.88086 23.9492C2.88086 24.6935 3.48423 25.2969 4.22851 25.2969H20.1752C20.9195 25.2969 21.5228 24.6935 21.5228 23.9492C21.5228 23.2049 20.9195 22.6016 20.1752 22.6016H4.22851C3.48423 22.6016 2.88086 23.2049 2.88086 23.9492Z" fill="#264871"/>
<path fill-rule="evenodd" clip-rule="evenodd" d="M45.4209 49.0156C43.7835 49.0156 42.4561 47.6882 42.4561 46.0508C42.4561 44.4134 43.7835 43.0859 45.4209 43.0859C47.0583 43.0859 48.3857 44.4134 48.3857 46.0508C48.3857 47.6882 47.0583 49.0156 45.4209 49.0156ZM39.7607 46.0508C39.7607 49.1768 42.2949 51.7109 45.4209 51.7109C48.5469 51.7109 51.081 49.1768 51.081 46.0508C51.081 42.9248 48.5469 40.3906 45.4209 40.3906C42.2949 40.3906 39.7607 42.9248 39.7607 46.0508Z" fill="#264871"/>
<path fill-rule="evenodd" clip-rule="evenodd" d="M24.4873 26.9141C22.8499 26.9141 21.5225 25.5866 21.5225 23.9492C21.5225 22.3118 22.8499 20.9844 24.4873 20.9844C26.1247 20.9844 27.4521 22.3118 27.4521 23.9492C27.4521 25.5866 26.1247 26.9141 24.4873 26.9141ZM18.8271 23.9492C18.8271 27.0752 21.3613 29.6094 24.4873 29.6094C27.6133 29.6094 30.1475 27.0752 30.1475 23.9492C30.1475 20.8232 27.6133 18.2891 24.4873 18.2891C21.3613 18.2891 18.8271 20.8232 18.8271 23.9492Z" fill="#264871"/>
<path fill-rule="evenodd" clip-rule="evenodd" d="M58.4502 14.5156C56.8128 14.5156 55.4854 13.1882 55.4854 11.5508C55.4854 9.91336 56.8128 8.58594 58.4502 8.58594C60.0876 8.58594 61.415 9.91336 61.415 11.5508C61.415 13.1882 60.0876 14.5156 58.4502 14.5156ZM52.79 11.5508C52.79 14.6768 55.3242 17.2109 58.4502 17.2109C61.5762 17.2109 64.1103 14.6768 64.1103 11.5508C64.1103 8.42478 61.5762 5.89063 58.4502 5.89063C55.3242 5.89063 52.79 8.42478 52.79 11.5508Z" fill="#264871"/>
<path fill-rule="evenodd" clip-rule="evenodd" d="M11.5508 61.4141C9.91336 61.4141 8.58594 60.0866 8.58594 58.4492C8.58594 56.8118 9.91336 55.4844 11.5508 55.4844C13.1882 55.4844 14.5156 56.8118 14.5156 58.4492C14.5156 60.0866 13.1882 61.4141 11.5508 61.4141ZM5.89062 58.4492C5.89062 61.5752 8.42478 64.1094 11.5508 64.1094C14.6768 64.1094 17.2109 61.5752 17.2109 58.4492C17.2109 55.3232 14.6768 52.7891 11.5508 52.7891C8.42478 52.7891 5.89062 55.3232 5.89062 58.4492Z" fill="#264871"/>
<path fill-rule="evenodd" clip-rule="evenodd" d="M48.3857 46.0508C48.3857 46.7951 48.9891 47.3984 49.7334 47.3984H65.771C66.5153 47.3984 67.1187 46.7951 67.1187 46.0508C67.1187 45.3065 66.5153 44.7031 65.771 44.7031H49.7334C48.9891 44.7031 48.3857 45.3065 48.3857 46.0508Z" fill="#264871"/>
</svg>
