<svg width="70" height="70" viewBox="0 0 70 70" fill="none" xmlns="http://www.w3.org/2000/svg">
<path fill-rule="evenodd" clip-rule="evenodd" d="M13.6792 62.4825C19.5395 66.9658 26.8678 69.6299 34.8146 69.6299C54.0424 69.6299 69.6296 54.0427 69.6296 34.8149C69.6296 26.8478 66.9517 19.502 62.4475 13.6342C61.9902 13.0384 61.1365 12.9262 60.5407 13.3835C59.9449 13.8409 59.8326 14.6946 60.29 15.2904C64.4422 20.6997 66.9097 27.4673 66.9097 34.8149C66.9097 52.5405 52.5402 66.91 34.8146 66.91C27.4858 66.91 20.7342 64.4552 15.3319 60.3223C14.7353 59.8659 13.8818 59.9795 13.4254 60.5761C12.969 61.1726 13.0827 62.0262 13.6792 62.4825Z" fill="black"/>
<path fill-rule="evenodd" clip-rule="evenodd" d="M56.2531 9.09457C56.7106 8.4989 56.5986 7.64514 56.0029 7.18764C50.1341 2.68009 42.7856 -4.57764e-05 34.815 -4.57764e-05C27.3504 -4.57764e-05 20.4308 2.35067 14.7614 6.35219C14.1478 6.7853 14.0014 7.63385 14.4345 8.24749C14.8676 8.86112 15.7162 9.00746 16.3298 8.57435C21.5553 4.88612 27.9302 2.71987 34.815 2.71987C42.1657 2.71987 48.9358 5.18936 54.3462 9.34475C54.9418 9.80225 55.7956 9.69024 56.2531 9.09457Z" fill="black"/>
<path fill-rule="evenodd" clip-rule="evenodd" d="M9.04164 56.1897C9.63844 55.7336 9.75254 54.8802 9.29651 54.2834C5.17024 48.8835 2.71992 42.1374 2.71992 34.8151C2.71992 28.1948 4.72281 22.0466 8.15543 16.9381C8.57434 16.3146 8.40854 15.4697 7.78513 15.0508C7.16171 14.6319 6.31674 14.7977 5.89784 15.4211C2.17327 20.9641 0 27.6378 0 34.8151C0 42.7548 2.65931 50.0772 7.13533 55.9348C7.59137 56.5316 8.44485 56.6457 9.04164 56.1897Z" fill="black"/>
<path fill-rule="evenodd" clip-rule="evenodd" d="M29.406 66.4826C30.8623 68.3306 32.6798 69.6299 34.8148 69.6299C37.7751 69.6299 40.1266 67.1647 41.8654 63.9414C43.6618 60.6115 45.0934 55.9673 46.039 50.5524C46.1682 49.8125 45.6731 49.108 44.9332 48.9788C44.1934 48.8496 43.4888 49.3446 43.3596 50.0845C42.4418 55.3405 41.0782 59.6719 39.4716 62.6501C37.8075 65.7348 36.1485 66.91 34.8148 66.91C33.8704 66.91 32.7542 66.337 31.5422 64.7991C30.3423 63.2765 29.2022 60.989 28.2196 58.0411C26.2591 52.1596 25.0231 43.9478 25.0231 34.8149C25.0231 32.5167 25.1014 30.2746 25.2502 28.1112C25.3017 27.3619 24.7361 26.7126 23.9867 26.6611C23.2374 26.6096 22.5882 27.1752 22.5367 27.9245C22.3836 30.1508 22.3032 32.4553 22.3032 34.8149C22.3032 44.1588 23.5636 52.6745 25.6392 58.9012C26.6746 62.0075 27.9375 64.6194 29.406 66.4826Z" fill="black"/>
<path fill-rule="evenodd" clip-rule="evenodd" d="M45.6428 42.9717C46.3921 43.0233 47.0414 42.4576 47.0929 41.7083C47.2462 39.4812 47.3267 37.1757 47.3267 34.815C47.3267 25.4712 46.0662 16.9555 43.9906 10.7287C42.9552 7.62244 41.6923 5.01057 40.2239 3.14732C38.7676 1.29941 36.95 8.01086e-05 34.815 8.01086e-05C31.8495 8.01086e-05 29.4948 2.47385 27.7545 5.70705C25.9563 9.04766 24.5242 13.7066 23.5804 19.1375C23.4518 19.8775 23.9474 20.5817 24.6874 20.7103C25.4274 20.8389 26.1315 20.3432 26.2601 19.6032C27.1763 14.3313 28.5407 9.98505 30.1495 6.99621C31.8161 3.89996 33.4787 2.72 34.815 2.72C35.7594 2.72 36.8756 3.29296 38.0876 4.83088C39.2875 6.35346 40.4276 8.64095 41.4103 11.5888C43.3708 17.4704 44.6067 25.6822 44.6067 34.815C44.6067 37.1141 44.5284 39.3574 44.3794 41.5216C44.3279 42.2709 44.8935 42.9201 45.6428 42.9717Z" fill="black"/>
<path fill-rule="evenodd" clip-rule="evenodd" d="M2.40234 45.9667C2.40234 46.7178 3.01122 47.3267 3.7623 47.3267H40.9792C41.7303 47.3267 42.3392 46.7178 42.3392 45.9667C42.3392 45.2156 41.7303 44.6067 40.9792 44.6067H3.7623C3.01122 44.6067 2.40234 45.2156 2.40234 45.9667Z" fill="black"/>
<path fill-rule="evenodd" clip-rule="evenodd" d="M27.7886 23.6634C27.7886 24.4144 28.3974 25.0233 29.1485 25.0233H65.8674C66.6185 25.0233 67.2274 24.4144 67.2274 23.6634C67.2274 22.9123 66.6185 22.3034 65.8674 22.3034H29.1485C28.3974 22.3034 27.7886 22.9123 27.7886 23.6634Z" fill="black"/>
<path fill-rule="evenodd" clip-rule="evenodd" d="M2.40234 23.6634C2.40234 24.4144 3.01122 25.0233 3.7623 25.0233H19.8546C20.6056 25.0233 21.2145 24.4144 21.2145 23.6634C21.2145 22.9123 20.6056 22.3034 19.8546 22.3034H3.7623C3.01122 22.3034 2.40234 22.9123 2.40234 23.6634Z" fill="black"/>
<path fill-rule="evenodd" clip-rule="evenodd" d="M45.3315 48.9587C43.6791 48.9587 42.3395 47.6191 42.3395 45.9668C42.3395 44.3144 43.6791 42.9749 45.3315 42.9749C46.9838 42.9749 48.3234 44.3144 48.3234 45.9668C48.3234 47.6191 46.9838 48.9587 45.3315 48.9587ZM39.6196 45.9668C39.6196 49.1213 42.1769 51.6786 45.3315 51.6786C48.486 51.6786 51.0433 49.1213 51.0433 45.9668C51.0433 42.8122 48.486 40.2549 45.3315 40.2549C42.1769 40.2549 39.6196 42.8122 39.6196 45.9668Z" fill="black"/>
<path fill-rule="evenodd" clip-rule="evenodd" d="M24.2065 26.6553C22.5541 26.6553 21.2145 25.3158 21.2145 23.6634C21.2145 22.011 22.5541 20.6715 24.2065 20.6715C25.8588 20.6715 27.1984 22.011 27.1984 23.6634C27.1984 25.3158 25.8588 26.6553 24.2065 26.6553ZM18.4946 23.6634C18.4946 26.818 21.0519 29.3752 24.2065 29.3752C27.361 29.3752 29.9183 26.818 29.9183 23.6634C29.9183 20.5089 27.361 17.9516 24.2065 17.9516C21.0519 17.9516 18.4946 20.5089 18.4946 23.6634Z" fill="black"/>
<path fill-rule="evenodd" clip-rule="evenodd" d="M58.4789 14.1436C56.8265 14.1436 55.487 12.8041 55.487 11.1517C55.487 9.49933 56.8265 8.15979 58.4789 8.15979C60.1313 8.15979 61.4708 9.49933 61.4708 11.1517C61.4708 12.8041 60.1313 14.1436 58.4789 14.1436ZM52.7671 11.1517C52.7671 14.3062 55.3244 16.8635 58.4789 16.8635C61.6335 16.8635 64.1907 14.3062 64.1907 11.1517C64.1907 7.99716 61.6335 5.43987 58.4789 5.43987C55.3244 5.43987 52.7671 7.99716 52.7671 11.1517Z" fill="black"/>
<path fill-rule="evenodd" clip-rule="evenodd" d="M11.1518 61.4703C9.4994 61.4703 8.15986 60.1307 8.15986 58.4784C8.15986 56.826 9.4994 55.4864 11.1518 55.4864C12.8041 55.4864 14.1437 56.826 14.1437 58.4784C14.1437 60.1307 12.8041 61.4703 11.1518 61.4703ZM5.43994 58.4784C5.43994 61.6329 7.99723 64.1902 11.1518 64.1902C14.3063 64.1902 16.8636 61.6329 16.8636 58.4784C16.8636 55.3238 14.3063 52.7665 11.1518 52.7665C7.99723 52.7665 5.43994 55.3238 5.43994 58.4784Z" fill="black"/>
<path fill-rule="evenodd" clip-rule="evenodd" d="M48.3232 45.9667C48.3232 46.7178 48.9321 47.3267 49.6832 47.3267H65.8673C66.6183 47.3267 67.2272 46.7178 67.2272 45.9667C67.2272 45.2156 66.6183 44.6067 65.8673 44.6067H49.6832C48.9321 44.6067 48.3232 45.2156 48.3232 45.9667Z" fill="black"/>
</svg>
