<svg width="24" height="46" viewBox="0 0 24 46" fill="none" xmlns="http://www.w3.org/2000/svg">
<path d="M12.3869 0.707031C12.6899 2.39035 13.1444 5.43715 13.1444 5.43715C14.2049 6.58181 15.3496 7.72646 16.3932 8.88795C17.4537 10.0326 18.4637 11.2109 19.5073 12.3724L19.844 12.7596L19.743 13.3824C19.541 14.6954 19.3727 16.0084 19.1875 17.3382C19.0192 18.6512 18.7835 19.9642 18.4637 21.2435C18.1439 22.5228 17.7567 23.8021 17.3359 25.0646C16.915 26.3271 16.4269 27.5896 15.8714 28.8016L14.7941 28.6164C14.7436 27.2193 14.8109 25.9063 14.9119 24.5596C15.0129 23.2298 15.1812 21.9 15.3832 20.587C15.6021 19.274 15.905 17.9947 16.2754 16.6985C16.5952 15.5707 16.9319 14.4597 17.218 13.3151C17.2517 13.1636 15.7872 11.3119 14.9119 10.0158C14.0366 8.73645 13.0771 7.4403 12.2017 6.14415L12.0839 5.95898V5.82431C12.0671 4.12416 12.0671 2.40718 12.0839 0.707031H12.3869Z" fill="#F4B382"/>
<path d="M7.33691 38.7334L7.53891 40.4672L11.9997 41.595L16.4605 40.4672L16.6625 38.7334H7.33691Z" fill="#302F2F"/>
<path d="M11.9151 0.740954C11.932 2.4411 11.932 4.15809 11.9151 5.85824V5.9929L11.7973 6.17807C10.9388 7.47422 9.97932 8.77038 9.104 10.0497C8.34651 11.1607 7.57218 12.2548 6.79785 13.3658C6.68002 13.5342 7.37018 15.4363 7.74051 16.7156C8.11084 17.995 8.41384 19.2911 8.63267 20.6041C8.83467 21.9171 9.003 23.2301 9.104 24.5767C9.205 25.9234 9.27233 27.2364 9.22183 28.6335L8.14451 28.8187C7.58901 27.6067 7.10085 26.3274 6.68002 25.0817C6.25919 23.8192 5.87203 22.5399 5.5522 21.2606C5.23237 19.9813 4.9967 18.6683 4.82837 17.3553C4.66004 16.0423 4.49171 14.7125 4.27288 13.3995L4.17188 12.7767L4.50854 12.3895C5.5522 11.228 6.56219 10.0497 7.62268 8.90504C8.66634 7.74355 9.79416 6.5989 10.8546 5.45424C10.8546 5.45424 11.3091 2.40744 11.6121 0.724121L11.9151 0.740954ZM9.407 39.8781C11.73 41.1742 14.3391 42.605 15.0124 42.7229C17.8404 43.2279 19.9109 44.625 19.6921 45.1974C19.6921 45.1974 13.0261 44.2379 8.12767 43.2447C6.22552 42.8744 7.60585 38.8849 9.407 39.8781Z" fill="#F4B382"/>
<path d="M9.40662 39.8782C7.60547 38.8682 6.00632 37.9592 5.61915 37.8246C4.20517 37.2859 0.872195 36.0403 0.131535 38.5147C-0.609125 40.9724 1.91585 41.4605 3.717 42.1507C4.59233 42.4874 6.22515 42.8745 8.11046 43.2617C8.39663 42.0665 8.81746 40.9387 9.40662 39.8782Z" fill="#3D3C3C"/>
<path d="M14.5919 39.8783C12.269 41.1744 9.65983 42.6053 8.9865 42.7231C6.15853 43.2281 4.08804 44.6252 4.30688 45.1976C4.30688 45.1976 10.9728 44.2381 15.8713 43.2449C17.7734 42.8746 16.3931 38.8851 14.5919 39.8783Z" fill="#F4B382"/>
<path d="M14.5918 39.8782C16.3929 38.8682 17.9921 37.9592 18.3793 37.8246C19.7933 37.2859 23.1262 36.0403 23.8669 38.5147C24.6075 40.9724 22.0826 41.4605 20.2814 42.1507C19.4061 42.4874 17.7733 42.8745 15.888 43.2617C15.6018 42.0665 15.181 40.9387 14.5918 39.8782Z" fill="#3D3C3C"/>
<path d="M16.4605 27.4048C16.7803 25.469 15.198 21.9508 15.198 21.9508C14.4405 21.8498 13.6494 21.8162 13.0602 21.8162H10.9392C10.3332 21.8162 9.55889 21.8498 8.8014 21.9508C8.8014 21.9508 7.21908 25.4858 7.53891 27.4048C7.84191 29.2059 8.3469 31.8487 7.33691 38.7335H16.6625C15.6525 31.8487 16.1575 29.2059 16.4605 27.4048Z" fill="#F73555"/>
<path d="M13.4122 19.8804H10.5674C11.005 21.227 10.601 21.833 10.601 21.833C10.601 21.833 10.6852 22.7083 11.9982 22.7083C13.2944 22.7083 13.3785 21.833 13.3785 21.833C13.3785 21.833 12.9745 21.2102 13.4122 19.8804Z" fill="#E2A379"/>
<path d="M14.9102 15.9586C14.9102 12.5751 13.5972 11.8008 11.9981 11.8008C10.3821 11.8008 9.08594 12.5751 9.08594 15.9586C9.08594 17.1032 9.28794 17.9954 9.59093 18.6855C10.2643 20.2005 11.4258 20.7392 11.9981 20.7392C12.5704 20.7392 13.7319 20.2005 14.4052 18.6855C14.7082 17.9954 14.9102 17.1032 14.9102 15.9586Z" fill="#F4B382"/>
<path d="M12.8235 19.3586C12.8235 19.3586 12.4531 19.5437 11.9987 19.5437C11.5442 19.5437 11.1738 19.3586 11.1738 19.3586C11.1738 19.3081 11.4432 19.0051 11.6115 18.9882C11.7125 18.9714 11.9987 19.0724 11.9987 19.0724C11.9987 19.0724 12.268 18.9714 12.3858 18.9882C12.5541 19.0051 12.8235 19.3586 12.8235 19.3586Z" fill="#D6876B"/>
<path d="M12.8235 19.3585C12.8235 19.3585 12.4531 19.6952 11.9987 19.6952C11.5442 19.6952 11.1738 19.3585 11.1738 19.3585C11.1738 19.3585 11.258 19.2575 11.7462 19.2239C11.8303 19.2239 11.9313 19.2912 11.9987 19.2912C12.066 19.2912 12.1501 19.2239 12.2175 19.2239C12.7225 19.2575 12.8235 19.3585 12.8235 19.3585Z" fill="#CC785E"/>
<path d="M11.9996 13.0126C12.8456 13.0126 13.5314 12.5453 13.5314 11.9689C13.5314 11.3926 12.8456 10.9253 11.9996 10.9253C11.1536 10.9253 10.4678 11.3926 10.4678 11.9689C10.4678 12.5453 11.1536 13.0126 11.9996 13.0126Z" fill="#4C230C"/>
<path d="M15.0287 16.1098C15.0287 12.7264 14.1029 11.8174 11.9987 11.8174C9.89458 11.8174 8.96875 12.7432 8.96875 16.1098C8.96875 16.1098 13.4632 15.1335 13.4632 13.9047C13.4632 15.1335 15.0287 16.1098 15.0287 16.1098Z" fill="#602F0F"/>
<path d="M8.80091 17.1535C8.95241 18.0793 9.15441 18.113 9.44057 18.0625L9.13757 16.0593C8.85141 16.1098 8.63258 16.2277 8.80091 17.1535ZM14.8609 16.0593L14.5579 18.0625C14.844 18.113 15.0292 18.0625 15.1975 17.1535C15.3658 16.2277 15.147 16.1098 14.8609 16.0593Z" fill="#F4B382"/>
<path d="M9.30639 16.2445C9.28956 16.1435 9.28956 16.0594 9.28956 15.9752C9.28956 15.8742 9.30639 15.8069 9.30639 15.8069L8.96973 15.9416V16.093C8.96973 16.093 9.00339 16.0762 9.07073 16.0594H9.05389C9.10439 16.1435 9.15489 16.2614 9.22222 16.4465C9.22222 16.4634 9.35689 16.5644 9.30639 16.2445ZM14.693 15.9921C14.693 16.0594 14.693 16.1604 14.6762 16.2445C14.6257 16.5475 14.7603 16.4465 14.7603 16.4465C14.8108 16.2614 14.8782 16.1435 14.9287 16.0594C14.996 16.0762 15.0297 16.093 15.0297 16.093V15.9416L14.693 15.8069C14.6762 15.8237 14.693 15.8911 14.693 15.9921Z" fill="#602F0F"/>
</svg>